<?xml version="1.0" encoding="UTF-8" standalone="no"?>
<!-- Created with Inkscape (http://www.inkscape.org/) -->

<svg
   version="1.1"
   id="svg1"
   width="5000"
   height="3000"
   viewBox="0 0 5000 3000"
   sodipodi:docname="vecteezy_aesthetic-white-and-green-background-with-space-for-text_11426071-0.eps"
   xmlns:inkscape="http://www.inkscape.org/namespaces/inkscape"
   xmlns:sodipodi="http://sodipodi.sourceforge.net/DTD/sodipodi-0.dtd"
   xmlns="http://www.w3.org/2000/svg"
   xmlns:svg="http://www.w3.org/2000/svg">
  <defs
     id="defs1" />
  <sodipodi:namedview
     id="namedview1"
     pagecolor="#ffffff"
     bordercolor="#000000"
     borderopacity="0.25"
     inkscape:showpageshadow="2"
     inkscape:pageopacity="0.0"
     inkscape:pagecheckerboard="0"
     inkscape:deskcolor="#d1d1d1">
    <inkscape:page
       x="0"
       y="0"
       inkscape:label="1"
       id="page1"
       width="5000"
       height="3000"
       margin="0"
       bleed="0" />
  </sodipodi:namedview>
  <g
     id="g1"
     inkscape:groupmode="layer"
     inkscape:label="1">
    <path
       id="path1"
       d="M 0,0 H 37500 V 22500 H 0 Z"
       style="fill:#f6f6e6;fill-opacity:1;fill-rule:nonzero;stroke:none"
       transform="matrix(0.13333333,0,0,-0.13333333,0,3000)" />
    <path
       id="path2"
       d="M 620.121,13079.7 C 412.5,13078.9 205.512,13067.4 0,13046.3 V 0 H 16119.8 C 16296.6,3099.61 12275.9,2243.28 11035.6,3793.71 10179.8,4863.4 10617.3,6752.62 9465.94,7575.04 7759.77,8793.75 5949.18,6611.09 4105.51,7928.01 2772.73,8880 3916.21,12522.5 1963.59,12940.1 c -442.65,94.6 -894.21,141 -1343.469,139.6 z"
       style="fill:#9dad7f;fill-opacity:1;fill-rule:nonzero;stroke:none"
       transform="matrix(0.13333333,0,0,-0.13333333,0,3000)" />
    <path
       id="path3"
       d="m 0,22500 v -4747.5 c 915.27,39.7 1989.96,-150.7 2912.42,156.8 965.39,321.8 1732.42,1196 2802.89,1348.9 3614.1,516.4 6229.09,-1774.9 7970.79,2579.3 94.8,236.9 139,457.3 139,662.5 z"
       style="fill:#c3ceb4;fill-opacity:1;fill-rule:nonzero;stroke:none"
       transform="matrix(0.13333333,0,0,-0.13333333,0,3000)" />
    <path
       id="path4"
       d="m 7045.39,8608.48 c -152.19,-0.94 -210.08,-40.24 -290.66,-99.18 -392.66,-287.27 -34.46,-923.13 442.61,-641.06 69.03,40.86 92.97,731.14 -101.56,739.14 -17.85,0.78 -34.57,1.17 -50.39,1.1 z m 3502.21,-555.47 c -152.2,-0.9 -210.2,-40.16 -290.7,-99.18 -392.72,-287.19 -34.5,-923.01 442.5,-640.98 69.2,40.82 93.1,731.1 -101.4,739.26 -18,0.7 -34.7,0.98 -50.4,0.9 z M 8742.54,7590.2 c -152.27,-0.94 -210.16,-40.24 -290.74,-99.18 -392.7,-287.27 -34.53,-923.05 442.61,-641.02 69.11,40.82 92.97,731.09 -101.48,739.18 -17.85,0.7 -34.65,1.09 -50.39,1.02 z m -876.21,-439.34 c -152.23,-0.94 -210.08,-40.16 -290.71,-99.1 -392.65,-287.27 -34.49,-923.05 442.62,-641.02 69.03,40.82 92.97,731.06 -101.48,739.1 -17.93,0.78 -34.73,1.1 -50.43,1.02 z M 6073.44,6957.62 c -152.23,-0.9 -210.08,-40.24 -290.71,-99.18 -392.65,-287.27 -34.45,-923.01 442.62,-640.98 69.1,40.82 92.97,731.09 -101.56,739.18 -17.85,0.7 -34.57,1.06 -50.35,0.98 z m 3814.8,-143.75 c -152.26,-0.94 -210.15,-40.12 -290.78,-99.07 -392.66,-287.26 -34.41,-923.08 442.64,-641.05 69.1,40.9 93,731.09 -101.47,739.18 -17.89,0.78 -34.65,1.02 -50.39,0.94 z M 5002.97,6213.4 c -152.19,-0.94 -210.08,-40.08 -290.67,-99.06 -392.69,-287.27 -34.53,-923.09 442.58,-641.06 69.07,40.9 92.97,731.1 -101.52,739.18 -17.85,0.78 -34.57,1.06 -50.39,0.94 z m 4211.29,-309.34 c -152.23,-0.94 -210.16,-40.15 -290.71,-99.14 -392.73,-287.26 -34.53,-923.08 442.54,-641.05 69.11,40.9 93.05,731.09 -101.4,739.18 -17.93,0.78 -34.65,1.05 -50.43,1.01 z m 1827.04,-26.44 c -152.3,-0.94 -210.2,-40.16 -290.7,-99.14 -392.7,-287.23 -34.6,-923.09 442.6,-640.98 69,40.82 93,731.02 -101.5,739.18 -17.9,0.7 -34.7,1.02 -50.4,0.94 z M 7141.88,5769.26 c -152.27,-0.9 -210.16,-40.2 -290.71,-99.18 -392.73,-287.27 -34.49,-923.01 442.54,-640.98 69.1,40.82 92.97,731.02 -101.44,739.18 -17.93,0.7 -34.65,1.06 -50.39,0.98 z m 1229.96,-101.1 c -152.23,-0.93 -210.16,-40.23 -290.71,-99.18 -392.73,-287.18 -34.53,-923.04 442.54,-640.97 69.1,40.86 93.05,731.09 -101.48,739.14 -17.85,0.78 -34.65,1.09 -50.35,1.01 z m 1331.05,-673.98 c -152.3,-0.86 -210.16,-40.12 -290.7,-99.06 -392.74,-287.27 -34.53,-923.09 442.54,-641.06 69.1,40.82 93.04,731.1 -101.49,739.18 -17.85,0.78 -34.65,1.06 -50.35,0.94 z m -3968.83,-227.3 c -152.26,-0.94 -210.15,-40.24 -290.74,-99.22 -392.66,-287.27 -34.45,-923.01 442.62,-640.98 69.1,40.82 92.97,731.02 -101.49,739.18 -17.93,0.7 -34.65,1.05 -50.39,1.02 z m 1741.76,-129.73 c -152.3,-0.94 -210.2,-40.16 -290.7,-99.1 -392.74,-287.27 -34.53,-923.09 442.54,-641.06 69.1,40.86 93.04,731.1 -101.49,739.18 -17.85,0.78 -34.65,1.13 -50.35,0.98 z m 1216.13,-417.97 c -152.18,-0.98 -210.15,-40.2 -290.7,-99.18 -392.73,-287.27 -34.49,-923.05 442.54,-640.98 69.1,40.82 92.97,731.02 -101.45,739.18 -17.93,0.71 -34.64,1.06 -50.39,0.94 z M 6366.76,3663.12 c -152.19,-0.85 -210.16,-40.11 -290.71,-99.06 -392.65,-287.26 -34.49,-923.08 442.58,-641.05 69.1,40.86 93.01,731.01 -101.4,739.1 -17.93,0.78 -34.65,1.13 -50.47,0.98 z M 7765.2,3326.13 c -152.19,-0.93 -210.08,-40.11 -290.67,-99.1 -392.69,-287.23 -34.53,-923.05 442.62,-640.98 69.1,40.83 93.01,731.06 -101.49,739.18 -17.93,0.75 -34.64,0.98 -50.46,0.9 z"
       style="fill:#c3ceb4;fill-opacity:1;fill-rule:nonzero;stroke:none"
       transform="matrix(0.13333333,0,0,-0.13333333,0,3000)" />
    <path
       id="path5"
       d="m 0,19767.6 v -165.9 c 1010.04,-488.6 1972.81,-1074.7 2867.11,-1752.2 550.16,-416.8 1075.59,-868.4 1509.49,-1397.9 433.75,-529.2 775.08,-1141.4 924.26,-1803.5 131.99,-585.9 112.26,-1200.8 30.12,-1803.5 -82.19,-602.8 -225.63,-1199.3 -336.68,-1805.3 -111.06,-606.1 -189.92,-1227.74 -137.35,-1849.42 52.58,-622.26 244.1,-1247.69 632.15,-1746.4 272.7,-350.51 631.99,-624.96 1023.01,-826.92 C 6902.97,6414.69 7325,6283.52 7751.45,6193.48 8604.14,6013.36 9474.53,5994.06 10318.3,5855 12638.6,5472.62 14791.1,4143.05 16171.8,2239.45 16668.8,1554.26 17063.4,796.91 17349.1,0 h 159.7 c -291.7,828.48 -699.4,1615.9 -1215.6,2327.54 -1404.7,1936.68 -3589.9,3286.48 -5950.5,3675.51 -857.74,141.36 -1725.75,160.93 -2560.28,337.18 -417.19,88.09 -826.21,215.75 -1201.44,409.57 -375.04,193.72 -716.76,455.79 -973.52,785.79 -365.31,469.53 -550.31,1066.75 -601.05,1666.91 -50.79,600.74 25.39,1209.2 135.43,1809.7 110.07,600.7 254.18,1199.4 337.73,1812.2 83.52,612.9 105.27,1245.7 -32.34,1856.6 -155.59,690.6 -509.38,1322.4 -954.57,1865.7 -445.04,543 -979.93,1001.8 -1535,1422.3 C 2036.17,18667.2 1042.62,19268.5 0,19767.6 Z"
       style="fill:#55766f;fill-opacity:1;fill-rule:nonzero;stroke:none"
       transform="matrix(0.13333333,0,0,-0.13333333,0,3000)" />
    <path
       id="path6"
       d="M 37500,4373.24 C 36630.3,4004.38 35670.8,3543.01 34762,3391.56 32352.7,2990 29652,4279.38 27271.1,3258.98 25682.2,2578.01 24526.8,1236.72 23218.8,0 H 37500 Z"
       style="fill:#567075;fill-opacity:1;fill-rule:nonzero;stroke:none"
       transform="matrix(0.13333333,0,0,-0.13333333,0,3000)" />
    <path
       id="path7"
       d="m 32366.9,10525.5 c -28.2,-0.1 -36.2,-15.7 -19.5,-49 21.5,-58.6 26.7,-95.2 141.7,-429.6 163.4,-475.22 495.5,-2831.67 1303.8,-3075.57 756.8,-228.36 882.1,-1652.23 964.2,-1760.9 100.7,-133.28 -2111.7,1617.46 -3050.3,2033.09 -938.5,415.62 -972.7,1280.19 -1984.5,1773.59 -1011.7,493.36 -3013.4,403.67 -3013.4,403.67 0,0 611,-1333.79 1748.5,-1593.51 1137.4,-259.85 1796.7,-210.94 2349.1,-489.89 552.5,-278.9 1644.8,-747.42 1667.9,-842.18 -601.7,-73.83 -1820.2,-249.61 -2316.4,-180.98 -387.1,53.51 -1518.7,819.73 -2337.7,667.3 -819,-152.46 -1148.9,-640.27 -1751.7,-376.75 -602.8,263.51 -565.3,199.53 -565.3,199.53 0,0 923.6,-1395.94 2196.2,-1420.82 2026.9,339.8 3432.4,936.6 4858.8,805.58 903.6,-205.19 2111.2,-1272.03 2824.9,-2136.91 506.4,-613.75 874.4,-1105.43 755,-1033.36 0,0 -1013,568.71 -2240.4,-13.09 -1241.7,-588.63 -2414.2,-334.25 -2876.2,-114.45 -436.7,207.77 -584.8,198.55 -584.8,198.55 763.9,-1293.71 2781.7,-2067.03 3457.5,-586.13 1128.2,1155.24 2493.2,213.28 3605.7,-969.72 v 422.34 c -1075.9,1264.73 -2213.7,2686.56 -2480.5,3338.2 -547.9,1338.75 -71.1,1834.61 -141.7,2757.62 -78,1019.92 -2238.6,2473.99 -2510.9,2473.39 z"
       style="fill:#9dad7f;fill-opacity:1;fill-rule:nonzero;stroke:none"
       transform="matrix(0.13333333,0,0,-0.13333333,0,3000)" />
    <path
       id="path8"
       d="m 24070.8,22500 c -1143.3,-4769.9 10124.8,679.3 8664.6,-2385 -2876.2,-6035.7 4764.6,-6014.8 4764.6,-3322 v 5707 z"
       style="fill:#9dad7f;fill-opacity:1;fill-rule:nonzero;stroke:none"
       transform="matrix(0.13333333,0,0,-0.13333333,0,3000)" />
    <path
       id="path9"
       d="m 25549.5,22500 c 118.6,-734.2 392.5,-1241.2 771.6,-1596.8 442,-414.5 1018.6,-621.9 1640.5,-770.4 1243.7,-297.1 2673.4,-366.6 3663.9,-1300.9 836.1,-788.7 1228.6,-1522.3 1357.4,-2145.5 -353.3,-80.3 -675.6,-177.6 -933.2,-317.2 -407.9,-221 -664.2,-561.4 -623,-1055.7 20.4,-245.1 92.4,-429.3 204.5,-553 112.2,-123.7 264.4,-181.7 421.9,-177.4 314.8,8.7 651.6,245.1 876.5,633.5 198.8,343.3 306.7,809 224.4,1354.9 160.5,33.8 326,65.4 498.5,94.5 1211.9,204.7 2652.8,326.7 3470.8,985.6 131,105.6 256.3,226 376.7,356.5 v 226.8 c -150.1,-175.4 -306.9,-334.5 -470.8,-466.5 -756.6,-609.5 -2181,-748.3 -3401.7,-954.5 -172.7,-29.1 -339.4,-60.7 -501.7,-94.6 -137.2,657.3 -547.1,1419.6 -1397.4,2221.7 -1039.8,980.8 -2509,1045.6 -3732,1337.6 -611.4,146.1 -1160.1,347 -1572.7,734 -349.8,328.1 -606.8,792.7 -722.3,1487.4 z m 7461.6,-5961.5 c 73.6,-509.3 -31.5,-936.3 -211.3,-1246.7 -205.2,-354.3 -511.1,-552.2 -750.9,-558.7 -119.9,-3.3 -222.9,35.9 -306.5,128.1 -83.6,92.2 -147.7,242.6 -166.2,464.7 -36.7,440.1 168,707.2 544.9,911.4 236.8,128.3 546,222.2 890,301.2 z"
       style="fill:#567075;fill-opacity:1;fill-rule:nonzero;stroke:none"
       transform="matrix(0.13333333,0,0,-0.13333333,0,3000)" />
    <path
       id="path10"
       d="m 6601.05,22500 c 156.84,-573.8 370.47,-1168.1 626.61,-1754.8 -490.51,-351.2 -924.3,-998.5 -1109.77,-1685.2 -189.45,-701.5 -116.17,-1451.1 442.93,-1950.4 0.04,0 0.12,-0.1 0.2,-0.2 43.36,-38.3 93.12,-58.8 142.65,-61.3 16.53,-0.9 32.97,0.3 49.18,3.4 64.88,12.6 123.52,52 178.83,105.8 110.59,107.7 211.29,277.5 300.51,458.7 89.22,181.2 165.74,373.6 220.66,523.6 27.5,75 49.57,139.3 65.12,186.4 7.73,23.5 13.91,42.6 18.28,56.7 4.37,14.1 6.25,19.5 8.32,28.5 0,0.1 0.04,0.2 0.08,0.3 150.39,690.4 84.49,1206.1 -61.06,1778.3 C 8015.7,19095.5 8682.27,18061 9384.1,17277 c -91.05,-99.1 -146.72,-231.3 -146.72,-376.1 0,-306.8 249.73,-556.6 556.57,-556.6 h 0.03 c 306.82,0 556.62,249.8 556.62,556.6 0,306.9 -249.7,556.6 -556.62,556.6 -128.59,0 -247.14,-43.9 -341.52,-117.5 -439.84,491.6 -866.76,1085 -1255.12,1730.5 481.21,-478.1 912.86,-837 1664.03,-1068.7 0.11,0 0.19,0 0.31,-0.1 8.87,-2.6 14.45,-3.6 28.91,-6.7 14.41,-3.1 34.1,-7.2 58.39,-12 48.64,-9.6 115.52,-21.9 194.32,-34.9 157.6,-25.8 362.8,-53.7 564.4,-65 50.5,-2.8 100.6,-4.6 149.8,-5.2 v 0.1 c 147.6,-1.6 286.4,9 397.4,41.5 74,21.8 137.2,53.5 180.1,103.8 42.8,50.4 59.8,120.1 43.8,195.6 -0.1,0.2 -0.1,0.2 -0.2,0.3 -160.2,732.3 -777.1,1164.4 -1481.14,1344 -686.99,175.2 -1461.09,116.4 -2007.69,-136.2 -439.93,780.7 -819.65,1621.1 -1097.35,2440.7 443.4,-571.5 829.49,-1004.4 1580.9,-1341.7 0.12,-0.1 0.2,-0.1 0.27,-0.2 8.52,-3.7 13.91,-5.4 27.86,-10.2 13.94,-4.9 33,-11.3 56.52,-19 47.07,-15.5 111.95,-36 188.59,-58.5 153.24,-44.9 353.44,-97.7 552.19,-133.7 149.1,-26.9 296.84,-44.9 425.63,-41.6 42.96,1.1 83.78,4.5 121.87,10.7 76.13,12.5 142.7,36.2 191.35,80.9 48.7,44.8 74.2,111.9 67.5,188.8 v 0.3 c -69.3,746.4 -628.62,1250.8 -1305.33,1515.3 -659.07,257.6 -1432.78,294.5 -2005.82,112.1 -34.18,110.4 -66.18,220.1 -96.29,329.1 z m 983.17,-309.8 c 390.39,0.7 806.68,-71.4 1181.68,-218 655.74,-256.3 1181.05,-732.7 1246.6,-1437 v -0.2 c 4.7,-54.6 -9,-85.7 -37.77,-112.1 -28.79,-26.5 -77.97,-46.8 -143.56,-57.6 -32.77,-5.4 -69.29,-8.4 -108.67,-9.2 v 0.1 c -14.77,-0.4 -29.92,-0.4 -45.43,-0.2 -108.63,1.7 -234.57,17 -361.76,40 -193.83,35 -391.44,87.1 -542.61,131.4 -75.59,22.2 -139.54,42.4 -185.71,57.6 -23.04,7.5 -41.68,13.9 -54.96,18.5 -13.2,4.6 -24.26,9 -20.74,7.4 h -0.16 c -803.01,360.6 -1171.44,824.9 -1670.31,1476.5 221.33,67.9 476.33,102.4 743.4,102.8 z m -325,-1537.8 c 227.54,-788.5 381.91,-1360.7 194.65,-2220.8 0.86,4 -2.19,-7.8 -6.37,-21.3 -4.18,-13.4 -10.2,-32.1 -17.77,-55.2 -15.24,-46.1 -37.03,-109.5 -64.11,-183.5 -54.21,-147.9 -129.8,-337.8 -216.79,-514.5 -86.99,-176.7 -186.72,-340.4 -281.95,-433.1 -47.62,-46.3 -93.29,-73.8 -131.65,-81.2 -9.61,-1.9 -18.86,-2.8 -28,-2.6 l 0.07,0.1 c -27.42,0.7 -53.78,11.7 -84.6,38.8 h -0.12 c -527.54,471.4 -598.44,1177 -414.88,1856.7 176.83,654.7 593.28,1277.8 1051.52,1616.6 z m 1954.65,-1082.9 c 255.08,-2.3 514.18,-33.6 760.62,-96.5 682.21,-174 1262.01,-582.5 1413.31,-1273.6 11.3,-53.6 1.6,-86.1 -23.7,-115.8 -25.3,-29.8 -71.7,-56.1 -135.4,-74.8 -95.7,-28.1 -227.4,-38.7 -370.1,-37.6 v 0 c -47.6,0.4 -96.5,2 -145.6,4.8 -196.7,11 -399.2,38.4 -554.6,63.9 -77.7,12.8 -143.7,25 -191.41,34.4 -23.83,4.7 -43.04,8.7 -56.79,11.6 -13.6,3 -24.85,5.9 -21.41,4.8 h -0.08 c -841.33,259.5 -1263.94,675 -1838.94,1260.7 325.15,145.4 739.02,222 1164.1,218.1 z m 580.08,-2205.1 c 256.65,0 463.65,-206.9 463.65,-463.5 0,-256.6 -207,-463.6 -463.65,-463.6 -256.57,0 -463.6,207 -463.6,463.6 0,256.6 207.03,463.5 463.6,463.5 z"
       style="fill:#567075;fill-opacity:1;fill-rule:nonzero;stroke:none"
       transform="matrix(0.13333333,0,0,-0.13333333,0,3000)" />
    <path
       id="path11"
       d="m 31178.4,18892.9 c -152.2,-1 -210.1,-40.3 -290.7,-99.2 -392.7,-287.3 -34.5,-923.1 442.6,-641.1 69,40.9 93,731.2 -101.5,739.2 -17.9,0.8 -34.6,1.1 -50.4,1.1 z m 3502.2,-555.5 c -152.2,-0.9 -210.2,-40.2 -290.7,-99.2 -392.7,-287.2 -34.6,-923 442.5,-641 69.1,40.9 93.1,731.1 -101.5,739.3 -17.9,0.7 -34.6,1 -50.3,0.9 z m -1805.1,-462.8 c -152.3,-1 -210.1,-40.3 -290.7,-99.2 -392.7,-287.3 -34.6,-923.1 442.6,-641 69.1,40.8 92.9,731.1 -101.5,739.2 -17.8,0.7 -34.6,1.1 -50.4,1 z m -876.2,-439.4 c -152.2,-0.9 -210.1,-40.1 -290.7,-99.1 -392.7,-287.2 -34.5,-923 442.6,-640.9 69,40.7 93,731 -101.4,739 -18,0.8 -34.8,1.1 -50.5,1 z M 30206.4,17242 c -152.2,-0.9 -210.1,-40.2 -290.7,-99.2 -392.6,-287.2 -34.4,-923 442.6,-641 69.1,40.9 93,731.1 -101.5,739.2 -17.9,0.7 -34.6,1.1 -50.4,1 z m 3814.8,-143.8 c -152.3,-0.9 -210.1,-40 -290.7,-99 -392.7,-287.3 -34.5,-923.1 442.6,-641.1 69.1,40.9 93,731.1 -101.5,739.2 -17.8,0.8 -34.7,1 -50.4,0.9 z m -4885.3,-600.4 c -152.1,-1 -210,-40.1 -290.6,-99.1 -392.7,-287.2 -34.6,-923.1 442.6,-641 69,40.9 93,731.1 -101.6,739.1 -17.8,0.8 -34.5,1.1 -50.4,1 z m 4211.3,-309.4 c -152.2,-0.9 -210.1,-40.1 -290.7,-99.1 -392.7,-287.2 -34.5,-923.1 442.6,-641.1 69.1,40.9 93,731.1 -101.4,739.2 -18,0.8 -34.7,1.1 -50.5,1 z m 1827.1,-26.4 c -152.3,-0.9 -210.2,-40.2 -290.8,-99.1 -392.6,-287.3 -34.5,-923.1 442.6,-641 69.1,40.8 93.1,731 -101.4,739.2 -17.9,0.7 -34.7,1 -50.4,0.9 z m -3899.5,-108.3 c -152.2,-1 -210.1,-40.3 -290.7,-99.3 -392.7,-287.2 -34.4,-923 442.6,-640.9 69.1,40.8 93,731 -101.5,739.2 -17.9,0.7 -34.6,1 -50.4,1 z m 1230,-101.2 c -152.2,-0.9 -210.1,-40.2 -290.7,-99.1 -392.7,-287.2 -34.5,-923.1 442.5,-641 69.1,40.8 93.1,731.1 -101.4,739.1 -17.9,0.8 -34.7,1.1 -50.4,1 z m 1331.1,-673.9 c -152.3,-0.9 -210.2,-40.1 -290.7,-99.1 -392.8,-287.3 -34.5,-923.1 442.5,-641.1 69.1,40.9 93,731.1 -101.4,739.2 -17.9,0.8 -34.7,1.1 -50.4,1 z M 29867,15051.3 c -152.2,-1 -210.1,-40.3 -290.7,-99.2 -392.7,-287.3 -34.5,-923.1 442.6,-641 69.1,40.8 93,731 -101.5,739.1 -17.9,0.7 -34.6,1.1 -50.4,1.1 z m 1741.8,-129.8 c -152.3,-0.9 -210.2,-40.1 -290.7,-99.1 -392.7,-287.2 -34.5,-923.1 442.5,-641 69.1,40.8 93.1,731.1 -101.5,739.2 -17.8,0.7 -34.6,1.1 -50.3,0.9 z m 1216.1,-417.9 c -152.2,-1 -210.1,-40.2 -290.6,-99.2 -392.8,-287.2 -34.6,-923.1 442.5,-641 69.1,40.8 93,731 -101.5,739.2 -17.9,0.7 -34.6,1 -50.4,0.9 z m -2325.2,-556.1 c -152.2,-0.9 -210.1,-40.1 -290.6,-99.1 -392.7,-287.2 -34.6,-923 442.5,-641 69.1,40.8 93.1,731 -101.4,739.1 -17.9,0.8 -34.6,1.2 -50.5,1 z m 1398.5,-337 c -152.2,-0.9 -210.1,-40.1 -290.7,-99.1 -392.7,-287.2 -34.5,-923 442.6,-641 69.1,40.9 93.1,731.1 -101.5,739.2 -17.9,0.8 -34.6,1 -50.4,1 z"
       style="fill:#c3ceb4;fill-opacity:1;fill-rule:nonzero;stroke:none"
       transform="matrix(0.13333333,0,0,-0.13333333,0,3000)" />
  </g>
</svg>
