<?xml version="1.0" encoding="utf-8"?>
<svg version="1.1" id="svg1" width="6000" height="4000" viewBox="0 0 6000 4000" xmlns="http://www.w3.org/2000/svg" xmlns:bx="https://boxy-svg.com"><defs id="defs1"><bx:export><bx:file format="svg" path="Unbetitelt.svg"/></bx:export></defs><g id="g1"><g id="group-R5"><path id="path2" d="M 0.428 -10203.527 L 44961.188 -10432.419 L 44999.83 29999.739 L 0.43 29999.739 L 0.428 -10203.527 Z" style="fill:#eae3d9;fill-opacity:1;fill-rule:nonzero;stroke:none" transform="matrix(0.13333333,0,0,-0.13333333,0,4000)"/><path id="path3" d="M 0.308594,29999.8 V 19356 C 1520.16,19802.3 3668.28,20911.4 4303.48,23651.4 c 1015.5,4380.6 3020.82,276.7 4682.57,1387.5 1661.85,1110.8 1458.95,4414.4 4402.85,2495.9 2943.8,-1918.4 1990.4,-6476 6065.8,-5055.8 2822.9,983.8 4946.6,4468.3 3270.7,7520.8 z" style="fill:#bac4a2;fill-opacity:1;fill-rule:nonzero;stroke:none" transform="matrix(0.13333333,0,0,-0.13333333,0,4000)"/><path id="path4" d="M 0.057 4000 L 0.057 5360.47 L 2175.05 5360.47 C 2100.05 5176.28 1713.69 5012.23 1472.57 5047.68 C 1123.82 5098.93 872.417 5168.79 856.323 4894.71 C 840.229 4620.64 380.349 4740.7 131.365 4313.1 C 73.557 4213.83 31.213 4106.42 0.057 4000 Z" style="fill:#bac4a2;fill-opacity:1;fill-rule:nonzero;stroke:none"/><path id="path5" d="M 1016.81 4291.38 L 1011.28 4293.76 C 1011.23 4293.79 1011.18 4293.84 1011.08 4293.86 C 972.636 4310.65 941.563 4328.73 916.568 4347.5 C 916.229 4347.64 915.921 4347.84 915.667 4348.1 C 846.511 4400.37 824.5 4457.81 822.912 4506.65 C 821.14 4561.19 844.317 4604.69 852.781 4618.68 C 787.636 4704.76 710.807 4769.85 628.661 4818.82 C 574.536 4851.08 518.156 4876.29 461.235 4895.86 C 462.432 4886.78 464.391 4877.41 466.973 4867.81 C 572.005 4846.69 613.86 4777.68 628.251 4714.74 C 642.683 4651.64 630.584 4594.03 630.584 4594.03 L 629.245 4587.57 L 623.245 4590.5 C 489.531 4656.5 447.828 4724.8 440.672 4777.42 C 435.021 4819 451.057 4850.14 458.036 4861.39 C 454.396 4874.38 451.765 4887.14 450.484 4899.48 C 329.303 4939.61 206.459 4954.62 99.402 4957.41 C 100 4953.74 100.651 4950.08 101.307 4946.4 C 104.021 4945.29 118.755 4938.87 145.131 4918.96 C 174.292 4896.94 217.385 4858.64 273.547 4793.33 C 330.792 4726.76 350.292 4626.92 355.969 4543.79 C 361.64 4460.67 353.229 4393.93 353.229 4393.93 L 352.328 4386.59 L 345.817 4390 C 224.303 4453.39 134.016 4518.19 87.645 4604.51 C 59.12 4657.61 47.579 4718.58 55.453 4791.62 C 55.453 4791.65 55.453 4791.66 55.453 4791.68 C 60.251 4836.22 72.349 4885.23 92.193 4939.68 C 91.083 4945.66 89.943 4951.67 88.932 4957.61 C 57.661 4958.21 27.969 4957.69 0 4956.58 L 0 4966.97 C 48.145 4968.89 101.62 4968.85 158.541 4965.06 C 158.568 4965.2 158.604 4965.33 158.64 4965.46 C 164.584 4981.74 174.973 4998.89 188.615 5016.57 C 185.333 5026.33 179.864 5047.3 181.323 5075.11 C 183.38 5114.14 199.063 5167.03 252.375 5222.34 C 359.943 5333.94 551.891 5300.42 551.891 5300.42 L 557.729 5299.42 L 556.131 5294.46 C 556.036 5293.96 555.869 5293.47 555.631 5293.01 C 547.281 5266.9 537.661 5243.19 527.104 5221.6 C 527.088 5221.56 527.068 5221.53 527.052 5221.5 C 527.041 5221.47 527.068 5221.42 527.052 5221.39 C 526.973 5221.22 526.869 5221.05 526.749 5220.89 C 476.208 5117.99 403.708 5064.17 339.427 5036.51 C 261.391 5002.94 195.145 5007.53 195.145 5007.53 L 194.749 5007.58 C 183.213 4992.3 174.385 4977.68 169.115 4964.28 C 225.984 4960.04 285.901 4952.07 346.724 4938.69 C 346.953 4938.78 347.188 4938.84 347.427 4938.89 C 401.167 4939.59 433.959 4946.86 469.484 4961.22 C 472.052 4962.26 474.625 4963.36 477.235 4964.48 L 477.536 4965.28 C 525.844 5096.36 615.88 5133.16 692.869 5135.96 C 769.855 5138.76 834.459 5108.57 834.459 5108.57 L 834.959 5108.37 C 834.973 5108.36 834.995 5108.34 835.011 5108.32 L 840.229 5105.94 L 836.459 5100.98 C 836.443 5100.95 836.427 5100.92 836.407 5100.88 C 728.88 4958.8 639.771 4922.36 577.047 4922.6 C 527.193 4922.8 494.541 4946.24 483.203 4955.88 C 479.896 4954.45 476.604 4953.07 473.333 4951.75 C 445.349 4940.45 418.364 4933.28 382.645 4930.26 C 407.125 4924.01 431.693 4916.88 456.177 4908.7 C 456.593 4908.59 456.995 4908.42 457.369 4908.2 C 517.297 4888.1 576.787 4861.83 633.792 4827.85 C 634.088 4827.65 634.391 4827.45 634.688 4827.25 L 634.74 4827.25 C 635.771 4826.75 638.203 4825.88 642.964 4824.41 C 652.229 4821.54 670.552 4816.47 705.745 4807.87 C 724.724 4837.62 747.667 4855.01 771.792 4863.53 C 772.151 4863.8 772.579 4863.97 773.031 4864.03 C 773.093 4864.03 773.161 4864.03 773.229 4864.03 C 776.031 4865.03 778.88 4865.85 781.697 4866.56 C 810.26 4873.78 839.645 4869.59 865.984 4861.13 C 918.661 4844.21 959.979 4809.71 959.979 4809.71 L 964.479 4805.89 L 960.552 4802.32 C 960.281 4802.02 959.979 4801.75 959.651 4801.52 C 924.079 4769.06 890.172 4752.39 859.448 4745.81 C 828.584 4739.2 800.943 4742.72 777.959 4750.56 C 737.235 4764.46 710.901 4791.3 705.407 4797.28 C 689.323 4801.2 676.771 4804.42 666.803 4807.05 C 737.339 4760.34 803.276 4700.94 860.432 4625.61 C 920.927 4626.31 961.989 4605.83 988.434 4574.71 C 1007.73 4552 1019.26 4523.93 1025.8 4494.46 C 1025.83 4494.43 1025.86 4494.39 1025.9 4494.36 C 1025.93 4494.2 1025.95 4494.03 1025.95 4493.86 C 1028.31 4483.08 1030.07 4472.09 1031.22 4461.15 C 1039.73 4380.44 1019.17 4300.42 1018.45 4297.65 C 1018.4 4297.48 1018.33 4297.31 1018.25 4297.15 L 1018.2 4297.05 L 1016.81 4291.38 Z M 1004.31 4308.85 C 995.564 4333.69 986.384 4357.42 977.073 4380.06 C 979.224 4360.69 976.874 4347.64 973.093 4338.92 C 971.036 4334.11 968.615 4330.62 966.323 4328.18 C 978 4321.6 990.654 4315.16 1004.31 4308.85 Z M 1012.17 4317.53 C 1014 4326.14 1016.47 4338.94 1018.58 4354.53 C 1012.86 4356.85 1001.54 4362.31 991.294 4372.46 C 998.404 4354.76 1005.41 4336.51 1012.17 4317.53 Z M 961.683 4330.86 L 961.735 4330.86 C 963.833 4332.89 966.303 4336.05 968.401 4340.94 C 972.89 4351.42 975.593 4370.01 967.901 4401.97 C 963.953 4411.17 960.011 4420.1 956.068 4428.84 C 957.656 4406.98 952.479 4389.81 945.527 4377.06 C 939.505 4366.03 932.136 4358.27 926.667 4353.49 C 937.208 4345.83 948.807 4338.28 961.651 4330.86 L 961.683 4330.86 Z M 922.459 4356.59 C 927.588 4360.93 935.047 4368.48 941.115 4379.59 C 949.333 4394.66 954.995 4416.18 948.453 4445.53 C 943.771 4455.57 939.115 4465.32 934.552 4474.62 C 933.083 4429.17 904.584 4393.09 893.729 4380.93 L 893.781 4380.88 C 902.229 4372.71 911.755 4364.62 922.459 4356.59 Z M 1019.3 4359.85 C 1020.87 4372.46 1022.12 4386.7 1022.71 4401.92 C 1017.76 4401.62 1010.14 4401.82 1001.47 4403.94 C 992.084 4406.28 981.364 4410.98 971.292 4419.96 C 975.598 4410.19 979.921 4400.19 984.208 4389.88 C 994.534 4372.17 1011.27 4363.29 1019.3 4359.86 L 1019.3 4359.85 Z M 890.109 4384.56 C 901.427 4397.34 932.344 4437.03 929.229 4485.27 C 922.948 4497.83 916.828 4509.7 910.984 4520.67 C 910.188 4500.43 901.437 4478.4 891.76 4459.54 C 880.745 4438.06 868.427 4420.88 864.323 4415.35 C 871.412 4405.08 879.932 4394.8 890.109 4384.56 Z M 1016.82 4406.88 C 1019.19 4406.81 1021.25 4406.87 1022.92 4406.98 C 1023.22 4419.28 1023.12 4432.18 1022.22 4445.32 C 1016.71 4444.62 1007.88 4443.91 997.414 4445.03 C 983.874 4446.45 967.547 4450.88 951.989 4462.03 C 956.197 4453.18 960.443 4444.1 964.703 4434.69 C 976.672 4418.79 990.804 4411.81 1002.68 4408.85 C 1008 4407.53 1012.82 4407.01 1016.79 4406.89 L 1016.82 4406.88 Z M 343.896 4409.1 C 345.145 4420.44 347.636 4447.01 347.713 4483.72 C 342.604 4482.43 335 4481.3 325.651 4482.32 C 313.224 4483.68 297.599 4488.8 280.328 4501.96 C 299.625 4471.58 320.776 4440.66 343.891 4409.09 L 343.896 4409.1 Z M 330.047 4410.7 C 309.995 4438.38 291.421 4465.61 274.287 4492.4 C 274.688 4481.83 271.568 4472.73 267.568 4465.73 C 264.391 4460.17 260.609 4455.85 257.697 4452.92 C 280.161 4438.64 304.339 4424.6 330.047 4410.7 Z M 861.323 4419.85 C 866.203 4426.57 877.292 4442.52 887.213 4461.86 C 898.459 4483.78 907.885 4509.95 905.407 4531.06 C 900.896 4539.37 896.615 4547.11 892.536 4554.31 C 892.24 4549.33 891.328 4544.22 889.896 4539.12 C 886.297 4526.19 879.656 4513.11 872.484 4501.34 C 859.079 4479.35 843.713 4462.14 841.735 4459.95 C 846.156 4446.8 852.531 4433.37 861.323 4419.85 Z M 1006.9 4449.51 C 1013.14 4449.43 1018.33 4449.91 1021.88 4450.41 C 1021.68 4453.63 1021.38 4456.88 1020.98 4460.12 C 1019.93 4470.08 1018.44 4479.99 1016.38 4489.73 C 1009.81 4488.73 999.504 4487.78 987.234 4488.7 C 969.781 4490.01 948.416 4495.17 928.38 4509.63 C 934.339 4498.12 940.536 4485.8 946.828 4472.84 C 967.453 4454 990.704 4449.7 1006.87 4449.48 L 1006.9 4449.51 Z M 253.307 4455.66 L 253.36 4455.71 C 256.099 4458.37 259.948 4462.67 263.183 4468.32 C 268.172 4477.05 271.708 4488.83 267.469 4503.31 C 253.651 4525.31 240.755 4546.99 228.765 4568.42 C 227.224 4549.94 218.188 4535.3 208.303 4524.76 C 199.579 4515.45 190.145 4509.23 184.427 4505.89 C 205.057 4488.57 228.083 4471.91 253.307 4455.66 Z M 839.984 4465.63 C 844.984 4471.39 857.161 4486.13 868.041 4503.97 C 875.063 4515.49 881.584 4528.28 884.995 4540.51 C 887.271 4548.7 888.203 4556.59 887.213 4563.76 C 883.041 4570.99 879.235 4577.39 875.74 4583.19 C 872.953 4565.87 863.224 4549.48 853.521 4536.69 C 845.588 4526.23 837.557 4518.12 833.161 4513.89 C 833.145 4511.64 833.193 4509.37 833.26 4507.08 C 833.661 4493.86 835.74 4479.93 839.979 4465.64 L 839.984 4465.63 Z M 333.511 4486.97 C 339.656 4487.01 344.459 4488.04 347.719 4488.99 C 347.656 4505.34 347.12 4523.52 345.76 4543.15 C 345.735 4543.45 345.729 4543.85 345.708 4544.18 C 332.203 4544.19 274.636 4546.33 233.521 4580.92 C 245.161 4559.82 257.656 4538.41 271.088 4516.74 C 292.745 4495.84 311.964 4488.95 326.276 4487.39 C 328.86 4487.09 331.265 4486.99 333.511 4486.99 L 333.511 4486.97 Z M 996.714 4493.43 C 1004.35 4493.42 1010.71 4494.04 1015.26 4494.78 C 1012.83 4505.27 1009.75 4515.51 1005.87 4525.31 C 997.584 4525.23 982.745 4525.51 966.183 4527.48 C 947.473 4529.73 926.573 4534.16 910.473 4543.3 C 913.203 4538.35 915.927 4533.36 918.797 4528 C 919.995 4525.76 921.245 4523.29 922.464 4520.97 C 947.593 4498.41 976.448 4493.47 996.724 4493.43 L 996.714 4493.43 Z M 180.344 4509.35 C 185.401 4512.21 195.364 4518.54 204.527 4528.32 C 215.391 4539.91 224.973 4556.1 223.803 4577.41 C 213.224 4596.63 203.344 4615.62 194.14 4634.41 C 194.24 4589.73 157.443 4554.67 144.427 4543.66 C 155.375 4531.89 167.369 4520.47 180.344 4509.35 Z M 833.421 4521.34 C 837.771 4525.74 843.588 4532.08 849.391 4539.73 C 860.093 4553.85 870.469 4572.34 871.297 4590.53 C 866.792 4597.89 862.88 4604 860.188 4608.16 C 859.688 4608.85 859.787 4608.76 859.391 4609.34 C 851.891 4596.6 835.401 4564 833.396 4521.34 L 833.421 4521.34 Z M 998.934 4530.49 C 1000.68 4530.47 1002.24 4530.48 1003.69 4530.49 C 997.754 4544.23 990.204 4556.96 980.693 4568.16 C 977.754 4571.61 974.625 4574.94 971.292 4578.08 C 964.421 4576.4 950.412 4573.37 934.912 4572.14 C 923.979 4571.24 912.333 4571.24 901.839 4573.43 C 898.292 4574.13 894.88 4575.09 891.661 4576.38 C 895.812 4569.31 900.303 4561.53 905.093 4552.97 C 920.453 4541.09 944.969 4535.19 966.745 4532.56 C 979.125 4531.07 990.584 4530.59 998.934 4530.49 Z M 140.912 4547.54 L 140.964 4547.59 C 154.531 4559.15 196.297 4599.18 187.833 4647.43 C 178.573 4666.86 170.052 4686.07 162.151 4705.05 C 159.473 4683.83 149.193 4661.28 138.021 4641.7 C 125.797 4620.28 112.292 4602.38 105.62 4593.95 C 115.651 4577.81 127.5 4562.37 140.912 4547.54 Z M 344.724 4549.35 C 344.921 4549.35 345.125 4549.35 345.323 4549.35 C 343.473 4573.58 340.421 4599.02 335.552 4624.49 C 327.26 4624.42 304.781 4624.58 278.604 4627.59 C 251.787 4630.68 221.297 4636.63 198.563 4648.78 C 206.932 4631.33 215.875 4613.7 225.432 4595.86 C 263.849 4553.04 328.656 4549.55 344.749 4549.35 L 344.724 4549.35 Z M 922.355 4576.69 C 926.407 4576.7 930.464 4576.89 934.448 4577.19 C 947.328 4578.22 959.235 4580.52 966.64 4582.2 C 943.724 4601.71 911.964 4613.99 868.041 4614.86 C 868.443 4614.26 868.443 4614.36 868.844 4613.62 C 871.724 4609.17 875.651 4602.94 880.521 4594.96 C 882.432 4591.82 884.604 4588.17 886.771 4584.53 L 886.823 4584.53 C 891.276 4581.6 896.703 4579.62 902.792 4578.37 C 908.891 4577.12 915.579 4576.66 922.323 4576.68 L 922.355 4576.69 Z M 102.828 4598.65 C 109.74 4607.46 122.235 4624.3 133.573 4644.18 C 146.531 4666.88 157.688 4693.45 157.604 4716.11 C 148.735 4738.02 140.688 4759.67 133.473 4781.01 C 130.26 4725.21 84.937 4682.59 72.547 4671.93 C 78.068 4649.76 86.151 4628.95 96.677 4609.35 C 98.62 4605.74 100.719 4602.19 102.828 4598.65 Z M 621.083 4608.36 C 622.276 4614.82 624.416 4628.01 624.855 4646.29 C 620.453 4645.22 613.74 4644.04 606.047 4644.43 C 600.948 4644.63 595.38 4645.63 589.713 4647.69 C 602.969 4630.32 614.011 4616.84 621.083 4608.36 Z M 602.948 4614.25 C 592.927 4626.64 579.703 4643.57 565.172 4663.5 C 566.391 4656.45 565.869 4650.65 564.473 4646.03 C 563.672 4643.38 562.573 4641.13 561.421 4639.26 C 573.943 4630.96 587.729 4622.62 602.969 4614.25 L 602.948 4614.25 Z M 331.703 4629.55 C 332.771 4629.54 333.64 4629.54 334.489 4629.55 C 330 4651.91 324.136 4674.22 316.511 4695.59 C 305.989 4694.89 280.26 4693.64 251.5 4696.73 C 220.844 4700.01 186.672 4708.09 164.115 4727.32 C 173.265 4704.24 183.416 4680.8 194.604 4657.04 C 216.489 4643.15 249.995 4636.01 279.197 4632.65 C 301.62 4630.07 321.489 4629.59 331.703 4629.55 Z M 557.161 4642.16 C 558.063 4643.65 558.891 4645.44 559.541 4647.58 C 561.473 4653.95 561.713 4663.35 555.563 4676.78 C 550.823 4683.48 546.041 4690.47 541.197 4697.66 C 543.593 4686.44 541.896 4677.74 538.973 4671.41 C 536.755 4666.67 533.776 4663.26 531.375 4661.02 C 539.245 4654.78 547.844 4648.48 557.161 4642.16 Z M 608.631 4649.55 C 615.631 4649.48 621.464 4650.67 624.959 4651.61 C 625.005 4661.26 624.459 4672.04 623.151 4683.71 C 617.099 4681.91 607.104 4679.53 595.604 4679.32 C 584.875 4679.11 572.708 4680.89 561.24 4686.66 C 568.823 4675.86 576.197 4665.71 583.151 4656.43 C 590.995 4651.71 599.099 4649.96 606.303 4649.6 C 607.104 4649.57 607.864 4649.56 608.636 4649.55 L 608.631 4649.55 Z M 527.344 4664.22 C 529.407 4666 532.213 4669.02 534.323 4673.52 C 538.093 4681.58 539.735 4694.39 529.677 4713.93 C 529.427 4714.39 529.323 4714.91 529.375 4715.43 C 527.177 4718.83 524.995 4722.29 522.817 4725.76 C 525.005 4711.03 520.875 4701.24 515.167 4695.18 C 510.885 4690.62 505.885 4688.11 502.297 4686.81 C 509.677 4679.37 517.959 4671.84 527.307 4664.22 L 527.344 4664.22 Z M 71.203 4677.55 C 86.86 4691.62 134.021 4739.23 127.943 4797.8 C 121.51 4817.84 115.765 4837.66 110.631 4857.23 C 101.953 4819.98 78.844 4800.85 66.708 4793.15 C 61.688 4750.54 63.297 4712.35 71.208 4677.55 L 71.203 4677.55 Z M 592.197 4684.48 C 593.328 4684.46 594.448 4684.46 595.557 4684.48 C 607.057 4684.68 616.959 4687.14 622.531 4688.82 C 621.516 4696.41 620.115 4704.32 618.245 4712.49 C 617.745 4714.9 617.063 4717.31 616.432 4719.73 C 609.573 4718.64 594.375 4716.56 577.573 4716.79 C 566.188 4716.99 554.047 4718.14 543.26 4721.39 C 540.849 4722.09 538.489 4722.92 536.229 4723.87 C 540.349 4717.43 544.489 4711.11 548.631 4704.96 C 550.333 4702.43 552.052 4699.94 553.749 4697.47 C 565.792 4687.84 579.656 4684.75 592.197 4684.5 L 592.197 4684.48 Z M 498.303 4690.94 C 501.041 4691.65 506.844 4693.7 511.479 4698.65 C 517.792 4705.34 522.412 4717.33 513.5 4740.55 C 513.401 4740.78 513.333 4741.01 513.303 4741.26 C 509.672 4747.3 506.14 4753.42 502.656 4759.6 C 503.459 4743.02 498.416 4731.06 492.369 4722.96 C 488.464 4717.71 484.063 4714.03 480.64 4711.64 C 485.74 4704.85 491.636 4697.99 498.312 4690.97 L 498.303 4690.94 Z M 290.203 4699.93 C 300.713 4699.92 309.208 4700.33 314.645 4700.64 C 306.396 4722.78 296.219 4743.83 283.693 4762.85 C 272.167 4763.35 247.177 4764.85 220.183 4769.57 C 201.708 4772.8 182.317 4777.57 165.563 4784.5 C 154.964 4788.88 145.369 4794.15 137.812 4800.58 C 144.312 4780.34 151.541 4759.83 159.516 4739.08 C 179.787 4715.49 217.86 4705.55 252.12 4701.87 C 265.964 4700.39 279.156 4699.93 290.203 4699.92 L 290.203 4699.93 Z M 477.636 4715.74 L 477.683 4715.74 C 480.724 4717.83 484.683 4721.16 488.276 4725.98 C 495.068 4735.09 500.557 4749.46 495.765 4771.97 C 493.317 4776.52 490.969 4781.07 488.636 4785.67 C 487.396 4774.04 481.708 4763.88 475.511 4756.05 C 470.823 4750.12 465.833 4745.43 462.027 4742.26 C 466.036 4733.71 471.145 4724.84 477.631 4715.74 L 477.636 4715.74 Z M 579.693 4721.89 C 594.839 4721.86 608.453 4723.62 615.088 4724.64 C 612.849 4732.49 610.208 4740.38 606.979 4748.15 C 600.76 4746.68 587.979 4744.15 572.719 4743.76 L 572.667 4743.76 C 555.265 4743.36 534.604 4745.68 516.755 4755.75 C 521.303 4747.91 526.027 4740.19 530.76 4732.6 C 534.817 4729.94 539.536 4727.86 544.76 4726.29 C 554.855 4723.24 566.495 4722.09 577.579 4721.95 C 578.276 4721.94 579.005 4721.89 579.697 4721.89 L 579.693 4721.89 Z M 459.803 4747.17 C 463.245 4750.11 467.536 4754.2 471.536 4759.26 C 479.235 4769 485.667 4781.84 483.213 4796.62 C 480.443 4802.37 477.765 4808.11 475.255 4813.88 C 473.375 4803.3 468.421 4795.21 463.161 4789.44 C 458.729 4784.58 454.063 4781.24 450.864 4779.31 C 450.88 4779.21 450.896 4779.11 450.917 4778.91 C 452.265 4768.98 455.036 4758.33 459.803 4747.13 L 459.803 4747.17 Z M 566.62 4749.03 C 583.265 4748.72 597.776 4751.36 604.912 4752.96 C 601.12 4761.42 596.609 4769.71 591.369 4777.76 C 583.552 4776.66 566.771 4774.7 548.844 4774.92 C 536.511 4775.02 523.661 4776.23 512.62 4779.52 C 508.489 4780.75 504.588 4782.31 501.093 4784.22 C 504.333 4777.99 507.625 4771.77 511.063 4765.61 C 527.495 4753.08 548.339 4749.33 566.615 4749.03 L 566.62 4749.03 Z M 826.292 4752.48 C 829.651 4752.45 833.099 4752.57 836.573 4752.79 C 834.355 4761.53 826.875 4781.33 803.708 4789.68 C 798.188 4789.61 792.672 4789.59 787.224 4789.63 C 788.12 4788.73 788.943 4787.79 789.703 4786.79 C 793.323 4782.01 795.573 4776.38 797.041 4770.93 C 798.615 4765.08 799.26 4759.4 799.521 4755.42 C 807.973 4753.68 816.896 4752.57 826.292 4752.48 Z M 841.74 4753.19 C 846.849 4753.69 852.104 4754.53 857.448 4755.67 C 863.183 4756.89 869.052 4758.6 875.073 4760.83 C 869.86 4768.83 857.615 4783.61 835.281 4790.55 C 828.64 4790.25 821.937 4790.05 815.229 4789.85 C 833.255 4779.05 839.693 4761.17 841.74 4753.16 L 841.74 4753.19 Z M 794.251 4756.55 C 793.948 4760.11 793.251 4764.76 792.031 4769.51 C 790.683 4774.55 788.661 4779.65 785.62 4783.68 C 783.771 4786.12 781.563 4788.17 778.901 4789.67 C 771.912 4789.76 765.027 4790.07 758.333 4790.46 C 762.932 4786.08 765.093 4780.87 765.823 4776.2 C 766.421 4772.49 766.224 4769.09 765.823 4766.59 C 770.651 4764.36 775.765 4762.28 781.276 4760.39 C 785.437 4758.97 789.787 4757.66 794.245 4756.57 L 794.251 4756.55 Z M 879.875 4762.74 C 889.375 4766.64 899.203 4771.74 909.281 4778.04 C 908.683 4778.94 907.969 4779.85 907.011 4780.83 C 902.849 4785.08 894.312 4790.2 876.937 4792.97 C 871.755 4792.57 866.432 4792.28 861.021 4791.89 C 856.631 4791.59 852.177 4791.39 847.688 4791.2 C 865.219 4782.76 875.328 4769.89 879.88 4762.78 L 879.875 4762.74 Z M 280.125 4768.11 L 280.125 4768.17 C 275.636 4774.62 270.885 4780.77 265.812 4786.67 C 248.364 4806.96 232.235 4824.63 217.396 4839.94 C 210.615 4839.15 195.131 4837.78 177.552 4839.65 C 157.787 4841.76 135.093 4847.94 119.469 4863.88 C 123.937 4846.55 128.969 4829.03 134.453 4811.33 C 141.765 4802.34 153.437 4794.94 167.421 4789.16 C 183.64 4782.45 202.771 4777.83 221.011 4774.64 C 245.068 4770.43 267.568 4768.76 280.125 4768.13 L 280.125 4768.11 Z M 760.973 4768.92 C 761.172 4770.74 761.172 4772.95 760.771 4775.33 C 759.869 4780.82 757.161 4786.95 748.579 4791.09 C 740.287 4791.69 732.333 4792.53 724.907 4793.61 C 732.469 4786.67 744.489 4777.17 760.927 4768.92 L 760.973 4768.92 Z M 548.943 4780.03 C 564.812 4779.83 579.76 4781.42 588.167 4782.5 C 580.047 4794.12 570.235 4805.1 558.349 4815.01 C 551.693 4813.34 540.927 4810.97 529.052 4809.84 C 514.844 4808.49 498.901 4808.75 486.469 4814.44 C 489.416 4807.82 492.536 4801.17 495.817 4794.55 C 500.068 4790 506.396 4786.7 514.063 4784.42 C 524.369 4781.35 536.896 4780.18 548.943 4780.03 Z M 913.62 4780.83 C 921.511 4785.98 929.547 4791.86 937.703 4798.45 C 926.516 4797.24 911.396 4795.76 893.677 4794.32 C 902.005 4791.5 907.292 4788 910.677 4784.55 C 911.907 4783.3 912.864 4782.01 913.625 4780.83 L 913.62 4780.83 Z M 450.245 4785.07 C 452.885 4786.85 456.156 4789.43 459.344 4792.93 C 465.563 4799.74 471.276 4809.79 470.921 4824.24 C 467.708 4832.13 464.817 4840.04 462.24 4847.86 C 456.088 4836.33 447.661 4814.62 450.251 4785.07 L 450.245 4785.07 Z M 67.484 4799.79 C 80.609 4808.91 102.109 4829.49 107.636 4868.94 C 103.473 4885.51 99.755 4901.92 96.421 4918.18 C 81.844 4875.22 72.271 4835.96 67.484 4799.79 Z M 792.907 4799.99 C 798.875 4799.99 804.901 4800.08 810.943 4800.19 C 825.76 4806.04 833.812 4819.29 838.281 4831.92 C 842.109 4842.76 843.177 4852.86 843.448 4856.73 C 834.656 4858.57 825.74 4859.74 816.787 4860.04 C 816.385 4854.23 815.303 4842.94 811.823 4831.26 C 809.312 4822.81 805.505 4814.08 799.833 4806.97 C 797.797 4804.41 795.495 4802.08 792.917 4800.04 L 792.907 4799.99 Z M 783.396 4800.09 L 783.448 4800.09 C 788.369 4802.35 792.448 4805.84 795.849 4810.12 C 800.921 4816.49 804.469 4824.62 806.86 4832.65 C 810.145 4843.69 811.276 4854.46 811.667 4860.09 C 802.459 4860.03 793.307 4858.96 784.281 4856.68 C 781.588 4855.98 778.932 4855.17 776.271 4854.25 C 776.328 4848.76 775.969 4840.93 774.251 4832.7 C 772.672 4825.1 769.969 4817.07 765.099 4810.37 C 762.5 4806.8 759.271 4803.56 755.328 4801.03 C 764.312 4800.53 773.749 4800.22 783.391 4800.12 L 783.396 4800.09 Z M 822.104 4800.49 C 826.844 4800.59 831.615 4800.79 836.312 4800.99 C 863.484 4808.47 877.068 4833.78 881.735 4844.56 C 875.755 4847.06 869.495 4849.41 862.875 4851.54 C 858.167 4853.05 853.307 4854.41 848.459 4855.57 C 848.057 4850.95 846.869 4840.95 843.088 4830.24 C 839.328 4819.59 832.907 4808.08 822.109 4800.48 L 822.104 4800.49 Z M 851.609 4801.73 C 854.541 4801.93 857.469 4802.03 860.339 4802.23 C 867.479 4802.64 874.459 4803.14 881.167 4803.62 C 889.645 4805.87 897.339 4813.17 902.921 4820.32 C 905.932 4824.17 908.323 4827.92 909.953 4830.7 C 902.953 4834.68 895.109 4838.73 886.489 4842.54 C 882.36 4832.96 871.745 4812.91 851.609 4801.71 L 851.609 4801.73 Z M 744.901 4801.83 C 752.047 4803.99 757.145 4808.15 760.969 4813.41 C 765.24 4819.28 767.76 4826.54 769.24 4833.67 C 770.672 4840.56 771.073 4847.24 771.099 4852.32 C 751.735 4844.33 733.437 4829.47 717.255 4805.45 C 725.563 4803.87 734.885 4802.69 744.901 4801.83 Z M 894.656 4804.72 C 914.511 4806.38 930.989 4808.09 941.937 4809.32 C 936.521 4813.57 927.131 4820.57 914.396 4828.14 C 912.677 4825.17 910.197 4821.2 907.005 4817.12 C 903.636 4812.82 899.495 4808.31 894.656 4804.72 Z M 514.167 4814.49 C 518.995 4814.4 523.839 4814.59 528.584 4815.09 C 538.052 4815.99 546.864 4817.7 553.287 4819.17 C 532.213 4835.42 505.104 4848.42 470.396 4856.17 C 473.875 4845.13 478.145 4833.86 482.953 4822.53 L 483.005 4822.48 C 491.027 4816.88 502.427 4814.75 514.167 4814.52 L 514.167 4814.49 Z M 192.38 4843.95 C 200.661 4843.75 207.765 4844.25 212.74 4844.75 C 182.297 4875.76 157.631 4896.83 139 4910.89 C 117.473 4927.15 108.063 4931.57 103.86 4933.32 C 107.531 4914.28 111.76 4895.01 116.573 4875.55 C 130.536 4854.89 155.803 4847.22 178.068 4844.85 C 183.068 4844.35 187.885 4844.05 192.38 4843.95 Z M 577.161 4932.88 C 586.651 4932.85 596.86 4933.78 607.749 4935.88 C 604.812 4941.58 598.891 4952.14 590.907 4962.24 C 585.068 4969.63 578.172 4976.76 570.645 4981.41 C 563.177 4986.03 555.265 4988.22 546.927 4986.42 C 538.421 4982.21 530.469 4978.28 522.849 4974.53 C 538.927 4971.74 549.265 4961.82 555.459 4951.8 C 559.568 4945.15 561.984 4938.41 563.364 4933.56 C 567.787 4933.16 572.355 4932.85 577.161 4932.85 L 577.161 4932.88 Z M 557.677 4934.17 C 557.713 4934.17 557.74 4934.18 557.776 4934.17 C 556.459 4938.43 554.369 4943.79 551.109 4949.06 C 544.437 4959.84 533.369 4970.09 513.849 4970.14 C 506.959 4966.79 500.287 4963.62 493.855 4960.68 C 503.063 4953.06 524.312 4938.57 557.672 4934.17 L 557.677 4934.17 Z M 612.969 4936.91 C 627.563 4940.18 643.328 4945.66 660.203 4953.96 C 656.932 4960.34 650.901 4970.78 642.016 4980.63 C 629.219 4994.81 610.953 5007.6 586.563 5005.69 C 576.251 5000.77 566.745 4996.17 557.729 4991.74 C 563.219 4990.84 568.511 4988.68 573.333 4985.69 C 581.625 4980.56 588.864 4973.12 594.937 4965.43 C 603.817 4954.19 610.188 4942.42 612.969 4936.91 Z M 664.803 4956.24 C 680.677 4964.45 697.464 4975.21 715.188 4989 C 711.557 4993.85 703.235 5003.96 690.797 5012.82 C 677.276 5022.45 659.14 5030.55 636.948 5028.84 C 628.448 5025.11 619.771 5021.22 610.953 5017.17 C 606.145 5014.95 601.584 5012.79 597.052 5010.66 C 617.995 5008.74 634.292 4996.78 645.787 4984.04 C 655.063 4973.76 661.369 4962.89 664.803 4956.24 Z M 491.068 4970.6 C 498.828 4974.18 506.932 4978.14 515.511 4982.34 C 519.229 4992.76 517.839 5000.74 515.312 5006.52 C 514.109 5009.31 512.683 5011.52 511.38 5013.19 C 504.083 5000.39 497.245 4986.26 491.021 4970.61 L 491.068 4970.6 Z M 521.713 4985.38 C 529.869 4989.42 538.489 4993.69 547.755 4998.25 C 559.437 5021.32 551.505 5049.67 547.057 5061.92 C 535.355 5049.54 524.307 5034.93 514.14 5017.84 C 515.979 5015.74 518.307 5012.61 520.079 5008.49 C 522.579 5002.68 523.969 4994.83 521.729 4985.39 L 521.713 4985.38 Z M 719.213 4992.16 C 730.588 5001.23 742.323 5011.58 754.407 5023.32 C 745.588 5032.69 719.412 5055.91 682.265 5047.91 C 671.448 5043.56 660.24 5038.86 648.677 5033.91 C 666.823 5032.56 682.063 5025.28 693.74 5016.96 C 706.593 5007.8 715.303 4997.34 719.213 4992.16 Z M 554.833 5001.71 C 565.855 5007.12 577.625 5012.84 590.645 5018.97 C 611.604 5048 609.375 5089.64 607.495 5105.95 C 587.855 5096.73 568.76 5083.81 551.011 5066 C 555.219 5055.49 564.495 5027.18 554.833 5001.71 Z M 208.193 5017.79 C 221.145 5017.81 247.511 5019.17 281.109 5027.6 C 278.557 5030.59 274.708 5034.5 269.531 5037.94 C 259.469 5044.63 244.771 5049.59 224.729 5042.75 C 216.828 5034.36 209.464 5026.04 202.823 5017.89 C 204.271 5017.85 205.749 5017.8 208.193 5017.8 L 208.193 5017.79 Z M 599.484 5023.1 C 601.896 5024.22 604.281 5025.37 606.776 5026.51 C 617.197 5031.32 627.375 5035.86 637.364 5040.21 C 666.255 5076.11 667.573 5112.12 667.183 5123.46 C 649.011 5120.87 630.541 5116.09 612.459 5108.21 C 614.391 5093.74 617.511 5054.19 599.489 5023.1 L 599.484 5023.1 Z M 196.672 5026.68 C 203.579 5034.99 211.099 5043.41 219.203 5051.89 C 222.713 5070.51 215.891 5084.96 207.781 5095.2 C 203.869 5100.13 199.719 5104 196.307 5106.77 C 193.536 5095.26 192.068 5084.49 191.557 5074.68 C 190.36 5051.98 193.86 5035.84 196.677 5026.68 L 196.672 5026.68 Z M 758.079 5026.87 C 769.265 5037.94 780.729 5050.21 792.495 5063.77 C 782.193 5066.99 763.557 5071.52 742.213 5070.54 C 728.964 5065.85 714.729 5060.58 699.369 5054.62 C 729.099 5053.83 750.041 5035.34 758.079 5026.87 Z M 286.588 5029.05 C 295.636 5031.47 305.104 5034.42 315.011 5037.98 C 313.328 5041.34 307.369 5052.47 298.109 5062.12 C 292.599 5067.87 285.979 5073.1 278.579 5075.76 C 272.588 5077.91 266.115 5078.49 258.989 5076.46 C 254.932 5072.71 250.953 5068.94 247.057 5065.2 C 241.724 5060.07 236.568 5054.94 231.604 5049.85 C 249.047 5053.35 262.891 5048.44 272.427 5042.1 C 279.188 5037.6 283.907 5032.44 286.588 5029.03 L 286.588 5029.05 Z M 319.917 5039.8 C 325.005 5041.71 330.167 5043.73 335.421 5045.99 C 348.453 5051.6 361.823 5058.36 375.26 5066.41 C 371.432 5072.41 363.527 5083.68 352.527 5093.59 C 344.584 5100.75 335.099 5107.15 324.516 5110.38 C 316.579 5112.8 308.079 5113.51 298.937 5111.41 C 287.563 5101.91 276.464 5092.32 265.864 5082.73 C 270.964 5082.93 275.797 5082.13 280.281 5080.51 C 288.729 5077.48 295.959 5071.8 301.833 5065.68 C 312.079 5054.99 318.464 5042.74 319.917 5039.79 L 319.917 5039.8 Z M 646.869 5044.3 C 660.052 5049.93 672.86 5055.22 685.057 5060.06 C 704.505 5076.26 713.448 5093.3 717.615 5106.56 C 720.167 5114.69 720.855 5121.26 721.027 5125.43 C 712.125 5125.93 702.907 5126.12 693.323 5125.72 C 686.396 5125.53 679.364 5125.03 672.292 5124.12 C 672.693 5113.26 671.593 5079.25 646.869 5044.29 L 646.869 5044.3 Z M 225.145 5057.99 C 229.921 5062.86 234.833 5067.77 239.921 5072.66 C 242.505 5075.14 245.136 5077.57 247.781 5080.05 C 261.416 5108.15 256.703 5132.19 248.281 5149.82 C 241.755 5163.43 233.016 5173.01 228.645 5177.31 C 212.719 5154.08 203.177 5132.11 197.745 5112.2 C 201.677 5109.19 206.907 5104.53 211.803 5098.35 C 219.479 5088.66 226.281 5074.97 225.183 5057.99 L 225.145 5057.99 Z M 698.131 5065.12 C 709.921 5069.66 721.057 5073.83 731.62 5077.62 C 750.713 5090.47 758.131 5101.8 760.864 5109.71 C 762.265 5113.76 762.437 5116.99 762.317 5119.11 C 762.292 5119.61 762.255 5119.92 762.219 5120.26 C 751.251 5122.37 739.104 5124.08 726.145 5125.07 C 725.948 5120.44 725.145 5113.37 722.527 5104.96 C 718.885 5093.38 711.781 5079.16 698.136 5065.12 L 698.131 5065.12 Z M 796.161 5068.01 C 803.401 5076.48 810.729 5085.4 818.177 5094.88 C 804.989 5091.15 783.776 5084.81 756.579 5075.5 C 773.833 5074.5 788.156 5070.65 796.161 5068.01 Z M 379.708 5069.1 C 395.645 5078.97 411.656 5090.7 427.303 5104.7 C 422.541 5110.28 412.781 5120.97 400.427 5130.49 C 391.609 5137.29 381.5 5143.51 371.131 5146.71 C 361.76 5149.61 352.281 5150.16 343.016 5146.82 C 330.667 5137.28 318.416 5127.53 306.432 5117.67 C 313.292 5118.17 319.833 5117.17 325.964 5115.29 C 337.527 5111.76 347.615 5104.86 355.937 5097.36 C 367.443 5086.99 375.708 5075.32 379.708 5069.09 L 379.708 5069.1 Z M 747.172 5083.1 C 777.724 5093.71 801.453 5100.82 815.745 5104.86 C 806.109 5108.64 789.292 5114.57 767.427 5119.17 C 767.531 5116.44 767.328 5112.66 765.729 5108.06 C 763.349 5101.16 758.021 5092.58 747.177 5083.1 L 747.172 5083.1 Z M 256.719 5088.37 C 266.636 5097.41 277.011 5106.41 287.62 5115.35 C 299.568 5139.97 297.5 5170.56 292.063 5195.39 C 288.412 5212.08 283.292 5226.02 280.125 5233.89 C 273.083 5228.23 266.292 5222.06 259.812 5215.34 C 248.781 5203.89 239.437 5192.62 231.547 5181.6 C 235.989 5177.3 245.749 5166.86 252.891 5151.98 C 260.749 5135.61 265.427 5113.56 256.708 5088.37 L 256.719 5088.37 Z M 431.073 5108.22 C 447.86 5123.7 464.224 5141.77 479.541 5162.94 C 473.287 5167 462.26 5173.62 449.208 5179.01 C 432.151 5186.05 411.948 5190.82 394.849 5185.47 C 389.136 5181.35 383.416 5177.11 377.64 5172.86 C 369.307 5166.72 360.943 5160.43 352.579 5154.05 C 359.364 5154.55 366.109 5153.65 372.625 5151.62 C 383.86 5148.15 394.443 5141.61 403.579 5134.57 C 416.14 5124.88 426.104 5114.05 431.073 5108.21 L 431.073 5108.22 Z M 295.989 5122.37 C 310.344 5134.26 325.12 5145.95 339.969 5157.36 C 350.255 5180.04 350.208 5207.15 347.099 5229.45 C 344.677 5246.82 340.416 5261.12 338.109 5268.2 C 319.443 5260.28 301.26 5250.14 284.364 5237.2 C 287.557 5229.44 293.083 5214.46 297.027 5196.48 C 301.959 5173.97 304.375 5146.6 295.995 5122.37 L 295.989 5122.37 Z M 347.823 5163.35 C 355.755 5169.37 363.708 5175.32 371.593 5181.13 C 377.052 5185.15 382.473 5189.12 387.869 5193.01 C 416.584 5231.06 397.719 5274.54 392.26 5285.36 C 375.907 5281.72 359.265 5276.76 342.912 5270.16 C 345.251 5263.02 349.588 5248.19 352.109 5230.17 C 354.943 5209.86 355.453 5185.42 347.823 5163.35 Z M 482.541 5167.12 C 495.011 5184.83 506.755 5204.59 517.527 5226.71 C 515.104 5228.96 511.817 5231.56 507.5 5233.74 C 498.479 5238.28 485.276 5241.11 466.781 5235.29 C 447.781 5222.58 426.807 5208.27 404.973 5192.7 C 420.609 5194.11 437.041 5189.6 451.073 5183.82 C 464.64 5178.21 476.115 5171.3 482.541 5167.12 Z M 399.083 5201.07 C 419.729 5215.79 439.563 5229.39 457.735 5241.59 L 457.787 5241.64 C 473.219 5263.97 471.26 5284.88 469.052 5294.61 C 447.489 5294.01 422.869 5291.73 397.38 5286.44 C 403.219 5274.38 418.177 5236.99 399.088 5201.07 L 399.083 5201.07 Z M 519.849 5231.56 C 527.412 5247.54 534.412 5264.7 540.833 5283.14 C 527.844 5275.09 505.937 5261.28 478.511 5243.14 C 491.724 5244.82 502.151 5242.24 509.828 5238.33 C 513.927 5236.26 517.245 5233.84 519.849 5231.56 Z M 467.708 5248.26 C 497.469 5268.04 521.333 5283.09 535.251 5291.71 C 523.864 5293.12 502.073 5295.26 474.167 5294.76 C 476.099 5285.19 477.36 5267.52 467.708 5248.26 Z" style="fill:#2a3a28;fill-opacity:1;fill-rule:nonzero;stroke:none"/><path id="path6" d="M 41099.2 29999.8 C 40332.2 29410.3 39733.4 28464.7 39607.8 26960.5 C 39201.7 22092.2 33444.2 18558 35314.4 14473.4 C 37184.6 10388.8 40019.3 7913.01 38685.1 5805 C 37350.9 3696.99 31763.4 4531.29 28584.3 2444.02 C 26637 1165.59 24438.292 -9832.298 23981.792 -10432.419 L 44999.7 -10471.098 L 44999.7 29999.8 L 41099.2 29999.8 Z" style="fill:#bac4a2;fill-opacity:1;fill-rule:nonzero;stroke:none" transform="matrix(0.13333333,0,0,-0.13333333,0,4000)"/><path id="path7" d="m 43636.3,29999.8 c -445.3,-627.6 -981.9,-1262.3 -1619.3,-1829.7 -105.7,47.2 -220.6,86.2 -342.6,117.4 -58.4,108.9 -235.3,383.5 -597.6,531.8 -458.6,187.6 -1204.9,169.4 -2361.9,-603.1 l -51.5,-34.9 46.1,-41.1 c 0,0 409.2,-366.4 986.4,-544.1 575.6,-177.3 1328,-161 1988.6,589.1 89.6,-24 174.8,-51.8 253.9,-84.5 -423.8,-368.6 -890.7,-706.9 -1403.8,-993.7 -778.8,-435.3 -1663.3,-752.3 -2662.7,-877.1 -73.6,133.5 -316.8,523.7 -765.8,763.9 -401.9,215 -968.5,304.9 -1713.4,-10 -3.2,-0.7 -6.3,-2 -8.9,-3.8 -268.3,-114.3 -559.4,-280.8 -874.4,-513.1 v -0.4 c -1.5,-1.5 -1.5,-1.5 -2.2,-1.5 l -45.4,-33.3 39.5,-39.5 0.4,-0.8 c 1.2,-1.3 2.4,-2.6 3.8,-3.7 19,-18.8 570,-558.2 1261.9,-865.9 93.8,-41.6 190.2,-78.8 288.3,-110 1.5,-0.9 3,-1.7 4.5,-2.3 0.5,0 1,0 1.5,0 268.6,-84.7 549.3,-122.5 822.8,-72.4 374.8,68.5 731.5,304.8 1008.1,796.8 875.2,110.4 1663.2,365.8 2369.6,717.8 -67.8,-68.3 -152.6,-154.6 -259.3,-266.3 -74,-16.5 -413.6,-104 -715.8,-368.2 -170.6,-149.1 -328,-355.8 -418.6,-636 -90.1,-278.9 -113.3,-630.5 -17,-1069.3 0.3,-3.7 1,-7.3 2.2,-10.8 l 10.9,-48.5 51.5,18.2 c 0,0 471.8,173.5 854.2,520.1 191.2,173.4 362.2,391.3 436.8,655.8 6.8,26.2 13.4,52.7 19.4,79.8 0.5,0.8 1,1.5 1.5,2.3 1.9,4 2.7,8.4 2.2,12.8 43.7,234.7 10.4,501.3 -141.4,793.4 233.6,244.2 359.8,368.3 426.3,429.8 34,31.6 53.3,46.9 61.6,53.1 v 0.4 c 3,2.2 6,3.7 9,5.2 540.4,302.1 1030.3,660.3 1472.3,1050.7 3.3,2.2 6.3,4.8 8.9,7.7 180.4,159.7 352.9,324.7 517.4,493.4 -142.1,-302.7 -210.6,-554.4 -249.9,-833.3 -4.5,-32.6 -9.1,-65.4 -12.8,-98.8 -130.8,-46.6 -472.4,-200.9 -706.2,-603 -294.5,-505.7 -416.2,-1395.4 230.2,-2927 0.1,-0.2 0.3,-0.5 0.4,-0.7 l 22.5,-53.9 43.8,31.5 c 0.1,0 0.3,0 0.4,0 l 3.7,3 c 0,0 545.6,381.2 882.2,1016.2 336.5,635 458.5,1534.1 -375.2,2535.9 l -6,5.9 c 2.2,26.3 6,52.4 10,78 49.7,353.9 144,652.7 389.2,1090.2 0.6,2 1.1,3.9 1.5,6 350.1,383.3 661.8,780.7 937.9,1174.7 z m 311.9,0 c 47.5,-79.3 92.6,-168.4 134.9,-268.2 l -2.2,-3 c 0,0 -346,-514 -438.8,-1301.1 -76.4,-648.3 20.2,-1485.1 615.9,-2373.4 0.8,-1.9 1.8,-3.7 3,-5.3 0.1,-0.2 0.2,-0.5 0.4,-0.7 0.2,-0.3 0.5,-0.6 0.7,-0.8 125.2,-186 271.7,-374.2 443.8,-563.5 2.9,-3.7 6.2,-7 10,-9.7 l 32.6,-36.4 34.9,42.2 c 0,0 93.1,112.8 216.6,301.9 v 182.9 c -86.4,-140.5 -162.3,-246.6 -209.3,-308.9 -4.5,152.7 -15.3,415.7 -36.4,748.5 h 0.3 c 75,-113.7 166.8,-183 245.4,-225.2 v 53.1 c -85,50.1 -183.1,136 -252.7,282.9 v 0.4 c -13.8,203.7 -31.6,428.1 -54.3,663.5 h 0.4 c 82.9,-132.6 194.9,-219.1 306.5,-276.3 v 52.7 c -124.3,68.5 -246,177.4 -319.7,351.5 -6,61.8 -12.3,124.4 -19.8,187.2 -10,90.8 -21.2,182.7 -32.9,274.8 103.9,-120 238.5,-210.7 372.4,-279.1 v 53.9 c -144.5,76.8 -286.3,180.1 -384.1,316.6 -22.8,173.2 -48.8,346.8 -77.9,518.2 123.7,-142.6 294.7,-239.4 462,-306.2 v 51.6 c -183.2,75.8 -366.5,188.8 -479.4,355.4 -22.7,127.6 -47.2,253.4 -74,375.9 162.9,-188.2 363,-253.3 532.1,-266.3 7.5,-0.5 14.2,-0.7 21.3,-1.5 v 48.1 c -6,0.3 -11.2,0.4 -17,0.8 -181.9,13.8 -398.2,87.8 -561.6,329 -7.5,33 -15.3,65.7 -23.2,98.1 -16,63.9 -32.5,126.6 -49.6,187.9 132.1,-88 274.6,-97.4 388.7,-80.6 72.8,10.8 134.4,31.9 177.1,49.6 28.7,-28.9 57.4,-60.1 85.7,-93 v 141.1 c -103.2,107.2 -208.2,191.2 -308.2,256.1 -217.9,141.7 -412.7,195.3 -506.9,214.4 -38.5,94 -79.9,180.9 -124,260 z m 279.9,-371.7 c 87.2,-20 233.7,-67.3 411.5,-182.9 76.9,-49.8 157.1,-111.5 237.2,-187.6 -38.3,-14.5 -88.6,-30.1 -146.8,-38.8 -120.6,-17.7 -269,-5.2 -403.1,109.7 -30.7,104.9 -63.9,205 -98.8,299.6 z m -99.6,-8.9 c 34.8,-91.7 67.8,-190 98.4,-293 -38.2,-193.8 -146.7,-289 -247.6,-339.1 -51.9,-25.7 -101.2,-38.7 -137.3,-45.4 88.5,310.8 200.7,529.7 260.9,634.5 11.4,19.7 18,31.5 25.5,43 z m 124,-381.7 c 18,-63.9 35.5,-129.2 51.9,-196.2 12.4,-48.9 24.4,-98.8 35.6,-149.2 -17.3,-66.7 -52.3,-116.3 -97.7,-154.6 -56,-47.4 -128.9,-76.5 -201.1,-94.2 -121.1,-29.8 -239.1,-26.1 -274,-24 17.4,96.5 38,187 60.5,271.3 40.1,6 104.1,19.9 172,53.5 95.7,47.5 199.6,136.1 252.7,293.4 z m -3697.4,-421.3 c 47.8,0.3 93.7,-1.5 137.6,-5.3 8.4,-45.4 22.4,-108.1 48.4,-173.6 34.4,-86.6 90,-179.6 178.3,-243.8 -48,2.2 -96,4.5 -144.2,6 -204.2,66.2 -294.9,177.8 -336.8,275.2 -22,51.6 -30.3,99 -32.5,133.3 51.7,5.2 101.5,7.8 149.2,8.2 z m 3803.2,-8.6 c 28,-130.4 53.8,-264.5 77.5,-400.7 -25.7,-83.7 -70.9,-149.1 -127.5,-202 -75.5,-70.4 -171.8,-117.2 -266.7,-148 -131.4,-42.7 -259.1,-54 -325.5,-57 -2.3,146.1 6,285.6 21.3,417 6,53 13.5,104.2 21.7,154.3 30.6,-2.3 159.2,-7.5 293.4,25.6 76.8,18.8 156.5,50.9 220.5,105 34,28.8 63.4,63.6 85.2,105.8 z m -3615.6,-2.2 c 112.7,-13.8 211.9,-40.6 298.4,-76 1.5,-0.7 3,-0.8 3.7,-1.5 1.5,-34.8 6.1,-88 24.5,-146.5 22.1,-69.5 64.3,-147.5 141.1,-212 -58.4,6.7 -117.3,11.9 -176.8,16.3 -130.8,49.1 -204.5,161.3 -247.2,269 -22.4,55.8 -36,109.1 -43.5,150.7 z m -383.3,-1.5 c 2.9,-39 12.3,-91.6 36.4,-147.7 37.2,-86.7 110.4,-183 248.1,-253.9 -66.3,0.6 -132.7,0.8 -198.5,-0.4 -2.2,0.6 -4.5,0.9 -6.7,0.8 -229.1,36.4 -304.5,129.5 -329.5,211.6 -17.5,60.5 -7.5,117.1 -0.7,142.6 l 1.5,0.8 c 87.8,21.2 170.9,36.5 249.6,46.1 z m -302.7,-60.5 c -6,-35.1 -8.7,-87.1 7.7,-143 22.5,-74.3 82.2,-153.2 211.6,-204.3 -38.3,-1.4 -76.6,-2.9 -114.3,-5.2 -3.8,3 -8.4,4.9 -13.2,5.2 -204.7,10.2 -300.4,82.8 -348.1,150.8 -26.6,38 -38.5,74.5 -43,99.6 105.1,40.1 204.7,71.9 299.2,96.9 z m 1036.3,-36.8 c 251.1,-116.9 386.9,-286.9 451.5,-390.3 -75.1,15.6 -152.2,29 -230.9,39.9 -118.6,64.5 -172.9,157.9 -199.3,239.9 -13.6,42.3 -19,80.7 -21.2,110.5 z m -1379.7,-77.2 c 6.7,-29.9 20.4,-69.6 48.4,-109.6 37.7,-53.1 100.2,-107.7 201.9,-140.7 -80.6,-6 -159.4,-11.9 -235.6,-19 -137.2,13 -212.3,58.9 -254.6,104.3 -14.6,15 -24.8,30.5 -33,44.5 94.6,45.8 185.8,86.1 272.9,120.5 z m -315.9,-141.4 c 9.7,-18 22.7,-37.7 40.3,-56.6 30.7,-32.7 75,-63.8 137.6,-86.7 -228.8,-24.5 -427.2,-52.5 -574,-75.6 138.7,84.1 270.6,156.5 396.1,219 z m 5053.9,-171.3 c 23.8,-142.8 45.7,-287.5 65.1,-431.8 -16.4,-90.3 -65.4,-164.1 -132.5,-226.3 -74.4,-68.8 -171.4,-121.7 -267.5,-161.2 -134.5,-55.4 -266.4,-84.5 -333.7,-96.9 -40.1,191.5 -59.4,375.6 -65.4,550.3 69,3 201.7,15.8 339.1,60.5 99.4,32.2 202.4,81.6 284.9,158.5 43.7,40.7 81.8,89.3 110,146.9 z m -3904.7,-11.3 c -164.7,-97.2 -280.3,-252.9 -357.8,-395.7 l -0.4,-0.4 c -68,-125.1 -107.2,-240.1 -124,-297.2 -77.8,10.1 -154,25.2 -227.9,43.8 22.9,58.3 72.1,176.6 143,298.8 h -0.4 c 3.1,5.3 6.8,11.3 10.6,17 52.8,88.9 116.2,177.6 187.9,244.9 37.2,34.9 76.2,63.3 116.7,83.8 83.4,3 167.6,4.5 252.3,5.2 z m 106.1,-0.4 c 65.8,-0.7 131.5,-2.9 196.9,-5.9 -31.9,-19.3 -62.6,-44.1 -91.8,-71.8 -78.1,-73.8 -147.5,-172 -206.2,-270.9 -85.4,-143.8 -148,-288.2 -175.6,-356.5 -89.4,-4.5 -177.5,-2.3 -263.5,6 20.5,65 67.2,194.8 147.3,327.9 87.6,146.2 215,296.6 392.9,370.9 z m -455,-8.5 c -18,-13.6 -35.9,-28.7 -52.7,-44.9 -76.6,-72 -142.5,-164.5 -196.9,-255.8 -80.2,-134.8 -134.8,-267.4 -157.7,-327.9 -22.5,6 -45.2,11.9 -66.7,19.4 -74.8,23 -145.1,48.8 -211.2,75.9 12.4,52.9 38.9,144 90.7,238 4.5,9.1 9.5,18 15.5,27.1 60.5,100.2 150.5,197.6 284.5,250 27.9,2.3 55.7,4.5 84.1,6.7 69,4.6 139.3,8.5 210.4,11.7 z m 760.1,-3 c 68.8,-4.5 136.9,-10 204.2,-17 -104,-73.9 -180.3,-201.4 -235.6,-322.5 -46.4,-101.2 -78.1,-199.2 -95.4,-260.8 -135.5,-49.8 -270.1,-78.1 -401.9,-89.5 30.4,73 87.7,201.1 163.6,328.2 57.3,96.7 125.1,192.7 198,261.7 54.3,51.2 110.5,86.8 167.1,99.9 z m -1177.1,-25.2 c -100.1,-65.8 -171.2,-155.6 -219.3,-243.4 -51.8,-93.9 -79.6,-185.8 -93.5,-243 -100.2,44 -190,89.5 -267.7,134.9 8.6,32.6 26.6,85.7 59.6,141.8 3.8,6 7.9,12.6 11.7,18.6 36.5,56.6 88.2,113.7 162.8,155.1 107.4,12.9 223.8,25.2 346.4,36 z m 1461.9,-1.5 h 0.4 c 114,-14 225.2,-32 330.6,-55.4 -224.5,-244.3 -456.1,-402.8 -685.6,-497.3 18.1,58.8 45.3,137.9 82.2,218.6 18.4,40.4 39.7,80.8 62.7,119.4 v 0.4 c 56.6,93.7 127.2,175.7 209.7,214.3 z m -1909.5,-47.2 c -43,-36.2 -76.7,-76.5 -102.4,-116.7 -39,-60.4 -60.9,-120.2 -72.4,-160.8 -145.4,88.7 -242.3,168 -289.1,207.7 101.5,17.6 261.8,43.7 463.9,69.7 z m 5197.3,-445.7 c 12.3,-97.4 24.1,-194.4 34.8,-290.3 7.5,-66.6 14.6,-132.8 21.4,-198.1 -36.6,-163.1 -169,-303.9 -305.5,-408.9 -104.3,-80.3 -209.2,-138.5 -271.3,-170.1 -99.7,222.4 -169.9,439 -216.6,646.8 70.4,13 204.6,43 341.4,99.2 99.6,41 201.7,96.1 282.2,170.6 46.6,43.3 86.2,93.3 113.6,150.8 z m -2221.2,-239.2 c -6,-65.7 -11.8,-134.4 -17,-205.8 -91.5,-157.5 -225.9,-199.1 -344.2,-202.7 -57.7,-1.5 -110.6,6 -151.1,15.6 v 0.4 l 0.4,0.3 c 191.1,249 407.3,353.4 512,392.2 z m 93,-24 c 97.4,-123.1 179.9,-244.2 249.2,-362.7 -19.4,-3 -44.3,-3.8 -72.4,-0.4 -58.4,6.7 -129.7,32.1 -196.5,110.8 6,88.9 12.2,173 19.7,252.3 z m -117,-275.1 c -5.3,-79.1 -10.3,-161.7 -16.3,-250 -24.4,-75.8 -79,-129.5 -151.1,-168.3 -72.7,-39 -162.3,-61.9 -249.2,-74.7 -118.9,-17.3 -232,-15.6 -291.9,-12.8 33.9,97.9 74.4,184.7 119,261.3 h -0.4 c 22.4,38.8 46.3,74.6 70.1,108.5 45.7,-11.6 111.3,-23.5 184.1,-21.3 109.9,3 238.1,40.4 335.7,157.3 z m 93,-41.9 c 65.9,-62.1 135.5,-87.3 194.2,-94.2 41.5,-5.2 78,-0.7 103.5,4.5 90.6,-161.9 157,-319 202.3,-471.3 -119.8,21.2 -385.5,89.1 -517.5,291.1 6.8,96 11.5,185.5 17.5,270.1 z m 2219.2,-23.6 c 23.9,-249 42.1,-485.3 56.2,-698 -39.2,-176.6 -124,-269.6 -202.7,-321.4 -37.7,-24.8 -74.1,-39.8 -103.5,-48.8 -128.2,190.4 -232.8,377.9 -317.8,561.2 63.8,32.5 172.7,92.6 281,176 112.2,86.3 225.2,198.1 286.8,331 z m -8261.4,-79.5 c 108.2,-0.7 209.9,-12.1 305,-31.4 8.4,-26.2 76,-230.2 191.1,-441.1 61.6,-112.8 136.5,-227.4 224,-317 34.6,-35.3 71.7,-67 110.5,-92.6 -77.2,0.6 -159.8,2.2 -248.1,5.2 -182.3,78.2 -349.7,276.3 -474.4,469.4 -109.9,170.4 -187.1,334.2 -218.5,405 v 0.4 c 37.5,2.2 74.4,3 110.4,2.2 z m -160.8,-6 c 25.5,-58.9 107,-238.6 229,-427.8 107.3,-166.2 244.5,-339.9 404.2,-440.7 -115.8,3.7 -240.9,10 -371.6,17.8 -404.3,199.9 -580.4,635.4 -631,786.4 130.2,34.4 253.3,55.1 369.4,64.4 z m 520.1,-37.6 c 135.3,-32.3 257.3,-80.6 365.8,-139.1 19,-10.2 37.5,-20.6 55.5,-31.4 13.6,-55.3 42,-157.7 89.5,-270.5 58.2,-138.1 144.7,-292.9 271.7,-396.2 -63.1,-1.4 -132.2,-2.2 -210.1,-2.2 -62.6,25.5 -122,69.7 -177.5,126.3 -83,84.6 -156.3,196.7 -216.6,307 -93.4,171.2 -155.4,338.5 -178.7,405.8 z m -936,-39.5 h 0.4 c 47.6,-144.4 206.2,-542.7 566.6,-766.6 -96.5,6.8 -197,14.3 -300,23.2 -267.6,84.2 -415.2,230.2 -498.4,367.1 -61.7,100.7 -87.6,196.1 -98.8,257.7 114.8,49.1 224.8,88.5 330.2,118.6 z m 6502.3,-134.4 c -6,-93.6 -13.3,-191.8 -21.7,-298.1 -98.3,-205.9 -287,-293.4 -461.2,-330.6 -121.1,-26 -233.6,-26.2 -300.4,-22.9 11.5,175.1 41.3,328.1 83,461.2 57.4,-3 182,-6.7 314.3,12.8 90.4,13.2 184.5,37.2 264.7,80.2 46.7,25 88.6,56.9 121.3,97.3 z m -6877.1,-3.8 c 13.1,-66.4 41.2,-162.3 102.3,-262.4 70.6,-115.6 185.4,-237.6 369.4,-326.7 -88.9,8.8 -179.7,18.8 -272.4,29.8 -294.1,87 -431.6,195.1 -495.4,280.2 -30,39.7 -43.2,74.7 -50,101.2 l -0.4,0.8 h 0.4 c 119.8,69.1 235,127.6 346.1,177.1 z m 6971.2,-19.7 c 160.7,-196.9 432.7,-253.7 537.2,-268.6 61.5,-226.5 76.5,-441.3 59.3,-643 -140.6,60.8 -487.2,237.1 -624,541.8 11.3,133.8 20,255.5 27.5,369.8 z m -5179.8,-10.1 c 335.4,-215.2 521.7,-500 589.4,-620.1 -6.7,-0.2 -5.2,0.2 -13.5,-0.8 -46.1,-2.2 -113.7,-5.2 -194.2,-7.7 -143.2,91.6 -244,261.6 -308.1,413.9 -34.7,82.6 -58.5,159 -73.6,214.8 z m -2180.5,-172.1 c 9.1,-29.9 25.4,-66.2 54.7,-105.4 53,-70.9 147.4,-150.6 313.9,-223.6 -226.3,30.4 -460.8,66.7 -702.2,112 l 0.3,0.4 c 114.7,80.9 225.7,153 333.3,216.6 z m 7235.9,-200.3 c -3.7,-46.6 -7.9,-93.5 -12.4,-142.7 -8.3,-90.1 -17.6,-178.2 -27.1,-264.3 -89.8,-187.2 -239.7,-296.1 -380.6,-360.4 -129.6,-59.2 -250.1,-79.3 -306.2,-86.1 -28.8,207.5 -37.1,393.1 -29.4,559.7 69.7,-3 186.7,-3 313.1,24.4 156.5,33.5 329.5,109.1 442.6,269.4 z m -2219.2,-13.6 c 118.6,-242.8 153.7,-460.5 127.9,-654.2 -40.9,23.9 -93.1,58.1 -141.9,101.9 -50.4,45.3 -97.7,99.7 -125.1,161.6 -24.7,55.4 -34.9,116.3 -19,184.1 53.6,77 106.7,146.9 158.1,206.6 z m -130.2,-7.5 c -43.5,-54.9 -87.8,-114.6 -131.4,-178.7 -73.5,-50.1 -135.2,-43.5 -183.7,-25.2 -21.4,7.5 -39.5,17.3 -53.1,27.9 l 0.4,0.7 c 143.4,94.3 276.4,146.6 367.8,175.2 z m 2438.6,-57 c 167.1,-290.3 500.4,-449.6 626.3,-501.5 -20.9,-182.8 -68.4,-354.3 -132.2,-513.2 -93.4,49.8 -378.4,228.6 -533.7,629.5 11.5,100.9 22.4,204.1 32.2,310.8 3,25.2 5.3,49.8 7.5,74.3 z m -7625.8,-43.1 c 184.9,-33.9 365.3,-62.5 541.4,-87.6 -129.8,-35.4 -226.7,-101.4 -272.1,-136.8 -116.1,89.7 -208.2,169.4 -269.3,224.4 z m 9967.4,-5.2 c 18.6,-306.3 28.5,-548.2 33,-690.7 -119,137.9 -225.1,274.8 -319,410.5 30.6,10.3 65.7,25.6 101.6,49.2 66.9,44 136.3,116.4 184.4,231 z m -5189.9,-98.9 c 18.2,-15.1 44.7,-32.6 77.5,-44.9 41.2,-15.7 93.5,-22.8 150.4,-6 -34.4,-52.2 -68.1,-106.6 -101.9,-162.4 -24.6,-14.4 -51.9,-22.5 -80.3,-25.9 -46.7,-6 -97.6,1.5 -144.5,13.9 -44.1,12.4 -84.4,28.6 -114.7,42.6 29.6,31 60.5,59.9 91.4,86.8 40.9,35.8 81.5,67.5 122.1,96.2 z m -4062.5,-6.7 c 103.3,-13.4 204.8,-25.7 303.9,-36.4 -119.5,-39.6 -207.9,-104.1 -270.5,-169 -58.1,-59.9 -94.5,-120.6 -115.2,-162 -120.2,75.7 -229.5,152.1 -324,223.6 v 0.4 c 65.2,48.9 214.6,142.6 405.8,143.4 z m 453.5,-51.5 c 96,-9.5 189.2,-18 280.2,-25.2 -162.6,-73.7 -274.5,-185.3 -349.2,-288 -57.9,-79.4 -93.7,-153.1 -113.2,-201.1 -110.5,53.8 -214.8,113 -312.8,172.8 6.8,14.2 15.5,31.2 27.2,50.1 h 0.4 c 19.5,31.4 46.3,67.8 81.8,104.6 79.3,82.2 201.3,164.3 385.6,186.8 z m 3935.7,-17.4 c 2.3,-43.7 13.1,-84.8 29.9,-122.5 31.4,-70.6 83.7,-130.2 138,-178.3 58.7,-51.8 120.1,-91.1 164.7,-116.3 -5.3,-25.7 -10.4,-50.9 -17.9,-75.9 -23.8,-83.5 -57.9,-162.9 -100.4,-237.6 -43.7,29.4 -125.3,88.7 -199.2,166.7 -53.7,56.7 -102.8,123.8 -130.6,194.5 -18.6,47.6 -28.1,96.5 -22.8,146.9 h -0.4 c 46,77.5 92.4,152.3 138.7,222.5 z m -3543.9,-16.3 c 134.1,-9.6 262.6,-16.9 383.3,-22.5 -210.2,-94.4 -351.7,-243.4 -443.8,-378.3 -64.7,-94.8 -104.5,-182.2 -127.5,-239.9 -88.2,28.9 -175.1,62.8 -260.4,100.8 -28.3,11.6 -55.9,24.8 -83,37.9 12.6,31 32.3,75.6 62.1,125.6 h 0.4 c 77.2,129.7 220.5,297.6 468.9,376.3 z m 1515,-26 c -211.8,-350.8 -459.1,-550 -723.6,-644.1 21,67.7 57.5,174.5 109.3,283.3 16,33.6 33.2,67.7 52,100.4 h 0.4 c 31.3,54.6 66.9,106.2 105.4,149.6 38.4,43.3 79.7,78.4 124,100.8 h 0.4 c 39.6,0.6 79,1.5 113.2,2.2 87.1,2.3 156.1,4.5 205.4,7.5 6.7,-0.2 6.7,0.6 13.6,0.8 z m -1013.1,-1.4 c 24.4,-0.8 50.6,-2.3 74.4,-3.1 56.8,-1.4 109.5,-3 162.4,-3.7 -148.9,-87.4 -282.1,-236.1 -387.6,-376.7 -93.6,-124.4 -164.7,-243.2 -202.7,-310.4 -97.2,14.3 -194.9,37 -291.1,66.2 15.4,40.3 40.2,94.9 76,156.6 94.9,163.6 269,373.6 568.6,471.3 z m 340.3,-9 c 91.6,-1.5 175.4,-0.7 251.9,-0.4 -25.4,-20 -49.6,-43.2 -71.7,-68.6 -66.3,-74.8 -120.8,-168.8 -164.7,-261.2 -62.4,-131 -103.3,-258.4 -121.7,-321.7 -41,-12.4 -82.5,-22.2 -124,-29.8 -134.9,-24.7 -273.3,-26.2 -412,-10.1 6.7,11.7 14.3,24.4 22.5,38.4 39.7,67 97.2,157.3 167,250.4 122.8,163.7 285.1,334.4 452.7,403.1 z m 2128.1,-91.8 c 33.4,-16.5 81.8,-37.4 136.5,-52 50.8,-13.6 107.2,-21.6 162.7,-14.7 11.8,1.5 22.9,3.8 34.5,6.8 -25.7,-43.9 -51.6,-88.5 -76.7,-133.4 -175.6,-148.2 -370.1,-116.1 -451.1,-93.4 14.1,29.3 29.4,57.5 45.4,84.5 h 0.3 c 44.7,75.5 95,142.2 148.5,202.3 z m 2952.9,-80.3 c -13.8,-116.5 -28.4,-228.7 -43.8,-336.4 -108.7,-337.3 -418.4,-440.6 -535.2,-468.2 -38.4,152.4 -67,295.6 -87.2,429.9 60.1,7.5 184.6,29.1 318.6,90.2 121.7,55.6 252.1,144.2 347.6,284.5 z m 92.3,-34.1 c 167.3,-362.1 436.7,-529.2 526.3,-576.7 -26.2,-61 -54.5,-120.5 -84.9,-177.5 -41.5,-79.2 -85.9,-153.4 -131.8,-222.8 -33.1,20.6 -83.2,57.2 -136.8,115.8 -87.7,95.5 -183.3,247.5 -223.6,480.2 17.8,120.9 34.8,248.5 50.8,381 z m -2654.9,-39.5 c 4.5,-30.4 12.3,-60.4 23.7,-88.8 31,-78.9 84.1,-150.1 140.6,-209.6 78.2,-82.7 164.2,-144.2 209.3,-174.4 -44.1,-71.1 -95.2,-137.6 -151.1,-200 -30.1,20.2 -106.7,75.8 -176.4,157.3 -81.3,95 -150.5,222 -128.6,369 27.2,49.4 54.6,98.2 82.5,146.5 z m -185.6,-133.7 c -30,-54.9 -59.6,-110 -88,-165.1 -160.2,-148.1 -336.6,-177.8 -425.6,-182.6 9.9,59.1 23.4,114.7 40.3,166.7 15.6,48.4 33.6,94.6 53.1,138.3 v 0.4 c 74.3,-20.8 248.8,-53 420.1,42.3 z m 53.1,-104.7 h 0.4 c 11,-122.6 74.1,-228.4 142.6,-308.5 68.8,-80.4 144.2,-136.9 179.8,-161.6 -32.1,-33.7 -65.7,-66.3 -100,-97.3 -48,-43.5 -96.5,-83.4 -144.5,-120.1 -65.3,88 -206.3,316 -140.3,570.5 20,39.2 41.1,78 62,117 z m -194.6,-163.5 c -19.1,-37.3 -37.1,-74.7 -55.8,-111.2 -22.7,-45.2 -44.5,-89.3 -65.5,-133 -103.4,-127.5 -184.6,-173 -238.3,-186.8 -12.5,-3 -23.1,-4.5 -32.9,-5.2 -3.8,110.7 0.3,213.9 13.1,308.9 v 0.3 c 78.8,3.8 229.5,24.9 379.5,127.2 z m 2820.7,-30.2 c -23.5,-151.9 -47.8,-291.7 -71.7,-420.5 -91.6,-177.1 -214.7,-306.6 -288.7,-374.8 -54.7,158.3 -100.3,308.4 -137.6,450.3 105.9,25.4 353,108.5 498,345 z m 90.3,-39.9 c 49.9,-175.4 131.4,-298.7 207.8,-382.2 55.6,-60.5 109.3,-99.8 145.7,-123.2 -68.4,-100.1 -138.6,-190.3 -206.9,-269 -3,1.5 -5.3,3 -9.4,5.2 -17.8,9.1 -43.2,25.3 -69.3,55.5 -51.3,59 -108.6,171.8 -123.3,386 18.6,102.7 37.3,211.8 55.4,327.9 z m -2843.9,-10.9 c -3,-214.7 109,-393.3 167,-471.3 -71,-51.9 -140.1,-96.8 -205,-134.9 -14.9,26.2 -33.8,63.2 -51.2,105.4 -31.6,78.4 -54.5,174.5 -33.3,253.5 27.2,56.6 56,114.9 85.7,174.8 12.2,23.9 24.3,48 36.8,72.4 z m 4394.6,-18.6 c -164.9,-1.5 -273.3,-20.9 -273.3,-20.9 l -3,-0.8 c -0.1,-0.1 -0.2,-0.2 -0.3,-0.4 l -34.9,-5.2 14.7,-35.6 c 0.1,-0.2 0.3,-0.3 0.4,-0.4 413.5,-1017.7 886.1,-1376.4 1260,-1475.1 104.9,-27.8 201.1,-34.5 286,-30.2 v 61.2 c -45.7,-2.3 -95.4,-0.5 -149.2,6.7 l -0.4,0.4 h -0.4 c 14.3,23.3 36,51.6 63.5,77.9 23.9,22.5 53,42.4 86.5,56.5 v 34.2 c -43.2,-15.7 -79.3,-40.3 -108.2,-67.4 -35.1,-33 -60.2,-69.7 -76.3,-96.2 -26.9,4.5 -54.5,10.5 -83,18.3 h -0.4 c -56.4,14.9 -115.7,36.4 -177.1,66.3 26.9,29 78.6,83.2 142.3,130.6 46.6,34.7 98.9,65.6 151.1,81.3 19.5,6.1 38.8,9.8 57.8,10.9 31.6,1.5 62.2,-3.7 91.4,-18.6 0.8,-0.7 1.5,-1.5 2.3,-2.2 v 293 c -19.3,-56.9 -31.6,-120.8 -24.9,-187.2 -56.9,49.8 -117.8,102.4 -185.6,159.7 -78.5,206.2 0.8,450.4 38.4,544.5 61.3,-51.7 118.8,-112 172.1,-180.2 v 94.9 c -184.2,208.7 -412.9,331.8 -636,400.4 -227,69.7 -448.6,85.4 -613.5,83.7 z m 48.4,-62 c 30.7,-0.2 63.3,-0.8 97.7,-3 -4.5,-16.3 -9.7,-39 -7.5,-69 3,-45 21.1,-104.6 70.5,-178.3 -165,111.9 -295,192.2 -373.6,239.1 47.5,5.3 121,11.3 212.8,10.9 z m 130.7,-4.5 c 68.7,-4.5 143.7,-13.9 222.4,-28.7 -6,-28 -12.9,-71.2 -10.4,-125.5 2.9,-74.8 22.9,-171 81.7,-276.4 -62.9,45.9 -123,88.5 -179.8,127.9 -93.3,106.9 -119.3,186.5 -122.9,238 -1.5,26.3 2.3,45.6 6.8,58.1 0.7,3 1.5,4.5 2.2,6.8 z m 253.4,-34.9 c 53.9,-11 109.1,-24.7 165.5,-42.2 40.9,-12.5 82.2,-27.1 122.9,-43.4 -19.5,-64.3 -67.5,-268.4 23.6,-515.9 -69.5,54.5 -137.4,106.4 -202.3,154.6 -89.9,127.6 -115.7,243.4 -119.3,329.1 -2.3,52.5 3.7,92.7 9.6,117.8 z m -627,-26.8 c 72.6,-43.1 188.4,-114.7 335.6,-213.5 -104.4,21.6 -195.8,21.1 -247.7,18.2 -29.6,61.9 -58.7,127 -87.9,195.3 z m 944.1,-71.3 c 104,-44.4 206.4,-102.1 301.5,-177.9 -34.7,-83 -115.6,-313.3 -58.1,-527.1 -12.7,10.5 -25.2,20.9 -38.4,31.4 -54.6,45.2 -107.6,88.4 -160.1,130.2 -114.7,259.9 -65.4,476.6 -45,543.4 z m -5400,-86.4 c -70.9,-150 -129.6,-279.2 -172.1,-375.2 -15.2,96.6 -24.6,188.9 -29.9,276.7 13.3,0.6 27.5,2.3 43.5,6.8 43.6,11.2 96.8,37.6 158.5,91.8 z m 79,-56.6 c 6.8,-55.7 23.7,-110.4 43.1,-157.7 18.2,-44.7 38.4,-83.6 54.2,-111.3 -120.5,-67.6 -220.9,-110.5 -280.6,-134.4 41.2,94.2 104.1,235.3 183.3,403.4 z m 4538.9,-11.2 c 67.1,-1.5 156.9,-10.8 251.1,-40.8 71.4,-49 147.9,-103.2 229.8,-163.1 -178.2,42.7 -332.4,-33.7 -393.8,-71.4 -48.9,83.8 -97.6,175 -146,274.5 16.6,0.6 36.5,1.4 58.9,0.7 z m -1601.9,-95.8 h 0.4 c 25.9,-131.8 70.7,-214.6 115.1,-266.2 29.5,-34.7 59.4,-53.4 81.8,-65.5 -139.2,-155.1 -265,-263.4 -340.7,-323.6 34,134.4 86.7,359 143.4,655.4 z m -105,-40.7 c -51.7,-263.2 -99,-464.5 -130.6,-588.3 -41.9,104.4 -79.8,205.4 -114.3,303.5 58.6,52.3 156.3,150.1 244.9,284.8 z m 2091.3,-86.4 c 58.8,-1.5 122.5,-15.1 187.6,-48.4 57.6,-43.1 116.6,-88.9 177.5,-136.9 -110.2,21 -212.6,1.5 -295.3,-29.1 -91.2,-34 -159.5,-82.3 -191.1,-106.9 -53.3,72.1 -106.4,152.7 -159.7,241.8 46.5,28.6 151.8,82.9 281,79.5 z m 286,-207.8 c 45.3,-1.5 92.6,-9.2 141.1,-26.3 44.6,-35.8 90,-72.6 136.1,-110.8 25,-20.9 48.8,-40.9 72.4,-60.9 -127.8,22.1 -243.8,-23.5 -332.5,-80.9 -71.7,-46.5 -126.7,-100.8 -157.8,-134.9 -81.3,74.2 -164.1,164.8 -247.6,275.1 29.4,23.1 95.1,69.8 183.3,102.7 59.9,22.4 129.6,38.4 205,36.1 z m 275.2,-223.6 c 41.3,0.8 84.7,-5.2 129.1,-20.9 53.5,-45.8 102.5,-88.3 149.2,-129.1 -34.1,3.8 -68.8,-0.7 -102.3,-11.2 -57.5,-17.3 -112.8,-49.9 -161.2,-86 -70.9,-52.8 -127.4,-112.8 -152.7,-141.1 -81.8,42.6 -167.1,100.4 -254.3,176.7 29.6,32.7 82.3,85.5 151.2,129.8 67.9,44.1 150,79.9 241,81.8 z M 42958.8,23925 c -21.6,0 -43.1,-0.5 -64.4,-1.5 -340.6,-16.6 -642.2,-156.2 -642.2,-156.2 l -32.5,-15.5 17.5,-27.5 c 0.9,-2.4 2.2,-4.7 3.7,-6.8 160,-250 335.3,-403.6 507.7,-491.8 173.3,-88.6 343.2,-111.6 492.7,-101.6 264.6,17.8 464.2,136 506.5,162.8 102,-2.2 182.2,-3 245.7,-3.7 -494.5,-165.6 -982,-414.3 -1442.5,-771.7 -359.2,100.7 -636.3,44.4 -843.4,-98.8 -151.1,-104.5 -264.8,-253.1 -350.7,-418.2 -0.3,-0.2 -0.5,-0.5 -0.8,-0.7 -0.6,-1 -1.1,-2 -1.5,-3 -31.4,-60.4 -59.3,-123.2 -83.7,-186.5 -179.5,-467 -184.3,-976.4 -184.5,-994.1 -0.1,-1 -0.3,-2 -0.3,-3 l 0.3,-0.7 3.8,-36.5 36.4,5.3 c 0.4,0.1 0.5,0.2 1.5,0 h 0.4 c 255.7,38.6 469.7,96.6 648.4,168.6 1.9,0.4 3.7,1.1 5.2,2.2 495.2,200.9 718,507.9 805.4,796.1 97.6,322 28.9,617.9 0.8,714.7 525.2,408.6 1086.9,673.5 1654.1,834 252.2,71.3 505.2,121.7 756.9,155 v 65.5 c -257.6,-33.7 -516.9,-85 -775.1,-158.1 -2.3,-0.6 -4.5,-1.5 -6.7,-1.5 h -0.4 c -6.8,-1.5 -22.8,-3 -53.5,-3.7 -59.8,-2.3 -177.1,-3.8 -400.4,1.4 -65.6,207.4 -174.1,348 -304.2,437.2 -1.8,2.1 -4.2,3.7 -6.7,4.5 -0.5,0.2 -1,0.3 -1.6,0.4 -15.4,9.8 -30.5,19.7 -46.1,28.7 -138.7,77.6 -295,104 -446,103.8 z m -11.6,-63.1 c 15.4,0.2 30.7,0 46.1,-0.4 -5.2,-28.1 -13.9,-89.6 -8.6,-159.3 5.3,-69.4 25.4,-148.4 77.6,-210.9 -27.9,8.5 -56.1,16.8 -83.7,25.6 -149.8,88.1 -190.6,260.6 -201.2,332.2 39.7,5.2 80.8,9.1 123.6,11.2 15.3,0.8 30.7,1.5 46.1,1.5 z m 77.9,-1.5 c 55.3,-3 110.5,-10.7 164.3,-23.3 -6.7,-35.1 -18.7,-103.9 -16.7,-179 1.6,-54.3 10.3,-112.2 32.6,-163.6 8.1,-18.6 18,-36.5 30.2,-52.7 -35.6,9.5 -71.2,19.6 -106.9,29.8 -79,58.5 -105.7,150.2 -112,232.6 -5.3,70.6 4.5,132.7 8.5,156.2 z m -278.7,-16 c 9.3,-63.5 40.4,-199.6 142.2,-298.3 -17.3,5.2 -34.2,11.1 -51.1,16.6 -41.8,14.2 -82.6,27.7 -121.7,41.4 -46.8,27.1 -81.2,82.7 -103.1,134.1 -11.4,28.1 -19.6,54.1 -24.8,73.3 48,12.6 101.1,24.1 158.5,32.9 z m 473.2,-14.6 c 54.8,-15.1 107.7,-36.4 157.8,-64.4 15.2,-8.2 29.5,-17.5 43.8,-27.1 -9.1,-32.6 -19,-79.9 -22.5,-131.4 -3,-47.8 0.6,-100 19,-147.7 9.2,-25.6 23.6,-49.7 43.4,-70.9 -54.5,11.1 -111.3,24.5 -169,39.1 v -0.4 c -26,21.1 -44.3,48.9 -57.8,79.9 -20,46 -28.5,100.3 -29.8,151.9 -2.3,70.9 8.5,136.8 15.1,170.9 z m -662.7,-26.4 c 5.2,-20.3 14.2,-48.1 26.8,-77.5 12.9,-31.1 30.7,-64.4 53.8,-93.4 l -0.4,-0.3 c -115.6,41.5 -211.1,78.2 -274.4,103 39,16.7 106.3,43.5 194.2,68.3 z m 891.8,-84.5 c 102.6,-78.4 188.1,-196.6 246.1,-365.4 -52,3.7 -109.5,12 -170.5,22.9 v -0.4 c -39.2,24.3 -62.9,57.5 -77.2,94.9 -16.5,41.6 -19.2,89 -17,133.7 2.2,43.3 10.8,84 18.6,114.3 z m -1077.8,-55 c 64.7,-25 152.6,-58 255.7,-95 -54.2,-3.7 -91.3,-15.8 -117,-30.9 -9.1,-5.3 -16.5,-11.9 -23.2,-17.4 -38.5,43.5 -77.5,91.1 -115.5,143.4 z m 281.3,-126 c 21.3,0.3 45.1,-0.6 72.1,-3.7 30.1,-10.6 60.9,-21.4 92.6,-31.8 25.8,-8.3 51.9,-17.4 78.3,-26 -117.8,-22.2 -198.3,-82.6 -236.8,-117.8 l -0.3,0.4 c -50.4,38.3 -100.5,84.4 -150.4,138 5.2,4.5 10.8,8.5 17.8,12.7 23.6,14.1 63.1,27.1 126.8,27.9 z m 315.9,-84.1 c 39,-12.4 78.5,-24.4 118.2,-36 -124.5,-35.6 -190.9,-131.9 -215.9,-176.4 -29.6,11.4 -59.9,24.2 -89.9,39.5 -32.3,16.3 -64.4,36.2 -96.5,59.4 43.7,39.4 140.1,107.9 284.1,113.5 z m 186.8,-55.7 c 32.8,-9.3 65.4,-18 98.1,-26.4 -6.8,-4.5 -13.6,-7.9 -19.4,-12.8 -29.2,-22.7 -51.6,-52.8 -69,-83 -18.7,-32.3 -31.3,-64.8 -39.5,-87.9 -53,3 -107.8,10.8 -164,25.2 v -0.8 c -20,5.3 -40.5,11.6 -60.8,18.6 27.2,48.5 103.5,154.3 254.7,167.1 z m 147.3,-39.6 c 41.8,-10.3 83.2,-19.9 123.6,-28.3 -34.4,-18.8 -55.6,-46.2 -67.4,-72.8 -9.5,-21.1 -13.6,-41.8 -15.2,-57.4 -32.3,-5.2 -66,-9.6 -101.9,-11.9 -27,-1.6 -54.7,-2.3 -82.9,-2.3 7.9,20.7 18.8,47 33.7,73.3 16.1,27.8 36.1,54.9 60.8,74 14.6,11.8 30.9,20.5 49.2,25.2 z m 183.3,-40.3 c 50.3,-9.6 99,-17.1 145,-22.5 -56.1,-29.3 -142.8,-66.6 -253.9,-89.5 h -0.4 c 1.5,11.3 5.2,24.6 11.7,37.9 13.8,31.4 39.9,63.1 97.6,74.1 z m 1514.2,-0.3 c -481.2,-58 -763.1,-349.1 -920.4,-646.5 -186.6,-352.7 -206.6,-715.1 -206.6,-715.1 l -2.3,-40.7 40.3,7.7 c 530.4,105.7 871.6,267.4 1089.1,443.8 v 89.9 c -7.5,-6.8 -13.7,-13 -21.3,-19.3 -15,17.1 -33.4,43.1 -47.2,77.5 -25.9,65.1 -35.6,159.2 29.1,285.6 13.5,14.3 26.3,29.2 39.4,43.8 v 95.8 c -1.4,-1.6 -2.2,-3.1 -3.7,-4.6 -32.6,-20.3 -75.5,-29.6 -124.8,-31 -66.3,-1.4 -142.7,11.2 -214.7,29.5 -94.9,23.9 -181.5,57.3 -229.8,77.1 66.8,56.3 143.2,105.8 229.8,145.8 36.8,-20.8 97.4,-51.7 166.3,-77.5 v 0.3 c 55.8,-20.7 117.3,-37.3 177.1,-42.1 v 32.5 c -26.8,2.2 -54.1,6 -81.4,13.2 -28.8,7.5 -57.2,16.5 -84.9,26.8 -54.9,20.4 -104.8,44.6 -140.6,63.5 90.6,37.8 192.8,65.2 306.9,79 z m -599.9,-329.5 c 44.8,-19 141.6,-57.6 248.8,-84.8 73.7,-18.9 151.8,-32.3 222.8,-30.3 26.6,0.7 52.5,3 76.4,9.3 -29.5,-31.5 -58.9,-63.3 -89.1,-94.5 -117.9,-48.5 -248.1,-37.5 -357.4,-10.1 l 0.4,-0.4 c -99.6,24.7 -181.7,63.7 -221.7,84.5 36,44.4 75.9,86.7 119.8,126.3 z m -139.5,-151.9 c 34.6,-18.8 106.6,-53.9 196.8,-80.6 102.9,-30.5 230,-49.3 352.3,-17.9 -39.6,-39.4 -80.1,-78 -120.1,-115.8 -28.5,-9.4 -60.3,-14 -93.8,-15.2 -64.9,-2.3 -136.1,9.9 -202.3,26.8 -4.5,0.7 -8.9,1.5 -12.8,3 v 0.4 c -90.2,23.9 -168.2,56.2 -206.1,72.8 25.7,43.2 53.9,85.8 86,126.7 z m 640.2,-98.4 c -31.5,-97.4 -20.6,-176.7 3,-234.5 15.5,-37.3 35.1,-66.2 51.9,-85.7 -41,-32.5 -87,-64.2 -137.9,-95.3 h -1.6 c -15,8.7 -46.2,30.7 -66.3,67 -26.6,50.1 -34.9,128.7 55.1,252.7 1.2,1.1 2.2,2.4 3,3.8 31.3,30.2 62.3,60.9 93,92.2 z m -742.2,-55.5 c 39.1,-17.4 126.3,-54.4 226.7,-79.8 68.1,-17.2 142.2,-29.7 211.7,-27.5 15.5,0.2 30.9,1.5 45.7,3.7 -34.8,-31.7 -69.3,-63.1 -103.8,-93 -14.2,-12.4 -28.6,-24.1 -42.7,-36.1 -87,-38.1 -174.5,-34.4 -249.5,-15.9 -7.9,1.5 -13.3,3 -19.8,5.3 -68.1,19.7 -123.4,49.6 -153.9,68.6 17.9,43.5 39.4,88.4 63.5,134.1 6.8,13.4 14.1,27.1 22.1,40.3 z m 567.4,-113.9 c -36.6,-84.3 -27.6,-148.9 -3,-194.2 18.4,-33.8 43.7,-57.1 63.2,-70.5 -55.8,-32.5 -117.4,-63.8 -185.3,-94.2 h -0.4 c -9.9,13.8 -21.3,36.5 -26.7,66.7 -9.1,54.2 1.5,133 92.3,233.3 2.1,2.4 3.3,5.4 3.7,8.6 18.8,16.6 37.2,33.5 56.2,50.4 z m -2506.4,-71 c 84.1,-1.5 175,-13.6 273.6,-37.9 -2.9,-3 -2.9,-2.3 -6.7,-6 -24.2,-22 -58.3,-52.6 -100,-92.3 -16.7,-15.4 -34.8,-33.9 -53.9,-51.9 -31.1,-10.2 -66.7,-13.2 -105,-10.9 -38.2,2.2 -78.8,9.7 -119,20.5 v -0.7 c -24,6.7 -48.1,14.6 -71.3,22.9 -75.1,26.6 -141.9,59.6 -183.3,81.3 104.7,49.8 225.4,77.1 365.5,74.8 z m 1841.8,-18.9 c 33.1,-20.4 88.9,-50.1 156.9,-69.8 63.5,-18.5 138.8,-27.7 216.3,-11.6 -62.7,-52.1 -122.5,-100.4 -178.7,-144.6 -54.2,-15.5 -105.3,-13.2 -148.8,-3.7 -4.5,0.7 -9.2,2.2 -14,3 -41.7,10.8 -74.9,27.1 -94.2,38.4 15.2,57.6 35.8,121 62.5,188.3 z m 510.4,-47.7 c -32.1,-63 -36.1,-117.3 -28.7,-159.7 5.3,-31.8 17.6,-57 28.7,-74.1 -56.9,-24.5 -118.2,-48.5 -183.7,-71.3 h -0.4 c -2.3,10.6 -5.3,22.4 -5.3,36.5 -1.5,40.9 12.1,97.3 70.2,167.4 38.8,32.5 78.5,66.2 118.9,101.2 z m -2035.9,-18.3 c 24.3,-87.8 70.3,-308 14.3,-565.1 -19,33.2 -43.8,80.2 -66.3,134.9 -41.3,101.2 -73.4,227.5 -49.2,337.2 38.7,36.5 72,66.7 94.6,87.2 4.5,3.8 2.9,3 6.7,6 z m -715.9,-7.5 c 38.3,-20.8 116.7,-61.3 207,-93.4 63.7,-22.6 132.9,-41.5 198.8,-45.3 22.2,-1.6 44.3,-0.8 65.5,1.5 -36,-35.5 -75.2,-74.5 -117.4,-117.9 -110.4,-46.2 -265.7,-42.7 -399.6,-23.6 -76.2,10.9 -145.1,26.4 -195,39.1 h -0.4 c -10.4,2.3 -19.7,5.3 -28.2,7.8 57.3,72.4 122.7,136.1 197.3,187.6 23.1,15.7 47.1,30.8 72,44.1 z m 577.1,-122.4 c -11.1,-107.6 20.8,-220.3 58.2,-312 30.5,-75 65,-136.1 84.4,-168.2 -3.7,-13.6 -7.6,-27 -11.2,-40.8 -23.2,-78 -58.2,-157.4 -106.2,-235.6 -20.5,42.4 -69.9,149.3 -106.2,272.8 -23.7,79.7 -41.4,166.4 -42.2,244.6 -0.5,52.4 6.7,101.1 23.6,142.2 36.4,36.4 69.5,68 99.6,96.9 z m 1977,-17.1 c -18.7,-39.9 -25,-75.2 -23.6,-105 0.7,-17 3,-32.1 7.7,-44.9 -87.8,-29.4 -183.5,-57.5 -287.5,-83 79.3,57.8 185.1,137.5 303.4,233 z m -382.9,-6.7 c 24.4,-13.6 62.9,-31 109.3,-41.1 30.7,-6.8 65.3,-10.1 102.3,-6.8 -106.6,-82.2 -194,-144.9 -249.6,-184 3,40.3 11.5,122.5 38,232.1 z m -2461.5,-112.8 c 49.2,-13.6 138.1,-36 239.9,-50.4 115,-16.4 246.2,-23.3 356.6,5.2 -24.2,-25.1 -48.2,-50.3 -73.6,-77.9 -10.9,-11.4 -22.9,-24 -33,-36.4 -185.6,-94.3 -365.2,-77.4 -486,-45.4 l -0.4,0.4 c -45.6,12.1 -82.5,26 -108.5,37.6 31.3,58.7 66.3,114.5 105,166.7 z m 720.9,-8.2 c -6,-30.2 -8.5,-61.8 -8.2,-94.5 0.8,-82.8 19.5,-171.6 43.5,-253.1 44.7,-152.3 108.3,-279.2 116.6,-295.3 -47.2,-71.4 -106.2,-140.9 -180.2,-207.4 h -0.4 c -18.3,47.9 -58.9,160.4 -87.2,291.5 -31.9,148.4 -46.2,319.3 2.3,441 40.2,42.3 77.4,81.8 113.5,117.8 z m -163.5,-170.5 c -27.3,-121.9 -10.5,-267.2 17,-394.9 31.2,-145.5 76.9,-267.5 92.6,-307 -58.5,-50 -125.4,-97.5 -202.3,-142.2 -46.9,94.2 -168,379.6 -72.4,661.9 57.4,64.8 112.8,126.2 165.1,182.2 z m -677.1,-15.9 c 37.8,-16.1 97.2,-38.6 171.7,-52.7 106,-20.1 241.7,-23.5 384.1,30.6 -53.8,-59.1 -110.5,-122.8 -168.6,-189.9 -152.9,-79.3 -298.3,-67.5 -395,-43.1 -37.3,9.5 -67.3,20.9 -87.6,29.5 6.8,18.9 13.2,37.8 20.6,56.6 22.4,57.5 47,114.3 74.7,169 z m 463.1,-221.3 c -63.7,-273 48.3,-533.1 93.5,-622.8 -63.3,-35.2 -133.2,-68.2 -209.7,-98.8 -23.7,33.9 -56.3,90.2 -74.5,166.2 -25.2,102.7 -24,240.3 61.7,404.7 43.8,52.3 87,102.6 129.1,150.7 z m -568.2,-34.1 c 31.7,-13.2 82.7,-31.5 147,-41.5 82.8,-13.1 187.2,-12.5 297.6,29.1 -39.3,-45.7 -78.9,-93.4 -119.4,-142.6 -96.6,-75.6 -191.9,-94.4 -267.4,-93.1 -33.8,0.7 -63.4,5.3 -87.2,10.6 h -0.4 c -14.3,3 -25.9,6.7 -35.6,10.5 18.1,73.6 38.7,150.3 65.4,227.1 z m 367.1,-203.5 c -44.4,-127.6 -41.3,-238.2 -20.2,-325.2 17.9,-75.4 50.2,-133.4 75.2,-170.5 -75,-28.8 -156.2,-55.3 -244.6,-79 h -0.3 c -9.7,15.4 -19.3,38.3 -23.7,70.9 -10,69.5 3.8,184.2 100.4,362.4 38,48.6 75.8,95.7 113.2,141.4 z m -104.7,-28.7 c -40.9,-51.6 -83.2,-104.3 -125.1,-158.9 -89.8,-88.9 -203.3,-115.2 -256.6,-122.8 10.7,77.5 26.1,164.6 46.8,256.2 29.1,-9.7 74.4,-21.3 129.5,-22.2 59.7,-0.7 131.1,10.3 205.4,47.7 z m -98,-228.6 c -43.7,-111.9 -50.6,-193.3 -42.2,-251.2 4.5,-31.9 13.7,-56.7 23.9,-74.7 -79.9,-20.6 -165.5,-38.9 -256.9,-54.7 h -0.7 c 91.6,134 184.4,260.7 275.9,380.6 z m -96.9,-22.5 c -70.5,-94 -141.4,-191.9 -212,-294.2 3,54.3 8.5,134.8 20.9,231 37.8,4.5 113.9,19.1 191.1,63.2 z" style="fill:#2a3a28;fill-opacity:1;fill-rule:nonzero;stroke:none" transform="matrix(0.13333333,0,0,-0.13333333,0,4000)"/><path id="path8" d="m 20653.1,29984.3 c -35.1,0 -72.4,-9.2 -110.9,-30.2 -283.7,-66.5 -331.9,-388 -409.3,-619.4 -85.2,-263.8 305.3,-281.4 464.7,-194.5 112.8,112.4 206.9,248.7 248.8,403.8 118.9,168.5 -4.4,440.2 -193.3,440.3 z m 2257.1,-13.9 c -219.1,-3.8 -242.3,-325.3 -256.1,-499.6 51.5,-206.3 323.6,-176.1 484.8,-138.4 139.5,-26.5 324.9,35.5 326.3,202.7 -46.3,240.3 -299,358.6 -508.4,431.8 -16.4,3 -31.9,3.7 -46.5,3.7 z m 2314.6,-669.8 c -205.8,-3 -412.6,-191.8 -483.7,-381.7 -139.8,-404.1 394.5,-266.7 543.4,-73.3 115.7,92.3 364.6,225.7 156.6,377.5 -67.7,56 -141.9,78.7 -216.3,77.5 z M 21467,28862.3 c -127.2,-3 -248.2,-43.8 -320.2,-153.1 -102.2,-257.8 254.5,-364.4 437.2,-436.4 40.7,-25.7 86.1,-47.7 134.9,-50.8 276.8,28.5 346,536.5 34.9,593.8 -85.6,28.6 -188,48.9 -286.8,46.5 z m 2457.9,-634.8 c -6,0.1 -12.4,-0.2 -18.6,-0.4 -28.3,-1.5 -57.9,-7.8 -88,-19.8 -209.9,-6 -485,-121.5 -409.6,-391.5 -63.1,-283.4 216.5,-147.2 376.7,-21.7 88,69 252.8,-72.5 324,35.7 131.4,171.7 3.8,392.6 -184.5,397.6 z M 20905,27625.2 c -218.4,-22.5 -273,-422.9 -27.5,-468.2 154.1,-51.6 378.1,-69.2 479,84.1 80.7,203.4 -200.9,287.4 -344.9,344.1 l -0.4,-0.3 c -32.1,20.1 -67.8,38 -106.2,40.3 z m 1739.8,-111.3 c -38.4,-2.2 -74.1,-19.8 -106.2,-39.9 -144.1,-56.7 -425.6,-140.7 -345,-344.1 101,-153.3 324.6,-135.7 478.7,-84.1 245.5,45.2 190.8,445.6 -27.5,468.1 z" style="fill:#2a3a28;fill-opacity:1;fill-rule:nonzero;stroke:none" transform="matrix(0.13333333,0,0,-0.13333333,0,4000)"/><path id="path9" d="M 5398.87 4453.53 C 5390.51 4453.6 5381.79 4457.98 5373.03 4468.67 C 5346.93 4520.27 5378.25 4581.19 5420.68 4613.36 C 5468.53 4622.63 5462.4 4553.01 5461.6 4522.26 C 5450.07 4499.06 5426.19 4453.27 5398.87 4453.53 Z M 5691.41 4482.73 C 5637.76 4484.8 5607.31 4557.26 5633.68 4601.37 C 5653.64 4659.08 5737.52 4645.53 5742.67 4586.13 C 5727.71 4552.81 5736.33 4494.49 5691.41 4482.73 Z M 5989.73 4543.5 C 5984.04 4543.43 5977.48 4545.98 5969.73 4552.23 C 5922.11 4586.07 5949.93 4657.3 5989.63 4685.65 C 5993.28 4688.13 5996.72 4690.08 5999.96 4691.64 L 5999.96 4546.79 C 5996.91 4544.73 5993.51 4543.53 5989.73 4543.48 L 5989.73 4543.5 Z M 5550.17 4758.88 C 5537.41 4758.93 5525.32 4764.62 5518.81 4778.31 C 5502.96 4802.26 5489.72 4839.7 5511.27 4863.94 C 5542.29 4887.01 5569.51 4842.78 5585.79 4820.79 C 5590.68 4816.22 5595.33 4810.92 5597.47 4804.46 C 5601.49 4779.32 5574.55 4758.78 5550.17 4758.88 L 5550.17 4758.88 Z M 5820.08 4875.05 C 5779.99 4875.65 5750.17 4911.4 5729.13 4942.28 C 5709.75 4985.1 5768.87 5005.57 5799.92 5016.59 C 5837.49 5017.19 5844.85 4969.45 5845.76 4940.21 C 5856.67 4917.62 5854.55 4883.1 5826.08 4875.2 C 5824.05 4875.1 5822.05 4875 5820.08 4875.1 L 5820.08 4875.05 Z M 5511.68 5056.38 C 5476.32 5056.58 5439.03 5087 5438.67 5123.09 C 5457.97 5149.48 5500.11 5183.89 5535.65 5174.46 C 5570.52 5147.78 5558.47 5097.7 5543.72 5063.15 C 5536.81 5060.76 5529.75 5058.69 5522.52 5057.31 C 5518.96 5056.71 5515.33 5056.31 5511.68 5056.41 L 5511.68 5056.38 Z M 5910.31 5175.54 C 5894.12 5175.6 5878.87 5182.88 5870.61 5200.24 C 5850.52 5230.6 5833.69 5277.97 5861 5308.71 C 5900.33 5337.96 5934.83 5281.92 5955.47 5254.04 C 5961.72 5248.26 5967.55 5241.55 5970.31 5233.36 C 5975.41 5201.5 5941.2 5175.42 5910.31 5175.54 L 5910.31 5175.54 Z M 5664.89 5304.94 C 5638.57 5305.54 5613.4 5324.12 5620.87 5354.96 C 5620.37 5371.24 5625.27 5384.65 5633.37 5396.15 L 5763.85 5396.15 C 5763.81 5391.28 5763.36 5386.71 5762.36 5382.71 L 5762.31 5382.71 C 5748.27 5358.33 5729.29 5336.03 5704.73 5321.79 C 5694.81 5309.86 5679.67 5304.59 5664.89 5304.94 Z" style="fill:#2a3a28;fill-opacity:1;fill-rule:nonzero;stroke:none"/><path id="path10" d="m 25499.2,29999.8 c -273.1,-887 -680.1,-2047.1 -1230.9,-3188.9 -559.9,-1160.6 -1266.7,-2298.4 -2122.7,-3099.8 -856,-801.4 -1856,-1266.2 -3017.6,-1097.2 -2339.8,340.5 -4146.7,1978.3 -5579.5,3398.6 -716.4,710.2 -1337.4,1365.1 -1890.9,1775.4 -276.7,205.2 -537.8,349.8 -788,407 -250.1,57.1 -491.4,22.1 -711.9,-127.5 -856.1,-580.9 -1186.25,-1676.8 -1574.69,-2511.8 -194.22,-417.5 -402.03,-769 -684.06,-962.8 -282.04,-193.7 -640,-240.7 -1168.91,-42.2 -1082.19,406.2 -2016.02,643.2 -2818.4,430.6 C 3109.26,24768.6 2454.57,24102.6 1933.87,22741.4 1359.41,21239.7 967.578,19528.6 0.308594,17971.2 V 17772 C 1044.88,19384.4 1447.73,21168.2 2035.04,22703.4 c 514.06,1343.9 1142.19,1970.4 1904.49,2172.4 762.35,202 1675.12,-24.1 2750.98,-427.9 550.11,-206.5 958.16,-158.2 1269.69,55.8 311.52,214 525.58,583 722.42,1006.1 393.67,846.3 722.69,1916.4 1536.28,2468.4 197,133.7 400.2,161.6 627.1,109.7 226.9,-51.8 475.6,-187.7 745.7,-387.9 540.2,-400.6 1161.6,-1053.9 1879.3,-1765.4 1435.5,-1423 3259.9,-3082.3 5641.1,-3428.8 1198.8,-174.5 2236.6,308.6 3108.3,1124.7 871.6,816.1 1582.6,1964.2 2145.9,3132 560.3,1161.3 973.5,2342.3 1248,3237.3 z m 9092.4,0 c -593.2,-608.6 -976.5,-1372.6 -1187.2,-2241.3 -356.9,-1472.4 -229.8,-3243.5 165.5,-5078.7 790.7,-3670.4 2658.2,-7598.2 3925.7,-9888.9 626.9,-1132.9 727.8,-2207.8 420.5,-3222.58 C 37608.9,8553.59 36890.6,7597.73 35872.5,6720.43 33836.2,4965.9 30602.3,3526.52 27105.7,2535.47 23023.4,1378.48 16695.4,517.973 12125,0 h 951.1 c 4470.1,526.371 10238.8,1348.52 14060.2,2431.6 3506.4,993.79 6749.6,2433.01 8806.7,4205.51 1028.6,886.29 1761.6,1857.38 2077,2899.02 315.4,1041.67 209.7,2153.17 -429.1,3307.57 -1263.9,2284.1 -3127.5,6208.2 -3914,9859.7 -393.3,1825.7 -516.3,3583.2 -165.5,5030.3 215.8,890 609.2,1662 1229.8,2266.1 z" style="fill:#2a3a28;fill-opacity:1;fill-rule:nonzero;stroke:none" transform="matrix(0.13333333,0,0,-0.13333333,0,4000)"/></g></g></svg>