<?xml version="1.0" encoding="utf-8"?>
<svg version="1.1" id="svg1" width="6000" height="5000" viewBox="0 0 6000 5000" xmlns="http://www.w3.org/2000/svg" xmlns:bx="https://boxy-svg.com">
  <defs id="defs1">
    <bx:guide x="1791.731" y="-2839.352" angle="90"/>
    <bx:export>
      <bx:file format="svg" path="Unbetitelt.svg"/>
      <bx:file format="svg" path="Unbetitelt 2.svg"/>
      <bx:file format="svg" path="Unbetitelt 3.svg"/>
    </bx:export>
  </defs>
  <g id="g1">
    <g id="group-R5">
      <path id="path2" d="M 0 -7572.601 L 45000.003 -7572.584 L 44999.878 30000.021 L 0.078 30000.021 L 0 -7572.601 Z" style="fill:#ffffff;fill-opacity:1;fill-rule:nonzero;stroke:none" transform="matrix(0.13333333,0,0,-0.13333333,0,4000)"/>
      <path id="path3" d="M 6000 1661.79 C 5657.17 1736.92 5060.78 1907.84 5307.06 2668.79 C 5553.49 3430.19 4097.85 3167.84 3822.82 4061.94 C 3641.52 4651.35 3256.38 4853.59 2726.98 5009.68 L 6000 5009.68 L 6000 1661.79 Z" style="fill:#f29b88;fill-opacity:1;fill-rule:nonzero;stroke:none"/>
      <path id="path4" d="M 0 459.091 L 0.011 1772.021 C 151.439 1971.611 96.136 2164.58 288.277 2499.43 C 995.814 3732.52 720.425 4661.62 565.714 5009.68 L 1285.68 5009.68 C 1860.48 2863.55 585.203 1073.987 0 459.091 Z" style="fill: rgb(242, 213, 189); fill-opacity: 1; fill-rule: nonzero; stroke: none;"/>
      <path id="path5" d="M 0.078125,30000 V 15346.3 C 441.84,15140.9 1056.09,15100.8 1913.91,15398.2 c 2971.4,1030.2 1039.41,4498.7 4078.43,5166.8 3196.72,702.7 4690.96,-1517.6 7837.66,122.2 2834.7,1477.2 1239.4,4524.4 3733.6,6362.3 2353.6,1734.4 6957.5,839.6 9655.7,2950.5 z" style="fill:#f2c2b6;fill-opacity:1;fill-rule:nonzero;stroke:none" transform="matrix(0.13333333,0,0,-0.13333333,0,4000)"/>
      <path id="path6" d="m 14143.8,30000 c 730.6,-2278.7 3466.5,-6518.4 10629.1,-5586.2 7622.7,991.9 16117.3,-1846.5 20227,-8818.7 v 6843.4 c -1549.1,1578.8 -3886.5,2702.6 -7060.4,3818.7 -8402.1,2954.5 -12006.8,1373.2 -14990.3,1391.9 -1529.1,9.5 -2486.5,1446.9 -2683.8,2350.9 z" style="fill:#f2d5bd;fill-opacity:1;fill-rule:nonzero;stroke:none" transform="matrix(0.13333333,0,0,-0.13333333,0,4000)"/>
      <path id="path7" d="M 531.697 3072.7 C 527.265 3072.63 522.88 3073 518.625 3073.73 C 501.593 3076.68 486.646 3085.51 474.13 3098.01 C 449.099 3123.05 432.13 3161.36 419.922 3204.89 C 396.902 3286.95 391.75 3386.43 411.083 3449.05 C 331.594 3507.84 259.792 3569.25 195.078 3632.25 C 228.479 3552.05 265.339 3475.97 282.875 3411.59 C 293.402 3372.95 297.506 3337.76 286.287 3307.3 C 275.072 3276.85 247.875 3254.47 205.776 3243.8 C 184.12 3238.32 163.719 3239.93 146.708 3247.68 C 129.703 3255.41 116.292 3268.82 106.609 3285.45 C 87.244 3318.69 80.406 3364.13 79.943 3413.6 C 79.026 3511.12 104.12 3623.22 145.782 3681.91 C 92.063 3738.02 43.678 3795.29 0 3853.11 L 0 3957.24 C 61.484 3985.04 148.516 4001.19 225.979 4000.65 C 274.99 4000.31 320.063 3993.49 353 3974.34 C 369.468 3964.77 383.198 3951.45 390.828 3934.55 C 398.474 3917.67 399.52 3897.7 394.031 3876.21 C 383.359 3834.45 360.776 3807.37 330.574 3796.16 C 300.37 3784.97 265.635 3788.61 227.375 3798.95 C 166.255 3815.49 94.604 3849.49 18.911 3881.28 C 65.766 3818.71 118.364 3756.76 177.198 3696.17 C 231.776 3740.63 332.73 3775.47 423.49 3785.47 C 471.672 3790.78 516.692 3788.97 551.281 3773.94 C 568.573 3766.43 583.323 3755.42 592.776 3739.68 C 602.244 3723.94 605.687 3704.13 602.749 3682.38 C 597.047 3640.12 578.057 3610.68 549.629 3596.17 C 521.197 3581.68 486.443 3581.69 447.672 3587.44 C 384.031 3596.89 307.703 3623.41 227.479 3646.36 C 288.292 3588.08 355.334 3531.17 429.12 3476.55 C 471.526 3523.37 555.859 3567.81 634.739 3588.48 C 676.448 3599.41 716.088 3603.51 748.839 3594.68 C 765.219 3590.26 780.375 3581.92 790.959 3569 C 801.547 3556.08 807.145 3539.25 807.339 3519.49 C 807.713 3481.36 794.615 3452.18 771.063 3435.47 C 747.511 3418.74 716.844 3413.8 681.973 3413.81 C 625.708 3413.84 556.796 3426.89 484.984 3436.6 C 530.12 3405.29 577.489 3374.81 627.505 3345.24 C 686.573 3349.64 785.317 3360.89 868.005 3352.01 C 910.52 3347.44 948.921 3338.24 975.339 3316.34 C 1001.75 3294.47 1012.4 3257.95 997.453 3214.76 C 991.516 3197.59 979.995 3184.17 965.208 3174.65 L 965.208 3174.56 C 953.719 3167.13 940.317 3162.01 925.937 3159.05 C 893.063 3152.26 853.577 3155.2 813.541 3166.03 C 737.38 3186.65 660.416 3240 617.531 3314.34 C 616.145 3314.51 614.792 3314.85 613.5 3315.37 C 575.187 3337.95 538.349 3361.05 502.859 3384.66 C 540.26 3337.41 576.016 3293.12 599.911 3252.01 C 618.317 3220.36 630.577 3189.65 628.02 3159.82 C 625.463 3130 606.64 3103.49 572.213 3084.22 C 558.849 3076.73 544.995 3072.91 531.697 3072.7 L 531.697 3072.7 Z M 530.405 3104.22 C 536.385 3104.08 542.776 3105.36 550.249 3108.72 C 513.541 3153.78 484.891 3228.01 463.432 3293.86 C 454.312 3321.86 446.656 3348.25 440.646 3370.3 C 435.61 3322.4 435.886 3266.45 450.62 3213.93 C 461.979 3173.43 478.744 3139.09 497.02 3120.81 C 506.161 3111.66 515.328 3106.44 524.568 3104.84 C 526.495 3104.51 528.411 3104.26 530.405 3104.22 L 530.405 3104.22 Z M 571.072 3121.07 C 588.552 3134.01 595.339 3147.37 596.656 3162.72 C 598.287 3181.8 589.697 3206.69 572.833 3235.68 C 548.235 3277.97 504.307 3331.4 461.058 3386.78 C 467.364 3363.21 475.932 3333.07 486.375 3301 C 507.984 3234.69 538.511 3160.01 571.072 3121.07 Z M 886.713 3187.63 C 898.557 3187.59 909.531 3188.61 919.271 3190.63 C 929.011 3192.63 937.235 3195.39 944.125 3199.05 C 955.593 3205.16 963.197 3213.72 967.12 3225.04 C 968.344 3228.56 969.187 3231.77 970.016 3234.96 C 894.244 3218.92 811.629 3236.88 746.463 3258.73 C 727.937 3264.95 710.891 3271.56 695.771 3277.85 C 731.64 3240.21 775.271 3209.56 822.12 3196.88 C 844.839 3190.73 866.968 3187.7 886.713 3187.63 L 886.713 3187.63 Z M 904.177 3252.73 C 927.776 3252.4 951.068 3254.55 973.115 3260.03 C 971.984 3273.63 965.359 3283.16 954.927 3291.8 C 937.292 3306.43 904.516 3316.8 864.907 3321.05 C 801.349 3327.88 729.536 3320.05 670.344 3315.11 C 690.411 3305.56 719.52 3292.77 753.853 3281.26 C 798.859 3266.17 852.271 3253.49 904.177 3252.73 Z M 181.902 3272.17 C 184.755 3272.26 187.776 3272.6 190.995 3273.14 C 179.63 3295.93 172.427 3326.85 166.708 3362.13 C 160 3403.53 156.167 3451.33 153.891 3495.77 C 151.974 3533.18 151.255 3568.59 151.052 3597.21 C 129.364 3545.32 110.854 3479.53 111.463 3414.33 C 111.902 3368.01 119.542 3326.26 134.047 3301.36 C 141.302 3288.92 150.099 3280.82 159.938 3276.34 C 166.282 3273.47 173.334 3271.85 181.902 3272.17 L 181.902 3272.17 Z M 214.714 3279.86 C 220.411 3282.04 225.416 3284.33 229.802 3286.95 C 243.698 3295.24 251.547 3305.86 256.214 3318.52 C 263.678 3338.78 262.146 3367.95 252.438 3403.59 C 237.99 3456.61 205.615 3526.91 174.719 3599.39 C 174.995 3570.63 175.771 3534.61 177.714 3496.65 C 179.963 3452.76 183.474 3406.28 189.963 3366.26 C 195.896 3329.65 204.744 3298.09 214.714 3279.86 L 214.714 3279.86 Z M 681.921 3445.65 C 711.687 3445.63 734.891 3450.37 749.823 3459.6 C 750.812 3460.21 751.817 3460.76 752.719 3461.41 C 765.187 3470.26 773.281 3482.84 775.296 3505.49 C 715.744 3510.77 637.057 3497.56 572.213 3481.92 C 549.063 3476.34 527.896 3470.47 509.683 3465.17 C 573.989 3456.05 636.807 3445.68 681.921 3445.65 L 681.921 3445.65 Z M 509.577 3489.88 C 526.525 3494.72 545.801 3499.99 566.473 3504.97 C 631.667 3520.69 710.359 3534.72 774.885 3529.41 C 773.468 3537.95 770.385 3544.26 766.359 3549.2 C 760.792 3555.99 752.781 3560.68 741.088 3563.82 C 717.708 3570.13 681.235 3567.29 642.593 3557.16 C 592.405 3544.01 546.541 3517.18 509.577 3489.88 L 509.577 3489.88 Z M 0 3545.74 L 0 3806.5 C 9.276 3744.86 18.219 3686.71 18.396 3637.52 C 18.526 3602.08 14.187 3570.77 0 3545.74 Z M 489.479 3615.7 C 508.125 3615.66 523.568 3618.41 535.312 3624.39 C 536.473 3625 537.656 3625.8 538.776 3626.47 C 553.385 3635.03 563.735 3648.82 569.161 3674.11 C 544.573 3676.97 487.651 3682.9 422.402 3685.21 C 360.344 3687.42 290.52 3685.86 236.058 3676.53 C 316.058 3653.63 395.24 3627.26 452.583 3618.76 C 465.963 3616.77 478.292 3615.74 489.479 3615.7 Z M 572.057 3697.62 C 572.052 3708.13 569.692 3716.59 565.651 3723.3 C 560.255 3732.26 551.213 3739.22 538.364 3744.8 C 512.667 3755.96 471.568 3759.06 426.536 3754.1 C 372.599 3748.16 320.13 3728.57 276.104 3706.15 C 323.52 3710.56 375.312 3710.38 423.02 3708.68 C 489.094 3706.32 546.963 3700.43 572.057 3697.62 L 572.057 3697.62 Z M 293.468 3821.07 C 303.334 3821.4 312.099 3822.94 319.62 3825.72 C 323.38 3827.11 326.948 3828.74 330.312 3830.79 C 342.156 3837.97 351.635 3849.72 358.687 3869.18 C 332.38 3875.19 272.438 3888.41 206.135 3899.05 C 161.678 3906.19 114.661 3912.25 73.537 3913.88 C 56.14 3914.59 39.735 3914.59 25.167 3913.57 C 102.739 3881.09 178.954 3844.59 235.49 3829.29 C 257.516 3823.33 277.026 3820.53 293.468 3821.07 L 293.468 3821.07 Z M 364.73 3892.23 C 366.61 3904.3 365.24 3913.88 361.63 3921.84 C 357.244 3931.53 349.26 3939.71 336.979 3946.86 C 312.422 3961.13 271.61 3969.06 225.776 3969.38 C 169.506 3969.77 112.719 3955.95 64.959 3938.17 C 67.921 3938.08 70.979 3938.09 74 3937.96 C 116.661 3936.26 164.875 3930.16 209.911 3922.93 C 277.307 3912.11 338.312 3898.43 364.73 3892.23 L 364.73 3892.23 Z M 118.651 4042.81 C 90.302 4043.52 60.516 4054.25 29.459 4069.99 C 19.818 4074.88 9.984 4080.43 0 4086.28 L 0 4123.17 C 15.375 4113.54 30.052 4104.93 43.823 4097.95 C 79.26 4079.99 109.823 4072.19 133.172 4075.74 C 141.922 4077.07 150.167 4079.81 157.818 4084.57 C 163.078 4087.84 168.088 4092.03 172.959 4097.44 C 155.75 4111.4 90.344 4161.5 0 4196.97 L 0 4222.91 C 95.864 4187.09 165.687 4134.28 186.859 4117.13 C 188.886 4120.64 190.875 4124.44 192.854 4128.49 C 200.834 4144.88 202.183 4158.03 199.574 4169.63 C 196.938 4181.22 190.063 4192.32 178.438 4202.75 C 155.187 4223.63 113.359 4240.38 64.646 4250.87 C 43.416 4255.43 21.687 4258.11 0 4259.39 L 0 4293.14 C 24.454 4290.72 48.626 4286.99 71.73 4282.03 C 123.547 4270.88 169.583 4253.51 200.036 4226.16 C 215.276 4212.49 226.391 4196.01 230.735 4176.71 C 235.078 4157.41 232.178 4136.11 221.744 4114.7 C 201.391 4072.92 172.104 4049.13 138.026 4043.95 C 131.64 4042.99 125.192 4042.65 118.651 4042.81 Z" style="fill:#f29b88;fill-opacity:1;fill-rule:nonzero;stroke:none"/>
      <path id="path8" d="M 5516.77 -0.003 C 5632.3 171.394 5723.57 392.972 5789.3 644.224 C 5913.86 1120.38 5946.25 1701.47 5881.07 2241.33 C 5815.9 2781.17 5653.02 3279.4 5389.11 3591.07 C 5125.21 3902.74 4761.35 4030.52 4285.57 3830.09 C 3322.59 3424.39 2606.33 3812.45 2133.46 4301.7 C 1902.66 4540.5 1729.7 4803.04 1612.66 5009.68 L 1645.38 5009.68 C 1761.06 4807.98 1928.65 4556.58 2150.41 4327.14 C 2618.5 3842.84 3322.58 3459.27 4276.99 3861.35 C 4759.91 4064.79 5137.09 3934.09 5407.26 3615.02 C 5677.43 3295.95 5841.5 2791.11 5907.27 2246.19 C 5973.06 1701.25 5940.43 1115.84 5814.3 633.737 C 5750.53 389.916 5662.65 172.23 5551.17 -0.003 L 5516.77 -0.003 Z M 3464.54 4452.38 C 3130.77 4453.73 2904.66 4579.72 2755.13 4726.79 C 2658.39 4821.91 2593.94 4925.64 2552.35 5009.68 L 2583.41 5009.68 C 2623.69 4931.99 2683.97 4839.09 2771.51 4752.99 C 2973.46 4554.4 3319.71 4392.49 3902.19 4546.8 C 4488.49 4702.12 5138.53 4790.67 5676.38 4701.35 C 5851.87 4672.21 5854.41 4682.518 6000 4611.378 L 6000 4574.035 C 5854.58 4646.505 5850.86 4638.82 5673.07 4668.34 C 5140.23 4756.83 4492.07 4669.07 3907.66 4514.25 C 3742.22 4470.41 3595.14 4451.84 3464.54 4452.38 Z" style="fill: rgb(242, 213, 189); fill-opacity: 1; fill-rule: nonzero; stroke: none;"/>
      <path id="path9" d="m 12669.4,30000 c -22.7,-77.1 -47.3,-154.1 -73.6,-231 -229.1,-668 -598.3,-1315.9 -1187.9,-1768.1 -589.6,-452.2 -1401.2,-716.2 -2541.34,-605 -1494.53,145.8 -2731.76,44.6 -3700.15,-426.3 -968.36,-470.9 -1657.5,-1314.2 -2049.5,-2607.2 -437.03,-1441.7 -1663.32,-2404.8 -2969.18,-2509.5 -49.0581,-4 -98.3511,-5.9 -147.651875,-7.4 v -198.8 c 54.652375,1.5 109.140875,4.1 163.550875,8.5 1392.421,111.7 2682.621,1133 3142.421,2649.8 380.36,1254.7 1028.21,2039.2 1946.8,2485.9 918.6,446.7 2119.38,552.8 3594.34,408.9 1179.71,-115.1 2050.51,159.5 2680.81,643 630.4,483.5 1017.8,1169.1 1255.4,1861.9 33.7,98.5 64.1,196.9 92.2,295.3 z" style="fill:#f29b88;fill-opacity:1;fill-rule:nonzero;stroke:none" transform="matrix(0.13333333,0,0,-0.13333333,0,4000)"/>
      <path id="path10" d="M 1504.04 3778.24 C 1481.52 3778.04 1459.5 3784.75 1439.18 3796.37 C 1392.76 3822.94 1352.91 3872.87 1317.95 3932.13 C 1249.06 4048.9 1201.35 4201.37 1210.72 4300.99 C 1100.34 4333.17 996.235 4371.1 898.187 4413.44 C 969.484 4321.57 1043.12 4236.32 1088.14 4158.98 C 1115.91 4111.3 1133.43 4065.99 1129.28 4021.37 C 1125.14 3976.75 1096.87 3936.64 1044.53 3907.32 C 1017.6 3892.24 990.156 3886.93 964.692 3891.15 C 939.235 3895.37 916.968 3909.16 898.135 3927.83 C 860.463 3965.2 834.265 4023.34 816.072 4089.06 C 781.88 4212.59 774.683 4362.14 804.187 4456.48 C 679.635 4516.21 565.557 4582.96 461.26 4653.99 C 530.885 4565.75 599.801 4483.38 643.525 4408.22 C 673.489 4356.71 692.364 4307.98 687.916 4260.27 C 686.667 4246.85 683.463 4233.77 678.145 4221.3 C 677.552 4219.94 676.875 4218.53 676.235 4217.17 C 671.104 4206.2 664.353 4195.49 655.979 4185.49 C 653.869 4183 651.573 4180.63 649.26 4178.21 C 648.129 4176.99 646.968 4175.91 645.744 4174.75 C 643.344 4172.35 640.948 4169.82 638.359 4167.51 C 626.64 4157.04 612.708 4147.3 596.859 4138.42 C 595.025 4137.4 593.287 4136.52 591.484 4135.57 C 589.656 4134.66 587.959 4133.73 586.161 4132.89 C 584.339 4132.08 582.339 4131.19 580.531 4130.41 C 578.697 4129.66 577.063 4128.93 575.26 4128.23 C 553.525 4119.98 531.844 4117.59 511.489 4120.95 C 509.796 4121.25 508 4121.59 506.323 4121.93 C 504.672 4122.3 503.104 4122.62 501.468 4123.02 C 478.396 4129.13 457.646 4142.74 439.974 4160.28 C 399.578 4200.35 371.443 4262.71 351.812 4333.75 C 315.006 4466.94 307.979 4629.09 339.563 4730.78 C 340.495 4733.82 341.38 4736.64 342.406 4739.56 C 228.23 4826.88 127.484 4918.52 39.12 5009.68 L 99.839 5009.68 C 180.302 4929.28 270.474 4848.96 371.604 4772.07 C 441.334 4851.83 576.729 4930.98 704.401 4972.11 C 774.547 4994.7 842.041 5005.82 897.719 4994.07 C 925.568 4988.21 950.443 4976.05 969.083 4955.83 C 987.729 4935.61 999.011 4907.94 1001.33 4874.91 C 1005.86 4810.45 987.145 4761.48 949.708 4731.55 C 912.271 4701.64 860.38 4690.67 800.88 4687.42 C 704.932 4682.2 585.301 4697.76 460.64 4707.48 C 569.557 4631.69 689.724 4560.31 821.859 4497.15 C 870.349 4582.72 978.011 4679.35 1085.72 4740.55 C 1144.97 4774.2 1203.95 4797.29 1256.92 4797.13 C 1283.4 4797.05 1309.21 4790.56 1330.14 4775.53 C 1351.1 4760.52 1366.31 4737.21 1374.64 4707.53 C 1390.83 4649.82 1382.4 4601.55 1353.82 4567.07 C 1325.23 4532.59 1280.88 4512.78 1227.62 4498.65 C 1142.53 4476.06 1032.61 4467.22 919.375 4452.87 C 1019.29 4410.09 1125.71 4372.06 1238.68 4340.01 C 1273.49 4431.48 1370.8 4543.61 1473.14 4618.75 C 1527.47 4658.64 1582.9 4687.77 1634.99 4693.73 C 1661.03 4696.7 1686.44 4693.65 1708.78 4681.27 C 1731.12 4668.91 1749.08 4647.45 1760.66 4619.21 C 1783.16 4564.37 1780.78 4515.72 1756.63 4478.49 C 1732.47 4441.28 1690.58 4417.14 1639.9 4397.1 C 1556.71 4364.23 1446.42 4343.08 1333.87 4314.94 C 1447.6 4287.05 1567.8 4265.14 1694.62 4250.66 C 1713.14 4336.52 1783.82 4448.64 1864.43 4528.37 C 1907.04 4570.52 1951.96 4603.09 1997.55 4615.23 C 2020.34 4621.3 2044.34 4621.73 2066.07 4613.53 C 2087.8 4605.33 2106.26 4588.97 2120.23 4565.31 C 2147.19 4519.66 2151.75 4475.47 2135 4438.97 C 2118.27 4402.45 2084.82 4375.13 2042.82 4350.91 C 1975.04 4311.83 1882.92 4279.64 1789.71 4241.41 C 1865.82 4235.09 1944.06 4231.29 2024.83 4230.45 C 2092.9 4276.81 2203.98 4359.05 2309.72 4405.84 C 2364.1 4429.9 2416.74 4445.46 2463.78 4437.47 C 2510.8 4429.47 2548.95 4392.95 2560.98 4330.55 C 2565.75 4305.75 2561.23 4281.61 2550.07 4259.85 L 2550.12 4259.76 C 2541.44 4242.83 2528.84 4227.38 2513.58 4213.81 C 2478.71 4182.8 2429.14 4158.77 2373.39 4144 C 2267.35 4115.89 2137.6 4126.61 2034.28 4186.32 C 2032.5 4185.58 2030.63 4185.08 2028.71 4184.82 C 1966.87 4185.38 1906.47 4187.57 1847.32 4191.33 C 1925.2 4160.43 1999.06 4131.91 2056.4 4099.04 C 2100.58 4073.72 2136.72 4045.27 2154.39 4007.57 C 2172.04 3969.88 2167.75 3924.91 2139.71 3877.76 C 2125.2 3853.36 2105.06 3836.13 2082.5 3827.84 C 2059.95 3819.55 2035.79 3819.82 2012.02 3826.19 C 1964.47 3838.93 1917.39 3873.27 1872.44 3917.19 C 1787.67 4000.01 1712.3 4116.17 1692.04 4205.03 C 1555.44 4220.56 1426.35 4244.54 1304.62 4275.41 C 1400.59 4202.07 1497.84 4136.1 1563.72 4070.77 C 1603.27 4031.56 1632.64 3992.04 1640.31 3947.58 C 1647.98 3903.11 1630.82 3857.25 1587.55 3815.13 C 1565.28 3793.46 1539.56 3781.26 1513.71 3778.75 C 1510.47 3778.44 1507.26 3778.26 1504.04 3778.23 L 1504.04 3778.24 Z M 1504.08 3822.16 C 1506 3822.18 1507.86 3822.29 1509.72 3822.47 C 1522.58 3823.71 1535.38 3828.58 1549.36 3840.19 C 1519.83 3859.72 1489.62 3891.97 1458.2 3930.47 C 1421.35 3975.65 1383.52 4030.53 1349.88 4082.45 C 1321.57 4126.17 1296.13 4168.27 1275.99 4202.6 C 1285.96 4125.04 1309.4 4033.01 1355.47 3954.91 C 1388.19 3899.45 1426.36 3854.47 1461.15 3834.56 C 1476.36 3825.85 1490.72 3822.01 1504.08 3822.16 L 1504.08 3822.16 Z M 1573.23 3864.79 C 1578.58 3871.37 1583.04 3877.61 1586.51 3883.81 L 1586.47 3883.81 C 1597.43 3903.45 1599.51 3921.65 1596.34 3940.14 C 1591.23 3969.72 1569.08 4003.81 1532.62 4039.97 C 1478.35 4093.79 1390.5 4155.93 1302.91 4221.72 C 1323.23 4187.29 1349.27 4144.48 1378 4100.13 C 1411.23 4048.83 1447.68 3995.28 1483.32 3951.61 C 1515.91 3911.64 1548.56 3879.8 1573.23 3864.79 L 1573.23 3864.79 Z M 2047.83 3866.03 C 2055.19 3866.02 2061.91 3867.14 2068.03 3869.39 C 2078.26 3873.15 2087.35 3879.66 2096.24 3891.97 C 2020.71 3920.73 1934.6 3990.16 1862.98 4054.55 C 1832.54 4081.92 1804.94 4108.35 1782.36 4130.71 C 1809.6 4069.54 1848.94 4002.38 1903.18 3949.39 C 1945.02 3908.51 1989.03 3878.85 2023.75 3869.54 C 2032.42 3867.22 2040.46 3866.05 2047.83 3866.03 Z M 2112.74 3921.32 C 2124.78 3949.07 2123.68 3969.88 2114.59 3989.28 C 2103.3 4013.39 2075.58 4037.35 2035.11 4060.54 C 1976.1 4094.36 1886.14 4128.15 1795.54 4164.77 C 1819.54 4140.77 1850.75 4110.44 1885.62 4079.09 C 1957.74 4014.27 2046.44 3945.57 2112.74 3921.32 Z M 983.296 3934.25 C 994.937 3934.42 1007.78 3937.88 1022.88 3946.33 C 1026.17 3948.18 1029.09 3950.12 1032.08 3951.97 C 1018.23 3972.54 974.099 4039.5 930.276 4122.14 C 895.656 4187.42 861.016 4261.45 842.629 4330.7 C 835.593 4259.54 837.312 4177.06 858.5 4100.54 C 875.511 4039.07 901.068 3986.73 929.192 3958.84 C 943.265 3944.92 957.38 3937.49 972.031 3935.07 C 975.692 3934.46 979.416 3934.18 983.296 3934.24 L 983.296 3934.25 Z M 1058.95 3972.12 C 1067.26 3980.09 1073.35 3988.28 1077.6 3996.72 C 1082.27 4006.01 1084.83 4015.75 1085.77 4025.92 C 1088.52 4055.51 1075.43 4092.88 1049.85 4136.81 C 1009.74 4205.71 936.276 4292.89 865.989 4383.26 C 877.953 4309.63 918.312 4216.53 960.041 4137.85 C 1002.08 4058.57 1044.38 3993.92 1058.95 3972.12 L 1058.95 3972.12 Z M 531.437 4163.89 C 544.401 4164.14 558.64 4168.09 575.208 4177.38 C 576.281 4178 577.26 4178.77 578.307 4179.35 C 516.036 4244.14 466.683 4366.14 428.656 4476.74 C 408.902 4534.2 392.839 4588.28 381.318 4629.14 C 380.979 4626.62 380.511 4624.15 380.183 4621.59 C 369.354 4538.89 369.11 4437.93 394.599 4345.69 C 413.052 4278.92 440.35 4221.93 471.183 4191.33 C 486.62 4176.06 502.568 4167.47 518.88 4164.77 C 522.959 4164.1 527.12 4163.81 531.437 4163.89 L 531.437 4163.89 Z M 2286 4177.17 C 2312.19 4177.48 2337.87 4180.61 2362.32 4187.09 C 2412.95 4200.52 2456.11 4222.59 2483.67 4247.09 C 2494 4256.28 2502 4265.38 2507.75 4274.59 C 2517.31 4289.91 2520.51 4305.52 2517.36 4321.87 C 2516.36 4326.95 2515.16 4331.35 2513.95 4335.77 C 2433.87 4263.78 2321.83 4227.94 2228.18 4208.95 C 2201.55 4203.56 2176.51 4199.73 2153.91 4196.81 C 2197.27 4184.07 2242.35 4176.68 2286 4177.17 L 2286 4177.17 Z M 606.525 4198.41 C 618.911 4208.57 627.839 4218.89 633.859 4229.73 L 633.859 4229.78 C 636.416 4234.38 638.396 4239.1 640.011 4243.89 C 640.317 4244.82 640.661 4245.87 640.943 4246.83 C 642.656 4252.62 643.692 4258.47 644.249 4264.61 C 644.453 4266.63 644.552 4268.78 644.609 4270.86 C 644.629 4271.91 644.713 4273 644.713 4274.07 C 644.547 4305.1 630.411 4342.78 605.235 4386.05 C 562.317 4459.82 484.963 4552.15 409.948 4648.51 C 421.13 4607.23 438.078 4549.1 459.35 4487.23 C 497.692 4375.71 552.62 4252.45 606.525 4198.41 L 606.525 4198.41 Z M 2097.34 4223.99 C 2128.14 4226.44 2172.11 4231.3 2221.46 4241.3 C 2315.54 4260.39 2427.44 4297.95 2500.2 4368.11 C 2489.39 4383.72 2474.8 4390.59 2456.23 4393.75 C 2424.83 4399.09 2378.2 4388.82 2327.55 4366.41 C 2246.28 4330.45 2165.16 4271.09 2097.34 4223.99 L 2097.34 4223.99 Z M 1799.58 4292.98 C 1883.35 4326.69 1966.2 4357.82 2020.54 4389.15 C 2056.4 4409.82 2081.06 4431.69 2092.63 4453.18 C 2093.38 4454.61 2094.2 4456 2094.86 4457.41 C 2103.71 4476.75 2104.71 4497.47 2091.39 4526.14 C 2016.02 4491.1 1930.44 4420.55 1863.24 4356.65 C 1839.24 4333.83 1817.82 4312.02 1799.58 4292.98 L 1799.58 4292.98 Z M 1782.31 4322.64 C 1799.35 4340.26 1818.87 4359.99 1840.3 4380.37 C 1907.87 4444.61 1992.9 4516.25 2074.28 4554.72 C 2066.64 4564.01 2058.48 4569.45 2050.2 4572.6 C 2038.79 4576.9 2025.91 4576.99 2009.63 4572.65 C 1977.1 4563.99 1935.18 4535.18 1895.7 4496.12 C 1844.4 4445.39 1807.84 4381.23 1782.31 4322.64 Z M 1323.17 4357.27 C 1435.43 4385.27 1549.07 4408.56 1624.03 4438.19 C 1670.68 4456.62 1703.75 4477.94 1719.74 4502.53 C 1720.72 4504.04 1721.64 4505.82 1722.52 4507.39 L 1722.52 4507.44 C 1734.16 4527.9 1737.03 4551.66 1725.99 4585.88 C 1694.39 4572.24 1621.74 4539.87 1541.56 4497.31 C 1465.3 4456.83 1382.27 4406.35 1323.17 4357.27 L 1323.17 4357.27 Z M 1350.87 4420.78 C 1404.9 4459.06 1467.32 4494.87 1525.95 4525.99 C 1607.14 4569.09 1680.94 4602.16 1713.12 4616.21 L 1713.12 4616.27 C 1705.8 4628.92 1697.07 4637.44 1687.54 4642.73 C 1674.83 4649.77 1659.08 4651.87 1639.74 4649.65 C 1601.04 4645.23 1549.44 4620.37 1498.66 4583.09 C 1437.84 4538.44 1388.28 4478.39 1350.87 4420.78 Z M 904.489 4496.07 C 1020.48 4510.89 1137.59 4519.88 1216.3 4540.77 C 1265.36 4553.79 1301.15 4572.09 1320.12 4594.98 C 1323.68 4599.27 1326.79 4603.71 1329.42 4608.52 C 1338.68 4625.4 1341.91 4646.16 1336.87 4674.51 C 1301.02 4663.45 1219.72 4637.66 1132.48 4604.38 C 1073.99 4582.07 1013.18 4556.74 962.52 4530.12 C 941.088 4518.87 921.317 4507.42 904.489 4496.07 L 904.489 4496.07 Z M 935.287 4553.32 C 938.911 4555.29 942.563 4557.49 946.296 4559.42 C 998.844 4587.03 1061.19 4613.15 1120.44 4635.75 C 1209.13 4669.57 1292.06 4695.54 1328.18 4706.44 C 1322.06 4722.28 1313.77 4732.78 1303.9 4739.88 C 1291.88 4748.49 1276.57 4752.79 1256.82 4752.85 C 1217.32 4752.97 1162.63 4734.15 1107.21 4702.67 C 1039.19 4664.03 980.443 4607.93 935.287 4553.32 L 935.287 4553.32 Z M 763.88 4730.16 C 776.005 4730.16 787.645 4730.44 798.708 4731.04 C 853.869 4734.05 896.099 4745.89 921.749 4766.39 C 931.353 4774.09 939.364 4783.13 945.26 4794.19 C 949.323 4801.78 952.463 4810.33 954.563 4820.23 C 908.104 4827.64 668.104 4858.85 458.938 4752.33 C 569.583 4743.67 678.973 4730.17 763.88 4730.16 L 763.88 4730.16 Z M 495.937 4805.71 C 696.953 4887.52 906.177 4861.73 957.667 4853.56 C 957.667 4859.19 957.427 4865.13 956.995 4871.39 C 955.213 4896.66 947.687 4913.44 936.479 4925.6 C 925.249 4937.73 909.26 4946.39 888.005 4950.87 C 845.495 4959.84 783.463 4950.93 717.525 4929.68 C 634.62 4902.98 556.963 4855 495.937 4805.71 Z" style="fill:#f29b88;fill-opacity:1;fill-rule:nonzero;stroke:none"/>
    </g>
  </g>
</svg>