<?xml version="1.0" encoding="UTF-8" standalone="no"?>
<!-- Created with Inkscape (http://www.inkscape.org/) -->

<svg
   version="1.1"
   id="svg1"
   width="5000"
   height="3000"
   viewBox="0 0 5000 3000"
   sodipodi:docname="vecteezy_aesthetic-white-and-green-background-with-space-for-text_11426067-0.eps"
   xmlns:inkscape="http://www.inkscape.org/namespaces/inkscape"
   xmlns:sodipodi="http://sodipodi.sourceforge.net/DTD/sodipodi-0.dtd"
   xmlns="http://www.w3.org/2000/svg"
   xmlns:svg="http://www.w3.org/2000/svg">
  <defs
     id="defs1" />
  <sodipodi:namedview
     id="namedview1"
     pagecolor="#ffffff"
     bordercolor="#000000"
     borderopacity="0.25"
     inkscape:showpageshadow="2"
     inkscape:pageopacity="0.0"
     inkscape:pagecheckerboard="0"
     inkscape:deskcolor="#d1d1d1">
    <inkscape:page
       x="0"
       y="0"
       inkscape:label="1"
       id="page1"
       width="5000"
       height="3000"
       margin="0"
       bleed="0" />
  </sodipodi:namedview>
  <g
     id="g1"
     inkscape:groupmode="layer"
     inkscape:label="1">
    <path
       id="path1"
       d="M 0,0 H 37500 V 22500 H 0 Z"
       style="fill:#f6f6e6;fill-opacity:1;fill-rule:nonzero;stroke:none"
       transform="matrix(0.13333333,0,0,-0.13333333,0,3000)" />
    <path
       id="path2"
       d="M 3518.67,4891.05 C 2316.48,4879.65 1035.86,4299.96 0,4645.08 V 0 h 13701 c 154.9,574.141 65,1258.83 -152.9,1767.19 -1018.2,2375.74 -3866.81,886.56 -5644.55,1031.52 -1523.86,124.3 -2065.23,1403.99 -3357.73,1918.79 -330.27,131.52 -675.35,176.91 -1027.15,173.55 z"
       style="fill:#9dad7f;fill-opacity:1;fill-rule:nonzero;stroke:none"
       transform="matrix(0.13333333,0,0,-0.13333333,0,3000)" />
    <path
       id="path3"
       d="M 3743.79,2034.96 C 2391.21,2048.59 1169.22,1618.71 0,1910.08 V 0 h 9573.75 c -2.62,8.08984 -4.77,16.0195 -7.5,24.1406 C 8983.91,1771.25 7532.11,779.84 6308.67,954.609 5557.42,1061.95 5221.37,1873.01 4451.37,1982.97 c -239.96,34.3 -475.71,49.65 -707.58,51.99 z"
       style="fill:#c3ceb4;fill-opacity:1;fill-rule:nonzero;stroke:none"
       transform="matrix(0.13333333,0,0,-0.13333333,0,3000)" />
    <path
       id="path4"
       d="m 9068.44,9006.41 c -121.41,-2.54 -319.85,-118.17 -608.79,-402.15 -287.85,-287.42 -732.7,-1022.85 -706.6,-1420.24 -570.94,-569.61 -949.77,-1266.56 -1250.82,-2006.99 87.3,406.21 131.44,736.13 2.77,1192.35 -6.88,23.78 -362.27,947.46 -584.73,725.66 -601.64,-606.56 -82.07,-1706.29 514.61,-2087.38 -174.06,-448.25 -323.24,-909.81 -472.03,-1366.84 -23.4,-61.56 -44.33,-125.31 -62.62,-191.48 -163.51,-499.3 -330.85,-989.93 -533.71,-1448.79 -94.96,575.97 -46.4,1098.83 -25.58,1623 485.51,195.98 1012.61,934.77 650.7,1456.37 -133.44,190.04 -510.86,-436.6 -518.87,-453.04 -68.36,-141.61 -108,-269.18 -130.04,-394.54 -31.83,638.87 -201.32,1308.13 -804.84,2091.33 -1.72,1.68 -3.63,3.13 -5.7,4.38 -127.27,452.42 -234.65,788.83 -593.36,1159.76 -17.31,17.74 -767.93,662.74 -858.75,362.07 -241.33,-815.5 727.34,-1534.92 1432.62,-1593.59 312.46,-411.64 503.2,-789.02 617.1,-1147.11 -236.83,338.75 -890.89,708.67 -1248.71,812.58 -1905.43,536.95 17.93,-1409.49 1289.07,-950.08 86.32,-321.56 114.22,-628.87 117.61,-933.24 2.93,-267.93 -13.39,-533.79 -25.86,-804.42 -22.57,120.16 -61.79,242.78 -127.18,378.28 -8.05,16.45 -385.43,643.09 -518.87,453.05 -357.89,-515.82 153.63,-1244.06 634.57,-1449.69 5.35,-230 25.04,-466.68 71.72,-713.82 -148.6,-324.26 -316.6,-631.49 -515.51,-913.36 51.64,474.41 80,828.98 -116.48,1311.83 -9.46,22.89 -465.36,901.29 -661.8,656.14 C 3498.12,2286.99 4136.25,1252.27 4771.41,939.531 4507.58,576.371 4190.47,256.84 3793.67,0 h 108.91 c 520.54,356.25 901.91,820.352 1204.61,1347.81 659.14,-258.51 1854.49,-31.76 1991.05,811.76 48.44,310.35 -907.54,54.3 -930.82,45.9 -461.4,-170.55 -703.47,-411.88 -994.26,-739.45 184.38,339.57 339.34,703 479.73,1079.33 692.5,-147.26 1834.57,271.64 1831.56,1126.02 -2.89,314.1 -904.22,-94.57 -925.82,-106.72 -425.54,-242.5 -625.04,-518.71 -857.15,-886.99 89.22,246.48 173.09,497.93 255.94,750.93 0,0.28 0.16,0.28 0.24,0.43 0.23,0.82 0.46,1.64 0.7,2.46 18.44,56.29 36.91,112.62 55.27,169.07 2.19,6.68 4.38,13.43 6.57,20.11 162.73,427.15 448.51,745.08 796.09,1011.25 940.16,-970.82 3522.61,-67.61 1575.16,287.27 -323.09,56.25 -943.05,28.2 -1333.52,-115.86 162.15,107.11 333.36,206.88 508.75,303.95 309.37,171.21 631.17,333.59 936.25,513.55 940.59,-969.84 3521.47,-66.95 1574.57,287.85 -304.34,53.01 -871.72,31.06 -1262.97,-91.99 238.24,160.7 458.09,339.73 643.59,551.6 707.28,-26.95 1756.88,572.23 1614.38,1411.41 -54.4,309.41 -876.6,-241.57 -895.9,-257.07 -394.3,-320.71 -542.5,-637 -719.14,-1061.25 C 8980.12,5883.52 8233.4,5545.66 7537.23,5160.43 6988.59,4856.8 6470.47,4521.64 6147.97,4011.13 c 220.19,668.13 455.08,1332.19 780.43,1937.62 659.22,-258.24 1854.1,-31.37 1990.62,811.91 48.48,310.39 -907.5,54.34 -930.78,45.9 -461.91,-170.7 -703.94,-412.34 -995.15,-740.47 223.36,395.55 488.47,763.87 817.26,1089.03 1048.75,187.26 1726.53,1861.05 1258.09,1851.29 z"
       style="fill:#567075;fill-opacity:1;fill-rule:nonzero;stroke:none"
       transform="matrix(0.13333333,0,0,-0.13333333,0,3000)" />
    <path
       id="path5"
       d="m 37500,10332.6 c -61.5,-88.8 -121.2,-178.8 -178.8,-269.7 C 36872.4,9355.2 36524.5,8589.22 36124,7853.09 35723.4,7116.95 35260.6,6399.26 34628.7,5848.91 33699.4,5039.65 32486.8,4656.91 31344.8,4193.98 30773.9,3962.54 30209.7,3704.77 29700,3358.55 29190.4,3012.34 28734.7,2572.73 28433.4,2035.31 28089.4,1421.84 27962.9,704.531 28002,0 h 9498 z"
       style="fill:#567075;fill-opacity:1;fill-rule:nonzero;stroke:none"
       transform="matrix(0.13333333,0,0,-0.13333333,0,3000)" />
    <path
       id="path6"
       d="m 28439.1,22500 c 428.3,-232.1 854.8,-467.4 1268.9,-723.8 933.5,-578.2 1817.3,-1278.9 2416.9,-2198.8 846.4,-1298.5 1064.8,-2932.3 1931,-4217.6 383,-568.4 889.1,-1056.3 1483,-1398.4 593.9,-342.1 1275.8,-535.8 1961.1,-534.2 V 22500 Z"
       style="fill:#c3ceb4;fill-opacity:1;fill-rule:nonzero;stroke:none"
       transform="matrix(0.13333333,0,0,-0.13333333,0,3000)" />
    <path
       id="path7"
       d="m 24318.8,22500 c -84.7,-598.9 -48.4,-1214.8 117.4,-1797.7 352.2,-1238.3 1279.5,-2296.2 2461,-2807.5 720.3,-311.8 1506.6,-422 2280.7,-468.9 773.9,-47 1546.6,-33.9 2308.7,-108.3 1726.6,-168.7 3407.2,-795.6 4822.5,-1799 422.3,-299.4 820.2,-632.9 1190.9,-994.3 v 207.7 c -346.3,328.2 -714.8,632.9 -1104.1,908.9 -1437,1018.8 -3141.7,1654.7 -4894.7,1825.9 -773.5,75.6 -1548.1,62.3 -2314.2,108.8 -766.1,46.4 -1534.6,155.7 -2230.2,456.8 -1138.4,492.8 -2037,1517.8 -2376.3,2711 -161.7,568.4 -195.1,1171.1 -109.4,1756.6 z"
       style="fill:#567075;fill-opacity:1;fill-rule:nonzero;stroke:none"
       transform="matrix(0.13333333,0,0,-0.13333333,0,3000)" />
    <path
       id="path8"
       d="m 8050.94,19964.7 c -518.71,2.6 -1483.91,-395.9 -572.5,-650 235.19,-42.6 464.37,55.5 640.9,201.6 85.39,70.8 237.18,208.1 211.28,339.7 -24.17,75.7 -134.49,107.9 -279.68,108.7 z m 2386.26,-529.6 c -518.68,2.7 -1483.76,-395.9 -572.47,-650 235.27,-42.6 464.47,55.4 640.97,201.6 85.4,70.6 237.2,208.1 211.3,339.7 -24.3,75.7 -134.5,107.9 -279.8,108.7 z m -4997.28,-90.4 c -518.71,2.6 -1483.79,-395.9 -572.5,-650 235.31,-42.6 464.42,55.5 641.02,201.7 85.39,70.7 237.3,208.1 211.29,339.6 -24.18,75.8 -134.5,107.9 -279.81,108.7 z m 3368.6,-513.5 c -518.68,2.7 -1483.79,-395.9 -572.5,-649.9 235.31,-42.8 464.41,55.4 641.01,201.5 85.39,70.7 237.19,208.1 211.29,339.7 -24.3,75.7 -134.49,107.9 -279.8,108.7 z m -2269.18,-347.7 c -518.72,2.7 -1483.79,-395.9 -572.5,-650 235.27,-42.6 464.49,55.4 640.89,201.6 85.51,70.8 237.39,208.1 211.49,339.7 -24.3,75.7 -134.61,107.9 -279.88,108.7 z m -2781.53,-128.1 c -518.67,2.7 -1483.86,-395.9 -572.58,-650 235.32,-42.6 464.5,55.5 640.98,201.6 85.43,70.7 237.31,208.1 211.41,339.8 -24.3,75.7 -134.57,107.8 -279.81,108.6 z m 6770.99,-439.2 c -518.8,2.7 -1483.88,-396 -572.59,-650 235.19,-42.7 464.39,55.5 640.89,201.6 85.5,70.7 237.3,208.1 211.3,339.8 -24.2,75.6 -134.5,107.8 -279.6,108.6 z m -3275.68,-402.7 c -518.78,2.8 -1483.9,-395.8 -572.5,-650 235.2,-42.5 464.42,55.6 640.9,201.7 85.39,70.8 237.19,208 211.29,339.8 -24.29,75.5 -134.49,107.9 -279.69,108.5 z m -2086.28,-347.6 c -518.72,2.6 -1483.79,-395.9 -572.5,-650 235.31,-42.7 464.49,55.5 640.97,201.6 85.43,70.7 237.23,208 211.33,339.8 -24.22,75.6 -134.49,107.9 -279.8,108.6 z m 3367.18,-36.6 c -518.71,2.7 -1483.79,-395.9 -572.5,-650 235.32,-42.6 464.5,55.5 641.02,201.6 85.39,70.7 237.19,208 211.29,339.8 -24.3,75.6 -134.49,107.8 -279.81,108.6 z m -5636.29,-54.9 c -518.71,2.7 -1483.9,-395.9 -572.5,-650 235.2,-42.6 464.42,55.4 640.9,201.6 85.39,70.7 237.31,208.1 211.41,339.7 -24.3,75.7 -134.61,108 -279.81,108.7 z m 7374.87,-366 c -518.77,2.6 -1483.97,-395.9 -572.56,-650 235.19,-42.7 464.36,55.5 640.86,201.6 85.4,70.7 237.3,208 211.4,339.8 -24.2,75.6 -134.5,107.9 -279.7,108.6 z m -3874.98,-671.5 c -518.79,2.7 -1483.91,-395.9 -572.5,-650 235.19,-42.6 464.41,55.4 640.9,201.6 85.43,70.7 237.22,208.1 211.32,339.7 -24.29,75.7 -134.53,108 -279.72,108.7 z m -2895.98,-5.6 c -518.83,2.6 -1483.91,-395.9 -572.5,-650 235.2,-42.6 464.38,55.5 640.9,201.6 85.39,70.6 237.19,208.1 211.29,339.8 -24.3,75.7 -134.49,107.8 -279.69,108.6 z m 4922.7,-311.1 c -518.79,2.7 -1483.91,-395.9 -572.62,-649.9 235.19,-42.7 464.49,55.4 641.01,201.5 85.39,70.8 237.19,208 211.29,339.8 -24.29,75.6 -134.49,107.9 -279.68,108.6 z m -3202.62,-603.9 c -518.67,2.6 -1483.79,-395.9 -572.38,-650 235.19,-42.6 464.37,55.5 640.89,201.6 85.39,70.8 237.19,208.1 211.29,339.8 -24.29,75.7 -134.49,107.8 -279.8,108.6 z m 2031.4,-73.3 c -518.78,2.7 -1483.9,-395.8 -572.5,-650 235.2,-42.5 464.42,55.5 640.9,201.7 85.39,70.7 237.19,208.2 211.29,339.8 -24.29,75.7 -134.49,107.8 -279.69,108.5 z"
       style="fill:#c3ceb4;fill-opacity:1;fill-rule:nonzero;stroke:none"
       transform="matrix(0.13333333,0,0,-0.13333333,0,3000)" />
    <path
       id="path9"
       d="m 3324.88,22500 c -269.33,-137.7 -359.45,-329.2 159.69,-474 235.31,-42.6 464.53,55.4 641.02,201.6 70.86,58.6 187.14,163.3 209.96,272.4 z m -896.48,-427.8 c -518.71,2.6 -1483.83,-396 -572.5,-650 235.27,-42.8 464.37,55.4 640.98,201.5 85.42,70.7 237.22,208.1 211.32,339.7 -24.29,75.7 -134.53,107.9 -279.8,108.8 z M 159.18,21724.4 c -49.649,0.3 -103.3987,-3.2 -159.18,-9.8 v -581.9 c 82.0313,36.9 158.828,86.4 227.578,143.3 85.512,70.8 237.422,208.1 211.524,339.7 -24.301,75.7 -134.614,107.9 -279.922,108.7 z m 3989.41,-567.2 c -518.71,2.6 -1483.82,-396.1 -572.5,-650.1 235.2,-42.7 464.42,55.5 640.9,201.6 85.51,70.7 237.31,208.1 211.29,339.8 -24.22,75.6 -134.49,107.8 -279.69,108.7 z M 873.012,20754.4 C 588.199,20756 169.531,20636.5 0,20486.4 v -252.8 c 59.4883,-45.3 156.52,-89 300.469,-129.2 235.23,-42.5 464.41,55.6 640.902,201.7 85.429,70.8 237.219,208 211.329,339.8 -24.3,75.5 -134.5,107.9 -279.688,108.5 z m 1280.898,-384.2 c -518.71,2.7 -1483.832,-395.9 -572.54,-650 235.31,-42.6 464.53,55.5 641.01,201.6 85.39,70.7 237.19,208 211.29,339.8 -24.29,75.6 -134.49,107.8 -279.76,108.6 z m 1738.59,-420.9 c -518.83,2.6 -1484.02,-395.9 -572.62,-650 235.2,-42.7 464.42,55.5 640.9,201.6 85.39,70.7 237.31,208 211.41,339.8 -24.3,75.6 -134.49,107.9 -279.69,108.6 z m -3875,-671.5 c -5.6992,0 -11.71875,-0.3 -17.5,-0.3 v -512.1 c 29.7305,20 58.5195,41.4 85.8984,64 85.3906,70.7 237.1916,208.1 211.2926,339.7 -24.3,75.7 -134.492,108.1 -279.691,108.8 z m 2026.68,-316.7 c -518.79,2.7 -1483.91,-395.9 -572.58,-649.9 235.2,-42.7 464.49,55.4 640.98,201.5 85.39,70.8 237.22,208 211.33,339.8 -24.34,75.6 -134.53,107.9 -279.73,108.6 z M 873.012,18283.9 c -284.813,1.5 -703.481,-118 -873.012,-268 v -252.8 c 59.4883,-45.2 156.52,-89 300.469,-129.2 235.23,-42.5 464.41,55.5 640.902,201.7 85.429,70.7 237.219,208.2 211.329,339.8 -24.3,75.7 -134.5,107.8 -279.688,108.5 z"
       style="fill:#c3ceb4;fill-opacity:1;fill-rule:nonzero;stroke:none"
       transform="matrix(0.13333333,0,0,-0.13333333,0,3000)" />
    <path
       id="path10"
       d="m 5625.55,22500 c 39.57,-15 83.71,-29.6 134.53,-43.8 131.01,-23.8 260.15,-3.8 379.41,43.8 z m 7243.75,0 c -176.5,-129 -177.1,-286.4 265.6,-409.8 235.2,-42.7 464.4,55.5 640.9,201.6 56.7,47 142.7,123.5 186.5,208.2 z m -3036.84,-431.3 c -518.79,2.7 -1483.91,-395.9 -572.5,-650 235.2,-42.6 464.42,55.4 640.94,201.6 85.39,70.7 237.2,208.1 211.3,339.7 -24.3,75.7 -134.54,108 -279.74,108.7 z m -2895.98,-5.6 c -518.82,2.6 -1483.9,-395.9 -572.5,-650 235.2,-42.6 464.38,55.5 640.9,201.6 85.39,70.6 237.19,208.1 211.29,339.8 -24.29,75.7 -134.49,107.8 -279.69,108.6 z M 11859.2,21752 c -518.8,2.7 -1483.9,-395.9 -572.6,-649.9 235.2,-42.7 464.5,55.4 641,201.5 85.4,70.8 237.2,208 211.3,339.8 -24.3,75.6 -134.5,107.9 -279.7,108.6 z m -3202.64,-603.9 c -518.71,2.6 -1483.79,-395.9 -572.38,-650 235.2,-42.6 464.41,55.5 640.9,201.6 85.39,70.8 237.19,208.1 211.29,339.8 -24.3,75.7 -134.49,107.8 -279.81,108.6 z m 2031.44,-73.3 c -518.8,2.7 -1483.94,-395.8 -572.5,-650 235.2,-42.5 464.4,55.5 640.9,201.7 85.4,70.7 237.2,208.2 211.3,339.8 -24.3,75.7 -134.5,107.8 -279.7,108.5 z"
       style="fill:#c3ceb4;fill-opacity:1;fill-rule:nonzero;stroke:none"
       transform="matrix(0.13333333,0,0,-0.13333333,0,3000)" />
    <path
       id="path11"
       d="m 9029.84,22500 c -363.12,-580.1 -778.12,-1163.9 -1150.54,-1723.5 -124.3,-186.8 -241.29,-370.1 -352.27,-551 -714.73,423.6 -1762.62,679.1 -3230.98,554.2 -1718,-146.2 -3020,-1366.2 -4296.05,-2263.1 v -226.3 c 1329.57,915.3 2624.53,2157.9 4305,2301 1443.75,122.8 2450.51,-125 3126.99,-527.8 -235.62,-399.7 -428.87,-784.4 -527.38,-1143.9 -155.94,-569.1 -71.52,-1096.2 411.87,-1473 239.65,-186.9 469.26,-274.1 679.11,-272.7 209.84,1.4 395.27,95.8 528.79,247.4 267.03,303.1 346.87,818.5 191.67,1356.4 -137.18,475.5 -464.6,968.4 -1030.62,1350 109.53,179.2 225.43,361.4 349.57,548 390.82,587.2 836.13,1203.7 1219.88,1824.3 z M 7590.62,19965.7 c 525.28,-359 820.08,-816.9 944.11,-1246.8 141.56,-490.6 53.67,-944.6 -149.69,-1175.5 -101.68,-115.4 -227.15,-179.3 -383.56,-180.3 -19.57,-0.3 -39.68,0.8 -60.31,2.8 -144.57,14.3 -315.39,83.5 -505.47,231.7 -430.43,335.5 -493.47,752.4 -349.37,1278.3 90.55,330.4 275.51,700 504.29,1089.8 z"
       style="fill:#567075;fill-opacity:1;fill-rule:nonzero;stroke:none"
       transform="matrix(0.13333333,0,0,-0.13333333,0,3000)" />
    <path
       id="path12"
       d="m 0,14039.7 v -5594 c 2266.37,1695.2 3505.55,4891.5 0,5594 z"
       style="fill:#567075;fill-opacity:1;fill-rule:nonzero;stroke:none"
       transform="matrix(0.13333333,0,0,-0.13333333,0,3000)" />
  </g>
</svg>
