<?xml version="1.0" encoding="UTF-8" standalone="no"?>
<!-- Created with Inkscape (http://www.inkscape.org/) -->

<svg
   version="1.1"
   id="svg1"
   width="4480"
   height="4480"
   viewBox="0 0 4480 4480"
   sodipodi:docname="vecteezy_aesthetic-minimalist-background_18880003-0.eps"
   xmlns:inkscape="http://www.inkscape.org/namespaces/inkscape"
   xmlns:sodipodi="http://sodipodi.sourceforge.net/DTD/sodipodi-0.dtd"
   xmlns="http://www.w3.org/2000/svg"
   xmlns:svg="http://www.w3.org/2000/svg">
  <defs
     id="defs1" />
  <sodipodi:namedview
     id="namedview1"
     pagecolor="#ffffff"
     bordercolor="#000000"
     borderopacity="0.25"
     inkscape:showpageshadow="2"
     inkscape:pageopacity="0.0"
     inkscape:pagecheckerboard="0"
     inkscape:deskcolor="#d1d1d1">
    <inkscape:page
       x="0"
       y="0"
       inkscape:label="1"
       id="page1"
       width="4480"
       height="4480"
       margin="0"
       bleed="0" />
  </sodipodi:namedview>
  <g
     id="g1"
     inkscape:groupmode="layer"
     inkscape:label="1">
    <path
       id="path1"
       d="M 0,33600 H 33600 V 0 H 0 v 33600"
       style="fill:#f4f4fb;fill-opacity:1;fill-rule:evenodd;stroke:none"
       transform="matrix(0.13333333,0,0,-0.13333333,0,4480)" />
    <path
       id="path2"
       d="m 27921.7,0 c -43.2,239.059 -105.7,511.98 -175.4,816.434 -499,2179.196 -1364.7,5959.366 1822.1,10606.266 748.6,1091.5 1458.8,2217.9 2092.3,3350.6 790.2,1412.7 1461.3,2835.6 1939.3,4213.8 v -170.3 c -475.2,-1334.1 -1127.2,-2707.4 -1889.9,-4071 -634.7,-1134.8 -1345.8,-2262.5 -2095,-3355 C 26442.3,6764.26 27304.4,2999.42 27801.4,829.059 27872.2,520.066 27935.6,243.156 27979,0 Z M 33600,24553.5 c -2257.7,2986.7 -5993.7,3939.8 -9078.6,4726.6 -647.9,165.2 -1267.2,323.2 -1838.5,491.1 -1182.6,53.3 -2352.8,118.2 -3448.4,256.5 -2821,356 -5143.4,1197.8 -5903.1,3572.3 h 62.3 c 761.4,-2334.5 3059,-3164.3 5847.9,-3516.3 1023.6,-129.2 2113.8,-194.2 3218.7,-245.7 -1562.9,478.4 -2729.3,1053.2 -3071.4,2104 -181.6,557.7 -281.1,1113.7 -315.1,1658 h 56.6 c 34,-538.6 132.6,-1088.7 312.3,-1640.5 349.8,-1074.5 1595,-1645.1 3250.2,-2132.1 221,-10 442.4,-19.5 663.9,-29.1 2987.3,-128.7 5979.3,-257.6 7976.7,-1374.8 201.4,-112.6 391.6,-230.6 570.9,-353.6 736,-504.7 1293.5,-1096.6 1695.6,-1758.7 v -111.6 c -401.4,689 -968.7,1303.2 -1727.5,1823.6 -178.4,122.3 -367.1,239.4 -566.4,350.9 -1985.8,1110.7 -4971.1,1239.3 -7951.8,1367.8 -143.4,6.1 -286.8,12.3 -430.1,18.6 506.7,-143.8 1048,-281.9 1611.2,-425.5 3074.7,-784.2 6793.6,-1733.5 9064.6,-4685.3 z m 0,-16288.24 C 33394.5,7928.7 33186.3,7609.17 32981.6,7295.21 31786.2,5461.41 30712.6,3813.75 31021.1,0 h -56.9 c -309.2,3828.8 769.2,5483.93 1970.1,7325.99 220.4,338.12 444.9,682.62 665.7,1048.15 v -108.88"
       style="fill:#9c8dce;fill-opacity:1;fill-rule:nonzero;stroke:none"
       transform="matrix(0.13333333,0,0,-0.13333333,0,4480)" />
    <path
       id="path3"
       d="m 4765.54,30235.2 c 0,0 -80.2,219.2 -251.3,80.2 -171.1,-139 -21.39,-251.3 5.35,-208.5 26.73,42.8 304.77,48.1 245.95,128.3"
       style="fill:#cbc1e6;fill-opacity:1;fill-rule:evenodd;stroke:none"
       transform="matrix(0.13333333,0,0,-0.13333333,0,4480)" />
    <path
       id="path4"
       d="m 2446.78,30588.4 c 0,0 -107.39,293.5 -336.49,107.4 -229.1,-186.2 -28.64,-336.5 7.16,-279.2 35.8,57.2 408.09,64.4 329.33,171.8"
       style="fill:#cbc1e6;fill-opacity:1;fill-rule:evenodd;stroke:none"
       transform="matrix(0.13333333,0,0,-0.13333333,0,4480)" />
    <path
       id="path5"
       d="m 3315.36,33011.6 c 0,0 -155.32,424.5 -486.68,155.3 -331.35,-269.2 -41.42,-486.7 10.36,-403.9 51.77,82.9 590.22,93.2 476.32,248.6"
       style="fill:#cbc1e6;fill-opacity:1;fill-rule:evenodd;stroke:none"
       transform="matrix(0.13333333,0,0,-0.13333333,0,4480)" />
    <path
       id="path6"
       d="m 1276.27,32153.4 c 0,0 -80.21,219.2 -251.31,80.2 -171.101,-139.1 -21.39,-251.3 5.35,-208.6 26.73,42.8 304.77,48.2 245.96,128.4"
       style="fill:#cbc1e6;fill-opacity:1;fill-rule:evenodd;stroke:none"
       transform="matrix(0.13333333,0,0,-0.13333333,0,4480)" />
    <path
       id="path7"
       d="m 793.199,28301.8 c 0,0 -80.203,219.2 -251.304,80.2 -171.102,-139 -21.387,-251.3 5.347,-208.5 26.735,42.8 304.774,48.1 245.957,128.3"
       style="fill:#cbc1e6;fill-opacity:1;fill-rule:evenodd;stroke:none"
       transform="matrix(0.13333333,0,0,-0.13333333,0,4480)" />
    <path
       id="path8"
       d="m 4993.2,32909.8 c 0,0 -80.2,219.2 -251.31,80.2 -171.09,-139 -21.38,-251.3 5.35,-208.5 26.74,42.8 304.78,48.1 245.96,128.3"
       style="fill:#cbc1e6;fill-opacity:1;fill-rule:evenodd;stroke:none"
       transform="matrix(0.13333333,0,0,-0.13333333,0,4480)" />
    <path
       id="path9"
       d="m 6277.18,25880.5 c 0,0 -80.21,219.3 -251.31,80.2 -171.1,-139 -21.39,-251.3 5.35,-208.5 26.73,42.8 304.77,48.1 245.96,128.3"
       style="fill:#cbc1e6;fill-opacity:1;fill-rule:evenodd;stroke:none"
       transform="matrix(0.13333333,0,0,-0.13333333,0,4480)" />
    <path
       id="path10"
       d="m 3560.08,27751.7 c 0,0 -107.38,293.5 -336.49,107.4 -229.09,-186.2 -28.64,-336.5 7.16,-279.2 35.8,57.2 408.09,64.4 329.33,171.8"
       style="fill:#cbc1e6;fill-opacity:1;fill-rule:evenodd;stroke:none"
       transform="matrix(0.13333333,0,0,-0.13333333,0,4480)" />
    <path
       id="path11"
       d="m 1140.43,23865 c 0,0 -80.2,219.2 -251.305,80.2 -171.102,-139 -21.391,-251.3 5.348,-208.5 26.734,42.7 304.777,48.1 245.957,128.3"
       style="fill:#cbc1e6;fill-opacity:1;fill-rule:evenodd;stroke:none"
       transform="matrix(0.13333333,0,0,-0.13333333,0,4480)" />
    <path
       id="path12"
       d="m 7766.08,32089.6 c 0,0 -80.2,219.2 -251.31,80.2 -171.09,-139 -21.38,-251.3 5.35,-208.5 26.74,42.8 304.77,48.1 245.96,128.3"
       style="fill:#cbc1e6;fill-opacity:1;fill-rule:evenodd;stroke:none"
       transform="matrix(0.13333333,0,0,-0.13333333,0,4480)" />
    <path
       id="path13"
       d="m 3720.07,31452.1 c 0,0 -54.04,147.7 -169.3,54.1 -115.27,-93.7 -14.41,-169.4 3.59,-140.5 18.02,28.8 205.33,32.4 165.71,86.4"
       style="fill:#cbc1e6;fill-opacity:1;fill-rule:evenodd;stroke:none"
       transform="matrix(0.13333333,0,0,-0.13333333,0,4480)" />
    <path
       id="path14"
       d="m 6668.32,31036 c 0,0 -54.03,147.7 -169.3,54 -115.27,-93.6 -14.41,-169.3 3.6,-140.5 18.01,28.9 205.32,32.5 165.7,86.5"
       style="fill:#cbc1e6;fill-opacity:1;fill-rule:evenodd;stroke:none"
       transform="matrix(0.13333333,0,0,-0.13333333,0,4480)" />
    <path
       id="path15"
       d="m 3603.4,26286.6 c 0,0 -54.04,147.7 -169.3,54.1 -115.28,-93.7 -14.42,-169.3 3.6,-140.5 18.01,28.8 205.32,32.4 165.7,86.4"
       style="fill:#cbc1e6;fill-opacity:1;fill-rule:evenodd;stroke:none"
       transform="matrix(0.13333333,0,0,-0.13333333,0,4480)" />
    <path
       id="path16"
       d="m 33600,18957 h -466.7 v -1205.6 h -42.5 V 18957 H 31906.5 V 17751.4 H 31864 V 18957 h -1184.3 v -1205.6 h -42.5 V 18957 h -1184.3 v -1205.6 h -42.5 V 18957 h -1184.3 v -1205.6 h -42.5 V 18957 h -1184.3 v -1205.6 h -42.5 V 18957 H 25772.5 V 17751.4 H 25730 V 18957 h -1184.3 v -1205.6 h -42.5 V 18957 h -1184.3 v -1205.6 h -42.5 V 18957 h -1184.3 v -1205.6 h -42.5 V 18957 h -1184.3 v -1205.6 h -42.5 V 18957 H 19638.5 V 17751.4 H 19596 V 18957 h -1184.3 v -1205.6 h -42.5 V 18957 h -1184.3 v -1205.6 h -42.5 V 18957 h -1205.5 v 42.5 h 1205.5 v 1184.3 h -1205.5 v 42.5 h 1205.5 v 1184.3 h -1205.5 v 42.5 h 1205.5 v 1184.3 h -1205.5 v 42.5 h 1205.5 v 1184.3 h -1205.5 v 42.5 h 1205.5 V 25091 h -1205.5 v 42.5 h 1205.5 v 1184.3 h -1205.5 v 42.5 h 1205.5 v 1184.3 h -1205.5 v 42.5 h 1205.5 v 1184.3 h -1205.5 v 42.5 h 1205.5 v 1184.3 h -1205.5 v 42.5 h 1205.5 V 31225 h -1205.5 v 42.5 h 1205.5 v 1184.3 h -1205.5 v 42.5 h 1205.5 V 33600 h 42.5 v -1105.7 h 1184.3 V 33600 h 42.5 V 32494.3 H 19596 V 33600 h 42.5 v -1105.7 h 1184.3 V 33600 h 42.5 v -1105.7 h 1184.3 V 33600 h 42.5 v -1105.7 h 1184.3 V 33600 h 42.5 v -1105.7 h 1184.3 V 33600 h 42.5 V 32494.3 H 25730 V 33600 h 42.5 v -1105.7 h 1184.3 V 33600 h 42.5 v -1105.7 h 1184.3 V 33600 h 42.5 v -1105.7 h 1184.3 V 33600 h 42.5 v -1105.7 h 1184.3 V 33600 h 42.5 V 32494.3 H 31864 V 33600 h 42.5 v -1105.7 h 1184.3 V 33600 h 42.5 v -1105.7 h 466.7 v -42.5 h -466.7 v -1184.3 h 466.7 v -42.5 h -466.7 v -1184.3 h 466.7 v -42.5 h -466.7 v -1184.3 h 466.7 v -42.5 h -466.7 v -1184.3 h 466.7 v -42.5 h -466.7 v -1184.3 h 466.7 v -42.5 h -466.7 v -1184.3 h 466.7 v -42.5 h -466.7 v -1184.3 h 466.7 v -42.5 h -466.7 v -1184.3 h 466.7 v -42.5 h -466.7 v -1184.3 h 466.7 v -42.5 h -466.7 v -1184.3 h 466.7 v -42.5 h -466.7 v -1184.3 h 466.7 z m -16415.1,42.5 h 1184.3 v 1184.3 h -1184.3 z m 0,1226.8 h 1184.3 v 1184.3 h -1184.3 z m 0,1226.8 h 1184.3 v 1184.3 h -1184.3 z m 0,1226.8 h 1184.3 v 1184.3 h -1184.3 z m 0,1226.8 h 1184.3 V 25091 h -1184.3 z m 0,1226.8 h 1184.3 v 1184.3 h -1184.3 z m 0,1226.8 h 1184.3 v 1184.3 h -1184.3 z m 0,1226.8 h 1184.3 v 1184.3 h -1184.3 z m 0,1226.8 h 1184.3 v 1184.3 h -1184.3 z m 0,1226.8 h 1184.3 V 31225 h -1184.3 z m 0,1226.8 h 1184.3 v 1184.3 h -1184.3 z m 1226.8,-12268 H 19596 v 1184.3 h -1184.3 z m 0,1226.8 H 19596 v 1184.3 h -1184.3 z m 0,1226.8 H 19596 v 1184.3 h -1184.3 z m 0,1226.8 H 19596 v 1184.3 h -1184.3 z m 0,1226.8 H 19596 V 25091 h -1184.3 z m 0,1226.8 H 19596 v 1184.3 h -1184.3 z m 0,1226.8 H 19596 v 1184.3 h -1184.3 z m 0,1226.8 H 19596 v 1184.3 h -1184.3 z m 0,1226.8 H 19596 v 1184.3 h -1184.3 z m 0,1226.8 H 19596 V 31225 h -1184.3 z m 0,1226.8 H 19596 v 1184.3 h -1184.3 z m 1226.8,-12268 h 1184.3 v 1184.3 h -1184.3 z m 0,1226.8 h 1184.3 v 1184.3 h -1184.3 z m 0,1226.8 h 1184.3 v 1184.3 h -1184.3 z m 0,1226.8 h 1184.3 v 1184.3 h -1184.3 z m 0,1226.8 h 1184.3 V 25091 h -1184.3 z m 0,1226.8 h 1184.3 v 1184.3 h -1184.3 z m 0,1226.8 h 1184.3 v 1184.3 h -1184.3 z m 0,1226.8 h 1184.3 v 1184.3 h -1184.3 z m 0,1226.8 h 1184.3 v 1184.3 h -1184.3 z m 0,1226.8 h 1184.3 V 31225 h -1184.3 z m 0,1226.8 h 1184.3 v 1184.3 h -1184.3 z m 1226.8,-12268 h 1184.3 v 1184.3 h -1184.3 z m 0,1226.8 h 1184.3 v 1184.3 h -1184.3 z m 0,1226.8 h 1184.3 v 1184.3 h -1184.3 z m 0,1226.8 h 1184.3 v 1184.3 h -1184.3 z m 0,1226.8 h 1184.3 V 25091 h -1184.3 z m 0,1226.8 h 1184.3 v 1184.3 h -1184.3 z m 0,1226.8 h 1184.3 v 1184.3 h -1184.3 z m 0,1226.8 h 1184.3 v 1184.3 h -1184.3 z m 0,1226.8 h 1184.3 v 1184.3 h -1184.3 z m 0,1226.8 h 1184.3 V 31225 h -1184.3 z m 0,1226.8 h 1184.3 v 1184.3 h -1184.3 z m 1226.8,-12268 h 1184.3 v 1184.3 h -1184.3 z m 0,1226.8 h 1184.3 v 1184.3 h -1184.3 z m 0,1226.8 h 1184.3 v 1184.3 h -1184.3 z m 0,1226.8 h 1184.3 v 1184.3 h -1184.3 z m 0,1226.8 h 1184.3 V 25091 h -1184.3 z m 0,1226.8 h 1184.3 v 1184.3 h -1184.3 z m 0,1226.8 h 1184.3 v 1184.3 h -1184.3 z m 0,1226.8 h 1184.3 v 1184.3 h -1184.3 z m 0,1226.8 h 1184.3 v 1184.3 h -1184.3 z m 0,1226.8 h 1184.3 V 31225 h -1184.3 z m 0,1226.8 h 1184.3 v 1184.3 h -1184.3 z m 1226.8,-12268 h 1184.3 v 1184.3 h -1184.3 z m 0,1226.8 h 1184.3 v 1184.3 h -1184.3 z m 0,1226.8 h 1184.3 v 1184.3 h -1184.3 z m 0,1226.8 h 1184.3 v 1184.3 h -1184.3 z m 0,1226.8 h 1184.3 V 25091 h -1184.3 z m 0,1226.8 h 1184.3 v 1184.3 h -1184.3 z m 0,1226.8 h 1184.3 v 1184.3 h -1184.3 z m 0,1226.8 h 1184.3 v 1184.3 h -1184.3 z m 0,1226.8 h 1184.3 v 1184.3 h -1184.3 z m 0,1226.8 h 1184.3 V 31225 h -1184.3 z m 0,1226.8 h 1184.3 v 1184.3 h -1184.3 z m 1226.8,1184.3 V 31267.5 H 25730 v 1184.3 z m 1226.8,0 v -1184.3 h 1184.3 v 1184.3 z m 1226.8,0 v -1184.3 h 1184.3 v 1184.3 z m 1226.8,0 v -1184.3 h 1184.3 v 1184.3 z m 1226.8,0 v -1184.3 h 1184.3 v 1184.3 z m 1226.8,0 V 31267.5 H 31864 v 1184.3 z m 1226.8,0 v -1184.3 h 1184.3 v 1184.3 z M 24545.7,18999.5 H 25730 v 1184.3 h -1184.3 z m 0,1226.8 H 25730 v 1184.3 h -1184.3 z m 0,1226.8 H 25730 v 1184.3 h -1184.3 z m 0,1226.8 H 25730 v 1184.3 h -1184.3 z m 0,1226.8 H 25730 V 25091 h -1184.3 z m 0,1226.8 H 25730 v 1184.3 h -1184.3 z m 0,1226.8 H 25730 v 1184.3 h -1184.3 z m 0,1226.8 H 25730 v 1184.3 h -1184.3 z m 0,1226.8 H 25730 v 1184.3 h -1184.3 z m 0,1226.8 H 25730 V 31225 h -1184.3 z m 1226.8,1184.3 v -1184.3 h 1184.3 V 31225 Z m 1226.8,0 v -1184.3 h 1184.3 V 31225 Z m 1226.8,0 v -1184.3 h 1184.3 V 31225 Z m 1226.8,0 v -1184.3 h 1184.3 V 31225 Z m 1226.8,0 V 30040.7 H 31864 V 31225 Z m 1226.8,0 v -1184.3 h 1184.3 V 31225 Z m -6134,-12225.5 h 1184.3 v 1184.3 h -1184.3 z m 0,1226.8 h 1184.3 v 1184.3 h -1184.3 z m 0,1226.8 h 1184.3 v 1184.3 h -1184.3 z m 0,1226.8 h 1184.3 v 1184.3 h -1184.3 z m 0,1226.8 h 1184.3 V 25091 h -1184.3 z m 0,1226.8 h 1184.3 v 1184.3 h -1184.3 z m 0,1226.8 h 1184.3 v 1184.3 h -1184.3 z m 0,1226.8 h 1184.3 v 1184.3 h -1184.3 z m 0,1226.8 h 1184.3 v 1184.3 h -1184.3 z m 1226.8,1184.3 v -1184.3 h 1184.3 v 1184.3 z m 1226.8,0 v -1184.3 h 1184.3 v 1184.3 z m 1226.8,0 v -1184.3 h 1184.3 v 1184.3 z m 1226.8,0 V 28813.9 H 31864 v 1184.3 z m 1226.8,0 v -1184.3 h 1184.3 v 1184.3 z M 26999.3,18999.5 h 1184.3 v 1184.3 h -1184.3 z m 0,1226.8 h 1184.3 v 1184.3 h -1184.3 z m 0,1226.8 h 1184.3 v 1184.3 h -1184.3 z m 0,1226.8 h 1184.3 v 1184.3 h -1184.3 z m 0,1226.8 h 1184.3 V 25091 h -1184.3 z m 0,1226.8 h 1184.3 v 1184.3 h -1184.3 z m 0,1226.8 h 1184.3 v 1184.3 h -1184.3 z m 0,1226.8 h 1184.3 v 1184.3 h -1184.3 z m 1226.8,1184.3 v -1184.3 h 1184.3 v 1184.3 z m 1226.8,0 v -1184.3 h 1184.3 v 1184.3 z m 1226.8,0 V 27587.1 H 31864 v 1184.3 z m 1226.8,0 v -1184.3 h 1184.3 v 1184.3 z m -3680.4,-9771.9 h 1184.3 v 1184.3 h -1184.3 z m 0,1226.8 h 1184.3 v 1184.3 h -1184.3 z m 0,1226.8 h 1184.3 v 1184.3 h -1184.3 z m 0,1226.8 h 1184.3 v 1184.3 h -1184.3 z m 0,1226.8 h 1184.3 V 25091 h -1184.3 z m 0,1226.8 h 1184.3 v 1184.3 h -1184.3 z m 0,1226.8 h 1184.3 v 1184.3 h -1184.3 z m 1226.8,1184.3 v -1184.3 h 1184.3 v 1184.3 z m 1226.8,0 V 26360.3 H 31864 v 1184.3 z m 1226.8,0 v -1184.3 h 1184.3 v 1184.3 z m -2453.6,-8545.1 h 1184.3 v 1184.3 h -1184.3 z m 0,1226.8 h 1184.3 v 1184.3 h -1184.3 z m 0,1226.8 h 1184.3 v 1184.3 h -1184.3 z m 0,1226.8 h 1184.3 v 1184.3 h -1184.3 z m 0,1226.8 h 1184.3 V 25091 h -1184.3 z m 0,1226.8 h 1184.3 v 1184.3 h -1184.3 z m 1226.8,1184.3 V 25133.5 H 31864 v 1184.3 z m 1226.8,0 v -1184.3 h 1184.3 v 1184.3 z M 30679.7,18999.5 H 31864 v 1184.3 h -1184.3 z m 0,1226.8 H 31864 v 1184.3 h -1184.3 z m 0,1226.8 H 31864 v 1184.3 h -1184.3 z m 0,1226.8 H 31864 v 1184.3 h -1184.3 z m 0,1226.8 H 31864 V 25091 h -1184.3 z m 1226.8,1184.3 v -1184.3 h 1184.3 V 25091 Z m 0,-6091.5 h 1184.3 v 1184.3 h -1184.3 z m 0,1226.8 h 1184.3 v 1184.3 h -1184.3 z m 0,1226.8 h 1184.3 v 1184.3 h -1184.3 z m 0,1226.8 h 1184.3 v 1184.3 h -1184.3 v -1184.3"
       style="fill:#e0ddf2;fill-opacity:1;fill-rule:nonzero;stroke:none"
       transform="matrix(0.13333333,0,0,-0.13333333,0,4480)" />
    <path
       id="path17"
       d="M 6387.85,0 H 0 v 16455.7 c 2448.47,687.7 5848.32,193.1 10236.8,-3677.6 C 20409.4,3806.07 9478.62,9429.41 6951.27,3111.05 6535.12,2070.68 6372.01,1023.61 6387.85,0"
       style="fill:#cbc1e6;fill-opacity:1;fill-rule:evenodd;stroke:none"
       transform="matrix(0.13333333,0,0,-0.13333333,0,4480)" />
    <path
       id="path18"
       d="m 1407.82,6673.02 c 0,0 152.24,2017.68 481.42,2119.87 329.17,102.21 871.14,-268.1 861.65,-419.31 -9.48,-151.21 -1227.49,-1615.33 -1227.49,-1615.33 0,0 1288.48,1492.86 1537.61,1353.92 249.12,-138.94 488.37,-673.83 465.01,-837.72 -23.37,-163.88 -1943.93,-630.58 -1943.93,-630.58 0,0 1891.72,475.97 2031.15,323.36 139.44,-152.61 64.22,-610.78 -131.51,-644.52 -195.73,-33.73 -1865.16,230.49 -1865.16,230.49 0,0 1787.21,-248.25 1855.18,-333.8 67.97,-85.54 -92.83,-642.27 -322.05,-681.15 -229.21,-38.87 -1545.91,967.64 -1545.91,967.64 0,0 1384.76,-1030.87 1385.56,-1249.06 0.79,-218.18 -301.14,-600.95 -523.81,-524.39 -222.68,76.56 -1001.68,1620.14 -1001.68,1620.14 0,0 916.03,-1749.29 784.28,-1839.12 -131.75,-89.83 -965.87,-475.18 -1205.41,-123.85 -239.546,351.34 269.91,1972.45 269.91,1972.45 0,0 -520.242,-1860.06 -877.863,-1708.24 C 278.914,4719.98 122.305,4858.97 0,5013.44 v 784.54 c 391.953,295.07 1151.25,701.73 1151.25,701.73 0,0 -649.137,-251.24 -1151.25,-374.38 v 876.47 c 478.082,-143.82 1100.65,-385.41 1100.65,-385.41 0,0 -649.24,243.2 -1100.65,483.11 v 990.03 c 41.3828,26.45 80.9844,45.79 116.137,55.77 210.203,59.68 1019.353,-1405.45 1019.353,-1405.45 0,0 -936.111,1481.51 -592.857,1718.75 343.258,237.24 678.027,227.46 795.697,182.24 117.68,-45.21 69.49,-1967.82 69.49,-1967.82"
       style="fill:#9c8dce;fill-opacity:1;fill-rule:evenodd;stroke:none"
       transform="matrix(0.13333333,0,0,-0.13333333,0,4480)" />
    <path
       id="path19"
       d="M 1409.36,6586.11 C 921.527,5473.09 430.191,2202.74 391.945,0 H 641.27 c 10.652,1581.12 160.062,3928.73 768.09,6586.11"
       style="fill:#9c8dce;fill-opacity:1;fill-rule:evenodd;stroke:none"
       transform="matrix(0.13333333,0,0,-0.13333333,0,4480)" />
    <path
       id="path20"
       d="M 5785.99,9112.87 C 4522.74,7727.79 2058.15,2812.05 1233.03,0 h 357.76 c 644.31,2022.08 1933.04,5433.75 4195.2,9112.87"
       style="fill:#9c8dce;fill-opacity:1;fill-rule:evenodd;stroke:none"
       transform="matrix(0.13333333,0,0,-0.13333333,0,4480)" />
    <path
       id="path21"
       d="m 5664.31,9265.96 c 0,0 -589.45,1674.54 -200.95,2076.44 388.51,401.9 2505.18,-830.6 2143.46,-1339.6 -361.71,-509.1 -1554.01,-884.2 -1554.01,-884.2 0,0 1862.14,562.66 1821.95,-53.59 -40.19,-616.24 -1286.08,-1888.92 -1567.41,-1687.97 -281.33,200.94 -395.91,1493.14 -495.67,1554 -99.77,60.87 241.14,-1245.88 -120.57,-1339.66 -361.72,-93.77 -2036.29,683.23 -1942.52,1219.1 93.78,535.86 1540.61,388.5 1540.61,388.5 0,0 -1821.94,-40.19 -1487.02,710.02 334.92,750.2 857.39,1138.7 1058.33,1138.7 200.95,0 647.66,-1267.83 803.8,-1781.74"
       style="fill:#9c8dce;fill-opacity:1;fill-rule:evenodd;stroke:none"
       transform="matrix(0.13333333,0,0,-0.13333333,0,4480)" />
    <path
       id="path22"
       d="M 6361.98,5989.36 C 4393.74,4689.34 2728.98,2336.78 1542.6,0 h -336.49 c 931.96,2037.74 2515.66,4415.55 5155.87,5989.36"
       style="fill:#9c8dce;fill-opacity:1;fill-rule:evenodd;stroke:none"
       transform="matrix(0.13333333,0,0,-0.13333333,0,4480)" />
    <path
       id="path23"
       d="m 6303.9,6419.05 c 237.32,32.08 455.69,-134.3 487.78,-371.61 32.07,-237.31 -134.31,-455.69 -371.62,-487.76 -237.31,-32.08 -455.69,134.29 -487.76,371.61 -32.08,237.31 134.3,455.69 371.6,487.76"
       style="fill:#9c8dce;fill-opacity:1;fill-rule:evenodd;stroke:none"
       transform="matrix(0.13333333,0,0,-0.13333333,0,4480)" />
    <path
       id="path24"
       d="m 6320.95,6228.8 c 0,0 -130.87,726.88 -127.01,868.77 3.86,141.89 108.15,-189.59 127.01,-868.77"
       style="fill:#9c8dce;fill-opacity:1;fill-rule:evenodd;stroke:none"
       transform="matrix(0.13333333,0,0,-0.13333333,0,4480)" />
    <path
       id="path25"
       d="m 6418.42,6225.64 c 0,0 165.49,719.79 224.83,848.74 59.33,128.94 24.88,-216.84 -224.83,-848.74"
       style="fill:#9c8dce;fill-opacity:1;fill-rule:evenodd;stroke:none"
       transform="matrix(0.13333333,0,0,-0.13333333,0,4480)" />
    <path
       id="path26"
       d="m 6482.09,6200.52 c 0,0 359.71,645.05 452.66,752.33 92.95,107.27 -36.59,-215.18 -452.66,-752.33"
       style="fill:#9c8dce;fill-opacity:1;fill-rule:evenodd;stroke:none"
       transform="matrix(0.13333333,0,0,-0.13333333,0,4480)" />
    <path
       id="path27"
       d="m 6446.18,6217.23 c 0,0 250.09,694.94 324.38,815.89 74.28,120.95 -1.14,-218.26 -324.38,-815.89"
       style="fill:#9c8dce;fill-opacity:1;fill-rule:evenodd;stroke:none"
       transform="matrix(0.13333333,0,0,-0.13333333,0,4480)" />
    <path
       id="path28"
       d="m 6529,6165.77 c 0,0 503.2,540.62 619.08,622.61 115.85,82.01 -86.88,-200.22 -619.08,-622.61"
       style="fill:#9c8dce;fill-opacity:1;fill-rule:evenodd;stroke:none"
       transform="matrix(0.13333333,0,0,-0.13333333,0,4480)" />
    <path
       id="path29"
       d="m 6571.57,6112.18 c 0,0 634.05,378.78 768.19,425.2 134.14,46.42 -139.28,-168.04 -768.19,-425.2"
       style="fill:#9c8dce;fill-opacity:1;fill-rule:evenodd;stroke:none"
       transform="matrix(0.13333333,0,0,-0.13333333,0,4480)" />
    <path
       id="path30"
       d="m 6548.83,6144.61 c 0,0 564.06,476.78 688.87,544.39 124.8,67.61 -110.12,-188.45 -688.87,-544.39"
       style="fill:#9c8dce;fill-opacity:1;fill-rule:evenodd;stroke:none"
       transform="matrix(0.13333333,0,0,-0.13333333,0,4480)" />
    <path
       id="path31"
       d="m 6594.82,6058.63 c 0,0 706.11,216.58 847.44,229.66 141.34,13.09 -175.35,-129.96 -847.44,-229.66"
       style="fill:#9c8dce;fill-opacity:1;fill-rule:evenodd;stroke:none"
       transform="matrix(0.13333333,0,0,-0.13333333,0,4480)" />
    <path
       id="path32"
       d="m 6604.9,5990.93 c 0,0 738.49,11 877.87,-15.86 139.38,-26.86 -204.64,-75.89 -877.87,15.86"
       style="fill:#9c8dce;fill-opacity:1;fill-rule:evenodd;stroke:none"
       transform="matrix(0.13333333,0,0,-0.13333333,0,4480)" />
    <path
       id="path33"
       d="m 6601.43,6030.39 c 0,0 726.87,130.87 868.77,127.02 141.87,-3.86 -189.6,-108.14 -868.77,-127.02"
       style="fill:#9c8dce;fill-opacity:1;fill-rule:evenodd;stroke:none"
       transform="matrix(0.13333333,0,0,-0.13333333,0,4480)" />
    <path
       id="path34"
       d="m 6598.26,5932.93 c 0,0 719.79,-165.49 848.74,-224.82 128.94,-59.34 -216.84,-24.89 -848.74,224.82"
       style="fill:#9c8dce;fill-opacity:1;fill-rule:evenodd;stroke:none"
       transform="matrix(0.13333333,0,0,-0.13333333,0,4480)" />
    <path
       id="path35"
       d="m 6573.14,5869.26 c 0,0 645.06,-359.71 752.33,-452.67 107.27,-92.95 -215.18,36.6 -752.33,452.67"
       style="fill:#9c8dce;fill-opacity:1;fill-rule:evenodd;stroke:none"
       transform="matrix(0.13333333,0,0,-0.13333333,0,4480)" />
    <path
       id="path36"
       d="m 6589.85,5905.17 c 0,0 694.94,-250.1 815.89,-324.38 120.96,-74.28 -218.26,1.14 -815.89,324.38"
       style="fill:#9c8dce;fill-opacity:1;fill-rule:evenodd;stroke:none"
       transform="matrix(0.13333333,0,0,-0.13333333,0,4480)" />
    <path
       id="path37"
       d="m 6538.39,5822.35 c 0,0 540.62,-503.21 622.61,-619.07 82.01,-115.86 -200.22,86.87 -622.61,619.07"
       style="fill:#9c8dce;fill-opacity:1;fill-rule:evenodd;stroke:none"
       transform="matrix(0.13333333,0,0,-0.13333333,0,4480)" />
    <path
       id="path38"
       d="m 6484.8,5779.77 c 0,0 378.77,-634.05 425.2,-768.18 46.42,-134.14 -168.04,139.28 -425.2,768.18"
       style="fill:#9c8dce;fill-opacity:1;fill-rule:evenodd;stroke:none"
       transform="matrix(0.13333333,0,0,-0.13333333,0,4480)" />
    <path
       id="path39"
       d="m 6517.23,5802.52 c 0,0 476.79,-564.06 544.39,-688.87 67.61,-124.8 -188.45,110.12 -544.39,688.87"
       style="fill:#9c8dce;fill-opacity:1;fill-rule:evenodd;stroke:none"
       transform="matrix(0.13333333,0,0,-0.13333333,0,4480)" />
    <path
       id="path40"
       d="m 6431.25,5756.52 c 0,0 216.57,-706.09 229.66,-847.43 13.09,-141.34 -129.96,175.34 -229.66,847.43"
       style="fill:#9c8dce;fill-opacity:1;fill-rule:evenodd;stroke:none"
       transform="matrix(0.13333333,0,0,-0.13333333,0,4480)" />
    <path
       id="path41"
       d="m 6363.55,5746.45 c 0,0 11,-738.49 -15.86,-877.87 -26.86,-139.38 -75.88,204.65 15.86,877.87"
       style="fill:#9c8dce;fill-opacity:1;fill-rule:evenodd;stroke:none"
       transform="matrix(0.13333333,0,0,-0.13333333,0,4480)" />
    <path
       id="path42"
       d="m 6403.01,5749.92 c 0,0 130.88,-726.88 127.02,-868.76 -3.85,-141.88 -108.14,189.59 -127.02,868.76"
       style="fill:#9c8dce;fill-opacity:1;fill-rule:evenodd;stroke:none"
       transform="matrix(0.13333333,0,0,-0.13333333,0,4480)" />
    <path
       id="path43"
       d="m 6305.55,5753.09 c 0,0 -165.49,-719.79 -224.82,-848.74 -59.34,-128.94 -24.89,216.83 224.82,848.74"
       style="fill:#9c8dce;fill-opacity:1;fill-rule:evenodd;stroke:none"
       transform="matrix(0.13333333,0,0,-0.13333333,0,4480)" />
    <path
       id="path44"
       d="m 6241.88,5778.21 c 0,0 -359.71,-645.06 -452.67,-752.33 -92.95,-107.27 36.59,215.17 452.67,752.33"
       style="fill:#9c8dce;fill-opacity:1;fill-rule:evenodd;stroke:none"
       transform="matrix(0.13333333,0,0,-0.13333333,0,4480)" />
    <path
       id="path45"
       d="m 6277.79,5761.5 c 0,0 -250.09,-694.95 -324.38,-815.89 -74.28,-120.96 1.14,218.25 324.38,815.89"
       style="fill:#9c8dce;fill-opacity:1;fill-rule:evenodd;stroke:none"
       transform="matrix(0.13333333,0,0,-0.13333333,0,4480)" />
    <path
       id="path46"
       d="m 6194.97,5812.95 c 0,0 -503.21,-540.61 -619.08,-622.6 -115.86,-82.01 86.88,200.21 619.08,622.6"
       style="fill:#9c8dce;fill-opacity:1;fill-rule:evenodd;stroke:none"
       transform="matrix(0.13333333,0,0,-0.13333333,0,4480)" />
    <path
       id="path47"
       d="m 6152.39,5866.55 c 0,0 -634.04,-378.78 -768.18,-425.2 -134.14,-46.43 139.28,168.04 768.18,425.2"
       style="fill:#9c8dce;fill-opacity:1;fill-rule:evenodd;stroke:none"
       transform="matrix(0.13333333,0,0,-0.13333333,0,4480)" />
    <path
       id="path48"
       d="m 6175.14,5834.13 c 0,0 -564.06,-476.79 -688.87,-544.4 -124.81,-67.61 110.12,188.45 688.87,544.4"
       style="fill:#9c8dce;fill-opacity:1;fill-rule:evenodd;stroke:none"
       transform="matrix(0.13333333,0,0,-0.13333333,0,4480)" />
    <path
       id="path49"
       d="m 6129.15,5920.1 c 0,0 -706.11,-216.58 -847.45,-229.67 -141.34,-13.08 175.35,129.97 847.45,229.67"
       style="fill:#9c8dce;fill-opacity:1;fill-rule:evenodd;stroke:none"
       transform="matrix(0.13333333,0,0,-0.13333333,0,4480)" />
    <path
       id="path50"
       d="m 6119.07,5987.8 c 0,0 -738.49,-11 -877.86,15.86 -139.39,26.86 204.63,75.88 877.86,-15.86"
       style="fill:#9c8dce;fill-opacity:1;fill-rule:evenodd;stroke:none"
       transform="matrix(0.13333333,0,0,-0.13333333,0,4480)" />
    <path
       id="path51"
       d="m 6122.55,5948.34 c 0,0 -726.89,-130.88 -868.78,-127.02 -141.88,3.86 189.59,108.14 868.78,127.02"
       style="fill:#9c8dce;fill-opacity:1;fill-rule:evenodd;stroke:none"
       transform="matrix(0.13333333,0,0,-0.13333333,0,4480)" />
    <path
       id="path52"
       d="m 6125.7,6045.8 c 0,0 -719.78,165.49 -848.73,224.82 -128.95,59.34 216.84,24.88 848.73,-224.82"
       style="fill:#9c8dce;fill-opacity:1;fill-rule:evenodd;stroke:none"
       transform="matrix(0.13333333,0,0,-0.13333333,0,4480)" />
    <path
       id="path53"
       d="m 6150.83,6109.47 c 0,0 -645.05,359.71 -752.33,452.66 -107.27,92.96 215.18,-36.59 752.33,-452.66"
       style="fill:#9c8dce;fill-opacity:1;fill-rule:evenodd;stroke:none"
       transform="matrix(0.13333333,0,0,-0.13333333,0,4480)" />
    <path
       id="path54"
       d="m 6134.12,6073.55 c 0,0 -694.94,250.11 -815.9,324.39 -120.95,74.28 218.26,-1.14 815.9,-324.39"
       style="fill:#9c8dce;fill-opacity:1;fill-rule:evenodd;stroke:none"
       transform="matrix(0.13333333,0,0,-0.13333333,0,4480)" />
    <path
       id="path55"
       d="m 6185.58,6156.38 c 0,0 -540.62,503.21 -622.6,619.07 -82.02,115.86 200.21,-86.88 622.6,-619.07"
       style="fill:#9c8dce;fill-opacity:1;fill-rule:evenodd;stroke:none"
       transform="matrix(0.13333333,0,0,-0.13333333,0,4480)" />
    <path
       id="path56"
       d="m 6239.17,6198.95 c 0,0 -378.77,634.05 -425.2,768.19 -46.42,134.13 168.03,-139.28 425.2,-768.19"
       style="fill:#9c8dce;fill-opacity:1;fill-rule:evenodd;stroke:none"
       transform="matrix(0.13333333,0,0,-0.13333333,0,4480)" />
    <path
       id="path57"
       d="m 6206.74,6176.21 c 0,0 -476.79,564.06 -544.39,688.87 -67.61,124.81 188.45,-110.12 544.39,-688.87"
       style="fill:#9c8dce;fill-opacity:1;fill-rule:evenodd;stroke:none"
       transform="matrix(0.13333333,0,0,-0.13333333,0,4480)" />
    <path
       id="path58"
       d="m 6292.72,6222.2 c 0,0 -216.58,706.11 -229.67,847.44 -13.08,141.34 129.97,-175.34 229.67,-847.44"
       style="fill:#9c8dce;fill-opacity:1;fill-rule:evenodd;stroke:none"
       transform="matrix(0.13333333,0,0,-0.13333333,0,4480)" />
    <path
       id="path59"
       d="m 6360.42,6232.28 c 0,0 -11.01,738.49 15.85,877.86 26.87,139.38 75.9,-204.64 -15.85,-877.86"
       style="fill:#9c8dce;fill-opacity:1;fill-rule:evenodd;stroke:none"
       transform="matrix(0.13333333,0,0,-0.13333333,0,4480)" />
    <path
       id="path60"
       d="m 6366.88,6230.84 c 0,0 42.07,501.85 69.66,594.62 27.58,92.78 37.76,-143.95 -69.66,-594.62"
       style="fill:#9c8dce;fill-opacity:1;fill-rule:evenodd;stroke:none"
       transform="matrix(0.13333333,0,0,-0.13333333,0,4480)" />
    <path
       id="path61"
       d="m 6461.43,6209.47 c 0,0 236.03,444.88 297.87,519.32 61.83,74.46 -21.88,-147.2 -297.87,-519.32"
       style="fill:#9c8dce;fill-opacity:1;fill-rule:evenodd;stroke:none"
       transform="matrix(0.13333333,0,0,-0.13333333,0,4480)" />
    <path
       id="path62"
       d="m 6518.89,6172.99 c 0,0 350.76,361.37 430.91,415.63 80.15,54.24 -62.07,-135.27 -430.91,-415.63"
       style="fill:#9c8dce;fill-opacity:1;fill-rule:evenodd;stroke:none"
       transform="matrix(0.13333333,0,0,-0.13333333,0,4480)" />
    <path
       id="path63"
       d="m 6486.96,6196.05 c 0,0 287.37,413.58 357.64,480.13 70.28,66.54 -39.28,-143.56 -357.64,-480.13"
       style="fill:#9c8dce;fill-opacity:1;fill-rule:evenodd;stroke:none"
       transform="matrix(0.13333333,0,0,-0.13333333,0,4480)" />
    <path
       id="path64"
       d="m 6558.16,6130.25 c 0,0 426.85,267.27 517.63,300.83 90.77,33.56 -92.56,-116.56 -517.63,-300.83"
       style="fill:#9c8dce;fill-opacity:1;fill-rule:evenodd;stroke:none"
       transform="matrix(0.13333333,0,0,-0.13333333,0,4480)" />
    <path
       id="path65"
       d="m 6589.67,6069.93 c 0,0 484.47,137.58 581,144.49 96.54,6.9 -121.4,-86.1 -581,-144.49"
       style="fill:#9c8dce;fill-opacity:1;fill-rule:evenodd;stroke:none"
       transform="matrix(0.13333333,0,0,-0.13333333,0,4480)" />
    <path
       id="path66"
       d="m 6573.56,6105.86 c 0,0 455.65,214.49 549.79,236.99 94.13,22.5 -105.79,-104.68 -549.79,-236.99"
       style="fill:#9c8dce;fill-opacity:1;fill-rule:evenodd;stroke:none"
       transform="matrix(0.13333333,0,0,-0.13333333,0,4480)" />
    <path
       id="path67"
       d="m 6602.32,6013.29 c 0,0 503.29,18.03 598.7,1.71 95.39,-16.33 -138.43,-54.66 -598.7,-1.71"
       style="fill:#9c8dce;fill-opacity:1;fill-rule:evenodd;stroke:none"
       transform="matrix(0.13333333,0,0,-0.13333333,0,4480)" />
    <path
       id="path68"
       d="m 6599.46,5945.29 c 0,0 488.34,-123.08 575.4,-165.36 87.06,-42.3 -148.18,-13.88 -575.4,165.36"
       style="fill:#9c8dce;fill-opacity:1;fill-rule:evenodd;stroke:none"
       transform="matrix(0.13333333,0,0,-0.13333333,0,4480)" />
    <path
       id="path69"
       d="m 6603.46,5984.47 c 0,0 501.86,-42.08 594.62,-69.67 92.78,-27.57 -143.95,-37.75 -594.62,69.67"
       style="fill:#9c8dce;fill-opacity:1;fill-rule:evenodd;stroke:none"
       transform="matrix(0.13333333,0,0,-0.13333333,0,4480)" />
    <path
       id="path70"
       d="m 6582.09,5889.91 c 0,0 444.88,-236.02 519.33,-297.86 74.46,-61.84 -147.21,21.88 -519.33,297.86"
       style="fill:#9c8dce;fill-opacity:1;fill-rule:evenodd;stroke:none"
       transform="matrix(0.13333333,0,0,-0.13333333,0,4480)" />
    <path
       id="path71"
       d="m 6545.61,5832.46 c 0,0 361.37,-350.76 415.63,-430.91 54.24,-80.15 -135.28,62.08 -415.63,430.91"
       style="fill:#9c8dce;fill-opacity:1;fill-rule:evenodd;stroke:none"
       transform="matrix(0.13333333,0,0,-0.13333333,0,4480)" />
    <path
       id="path72"
       d="m 6568.66,5864.39 c 0,0 413.58,-287.37 480.14,-357.64 66.55,-70.27 -143.56,39.27 -480.14,357.64"
       style="fill:#9c8dce;fill-opacity:1;fill-rule:evenodd;stroke:none"
       transform="matrix(0.13333333,0,0,-0.13333333,0,4480)" />
    <path
       id="path73"
       d="m 6502.87,5793.18 c 0,0 267.26,-426.84 300.83,-517.62 33.56,-90.78 -116.55,92.55 -300.83,517.62"
       style="fill:#9c8dce;fill-opacity:1;fill-rule:evenodd;stroke:none"
       transform="matrix(0.13333333,0,0,-0.13333333,0,4480)" />
    <path
       id="path74"
       d="m 6442.55,5761.67 c 0,0 137.58,-484.46 144.49,-580.99 6.91,-96.55 -86.1,121.4 -144.49,580.99"
       style="fill:#9c8dce;fill-opacity:1;fill-rule:evenodd;stroke:none"
       transform="matrix(0.13333333,0,0,-0.13333333,0,4480)" />
    <path
       id="path75"
       d="m 6478.49,5777.79 c 0,0 214.48,-455.66 236.98,-549.79 22.5,-94.12 -104.68,105.79 -236.98,549.79"
       style="fill:#9c8dce;fill-opacity:1;fill-rule:evenodd;stroke:none"
       transform="matrix(0.13333333,0,0,-0.13333333,0,4480)" />
    <path
       id="path76"
       d="m 6385.91,5749.02 c 0,0 18.03,-503.29 1.71,-598.68 -16.33,-95.4 -54.66,138.42 -1.71,598.68"
       style="fill:#9c8dce;fill-opacity:1;fill-rule:evenodd;stroke:none"
       transform="matrix(0.13333333,0,0,-0.13333333,0,4480)" />
    <path
       id="path77"
       d="m 6317.91,5751.89 c 0,0 -123.08,-488.34 -165.37,-575.39 -42.28,-87.07 -13.86,148.17 165.37,575.39"
       style="fill:#9c8dce;fill-opacity:1;fill-rule:evenodd;stroke:none"
       transform="matrix(0.13333333,0,0,-0.13333333,0,4480)" />
    <path
       id="path78"
       d="m 6357.09,5747.88 c 0,0 -42.08,-501.84 -69.66,-594.62 -27.58,-92.77 -37.76,143.95 69.66,594.62"
       style="fill:#9c8dce;fill-opacity:1;fill-rule:evenodd;stroke:none"
       transform="matrix(0.13333333,0,0,-0.13333333,0,4480)" />
    <path
       id="path79"
       d="m 6262.53,5769.26 c 0,0 -236.03,-444.88 -297.86,-519.33 -61.83,-74.46 21.88,147.2 297.86,519.33"
       style="fill:#9c8dce;fill-opacity:1;fill-rule:evenodd;stroke:none"
       transform="matrix(0.13333333,0,0,-0.13333333,0,4480)" />
    <path
       id="path80"
       d="m 6205.08,5805.74 c 0,0 -350.76,-361.37 -430.92,-415.63 -80.14,-54.24 62.08,135.27 430.92,415.63"
       style="fill:#9c8dce;fill-opacity:1;fill-rule:evenodd;stroke:none"
       transform="matrix(0.13333333,0,0,-0.13333333,0,4480)" />
    <path
       id="path81"
       d="m 6237.01,5782.69 c 0,0 -287.37,-413.58 -357.65,-480.14 -70.26,-66.55 39.28,143.55 357.65,480.14"
       style="fill:#9c8dce;fill-opacity:1;fill-rule:evenodd;stroke:none"
       transform="matrix(0.13333333,0,0,-0.13333333,0,4480)" />
    <path
       id="path82"
       d="m 6165.8,5848.48 c 0,0 -426.84,-267.27 -517.62,-300.83 -90.77,-33.56 92.55,116.55 517.62,300.83"
       style="fill:#9c8dce;fill-opacity:1;fill-rule:evenodd;stroke:none"
       transform="matrix(0.13333333,0,0,-0.13333333,0,4480)" />
    <path
       id="path83"
       d="m 6134.29,5908.8 c 0,0 -484.45,-137.59 -580.99,-144.49 -96.54,-6.9 121.4,86.1 580.99,144.49"
       style="fill:#9c8dce;fill-opacity:1;fill-rule:evenodd;stroke:none"
       transform="matrix(0.13333333,0,0,-0.13333333,0,4480)" />
    <path
       id="path84"
       d="m 6150.41,5872.86 c 0,0 -455.66,-214.48 -549.79,-236.98 -94.13,-22.5 105.79,104.68 549.79,236.98"
       style="fill:#9c8dce;fill-opacity:1;fill-rule:evenodd;stroke:none"
       transform="matrix(0.13333333,0,0,-0.13333333,0,4480)" />
    <path
       id="path85"
       d="m 6121.64,5965.44 c 0,0 -503.29,-18.03 -598.69,-1.71 -95.39,16.33 138.43,54.66 598.69,1.71"
       style="fill:#9c8dce;fill-opacity:1;fill-rule:evenodd;stroke:none"
       transform="matrix(0.13333333,0,0,-0.13333333,0,4480)" />
    <path
       id="path86"
       d="m 6124.51,6033.44 c 0,0 -488.33,123.07 -575.4,165.36 -87.06,42.29 148.18,13.88 575.4,-165.36"
       style="fill:#9c8dce;fill-opacity:1;fill-rule:evenodd;stroke:none"
       transform="matrix(0.13333333,0,0,-0.13333333,0,4480)" />
    <path
       id="path87"
       d="m 6120.5,5994.25 c 0,0 -501.85,42.09 -594.61,69.66 -92.79,27.58 143.95,37.77 594.61,-69.66"
       style="fill:#9c8dce;fill-opacity:1;fill-rule:evenodd;stroke:none"
       transform="matrix(0.13333333,0,0,-0.13333333,0,4480)" />
    <path
       id="path88"
       d="m 6141.88,6088.81 c 0,0 -444.88,236.03 -519.32,297.87 -74.47,61.83 147.2,-21.88 519.32,-297.87"
       style="fill:#9c8dce;fill-opacity:1;fill-rule:evenodd;stroke:none"
       transform="matrix(0.13333333,0,0,-0.13333333,0,4480)" />
    <path
       id="path89"
       d="m 6178.36,6146.26 c 0,0 -361.38,350.77 -415.63,430.92 -54.24,80.15 135.27,-62.07 415.63,-430.92"
       style="fill:#9c8dce;fill-opacity:1;fill-rule:evenodd;stroke:none"
       transform="matrix(0.13333333,0,0,-0.13333333,0,4480)" />
    <path
       id="path90"
       d="m 6155.3,6114.34 c 0,0 -413.57,287.36 -480.13,357.64 -66.54,70.27 143.55,-39.27 480.13,-357.64"
       style="fill:#9c8dce;fill-opacity:1;fill-rule:evenodd;stroke:none"
       transform="matrix(0.13333333,0,0,-0.13333333,0,4480)" />
    <path
       id="path91"
       d="m 6221.1,6185.55 c 0,0 -267.26,426.83 -300.83,517.62 -33.56,90.78 116.55,-92.56 300.83,-517.62"
       style="fill:#9c8dce;fill-opacity:1;fill-rule:evenodd;stroke:none"
       transform="matrix(0.13333333,0,0,-0.13333333,0,4480)" />
    <path
       id="path92"
       d="m 6281.42,6217.05 c 0,0 -137.59,484.47 -144.49,581 -6.9,96.54 86.11,-121.39 144.49,-581"
       style="fill:#9c8dce;fill-opacity:1;fill-rule:evenodd;stroke:none"
       transform="matrix(0.13333333,0,0,-0.13333333,0,4480)" />
    <path
       id="path93"
       d="m 6245.48,6200.93 c 0,0 -214.48,455.66 -236.98,549.8 -22.5,94.12 104.68,-105.79 236.98,-549.8"
       style="fill:#9c8dce;fill-opacity:1;fill-rule:evenodd;stroke:none"
       transform="matrix(0.13333333,0,0,-0.13333333,0,4480)" />
    <path
       id="path94"
       d="m 6338.06,6229.7 c 0,0 -18.04,503.29 -1.71,598.69 16.33,95.4 54.65,-138.43 1.71,-598.69"
       style="fill:#9c8dce;fill-opacity:1;fill-rule:evenodd;stroke:none"
       transform="matrix(0.13333333,0,0,-0.13333333,0,4480)" />
    <path
       id="path95"
       d="m 6406.06,6226.84 c 0,0 123.08,488.34 165.36,575.39 42.29,87.06 13.87,-148.18 -165.36,-575.39"
       style="fill:#9c8dce;fill-opacity:1;fill-rule:evenodd;stroke:none"
       transform="matrix(0.13333333,0,0,-0.13333333,0,4480)" />
    <path
       id="path96"
       d="m 6354.68,6043.4 c 29.85,4.03 57.3,-16.89 61.34,-46.73 4.03,-29.85 -16.89,-57.31 -46.73,-61.34 -29.84,-4.04 -57.31,16.89 -61.34,46.73 -4.03,29.84 16.89,57.3 46.73,61.34"
       style="fill:#9c8dce;fill-opacity:1;fill-rule:evenodd;stroke:none"
       transform="matrix(0.13333333,0,0,-0.13333333,0,4480)" />
    <path
       id="path97"
       d="m 6347.41,6304.55 c 29.84,4.03 57.3,-16.89 61.34,-46.73 4.03,-29.84 -16.89,-57.3 -46.73,-61.34 -29.85,-4.03 -57.31,16.89 -61.34,46.73 -4.04,29.84 16.89,57.31 46.73,61.34"
       style="fill:#9c8dce;fill-opacity:1;fill-rule:evenodd;stroke:none"
       transform="matrix(0.13333333,0,0,-0.13333333,0,4480)" />
    <path
       id="path98"
       d="m 6148,6168.38 c 29.84,4.03 57.3,-16.9 61.34,-46.74 4.03,-29.84 -16.89,-57.3 -46.74,-61.34 -29.84,-4.03 -57.3,16.9 -61.33,46.74 -4.04,29.84 16.88,57.3 46.73,61.34"
       style="fill:#9c8dce;fill-opacity:1;fill-rule:evenodd;stroke:none"
       transform="matrix(0.13333333,0,0,-0.13333333,0,4480)" />
    <path
       id="path99"
       d="m 6097.39,5941.84 c 29.84,4.04 57.3,-16.89 61.34,-46.73 4.03,-29.84 -16.89,-57.31 -46.73,-61.34 -29.84,-4.03 -57.31,16.89 -61.34,46.73 -4.03,29.85 16.89,57.31 46.73,61.34"
       style="fill:#9c8dce;fill-opacity:1;fill-rule:evenodd;stroke:none"
       transform="matrix(0.13333333,0,0,-0.13333333,0,4480)" />
    <path
       id="path100"
       d="m 6248.28,5774.16 c 29.85,4.04 57.31,-16.88 61.34,-46.73 4.04,-29.84 -16.89,-57.3 -46.73,-61.33 -29.84,-4.04 -57.3,16.88 -61.34,46.73 -4.03,29.84 16.89,57.3 46.73,61.33"
       style="fill:#9c8dce;fill-opacity:1;fill-rule:evenodd;stroke:none"
       transform="matrix(0.13333333,0,0,-0.13333333,0,4480)" />
    <path
       id="path101"
       d="m 6464.71,5782.63 c 29.85,4.03 57.31,-16.89 61.34,-46.73 4.04,-29.84 -16.89,-57.31 -46.73,-61.34 -29.84,-4.03 -57.3,16.89 -61.33,46.73 -4.04,29.85 16.89,57.31 46.72,61.34"
       style="fill:#9c8dce;fill-opacity:1;fill-rule:evenodd;stroke:none"
       transform="matrix(0.13333333,0,0,-0.13333333,0,4480)" />
    <path
       id="path102"
       d="m 6614.3,5942.13 c 29.84,4.04 57.31,-16.88 61.34,-46.73 4.04,-29.84 -16.89,-57.3 -46.73,-61.33 -29.84,-4.03 -57.3,16.89 -61.34,46.73 -4.03,29.84 16.89,57.3 46.73,61.33"
       style="fill:#9c8dce;fill-opacity:1;fill-rule:evenodd;stroke:none"
       transform="matrix(0.13333333,0,0,-0.13333333,0,4480)" />
    <path
       id="path103"
       d="m 6587.73,6175.86 c 29.85,4.03 57.31,-16.9 61.34,-46.73 4.04,-29.85 -16.89,-57.31 -46.73,-61.34 -29.84,-4.04 -57.3,16.89 -61.34,46.73 -4.03,29.84 16.89,57.3 46.73,61.34"
       style="fill:#9c8dce;fill-opacity:1;fill-rule:evenodd;stroke:none"
       transform="matrix(0.13333333,0,0,-0.13333333,0,4480)" />
    <path
       id="path104"
       d="m 23367.5,33600 c -6142.1,-3364.7 -2514.5,-9345.2 -728.3,-8142.1 1366.5,920.5 7433,-1153.6 10960.8,-1183.6 V 33600 H 23367.5"
       style="fill:#e8e6f5;fill-opacity:1;fill-rule:evenodd;stroke:none"
       transform="matrix(0.13333333,0,0,-0.13333333,0,4480)" />
    <path
       id="path105"
       d="m 25467.5,27422.7 c 0,0 -80.2,219.2 -251.3,80.2 -171.1,-139 -21.4,-251.3 5.3,-208.5 26.8,42.8 304.8,48.1 246,128.3"
       style="fill:#9c8dce;fill-opacity:1;fill-rule:evenodd;stroke:none"
       transform="matrix(0.13333333,0,0,-0.13333333,0,4480)" />
    <path
       id="path106"
       d="m 22655.8,26358.9 c 0,0 -107.4,293.5 -336.5,107.3 -229.1,-186.1 -28.6,-336.4 7.2,-279.2 35.8,57.3 408.1,64.5 329.3,171.9"
       style="fill:#9c8dce;fill-opacity:1;fill-rule:evenodd;stroke:none"
       transform="matrix(0.13333333,0,0,-0.13333333,0,4480)" />
    <path
       id="path107"
       d="m 21711.4,27726.7 c 0,0 -155.4,424.5 -486.7,155.3 -331.4,-269.2 -41.4,-486.7 10.3,-403.8 51.8,82.8 590.3,93.2 476.4,248.5"
       style="fill:#9c8dce;fill-opacity:1;fill-rule:evenodd;stroke:none"
       transform="matrix(0.13333333,0,0,-0.13333333,0,4480)" />
    <path
       id="path108"
       d="m 21978.2,29340.9 c 0,0 -80.2,219.2 -251.3,80.2 -171.1,-139.1 -21.4,-251.3 5.4,-208.6 26.7,42.8 304.7,48.2 245.9,128.4"
       style="fill:#9c8dce;fill-opacity:1;fill-rule:evenodd;stroke:none"
       transform="matrix(0.13333333,0,0,-0.13333333,0,4480)" />
    <path
       id="path109"
       d="m 23657.3,28211.8 c 0,0 -80.2,219.2 -251.3,80.2 -171.1,-139 -21.4,-251.3 5.3,-208.5 26.8,42.8 304.8,48.1 246,128.3"
       style="fill:#9c8dce;fill-opacity:1;fill-rule:evenodd;stroke:none"
       transform="matrix(0.13333333,0,0,-0.13333333,0,4480)" />
    <path
       id="path110"
       d="m 27413.3,26675.8 c 0,0 -80.2,219.2 -251.3,80.2 -171.1,-139 -21.4,-251.3 5.3,-208.5 26.8,42.8 304.8,48.1 246,128.3"
       style="fill:#9c8dce;fill-opacity:1;fill-rule:evenodd;stroke:none"
       transform="matrix(0.13333333,0,0,-0.13333333,0,4480)" />
    <path
       id="path111"
       d="m 15067.1,31349.4 c 0,0 -245.3,696.7 -83.6,864 161.6,167.2 1042.3,-345.6 891.8,-557.4 -150.5,-211.8 -646.6,-367.9 -646.6,-367.9 0,0 774.8,234.1 758.1,-22.3 -16.8,-256.4 -535.1,-785.9 -652.2,-702.3 -117,83.6 -164.7,621.3 -206.2,646.6 -41.5,25.3 100.3,-518.4 -50.2,-557.4 -150.5,-39 -847.2,284.3 -808.2,507.2 39.1,223 641,161.7 641,161.7 0,0 -758,-16.8 -618.7,295.4 139.4,312.1 356.8,473.7 440.4,473.7 83.6,0 269.4,-527.5 334.4,-741.3"
       style="fill:#cbc1e6;fill-opacity:1;fill-rule:evenodd;stroke:none"
       transform="matrix(0.13333333,0,0,-0.13333333,0,4480)" />
    <path
       id="path112"
       d="m 31532.3,4787.06 c 0,0 485.8,1013.56 839.6,1019.56 353.9,6 749.7,-1493.36 359.9,-1559.33 -389.8,-65.97 -1091.5,299.87 -1091.5,299.87 0,0 1085.5,-581.75 791.6,-839.64 -293.9,-257.89 -1421.4,-269.88 -1457.4,-53.97 -35.9,215.9 491.3,845.69 473.8,917.6 -17.4,71.91 -449.8,-665.71 -653.7,-545.76 -203.9,119.95 -605.7,1217.47 -323.8,1415.39 281.8,197.92 863.6,-515.78 863.6,-515.78 0,0 -833.7,797.66 -347.9,983.58 485.8,185.92 893.7,125.94 983.6,35.98 90,-89.96 -277.6,-857.53 -437.8,-1157.5"
       style="fill:#baaede;fill-opacity:1;fill-rule:evenodd;stroke:none"
       transform="matrix(0.13333333,0,0,-0.13333333,0,4480)" />
    <path
       id="path113"
       d="m 1045.43,25297.6 c 0,0 113.05,1498.3 357.49,1574.2 244.45,75.9 646.9,-199.1 639.86,-311.4 -7.04,-112.2 -911.52,-1199.5 -911.52,-1199.5 0,0 956.8,1108.6 1141.81,1005.4 184.99,-103.2 362.65,-500.4 345.31,-622.1 -17.36,-121.7 -1443.54,-468.2 -1443.54,-468.2 0,0 1404.77,353.4 1508.3,240.1 103.55,-113.3 47.7,-453.6 -97.65,-478.6 -145.35,-25.1 -1385.04,171.1 -1385.04,171.1 0,0 1327.15,-184.3 1377.63,-247.8 50.47,-63.5 -68.94,-477 -239.15,-505.8 -170.22,-28.9 -1147.97,718.5 -1147.97,718.5 0,0 1028.3,-765.5 1028.89,-927.5 0.59,-162 -223.62,-446.3 -388.97,-389.4 -165.36,56.8 -743.84,1203.1 -743.84,1203.1 0,0 680.24,-1299 582.4,-1365.7 -97.83,-66.7 -717.245,-352.9 -895.124,-92 -177.882,260.9 200.438,1464.7 200.438,1464.7 0,0 -386.328,-1381.2 -651.895,-1268.5 -115.742,49.1 -232.0387,152.3 -322.859,267 v 582.6 c 291.063,219.2 854.902,521.1 854.902,521.1 0,0 -482.043,-186.5 -854.902,-278 v 650.9 c 355.016,-106.8 817.332,-286.2 817.332,-286.2 0,0 -482.125,180.6 -817.332,358.7 v 735.2 c 30.7305,19.7 60.1367,34 86.2422,41.4 156.0898,44.3 756.9568,-1043.6 756.9568,-1043.6 0,0 -695.144,1100.1 -440.246,1276.3 254.899,176.2 503.488,168.9 590.871,135.3 87.386,-33.6 51.606,-1461.3 51.606,-1461.3"
       style="fill:#baaede;fill-opacity:1;fill-rule:evenodd;stroke:none"
       transform="matrix(0.13333333,0,0,-0.13333333,0,4480)" />
    <path
       id="path114"
       d="m 32015.6,23947.3 c 0,0 -171.4,-2270.8 -541.8,-2385.8 -370.5,-115 -980.5,301.8 -969.8,471.9 10.7,170.2 1381.5,1818 1381.5,1818 0,0 -1450.1,-1680.1 -1730.5,-1523.8 -280.4,156.4 -549.6,758.4 -523.4,942.9 26.3,184.4 2187.8,709.6 2187.8,709.6 0,0 -2129,-535.6 -2285.9,-363.9 -157,171.8 -72.3,687.4 148,725.4 220.3,38 2099.1,-259.4 2099.1,-259.4 0,0 -2011.4,279.4 -2087.9,375.7 -76.5,96.2 104.5,722.8 362.5,766.6 257.9,43.7 1739.8,-1089.1 1739.8,-1089.1 0,0 -1558.5,1160.2 -1559.4,1405.8 -0.9,245.5 339,676.3 589.6,590.2 250.6,-86.2 1127.3,-1823.4 1127.3,-1823.4 0,0 -1031,1968.7 -882.7,2069.8 148.3,101.1 1087.1,534.8 1356.7,139.4 269.6,-395.4 -303.8,-2219.9 -303.8,-2219.9 0,0 585.5,2093.4 988,1922.6 175.4,-74.5 351.7,-230.9 489.3,-404.8 v -883 c -441.1,-332 -1295.7,-789.7 -1295.7,-789.7 0,0 730.6,282.7 1295.7,421.3 v -986.4 c -538.1,161.9 -1238.7,433.8 -1238.7,433.8 0,0 730.7,-273.7 1238.7,-543.7 v -1114.3 c -46.6,-29.7 -91.1,-51.5 -130.7,-62.7 -236.6,-67.2 -1147.2,1581.7 -1147.2,1581.7 0,0 1053.5,-1667.3 667.2,-1934.3 -386.3,-267 -763.1,-256 -895.5,-205.1 -132.5,50.8 -78.2,2214.6 -78.2,2214.6"
       style="fill:#baaede;fill-opacity:1;fill-rule:evenodd;stroke:none"
       transform="matrix(0.13333333,0,0,-0.13333333,0,4480)" />
    <path
       id="path115"
       d="m 29713.4,24758.1 c 60.5,205.1 187.3,440.2 341.8,466.4 162.4,27.5 809.6,-411.1 1267.1,-740 -523.6,78.1 -1064.3,172.3 -1608.9,273.6 z m 1632,-277 c -460.4,362.6 -1109.2,901.7 -1109.8,1060.1 -0.9,245.5 339,676.3 589.6,590.2 214.8,-73.9 890,-1361.6 1078.2,-1727.3 81.1,-10.2 161.7,-20.1 241.6,-29.3 110.7,376.5 609.7,1996.2 965.7,1845.1 175.4,-74.5 351.6,-230.9 489.3,-404.8 v -882.9 c -264.6,-199.3 -678,-443.7 -966.5,-607.4 -159.5,14.1 -321.9,30.7 -487.3,49.8 105.2,351.3 516.6,1796 280.3,2142.6 -269.6,395.4 -1208.4,-38.3 -1356.7,-139.4 -128.5,-87.6 628.5,-1577.5 832.8,-1973.5 -183.1,23.2 -368.9,48.8 -557.2,76.8 z m 1429.2,-168.1 c 247.8,85.4 555.4,184.5 825.4,250.7 v -289.4 c -262,2.2 -538.3,15.9 -825.4,38.7"
       style="fill:#cbc1e6;fill-opacity:1;fill-rule:evenodd;stroke:none"
       transform="matrix(0.13333333,0,0,-0.13333333,0,4480)" />
  </g>
</svg>
