<svg id="Ebene_1" data-name="Ebene 1" xmlns="http://www.w3.org/2000/svg" viewBox="0 0 1633.28 1467.47"><defs><style>.cls-1{fill:#bcddd4;}.cls-2{fill:#abd4ca;}.cls-3{fill:#529488;}</style></defs><title>simple-clean-green-floral-01</title><path id="path166" class="cls-1" d="M-692.39-468.4H940.89V999H-692.39V-468.4" transform="translate(692.39 468.4)"/><path id="path167" class="cls-2" d="M940.89,176.4a135.65,135.65,0,0,0-25.37,5.44c-20.15,6.27-40.11,16.8-61.63,28.72-56.5,31.28-111,48.35-162.25,53.87-56,6-107.92-1.72-154.07-19.78a3.74,3.74,0,0,1,.11-7.16l1,3.6-1-3.58c31.52-9,63.74-21.16,97.16-35.58,33.64-14.49,68.31-31.12,104.66-48.88a221.29,221.29,0,0,1,115.92-22.28c28.08,2.15,56.62,9.36,85.46,21.27V176.4Zm0,203.33A203.1,203.1,0,0,1,880,410c-35.72,10.72-74,11.13-113.24,1.69-23.15-5.57-44.87-10.05-65.36-12.6s-39.59-3.14-57.87-1.06a3.74,3.74,0,0,1-3-6.51l2.46,2.81-2.45-2.81c30.15-26.36,66.63-36.31,104.36-46.59,35.17-9.58,71.47-19.48,104.09-43.44q49.68-36.45,91.92-54.22V379.73Zm0,178.07q-12.55,3.3-26,5.67-89,15.62-216.53-10a3.69,3.69,0,0,1-2-.94,3.74,3.74,0,0,1-.27-5.28l2.78,2.51-2.76-2.51c15.18-16.78,36.68-31.76,64.5-44.74q40.92-19.08,100.23-32.36c26.37-5.87,53-14.55,80.09-25.64V557.8Zm0-615.67a846.28,846.28,0,0,1-3.77-146.34,3.71,3.71,0,0,1,1.13-2.78,3.68,3.68,0,0,1,2.64-1.06v3.69l0,0,0,0ZM767.6-5.48a3.7,3.7,0,0,1,3.65.4q29.88,21.67,58,43.39c-1.32-2.12-2.62-4.28-3.92-6.5-15.5-26.62-29-60.37-38.92-101.66-6-25-11.73-48.79-19.7-70.48s-18.08-41.26-32.9-58.24c-19.92-22.84-34.78-42.2-44.14-58.51C680-274,676.08-287.87,678.43-299.17l3.65.76-3.67-.76a3.76,3.76,0,0,1,4.43-2.91l.45.13c95.12,23.63,147.11,81.52,175,154.11,27,70.2,31.36,154,30.59,233.68q26.88,22.2,52,44.4v10Q915.39,117.47,888,94.75a3.74,3.74,0,0,1-2.93,1.34,3.89,3.89,0,0,1-2.22-.74c-13.3-8.39-26.56-20.43-39.06-36.3-.58-.46-1.15-.92-1.74-1.37-13.85-7.16-28.2-12.89-42.77-15.92s-29.16-3.31-43.81.37C669.61,63.71,600,72.43,546.11,67c-54.55-5.55-93-25.6-115.68-61.54a3.74,3.74,0,0,1,3-5.86l.08,3.74-.08-3.74Q705.19-7,805.89,29.84q-17.67-13.33-36-26.68l-.07.08a3.72,3.72,0,0,1-5.24.68h0q-141.45-108.63-218-179.22-76.81-70.89-89.13-104.53a3.68,3.68,0,0,1,.11-3.31,3.74,3.74,0,0,1,5.06-1.53l-1.76,3.29,1.76-3.29q108.36,57.92,185.19,128.81,74.77,69,119.72,150.38h0" transform="translate(692.39 468.4)"/><path id="path168" class="cls-2" d="M-606.07,999.07c2-17.86,4.74-36.23,8.55-55.08,9.45-46.67,15.61-89.22,18-127.75s.85-73.13-5-103.85a2.72,2.72,0,0,0-.64-1.48,2.84,2.84,0,0,0-4-.36l1.82,2.18-1.82-2.17c-16.6,13.88-38.86,34.36-57.26,63s-33,65.66-34.07,112.35c-.68,29.59,13.15,60.13,28.89,94.92q4.05,8.92,8.18,18.21h37.38Zm450-152.76a2.82,2.82,0,0,0-2.69-.7q-27,7.29-52.88,15c1.51-1.14,3-2.32,4.53-3.54,18.2-14.67,36.92-34.92,55.1-61.54,11-16.08,21.5-31.4,33-44.62s24-24.34,39.08-32.38c20.3-10.8,36.07-20.49,47.11-29.52,11.47-9.36,18-18.13,19.39-26.78l-2.8-.46,2.8.46A2.85,2.85,0,0,0-15.72,659l-.36,0c-73.81-9-126.31,18-165.75,61.86-38.13,42.46-63.89,100.7-84.89,157.36q-60.67,20.5-114,43.87a683.59,683.59,0,0,0,93-119.05,639.73,639.73,0,0,0,65.25-143.44,2.77,2.77,0,0,0,0-2.27,2.84,2.84,0,0,0-3.77-1.39l1.2,2.58-1.19-2.58q-51.18,23.64-83.36,62t-45.81,91.23c-4.16,16.13-9.44,34-15.71,53.48s-13.52,40.77-21.66,63.84a3,3,0,0,0-.26,1.08q-15.15,6.86-29.69,14c-1.89-.06-3.79-.07-5.68,0a2.81,2.81,0,0,0-2.15.89h0l-5.28,5.61q-28,14.16-53.61,29.23c.75-23.29,15.72-49.83,35.65-85.11,3.5-6.18,7.15-12.64,11.31-20.16,20.21-36.46,31.79-69.94,36.72-99.42,5.65-33.82,2.59-62.44-6.24-84.36h0a2.84,2.84,0,0,0-3.69-1.58,2.93,2.93,0,0,0-1.15.86c-25.4,26.26-46.69,56.53-63.42,86.29-20.23,36-33.84,71.23-40.06,97.84-5.76,24.67-6.05,42-1.5,58.15,4.44,15.81,13.44,30.28,26.46,49.37v.48a1.59,1.59,0,0,0,.24.8l0,.19q-8.39,5-16.48,10.12-6.57,4.14-13,8.36h10.4c1.86-1.2,3.72-2.39,5.6-3.58q31.17-19.63,66.19-37.77a2.88,2.88,0,0,0,.49.67l2-2-2,2c9.58,9.85,17.26,23.66,24.92,40.68h88.87Q-345,979-362,965.88q-24.84-19.14-49.92-23.29,26.42-12.63,54.83-24.44a2.81,2.81,0,0,0,2,1.44h0c17.24,2.7,31.05,9.68,43.49,19.46,12.59,9.91,23.88,22.78,35.92,37q10.31,12.23,20.95,23H-148q-15.28-15.87-31-32.8a168,168,0,0,0-76.13-47.15c-26.72-7.92-56.32-10-88.32-6.57q35.94-14.49,75-27.76a2.86,2.86,0,0,0,1.71,1.74,2.83,2.83,0,0,0,1.77.06c11.71-2.35,24.36-7.28,37.51-15.16l1.6-.5c11.76-1.32,23.48-1.5,34.62.28a73.77,73.77,0,0,1,31,12.12c55,38.52,102,63.55,141.67,74.23,40.16,10.83,72.84,7,98.64-12.32A3,3,0,0,0,81,944a2.85,2.85,0,0,0-1.56-3.7l-1.07,2.62,1.07-2.61Q-111.39,862.15-192.72,861q16.13-4.68,32.72-9.18l0,.07a2.83,2.83,0,0,0,3.52,1.91v0q129.63-38.71,203-68.06,73.63-29.49,91.46-50a2.81,2.81,0,0,0,.82-2.36,2.85,2.85,0,0,0-3.18-2.47l.36,2.82-.36-2.8q-92.48,11.72-166.1,41.2-71.67,28.68-125.54,74.2h0" transform="translate(692.39 468.4)"/><path id="path169" class="cls-3" d="M-108.15,850a2.81,2.81,0,0,0,2-3.45,2.81,2.81,0,0,0-3.46-2q-214.2,57.72-352.84,145.11-7.43,4.68-14.63,9.44h10.36c2.41-1.56,4.84-3.12,7.29-4.66Q-321.49,907.47-108.15,850" transform="translate(692.39 468.4)"/><path id="path170" class="cls-3" d="M93.52,779.35q62.3-24.93,83.49-42.8Q90.35,748.4,20.73,776.28q-65.85,26.36-116.42,67Q24,807.16,93.52,779.35Zm93.57-44.71q-17.84,20.5-91.46,50-73.32,29.34-203,68.07h0a2.81,2.81,0,0,1-3.52-1.9,2.82,2.82,0,0,1,1.06-3.12Q-55,800.47,18.63,771t166.1-41.2l.36,2.82-.36-2.82a2.84,2.84,0,0,1,2.36,4.83h0" transform="translate(692.39 468.4)"/><path id="path171" class="cls-3" d="M-135,865.76a76.55,76.55,0,0,1,27,11.83C-53.45,915.75-7,940.51,32,951c36.26,9.78,66,7.15,89.67-8.53Q-55.23,870.44-135,865.76Zm23.8,16.48a73.62,73.62,0,0,0-31-12.11c-11.2-1.81-23-1.61-34.81-.26l-.32-2.82.32,2.83a2.83,2.83,0,0,1-3.13-2.51,2.81,2.81,0,0,1,2.17-3.08q67.06-23.13,306.51,74.9l-1.08,2.61,1.08-2.61a2.85,2.85,0,0,1,.53,5c-25.8,19.32-58.48,23.14-98.64,12.32-39.64-10.68-86.65-35.71-141.67-74.23h0" transform="translate(692.39 468.4)"/><path id="path172" class="cls-3" d="M-157.95,856c-20.45,16.48-40.26,26-57.93,29.48a2.9,2.9,0,0,1-1.77,0,2.83,2.83,0,0,1-1.68-3.64h0c21.32-58.13,47.44-118.41,86.62-162C-93.28,675.88-40.77,648.91,33,657.89l.36,0a2.84,2.84,0,0,1,2.35,3.25l-2.8-.45,2.8.45c-1.4,8.66-7.94,17.43-19.39,26.79-11,9-26.81,18.72-47.11,29.52-15.1,8-27.62,19.23-39.08,32.39s-22,28.53-33,44.62c-18.18,26.6-36.91,46.86-55.1,61.52Zm-54.26,22.84c15.58-4,32.84-12.84,50.7-27.24s36.11-34.18,54-60.32c11.06-16.17,21.64-31.58,33.46-45.14s24.89-25.26,40.69-33.67c20-10.61,35.4-20.12,46.17-28.91,9-7.33,14.58-14.06,16.67-20.4-70.09-7.66-120.17,18.36-157.92,60.38-37.49,41.73-63,99.26-83.73,155.3h0" transform="translate(692.39 468.4)"/><path id="path173" class="cls-3" d="M-243.4,799a633.48,633.48,0,0,0,62.79-136.2q-46,22.54-75.52,57.71-31.44,37.37-44.68,89c-4.16,16.16-9.47,34.08-15.8,53.79q-7.8,24.36-17.59,52.24A676.09,676.09,0,0,0-243.4,799Zm70.09-140.46a639.18,639.18,0,0,1-65.25,143.42Q-280,869.52-339.07,928.57l-2-2,2,2a2.83,2.83,0,0,1-4,0,2.87,2.87,0,0,1-.59-3.17q12.24-34.62,21.67-63.84t15.71-53.49q13.62-52.86,45.81-91.23t83.36-62l1.19,2.57-1.19-2.57a2.84,2.84,0,0,1,3.77,1.39,2.79,2.79,0,0,1,0,2.28h0" transform="translate(692.39 468.4)"/><path id="path174" class="cls-3" d="M-226.52,975c-12-14.27-23.32-27.13-35.91-37s-26.25-16.77-43.49-19.48h0a2.83,2.83,0,0,1-2.37-3.24,2.84,2.84,0,0,1,2.68-2.38c36.33-5.18,69.76-3.68,99.6,5.16a168,168,0,0,1,76.13,47.16q16.34,17.47,32.08,33.88h-7.84c-9.31-9.7-18.73-19.72-28.37-30a162.24,162.24,0,0,0-73.62-45.59c-24.81-7.36-52.22-9.48-81.86-6.78a100.29,100.29,0,0,1,30.56,16.85c13,10.24,24.53,23.33,36.76,37.83a378.19,378.19,0,0,0,25.77,27.72h-8.07q-11.19-11.22-22.05-24.07h0" transform="translate(692.39 468.4)"/><path id="path175" class="cls-3" d="M-392.64,953.24l11.21-11.93h0a2.82,2.82,0,0,1,2.15-.9c22.39-.73,44.44,7.44,66.4,24.39q17.42,13.44,34.84,34.27h-7.44a215.25,215.25,0,0,0-30.87-29.79c-20.56-15.85-41.08-23.64-61.76-23.23l-8.72,9.27c9.91,10.95,17.76,25.75,25.7,43.75h-6.2c-7.84-17.52-15.63-31.71-25.42-41.78l2-2-2,2a2.86,2.86,0,0,1,.06-4l.05,0h0" transform="translate(692.39 468.4)"/><path id="path176" class="cls-3" d="M-445.4,969.13c3-22.86,17.35-48.2,35.8-80.88,3.76-6.64,7.68-13.58,11.29-20.12,19.87-35.85,31.24-68.72,36.08-97.62,5.12-30.62,2.9-56.72-4.33-77.15-23.73,25.15-43.75,53.83-59.64,82.07-19.95,35.46-33.36,70.2-39.47,96.38-5.52,23.64-5.85,40.11-1.57,55.32,3.77,13.44,11.2,26.12,21.84,42Zm5.07,8.46.06,3.22h0a2.84,2.84,0,0,1-2.77,2.9,2.83,2.83,0,0,1-2.89-2.78h0v-.26c0-.76-.07-1.54-.07-2.31-13.15-19.27-22.24-33.8-26.71-49.71-4.54-16.17-4.24-33.48,1.52-58.13,6.22-26.63,19.83-61.89,40.06-97.85,16.73-29.76,38-60,63.41-86.28a2.87,2.87,0,0,1,1.16-.87,2.83,2.83,0,0,1,3.69,1.57h0C-354,709-351,737.64-356.64,771.45c-4.93,29.48-16.51,63-36.72,99.43-4.16,7.52-7.81,14-11.31,20.16-20.25,35.85-35.38,62.67-35.68,86.23a1.67,1.67,0,0,1,0,.32h0" transform="translate(692.39 468.4)"/><path id="path177" class="cls-3" d="M-593.85,999.07c-2.9-6.59-5.82-13-8.66-19.32-15.74-34.79-29.57-65.34-28.89-94.91,1.07-46.69,15.61-83.63,34.07-112.36s40.66-49.13,57.26-63l1.82,2.16-1.82-2.17a2.8,2.8,0,0,1,4,.36,2.6,2.6,0,0,1,.64,1.46c5.85,30.72,7.33,65.31,5,103.87s-8.5,81.07-17.95,127.75c-3.89,19.22-6.68,38-8.67,56.16h-5.7c2-18.51,4.84-37.63,8.82-57.31,9.39-46.37,15.52-88.65,17.84-127,2.2-36.18,1-68.77-4-97.85-15.79,13.48-35.72,32.61-52.4,58.59-18,28-32.15,64-33.19,109.42-.65,28.3,12.92,58.3,28.39,92.46,3.19,7,6.45,14.22,9.68,21.64h-6.17" transform="translate(692.39 468.4)"/><path id="path178" class="cls-3" d="M-96.31,842a1.4,1.4,0,0,0-.65,1.88,1.41,1.41,0,0,0,1.88.67Q-5.62,801.65,57.13,780.2a1.41,1.41,0,1,0-.9-2.68Q-6.69,799-96.31,842" transform="translate(692.39 468.4)"/><path id="path179" class="cls-3" d="M105.71,760.48a1.42,1.42,0,0,0-1-2.65l-25,9.41a1.43,1.43,0,0,0-.82,1.83,1.41,1.41,0,0,0,1.82.82l25-9.41h0" transform="translate(692.39 468.4)"/><path id="path180" class="cls-3" d="M-49.6,686.55a1.44,1.44,0,0,0,.51-1.94,1.43,1.43,0,0,0-1.94-.5,318,318,0,0,0-33.74,22.41,185.24,185.24,0,0,0-25.06,22.85,1.43,1.43,0,0,0,.11,2,1.4,1.4,0,0,0,2-.1A182,182,0,0,1-83,708.76,316.41,316.41,0,0,1-49.6,686.55" transform="translate(692.39 468.4)"/><path id="path181" class="cls-3" d="M-132.48,762.39a1.42,1.42,0,0,0-.63-1.91,1.42,1.42,0,0,0-1.9.63q-19.83,39.27-39,67.49t-37.63,45.16a1.42,1.42,0,0,0-.08,2,1.4,1.4,0,0,0,2,.08q18.72-17.24,38.06-45.65t39.21-67.8h0" transform="translate(692.39 468.4)"/><path id="path182" class="cls-3" d="M-63.52,721.89a1.42,1.42,0,0,0,.16-2,1.44,1.44,0,0,0-2-.16A375.29,375.29,0,0,0-107,761.45a568.19,568.19,0,0,0-40.8,54A154.59,154.59,0,0,1-174.08,845a215.2,215.2,0,0,1-36.2,25.53,1.42,1.42,0,0,0-.53,1.94,1.41,1.41,0,0,0,1.93.53,218.4,218.4,0,0,0,36.68-25.88A156.92,156.92,0,0,0-145.48,817a563.66,563.66,0,0,1,40.6-53.68,370.7,370.7,0,0,1,41.36-41.42h0" transform="translate(692.39 468.4)"/><path id="path183" class="cls-3" d="M15.25,926.92a1.39,1.39,0,0,0,1.8-.85,1.42,1.42,0,0,0-.85-1.82c-12.76-4.57-26.55-9.62-40.89-15.93A326.16,326.16,0,0,1-68.88,885a152.83,152.83,0,0,0-33.67-16.26,149.36,149.36,0,0,0-42.69-7.53,1.42,1.42,0,0,0-1.47,1.36,1.43,1.43,0,0,0,1.36,1.47,146.89,146.89,0,0,1,41.91,7.38,149.12,149.12,0,0,1,33,16,329.93,329.93,0,0,0,44.57,23.56c14.4,6.33,28.24,11.41,41.08,16h0" transform="translate(692.39 468.4)"/><path id="path184" class="cls-3" d="M-127.23,869a1.41,1.41,0,0,0-1.72,1,1.43,1.43,0,0,0,1,1.74q47.66,12.09,111.14,56.22a1.43,1.43,0,0,0,2-.36,1.41,1.41,0,0,0-.35-2Q-79.06,881.2-127.23,869h0" transform="translate(692.39 468.4)"/><path id="path185" class="cls-3" d="M20.16,934a1.41,1.41,0,0,0-1.92.57,1.42,1.42,0,0,0,.56,1.92c3.17,1.73,6.41,3.33,9.69,4.81s6.59,2.8,10,4a1.4,1.4,0,0,0,1.8-.85,1.42,1.42,0,0,0-.85-1.82c-3.28-1.17-6.55-2.49-9.78-3.94s-6.37-3-9.49-4.72h0" transform="translate(692.39 468.4)"/><path id="path186" class="cls-3" d="M-277.16,910.89a1.42,1.42,0,0,0-1.67,1.1,1.41,1.41,0,0,0,1.1,1.68,177.75,177.75,0,0,1,29.24,8.8A222.49,222.49,0,0,1-220.39,936a131.94,131.94,0,0,0,16.44,7.87,145.91,145.91,0,0,0,16.07,5.26,1.41,1.41,0,0,0,1.73-1,1.43,1.43,0,0,0-1-1.73,141.09,141.09,0,0,1-15.76-5.17,127.73,127.73,0,0,1-16.09-7.7,223.63,223.63,0,0,0-28.47-13.7,180.51,180.51,0,0,0-29.69-8.94h0" transform="translate(692.39 468.4)"/><path id="path187" class="cls-3" d="M-177.31,957.19a1.41,1.41,0,0,0-2,.44,1.42,1.42,0,0,0,.44,1.94,52.47,52.47,0,0,1,7.18,5.48,39.81,39.81,0,0,1,5.48,6.14,1.44,1.44,0,0,0,2,.32,1.42,1.42,0,0,0,.32-2,43,43,0,0,0-5.86-6.56,55.14,55.14,0,0,0-7.58-5.78h0" transform="translate(692.39 468.4)"/><path id="path188" class="cls-3" d="M-167.33,999.07q-2.64-2.16-5.27-4.39a376.38,376.38,0,0,1-32.21-31.52c-13.92-15.16-28.08-26.73-42.14-35-14.81-8.7-29.53-13.73-43.81-15.41a1.41,1.41,0,0,0-1.57,1.24,1.4,1.4,0,0,0,1.22,1.57c13.91,1.64,28.26,6.55,42.74,15,13.82,8.12,27.76,19.52,41.48,34.47a374.51,374.51,0,0,0,32.45,31.75c.88.76,1.77,1.49,2.65,2.24h4.46" transform="translate(692.39 468.4)"/><path id="path189" class="cls-3" d="M-334,964.79a1.41,1.41,0,0,0-2,.08,1.43,1.43,0,0,0,.08,2,323.36,323.36,0,0,1,23,23.3q4.06,4.61,7.4,8.9h3.57c-2.6-3.46-5.56-7-8.84-10.78A326.84,326.84,0,0,0-334,964.79h0" transform="translate(692.39 468.4)"/><path id="path190" class="cls-3" d="M-322.59,999.07a210.85,210.85,0,0,0-26.54-27.8c-13.86-11.84-27.5-19.11-41.18-21.63a1.41,1.41,0,0,0-1.65,1.13,1.41,1.41,0,0,0,1.13,1.66c13.19,2.44,26.39,9.49,39.86,21a206.56,206.56,0,0,1,24.73,25.66h3.65" transform="translate(692.39 468.4)"/><path id="path191" class="cls-3" d="M-220,710.05a1.43,1.43,0,0,0-.28-2,1.43,1.43,0,0,0-2,.28q-18.64,24.67-31.44,44.53a288,288,0,0,0-19.67,34.83,1.43,1.43,0,0,0,.71,1.88,1.42,1.42,0,0,0,1.87-.71,285.52,285.52,0,0,1,19.46-34.48q12.7-19.68,31.34-44.35h0" transform="translate(692.39 468.4)"/><path id="path192" class="cls-3" d="M-276.27,807.31a1.4,1.4,0,0,0-.7-1.87,1.41,1.41,0,0,0-1.87.69Q-292.74,836.66-308,866t-32,57.5a1.41,1.41,0,0,0,.49,1.94,1.42,1.42,0,0,0,1.95-.5q16.75-28.24,32.09-57.63t29.25-60h0" transform="translate(692.39 468.4)"/><path id="path193" class="cls-3" d="M-227,752a1.43,1.43,0,0,0-.81-1.84,1.44,1.44,0,0,0-1.84.81q-13.63,35.12-40,76t-65.57,87.68a1.41,1.41,0,0,0,.17,2,1.42,1.42,0,0,0,2-.18q39.27-46.86,65.79-88T-227,752" transform="translate(692.39 468.4)"/><path id="path194" class="cls-3" d="M-438.93,839.43a1.43,1.43,0,0,0-.92-1.79,1.42,1.42,0,0,0-1.78.92q-12.92,39.62-13.72,74.59t10.54,65.36a1.44,1.44,0,0,0,1.82.84,1.44,1.44,0,0,0,.83-1.83q-11.16-29.82-10.36-64.31t13.59-73.78h0" transform="translate(692.39 468.4)"/><path id="path195" class="cls-3" d="M-385.17,776a1.44,1.44,0,0,0-1.27-1.55,1.42,1.42,0,0,0-1.56,1.27,225.4,225.4,0,0,1-12.48,54.81,271.64,271.64,0,0,1-24.81,50.65c-7.42,12-12.63,26.2-16,42.52s-4.9,34.59-4.94,54.78a1.43,1.43,0,0,0,1.42,1.42,1.42,1.42,0,0,0,1.41-1.41c0-20,1.56-38.16,4.88-54.2s8.4-29.93,15.63-41.61a273.77,273.77,0,0,0,25.08-51.19A229.23,229.23,0,0,0-385.17,776" transform="translate(692.39 468.4)"/><path id="path196" class="cls-3" d="M-411.95,796.59A1.41,1.41,0,0,0-413.2,795a1.4,1.4,0,0,0-1.56,1.25,133.23,133.23,0,0,1-3.36,18.32,182.49,182.49,0,0,1-6.33,19.88,1.42,1.42,0,0,0,.82,1.83,1.41,1.41,0,0,0,1.82-.83,184.62,184.62,0,0,0,6.44-20.18,134.58,134.58,0,0,0,3.42-18.72" transform="translate(692.39 468.4)"/><path id="path197" class="cls-3" d="M-554.27,794.47a1.4,1.4,0,0,0-1-1.74,1.42,1.42,0,0,0-1.73,1Q-587,907-586.28,999.07h2.83q-.7-91.68,29.18-204.6h0" transform="translate(692.39 468.4)"/><path id="path198" class="cls-3" d="M-563.19,929.65a1.42,1.42,0,0,0-1.12-1.66,1.41,1.41,0,0,0-1.66,1.13A615.08,615.08,0,0,0-575,994c-.14,1.72-.26,3.41-.38,5.11h2.84c.1-1.62.24-3.24.37-4.88a610.69,610.69,0,0,1,9-64.54h0" transform="translate(692.39 468.4)"/><path id="path199" class="cls-3" d="M-604.77,870.47a1.42,1.42,0,0,0-1.62-1.19,1.41,1.41,0,0,0-1.17,1.61l5.69,37a1.44,1.44,0,0,0,1.63,1.19,1.43,1.43,0,0,0,1.17-1.63l-5.7-37h0" transform="translate(692.39 468.4)"/><path id="path200" class="cls-3" d="M723.27-.16A3.51,3.51,0,0,1,722.19-5a3.53,3.53,0,0,1,4.88-1.08q120.31,76.88,213.82,155.6v9.28Q846.14,78.36,723.27-.16h0" transform="translate(692.39 468.4)"/><path id="path201" class="cls-3" d="M509-160.41q-65-53.22-83.58-82.55,99,46.8,171.66,106.28Q665.84-80.4,710.91-12.84,581.55-101,509-160.41ZM414.13-249q13.59,31.2,90.4,94.11Q581-92.28,721.28,2.77v0a3.57,3.57,0,0,0,4.93-.95,3.53,3.53,0,0,0-.11-4.13q-47.7-77-124.48-139.88T418.76-253.91l-1.48,3.23,1.48-3.23a3.55,3.55,0,0,0-4.71,1.74,3.56,3.56,0,0,0,.08,3.14" transform="translate(692.39 468.4)"/><path id="path202" class="cls-3" d="M749.39,28.8a96.06,96.06,0,0,0-36.75,4c-79.44,25-144.23,37.12-194.72,35-47-2-81.49-16.3-103.87-43.95q238.3-19.44,335.34,5ZM714.75,39.53c13.69-4.32,27.64-4.85,41.53-2.82,14.05,2.06,28.05,6.73,41.67,12.78l1.44-3.22L798,49.51a3.55,3.55,0,0,0,3.25-6.31Q729.85-9.66,407,17.25l.29,3.54L407,17.25A3.55,3.55,0,0,0,404.49,23C428,55.77,465.6,72.64,517.64,74.83,569,77,634.56,64.81,714.75,39.53h0" transform="translate(692.39 468.4)"/><path id="path203" class="cls-3" d="M780.47,25.81c18.2,27.38,38.3,46.14,58.08,57a3.39,3.39,0,0,0,2.13.6,3.55,3.55,0,0,0,3.39-3.72l0,0C840.49,2.27,832-79.56,801.61-146.39,771-213.64,718.51-265.61,627-282.68l-.44-.09a3.56,3.56,0,0,0-4,3l3.52.52-3.51-.52c-1.6,10.85,2.91,23.8,13.05,39.28,9.8,14.93,25,32.45,45.15,53,15,15.28,25.75,33.38,34.48,53.39s15.57,42.37,22.64,65.72c11.68,38.6,26.43,69.84,42.63,94.21Zm56.2,47.7c-17.1-10.67-34.39-27.7-50.3-51.62s-30.25-54.41-41.73-92.34c-7.11-23.48-13.95-45.87-22.95-66.51s-20.22-39.53-35.92-55.51c-19.82-20.18-34.7-37.36-44.25-51.9-8-12.15-12.12-22.28-12.23-30.64,86.59,17.22,136.6,67.17,165.86,131.53,29.06,64,37.8,142.24,41.52,217" transform="translate(692.39 468.4)"/><path id="path204" class="cls-3" d="M873.16-204.27A801.46,801.46,0,0,0,897.08-8.43a841.09,841.09,0,0,0,43.81,129.06V102.29A827.47,827.47,0,0,1,904-10.15a793.21,793.21,0,0,1-23.7-186.26q38.88,37,60.62,80.26v-15q-23.19-40.89-61.81-76l-2.39,2.61,2.39-2.62a3.54,3.54,0,0,0-5,.24,3.48,3.48,0,0,0-.91,2.7h0" transform="translate(692.39 468.4)"/><path id="path205" class="cls-3" d="M871.88,156.36c-19.43,7.33-38.09,18.64-58.13,31.35-51,32.32-100.87,51.24-148.19,59.2-47.69,8-92.83,4.92-133.93-6.83,26.46-9.83,53.3-22,80.93-35.92,30.93-15.56,63-33.37,96.76-52.4A203.34,203.34,0,0,1,814.4,125c32.39.56,65.93,8.34,100.31,22.72a125.57,125.57,0,0,0-42.83,8.61Zm-54.33,37.33c19.73-12.5,38.06-23.61,56.82-30.69,18.55-7,37.67-10.13,59.27-6.88h0a3.55,3.55,0,0,0,1.76-6.84C894,129.41,853.47,118.63,814.52,118A210.26,210.26,0,0,0,705.85,145.6c-33.46,18.88-65.4,36.59-96.48,52.23-30.89,15.54-60.76,28.93-90.13,39.18l1.16,3.35L519.23,237a3.55,3.55,0,0,0,.29,6.79c44.77,14.53,94.48,19,147.2,10.11,48.25-8.12,99-27.36,150.83-60.22h0" transform="translate(692.39 468.4)"/><path id="path206" class="cls-3" d="M940.89,208.84q-8,2.15-16.36,5.19Q876.11,231.79,818,280.24c-29.59,24.56-63.44,36-96.25,47-35.22,11.87-69.26,23.35-96.35,50l2.49,2.52-2.49-2.52a3.55,3.55,0,0,0,3.23,6c17.21-3,35.48-3.48,54.92-2.24s40.44,4.28,62.69,8.27c37.75,6.74,74,4.21,107.28-8,32.37-11.84,61.87-32.79,87.07-63.14l.3-.36v-11.1l-5.74,6.94c-24.38,29.35-52.84,49.58-84,61C819,386.45,784,388.88,747.48,382.35c-22.41-4-43.51-7.06-63.48-8.35a258.22,258.22,0,0,0-45.11.69C663.4,354.43,693.24,344.36,724,334c33.45-11.28,68-22.92,98.53-48.29,38.21-31.7,73-53.47,104.45-65q7.08-2.59,13.92-4.5v-7.35h0" transform="translate(692.39 468.4)"/><path id="path207" class="cls-3" d="M940.89,396.49q-10,5.4-19.88,10.34c-27.77,13.81-55.08,24.85-82.32,32.62q-55.52,15.84-93.21,36.32Q707,496.59,686.81,521.83l2.76,2.22-2.76-2.22a3.54,3.54,0,0,0,.55,5,3.41,3.41,0,0,0,2,.78q122.25,17,205.88-2.68a283,283,0,0,0,45.68-14.84v-7.75A272.11,272.11,0,0,1,893.57,518q-80.13,19-197.1,3.42,19-21.25,52.37-39.38,37-20,91.8-35.75c27.68-7.89,55.39-19.09,83.53-33.11q8.34-4.14,16.72-8.61v-8.07" transform="translate(692.39 468.4)"/><path id="path208" class="cls-3" d="M712.12-14.12a1.77,1.77,0,0,1,.08,2.51,1.78,1.78,0,0,1-2.51.06Q619-96.46,552.16-145.69a1.77,1.77,0,0,1-.37-2.48,1.78,1.78,0,0,1,2.48-.39q67,49.36,157.85,134.44" transform="translate(692.39 468.4)"/><path id="path209" class="cls-3" d="M501.59-187.52a1.78,1.78,0,0,1-.3-2.49,1.77,1.77,0,0,1,2.5-.3l26.3,20.66a1.76,1.76,0,0,1,.31,2.48,1.78,1.78,0,0,1-2.49.3l-26.32-20.65" transform="translate(692.39 468.4)"/><path id="path210" class="cls-3" d="M714.88-217.35a1.77,1.77,0,0,1,.12-2.49,1.76,1.76,0,0,1,2.51.12,395.75,395.75,0,0,1,31.85,39.47,231.33,231.33,0,0,1,21.31,36.72,1.76,1.76,0,0,1-.88,2.34,1.78,1.78,0,0,1-2.35-.89,228.38,228.38,0,0,0-21-36.16,395.33,395.33,0,0,0-31.57-39.11" transform="translate(692.39 468.4)"/><path id="path211" class="cls-3" d="M785.29-95.59a1.78,1.78,0,0,1,1.47-2,1.79,1.79,0,0,1,2,1.47Q797.68-41.78,810-.88t27.93,68.11A1.78,1.78,0,0,1,834.84,69Q819,41.33,806.6.13T785.29-95.59" transform="translate(692.39 468.4)"/><path id="path212" class="cls-3" d="M718.2-169.91a1.77,1.77,0,0,1,.56-2.44,1.78,1.78,0,0,1,2.44.56,468.26,468.26,0,0,1,34,65.51,711.3,711.3,0,0,1,28.42,79.8,193.7,193.7,0,0,0,20.18,45.25,270,270,0,0,0,33.62,44.12,1.78,1.78,0,0,1-.1,2.51,1.76,1.76,0,0,1-2.5-.09A274.16,274.16,0,0,1,800.81,20.6a197.24,197.24,0,0,1-20.54-46.08A705,705,0,0,0,752-104.87a465.7,465.7,0,0,0-33.79-65h0" transform="translate(692.39 468.4)"/><path id="path213" class="cls-3" d="M547,45.28a1.78,1.78,0,0,1-.12-3.55c17-.65,35.3-1.5,54.82-3.64a408.7,408.7,0,0,0,61.56-11.26,191.27,191.27,0,0,1,46.32-6.75,187.22,187.22,0,0,1,53.83,7.08,1.77,1.77,0,1,1-1,3.41,184,184,0,0,0-52.82-7,188.35,188.35,0,0,0-45.46,6.64A412.49,412.49,0,0,1,602,41.63c-19.58,2.13-38,3-55.08,3.65h0" transform="translate(692.39 468.4)"/><path id="path214" class="cls-3" d="M738.91,29.69a1.78,1.78,0,1,1-.19,3.55q-61.49-3.48-153.89,25.29a1.77,1.77,0,1,1-1.06-3.38q93-29,155.14-25.46" transform="translate(692.39 468.4)"/><path id="path215" class="cls-3" d="M538.41,51.92a1.77,1.77,0,1,1,.68,3.48q-6.66,1.32-13.38,2.09c-4.44.54-8.92.88-13.43,1.06a1.77,1.77,0,0,1-.15-3.54c4.38-.17,8.76-.52,13.18-1s8.73-1.2,13.1-2h0" transform="translate(692.39 468.4)"/><path id="path216" class="cls-3" d="M902.15,136.21a1.77,1.77,0,1,1-.35,3.52,224.82,224.82,0,0,0-38.23-.49,275.47,275.47,0,0,0-38.65,5.59,167.54,167.54,0,0,1-22.6,3.2,183.34,183.34,0,0,1-21.16.24,1.75,1.75,0,0,1-1.69-1.84,1.77,1.77,0,0,1,1.84-1.7,176.86,176.86,0,0,0,20.77-.25,161.62,161.62,0,0,0,22.11-3.12,282.09,282.09,0,0,1,39.14-5.67,228.71,228.71,0,0,1,38.82.52h0" transform="translate(692.39 468.4)"/><path id="path217" class="cls-3" d="M765.49,153.91a1.77,1.77,0,1,1,.92,3.42,65.77,65.77,0,0,0-10.64,3.83,51.12,51.12,0,0,0-8.84,5.27,1.79,1.79,0,0,1-2.49-.36,1.76,1.76,0,0,1,.36-2.48,53.07,53.07,0,0,1,9.48-5.63,68.85,68.85,0,0,1,11.21-4.05h0" transform="translate(692.39 468.4)"/><path id="path218" class="cls-3" d="M695.67,216.63a1.78,1.78,0,0,1-.71-3.48,270.75,270.75,0,0,0,50.79-16.24,467.88,467.88,0,0,0,50.33-25.51c22.35-12.88,43.6-21.37,63.49-25.93,21-4.82,40.44-5.27,58.12-1.91a1.78,1.78,0,0,1,1.42,2.07A1.77,1.77,0,0,1,917,147c-17.21-3.27-36.2-2.81-56.68,1.88-19.57,4.49-40.49,12.85-62.52,25.55a472.1,472.1,0,0,1-50.71,25.69,273.15,273.15,0,0,1-51.46,16.47h0" transform="translate(692.39 468.4)"/><path id="path219" class="cls-3" d="M940.89,230.19q-14.42,7.2-25.93,14.14a186,186,0,0,0-25.56,18.08,1.76,1.76,0,0,1-2.32-2.66,188.54,188.54,0,0,1,26-18.46q12.24-7.38,27.76-15.06v4h0" transform="translate(692.39 468.4)"/><path id="path220" class="cls-3" d="M916.68,290a1.77,1.77,0,0,1,2.6,2.41q-34.39,37.08-68.65,56.19T782,368.92a1.78,1.78,0,0,1-.12-3.55q33.38-1,67-19.82T916.68,290h0" transform="translate(692.39 468.4)"/><path id="path221" class="cls-3" d="M752.31,362a1.78,1.78,0,0,1-1.58-3.19,56.77,56.77,0,0,1,11.9-4.28,63.57,63.57,0,0,1,13.06-1.69,1.77,1.77,0,1,1,.1,3.53,62.05,62.05,0,0,0-12.34,1.6,53.07,53.07,0,0,0-11.14,4h0" transform="translate(692.39 468.4)"/><path id="path222" class="cls-3" d="M775.33,335.71a1.77,1.77,0,0,1-.72-3.47A317.82,317.82,0,0,0,838.44,312a283.81,283.81,0,0,0,58.25-34.44,404.42,404.42,0,0,1,44.2-29.88v4.09a406.21,406.21,0,0,0-42,28.6,287.34,287.34,0,0,1-59,34.88,321.49,321.49,0,0,1-64.54,20.46h0" transform="translate(692.39 468.4)"/><path id="path223" class="cls-3" d="M940.89,444.53A300.47,300.47,0,0,1,894.77,468a304.39,304.39,0,0,1-92.25,21.28,1.77,1.77,0,0,1-.25-3.53,301.55,301.55,0,0,0,91.17-21,297.72,297.72,0,0,0,47.45-24.37v4.18" transform="translate(692.39 468.4)"/><path id="path224" class="cls-3" d="M940.89,483Q894,508.65,831.13,510.79a1.77,1.77,0,1,1-.1-3.54q63.12-2.16,109.86-28.28V483" transform="translate(692.39 468.4)"/><path id="path225" class="cls-3" d="M909.48-125.13a1.78,1.78,0,0,1,1.08-2.27,1.78,1.78,0,0,1,2.27,1.08q13,36.48,20.78,65,4.53,16.55,7.28,30.36v20a2.06,2.06,0,0,1-.44-1q-2.54-20.25-10.25-48.5t-20.72-64.74h0" transform="translate(692.39 468.4)"/><path id="path226" class="cls-3" d="M940.08,12.19a1.79,1.79,0,0,1,.81-1.72v8.26c-.28-2.18-.54-4.36-.81-6.54" transform="translate(692.39 468.4)"/><path id="path227" class="cls-3" d="M902.13-72.47a1.78,1.78,0,0,1,1.66-1.88,1.78,1.78,0,0,1,1.88,1.66q3.09,47.07,19.2,105.84,6.84,25,16,52V96q-11.35-32.45-19.45-62-16.2-59.13-19.31-106.54h0" transform="translate(692.39 468.4)"/></svg>