<svg id="Ebene_1" data-name="Ebene 1" xmlns="http://www.w3.org/2000/svg" viewBox="0 0 1845.89 2968.12"><defs><style>.cls-1{fill:#bcddd4;}.cls-2{fill:#e8f4ea;}.cls-3{fill:#9dbaae;}.cls-4{fill:#fff;}</style></defs><title>simple-clean-green-floral-03</title><path id="path166" class="cls-1" d="M-692.39-468.4H940.89V999H-692.39V-468.4" transform="translate(905 1969)"/><path id="path2" class="cls-2" d="M-905,911V-1969" transform="translate(905 1969)"/><path id="path351" class="cls-3" d="M-3.78-57.6a1.12,1.12,0,0,1,.45-1q9-6.6,17.89-12.72l-2.24.53C3.21-68.8-7.77-68-20.6-69a192.49,192.49,0,0,0-22.15-.84,55.06,55.06,0,0,0-19.84,4.09c-8.43,3.63-15.39,6.12-21,7.31-5.77,1.23-10.14,1.08-13.18-.65l.56-1-.56,1a1.13,1.13,0,0,1-.43-1.54.62.62,0,0,1,.08-.12C-81.45-86-59.94-95.61-36.43-96.95c22.75-1.28,47.32,5.23,70.22,12.83q21.53-13.8,42.12-24.56a273.79,273.79,0,0,1-60.31-.73,255.32,255.32,0,0,1-61-15.48,1.11,1.11,0,0,1-.7-.58,1.13,1.13,0,0,1,.51-1.52l.5,1-.5-1q20.13-10,40.12-10.49A90.86,90.86,0,0,1,34.41-129c6.07,2.74,12.94,5.54,20.58,8.46s16.08,6,25.3,9.18a1.16,1.16,0,0,1,.4.2q5.93-3,11.76-5.77c.45-.6.92-1.2,1.41-1.77a1.07,1.07,0,0,1,.82-.44h0l3.07-.24q11.39-5.2,22.48-9.42c-7.44-5.58-19.44-7.53-35.41-10.13-2.8-.47-5.72-.93-9.1-1.52C59.31-143.24,46-148,35.57-153.81c-11.94-6.68-20.09-14.78-24.72-23h0a1.12,1.12,0,0,1,.43-1.54,1.07,1.07,0,0,1,.55-.14,169.38,169.38,0,0,1,42.72,1.77C70.8-174,85.18-169.48,95-164.77c9.12,4.36,14.59,8.58,18.49,14s6.07,11.74,8.78,20.57l.14.12a.54.54,0,0,1,.19.28l.06,0c2.43-.89,4.86-1.77,7.27-2.6a276.31,276.31,0,0,1,47.9-12.16c-5.38-4.09-11.09-8.23-17.17-12.25a253,253,0,0,0-23.84-14A374.74,374.74,0,0,1,92.57-197c-12.6-8.9-23-18-31.11-27.48a1.15,1.15,0,0,1-.3-.58,1.13,1.13,0,0,1,.89-1.33l.22,1.12-.22-1.11c8.46-1.7,20.4-3.53,33.92-2.12a85.17,85.17,0,0,1,43.51,17.43c9.39,7.17,15.45,19.11,22.36,32.71A276.22,276.22,0,0,0,175.32-154c.53.48,1.06.94,1.58,1.42a.56.56,0,0,1,0,.8.47.47,0,0,1-.1.1c1.5,2.24,3.08,4.48,4.77,6.7q32.88-4.58,62.64.88a1.13,1.13,0,0,1,.9,1.32,1.12,1.12,0,0,1-1.32.91,193.29,193.29,0,0,0-60.8-1,1.18,1.18,0,0,1-.23.86,1.14,1.14,0,0,1-1.59.2h0c-.28-.23-.57-.46-.86-.67a246.06,246.06,0,0,0-25.9,5.23c-1.75,5.33-1.67,11.49.16,18.52,1.89,7.24,5.64,15.4,11.15,24.5q12,19.77,8.17,47T151,14.16a1.13,1.13,0,0,1-2,.08l1-.56-1,.56c-3.43-5.93-5.76-13.52-6.92-22.75A148,148,0,0,1,142-40.4a153.59,153.59,0,0,0-.21-28.24,272.94,272.94,0,0,0-4.88-31,41.36,41.36,0,0,1,.63-21.16,36.36,36.36,0,0,1,8.56-14.23c-5.08,1.46-10.22,3.1-15.41,4.88Q116.8-125.36,102.4-119a1.5,1.5,0,0,1,.09.32l-1.12.14,1.11-.14c1.08,8.64,6.47,18.28,13.31,30.54.22.37.44.77,1.93,3.45,6.12,11,8.94,22.19,8.73,33.17-.22,11.3-3.65,22.36-10,32.8A182.35,182.35,0,0,0,106.76-1a73.77,73.77,0,0,0-5.67,16.59,1.13,1.13,0,0,1-2.16.27l1-.44-1,.44c-4.81-11.14-4.3-22.58-3.76-34.4.49-11,1-22.42-2.88-34-5.1-15.26-7.6-28.35-7.4-39.31q.23-12.52,5.2-21.37-10.53,5.1-21.3,11a1.14,1.14,0,0,1-.06,1h0a36.6,36.6,0,0,0-4.8,18.42c0,6.38,1.13,13.12,2.58,20.42,3.78,19.2,3.65,36.51.5,51.79A98.18,98.18,0,0,1,47,31.91a1.18,1.18,0,0,1-1,.48A1.15,1.15,0,0,1,45,31.21l1.13,0-1.13,0A241.49,241.49,0,0,0,43.73-.11c-1.07-11-2.65-22.57-4.4-34.7a67,67,0,0,1,4.31-35.48c4.21-10.31,11-20,20-29.16Q50.16-91.87,36.27-83a1.16,1.16,0,0,1,.12,1,1.13,1.13,0,0,1-.42.56,47.73,47.73,0,0,1-14.09,7.9l-.55.38a51.37,51.37,0,0,0-8.56,10.85A29.54,29.54,0,0,0,8.82-49.68C7.09-22.93,3.15-2-3.42,13c-6.65,15.21-16,24.44-28.46,27.65a1.2,1.2,0,0,1-.65,0,1.13,1.13,0,0,1-.76-1.41l1.09.32-1.09-.32Q-10-39.73,10-65.36q-5.49,3.86-11,7.91h0a1.14,1.14,0,0,1-.29,1.59v0Q-45.78-25.15-73.22-9.63t-38.4,16a1.15,1.15,0,0,1-.94-.33,1.15,1.15,0,0,1,0-1.62l.79.83-.78-.81Q-85.8-21.43-58.24-37A181.13,181.13,0,0,1-3.78-57.6h0" transform="translate(905 1969)"/><path id="path352" class="cls-3" d="M550,80.52a.63.63,0,0,1,.61-.09q5.86,2.13,11.47,4.36c-.32-.28-.63-.58-1-.88a64,64,0,0,1-11.07-14.74,105.26,105.26,0,0,0-6.48-10.56,30.88,30.88,0,0,0-8.06-7.94,67.21,67.21,0,0,1-9.9-7.47c-2.37-2.31-3.65-4.37-3.8-6.32l.63-.05-.63.05a.64.64,0,0,1,.59-.68h.08c16.57-.59,27.73,6.43,35.65,16.93C565.79,63.31,570.4,76.75,574,89.75q13.11,5.72,24.5,11.94a153,153,0,0,1-18.39-28.25,142.48,142.48,0,0,1-11.75-33.15.57.57,0,0,1,.06-.49.63.63,0,0,1,.86-.24l-.32.55.32-.55A52.65,52.65,0,0,1,586.59,55,50.53,50.53,0,0,1,595,76.11c.62,3.66,1.46,7.73,2.47,12.18s2.23,9.32,3.59,14.62a1,1,0,0,1,0,.24c2.14,1.21,4.26,2.44,6.33,3.66.41,0,.84.07,1.25.12a.58.58,0,0,1,.47.24h0l1.07,1.35q5.94,3.67,11.34,7.52c.28-5.19-2.53-11.37-6.28-19.6-.66-1.44-1.34-3-2.13-4.69a69.92,69.92,0,0,1-6.24-22.82c-.61-7.62.63-13.93,3-18.62h0a.62.62,0,0,1,.85-.28.61.61,0,0,1,.24.21,94.33,94.33,0,0,1,12.44,20.4,87.71,87.71,0,0,1,7,22.52c.81,5.59.54,9.44-.78,13s-3.57,6.48-6.84,10.46v.11a.26.26,0,0,1-.07.17v0c1.18.86,2.34,1.71,3.47,2.58A154.49,154.49,0,0,1,646.76,138c.24-3.78.37-7.71.36-11.79a138.48,138.48,0,0,0-.88-15.43A209.74,209.74,0,0,1,644.71,82a94.06,94.06,0,0,1,3.1-23,.61.61,0,0,1,.18-.32.64.64,0,0,1,.89,0l-.44.45.44-.45A62.61,62.61,0,0,1,660.4,73.79a47.6,47.6,0,0,1,5.41,25.64c-.42,6.58-4.08,13.1-8.25,20.53a149.57,149.57,0,0,0-7.13,13.83c-.06.4-.12.8-.18,1.18a.31.31,0,0,1-.36.27l-.08,0c-.57,1.4-1.13,2.83-1.64,4.3a109.25,109.25,0,0,1,19,29.38.62.62,0,0,1-.32.83.63.63,0,0,1-.84-.33,107.55,107.55,0,0,0-18.4-28.56.65.65,0,0,1-1-.52h0c0-.22,0-.42,0-.62a141.07,141.07,0,0,0-10.47-10.41,18.25,18.25,0,0,0-8.56,5.83,53.51,53.51,0,0,0-7.92,12.8c-3.64,7.78-10.09,13.9-19.28,18.37s-21.09,7.25-35.7,8.44a.62.62,0,0,1-.38-.07.61.61,0,0,1-.29-.84l.57.28-.57-.28a33.5,33.5,0,0,1,8.43-10.28,82.61,82.61,0,0,1,14.8-9.93,85,85,0,0,0,13.05-8.87,151.75,151.75,0,0,0,12.91-11.89,22.94,22.94,0,0,1,10-6.28,20.2,20.2,0,0,1,9.26-.45q-3.39-2.86-7-5.64-6.56-5-14-9.67a.8.8,0,0,1-.13.13l-.41-.46.41.46c-3.68,3.19-6.48,8.68-10.05,15.67-.11.23-.23.45-1,2a35.05,35.05,0,0,1-31,19.9,103.55,103.55,0,0,0-11.21,1,42.63,42.63,0,0,0-9.47,2.52.66.66,0,0,1-.61,0,.63.63,0,0,1-.19-.88l.53.35-.53-.35c3.68-5.69,9.16-9,14.83-12.44,5.28-3.18,10.72-6.48,14.92-11.9q8.25-10.67,16-15.64A24.8,24.8,0,0,1,605,106.85c-3.76-2.21-7.65-4.37-11.72-6.49a.61.61,0,0,1-.48.28h0a20.54,20.54,0,0,0-10,3.49,57.2,57.2,0,0,0-8.7,7.55A72.81,72.81,0,0,1,550.17,128a55,55,0,0,1-26,3.94.63.63,0,0,1-.52-.3.64.64,0,0,1,.22-.87l.33.53-.33-.53A135.81,135.81,0,0,0,538,120.45c4.8-3.92,9.66-8.24,14.76-12.81a37.46,37.46,0,0,1,17.82-9,50.71,50.71,0,0,1,19.76.24q-7.71-3.9-16.13-7.61a.66.66,0,0,1-.41.36.61.61,0,0,1-.4,0,26.36,26.36,0,0,1-8-4.09l-.35-.13a28.51,28.51,0,0,0-7.71-.6,16.18,16.18,0,0,0-7.1,2.09c-13,7.51-23.91,12.16-32.92,13.77s-16.32.16-21.7-4.64a.66.66,0,0,1-.2-.29.65.65,0,0,1,.42-.8l.18.61-.18-.61q43.94-13.69,62-12.39c-2.32-.89-4.69-1.78-7.09-2.66h0a.66.66,0,0,1-.83.36h0q-28-11.11-43.8-19T486.76,50.29a.64.64,0,0,1-.13-.54.61.61,0,0,1,.74-.48l-.13.61.13-.61a150.94,150.94,0,0,1,36.14,12.34A101.8,101.8,0,0,1,550,80.52h0" transform="translate(905 1969)"/><path id="path353" class="cls-3" d="M364.94-468.33a93.14,93.14,0,0,0,6.64,7.13c8.87,8.79,15,18,18.78,27.19A62.7,62.7,0,0,1,395-404.35a.73.73,0,0,1-.34.59.72.72,0,0,1-1-.23l.62-.38-.62.38a153.8,153.8,0,0,0-11.85-16.1c-4.51-5.46-9.47-11-14.74-16.78a42.78,42.78,0,0,1-10.41-20.3,51.56,51.56,0,0,1-1-11.16Zm46.38,0a44.54,44.54,0,0,1,2.31,12.41,115,115,0,0,0,1.2,12.81,47.52,47.52,0,0,0,2.93,10.79.73.73,0,0,1,0,.69.72.72,0,0,1-1,.23l.39-.61-.39.61c-6.53-4.17-10.34-10.4-14.29-16.85-3.68-6-7.48-12.2-13.7-17q-2-1.59-3.92-3.12Zm29.92,0a167.44,167.44,0,0,1,2.4,17.44.78.78,0,0,1-.07.42.73.73,0,0,1-1,.34l.32-.66-.32.66a38.77,38.77,0,0,1-11.79-9.55,80.83,80.83,0,0,1-6.52-8.65Zm-112.36,0-1,.5a163.26,163.26,0,0,1-37.77,13.63.75.75,0,0,1-.58-.07.73.73,0,0,1-.27-1l.63.36-.63-.36a64.28,64.28,0,0,1,9.61-13.08Zm7.28,34.82a.71.71,0,0,1-.12-.69q2.41-6.72,4.91-13.12-.48.54-1,1.08a72.57,72.57,0,0,1-16.76,12.72,127.1,127.1,0,0,0-12,7.47,35.31,35.31,0,0,0-9,9.26,75.7,75.7,0,0,1-8.47,11.36c-2.61,2.71-5,4.19-7.2,4.36l-.06-.72.06.74a.73.73,0,0,1-.78-.67v-.09c-.76-18.94,7.17-31.71,19.13-40.83,11.56-8.8,26.88-14.15,41.71-18.32,1.07-2.49,2.16-5,3.26-7.37h1.59c-1.07,2.32-2.11,4.66-3.15,7.06a.74.74,0,0,1,.41.47.76.76,0,0,1,0,.45,30.84,30.84,0,0,1-4.62,9.22l-.16.4a33,33,0,0,0-.65,8.8,18.76,18.76,0,0,0,2.45,8.1c8.65,14.76,14,27.22,15.93,37.51s.28,18.64-5.16,24.8a.67.67,0,0,1-.34.23.73.73,0,0,1-.91-.47l.69-.21-.69.21q-15.92-50.08-14.53-70.76c-1,2.67-2,5.37-3,8.12h0a.72.72,0,0,1,.41.94h0q-12.51,32.11-21.47,50.14T302-361.11a.72.72,0,0,1-.62.15.72.72,0,0,1-.56-.85l.71.14-.71-.14a172.23,172.23,0,0,1,13.88-41.34,116.15,116.15,0,0,1,21.43-30.36h0" transform="translate(905 1969)"/><path id="path354" class="cls-3" d="M-511.82-468.33c1.35,1.42,2.81,2.82,4.4,4.22,7.62,6.71,18,13,31.14,19.06q28.45,13.11,44.85,46.56,16.38,33.3,21,86.53a1.58,1.58,0,0,1-.14.91,1.54,1.54,0,0,1-2.06.72l.68-1.39-.67,1.37q-12.55-6.07-25.07-20.29Q-450-344.58-462-366.44A208.56,208.56,0,0,0-483.7-398a364.75,364.75,0,0,0-29.06-31.17c-7.78-7.52-12.83-15.68-15.38-24.26a47.89,47.89,0,0,1-1.94-14.9ZM-638.87-275a1.56,1.56,0,0,1-.26-1.49q5.11-14.28,10.44-27.88c-.69.76-1.39,1.53-2.12,2.29-8.71,9.18-20.46,18.4-35.61,27-9.16,5.23-17.89,10.24-25.53,15.88l-.91.67V-303c22.56-13.79,49.68-22.95,76.05-30.36q13.72-31.86,28.67-59.62a370.47,370.47,0,0,1-68.33,45A347,347,0,0,1-692.86-332v-37a126.79,126.79,0,0,1,42.66-15.2c8.89-1.53,18.74-3.6,29.56-6.13s22.59-5.51,35.4-8.89a1.34,1.34,0,0,1,.59-.1q4.36-7.87,8.83-15.41c.05-1,.13-2,.24-3.07a1.55,1.55,0,0,1,.58-1.12h0l3.26-2.6q8.87-14.49,18.12-27.65c-12.61-.63-27.58,6.31-47.49,15.52-3.49,1.61-7.14,3.29-11.38,5.21-20.56,9.31-39.14,14.1-55.26,15.47a102.82,102.82,0,0,1-25.11-.76v-23.61a245,245,0,0,1,29-15.78,230.72,230.72,0,0,1,43.45-15.18h43.64c7.9,3.14,15.09,8.5,24.4,16l.26,0a.78.78,0,0,1,.42.17h.11c2-2.86,4.1-5.69,6.18-8.45s4-5.23,6-7.77h3.9q-3.74,4.69-7.42,9.61-12,16-23.29,34.07a1.93,1.93,0,0,1,.35.29l-1.16,1,1.15-1c7.78,8.89,21.16,15.64,38.16,24.2l4.79,2.43c15.23,7.7,26.9,18.12,35,30.62,8.33,12.87,12.89,27.91,13.68,44.47a245.34,245.34,0,0,0,2.55,27.23,101.05,101.05,0,0,0,6.23,22.94,1.52,1.52,0,0,1-.1,1.47,1.53,1.53,0,0,1-2.12.47l.83-1.3-.83,1.3c-13.86-8.86-22-22.1-30.37-35.8-7.82-12.78-15.9-25.95-29.1-36.06-17.32-13.26-30.07-26.06-38.17-38.54q-9.25-14.22-10.39-27.95-8,13.69-15.59,28.52a1.52,1.52,0,0,1,.69,1.16h0a49.38,49.38,0,0,0,8.6,24.33c4.8,7.23,11.24,13.88,18.42,21,18.83,18.7,31.84,38.24,39.9,57.8a133.18,133.18,0,0,1,9.92,63,1.61,1.61,0,0,1-.72,1.27,1.55,1.55,0,0,1-2.12-.5l1.3-.81-1.3.81a327.41,327.41,0,0,0-25.2-34.22c-9.58-11.6-20.12-23.36-31.31-35.66a90.9,90.9,0,0,1-22.12-43.14c-3.1-14.78-2.9-30.84.32-48q-9.39,18.78-18.27,39.25a1.53,1.53,0,0,1,.87,1,1.56,1.56,0,0,1,0,1,65,65,0,0,1-9.82,19.59l-.34.84a69.5,69.5,0,0,0-1.36,18.69,39.86,39.86,0,0,0,5.19,17.24c18.38,31.37,29.82,57.84,33.86,79.71,4.08,22.14.59,39.61-11,52.69a1.44,1.44,0,0,1-.73.49,1.52,1.52,0,0,1-1.93-1l1.47-.46-1.47.46q-33.81-106.41-30.88-150.37-3.24,8.52-6.39,17.27h0a1.55,1.55,0,0,1,.88,2h0q-26.56,68.28-45.62,106.56-6.64,13.38-12.42,23.14v-46.76q4-9.56,8.45-18.53,18.61-37.44,45.54-64.51h0" transform="translate(905 1969)"/><path id="path355" class="cls-3" d="M582.05,999.12c-.12-1.31-.25-2.63-.4-4a306.33,306.33,0,0,1-2.25-42c.33-12.6,1.79-23.8,4.55-33.62a.92.92,0,0,1,1.56-.47l-.66.65.66-.65a91.83,91.83,0,0,1,16.84,22.09,69.59,69.59,0,0,1,7.92,37.5c-.43,6.72-3.16,13.38-6.84,20.49Zm-36.61,0c-.83-6.79-4.47-14.77-9.07-24.87-1-2.1-2-4.3-3.1-6.86-5.54-12.43-8.36-23.63-9.14-33.36-.89-11.15.92-20.36,4.4-27.24h0a.93.93,0,0,1,1.24-.42,1,1,0,0,1,.35.31,138.9,138.9,0,0,1,18.2,29.84c5.56,12.27,9,24.11,10.27,32.93,1.17,8.19.78,13.83-1.15,18.95a41.85,41.85,0,0,1-6.36,10.72ZM440.87,951a.89.89,0,0,1,.89-.15q8.6,3.12,16.77,6.37c-.45-.41-.92-.84-1.37-1.28A92.59,92.59,0,0,1,441,934.39,149.83,149.83,0,0,0,431.49,919a44.94,44.94,0,0,0-11.79-11.63,97.46,97.46,0,0,1-14.48-10.92c-3.46-3.37-5.34-6.4-5.55-9.25l.92-.07-.92.07a.92.92,0,0,1,.86-1h.11c24.25-.84,40.56,9.4,52.15,24.78C464,925.8,470.73,945.47,476,964.48q19.16,8.35,35.83,17.47a223.14,223.14,0,0,1-26.9-41.32,208.84,208.84,0,0,1-17.18-48.47.93.93,0,0,1,1.34-1.09l-.46.81.46-.81q16,9.13,25.35,22.5a74.18,74.18,0,0,1,12.33,30.95q1.35,8,3.6,17.83c1.48,6.52,3.26,13.64,5.26,21.37a.82.82,0,0,1,0,.35q4.74,2.65,9.26,5.37c.62,0,1.23.08,1.84.16a.88.88,0,0,1,.68.35h0l1.56,2q5.74,3.55,11.12,7.2h-3.32c-1.94-1.29-3.93-2.59-6-3.85a1,1,0,0,1-.17.2l-.6-.7.6.7a29.68,29.68,0,0,0-3.48,3.65H499.63c1.62-1.28,3.24-2.44,4.84-3.47q8.61-5.52,16.88-6.17-8.22-4.85-17.14-9.48a.89.89,0,0,1-.7.41h0a29.75,29.75,0,0,0-14.7,5.11c-4.36,2.87-8.4,6.72-12.7,11-.9.88-1.78,1.73-2.67,2.57h-38q4.69-4.12,9.53-8.49A55,55,0,0,1,471,977.44c8.91-1.81,18.59-1.64,28.89.36q-11.28-5.71-23.58-11.15a.88.88,0,0,1-.62.52.93.93,0,0,1-.57,0,39.21,39.21,0,0,1-11.76-6l-.51-.2a41.57,41.57,0,0,0-11.26-.88,23.8,23.8,0,0,0-10.4,3.07c-19,11-35,17.78-48.16,20.14-13.36,2.39-23.87.23-31.72-6.78a1,1,0,0,1-.29-.44.93.93,0,0,1,.61-1.16l.27.88-.27-.88q64.24-20,90.72-18.12c-3.42-1.31-6.87-2.62-10.39-3.9v0a.93.93,0,0,1-1.2.52h0q-41.06-16.24-64.07-27.84T348.4,906.76a.91.91,0,0,1-.2-.79.93.93,0,0,1,1.11-.7l-.2.9.2-.9q29.73,6.42,52.84,18.06A148.14,148.14,0,0,1,440.87,951h0" transform="translate(905 1969)"/><path id="path356" class="cls-4" d="M-194.13,488.71q33-26.64-3.84-71.5l-1.86,1.52,1.86-1.53a2.41,2.41,0,0,0-3.39-.33,2.42,2.42,0,0,0-.89,1.86c-.49,12.82-3.43,21.51-5.88,28.74C-212,459-214.75,467-206.28,480.79c-22.86-15.87-41.67-34.62-58.54-54.58q15.47-3.21,23.16-15.57,8.37-13.45,7.17-37.6h0a2.41,2.41,0,0,0-2.53-2.29,2.34,2.34,0,0,0-1.35.5c-3.39,2.28-7.24,4.42-11.09,6.56-14.9,8.32-29.84,16.66-26.13,35.2-10.44-13.21-20.24-26.8-30-40.29q-5.16-7.14-10.31-14.24a58.31,58.31,0,0,0,12.75-2.71q11.36-3.91,16.68-12.58t4.49-21.58q-.65-10.39-5.23-23.74a2.34,2.34,0,0,0-.18-.48,2.41,2.41,0,0,0-3.23-1.11h0a52.31,52.31,0,0,0-24.11,23.12q-6.68,12.81-7.39,30.64c-15.32-20.62-31.28-40.48-50-57.92q15.74-10.11,14.28-27.29-1.5-17.56-21.53-42.24a2.44,2.44,0,0,0-2-1,2.43,2.43,0,0,0-2.35,2.48h0a45.85,45.85,0,0,1-1,10.31,77.47,77.47,0,0,1-3.52,11.91q-5.74,15.09-3,26.88a32.72,32.72,0,0,0,1.07,3.61,217.72,217.72,0,0,0-35.46-22.27c13.52-27.88-3.31-40-17-49.86a69.26,69.26,0,0,1-9.23-7.42,2.36,2.36,0,0,0-1.46-.86,2.41,2.41,0,0,0-2.79,2l2.37.41-2.37-.41q-5.36,30,11.4,47.8-8.13-3.15-16.88-5.75c-15.4-26.73-22.12-26.11-35.28-24.87a71.85,71.85,0,0,1-21.29-.52,2.44,2.44,0,0,0-1.46.08,2.41,2.41,0,0,0-1.42,3.1l2.26-.84-2.25.85q12,32.28,58,26.91a1.37,1.37,0,0,0,.28,0,213.11,213.11,0,0,1,48.16,21c-18.18-2.76-25.37,3.21-34.31,10.65a77.93,77.93,0,0,1-14.91,10.37,2.45,2.45,0,0,0-1.12,1,2.4,2.4,0,0,0,.76,3.32l1.28-2-1.27,2a34,34,0,0,0,29.7,3.83q14.86-4.72,31-22a253.54,253.54,0,0,1,42.7,37.28c-15.23-5.35-27.86,3-40.46,11.41a118.6,118.6,0,0,1-14.47,8.68l1,2.18-1-2.19a2.41,2.41,0,0,0-1.15,3.21,2.36,2.36,0,0,0,.69.87q14.75,13.46,32.35,10.21,16.44-3.06,35-20.84c13.8,16.38,26.44,33.87,39.17,51.51l7.6,10.51c-21.22-10.71-30.44-3-41.28,6.05-4.51,3.76-9.32,7.79-15.48,10.52a2.38,2.38,0,0,0-1.29,1,2.42,2.42,0,0,0,.84,3.31h0q34.82,20.73,63.26-12.66c15.64,21.27,32.09,42.23,51.51,61.2a56.93,56.93,0,0,0-30.25,2.18q-17.07,6.21-30.65,24.32a2.33,2.33,0,0,0-.41.68,2.41,2.41,0,0,0,1.36,3.13l.88-2.25-.88,2.24q22.33,8.77,39.64,2.46,16.45-6,28-25.5c27.77,25.26,61.69,46.36,107.46,58.89l1.27-4.64a255.51,255.51,0,0,1-66.24-28.29h0" transform="translate(905 1969)"/><path id="path357" class="cls-4" d="M307.58,200q.53-18.19-24.41-18.72l0,1,0-1a1.05,1.05,0,0,0-1.06,1,1.08,1.08,0,0,0,.36.82,39.94,39.94,0,0,1,7.74,9.94c2.66,4.48,4.54,7.63,11.4,8.7a130.14,130.14,0,0,1-34.17,3.88,14.68,14.68,0,0,0,1.39-11.92q-2.06-6.48-10.27-12.83h0a1,1,0,0,0-1.46.18,1.08,1.08,0,0,0-.21.59c-.2,1.75-.58,3.6-.95,5.45-1.45,7.19-2.9,14.39,4.19,18.36-7.23-.29-14.4-.88-21.53-1.46-2.51-.22-5-.42-7.52-.62a25,25,0,0,0,2.67-4.92,13,13,0,0,0,.56-9,15.55,15.55,0,0,0-5.8-7.48A39.29,39.29,0,0,0,219.3,177l-.21-.07a1,1,0,0,0-1.26.75h0a22.49,22.49,0,0,0,.82,14.32,30.83,30.83,0,0,0,7.94,11c-11-.76-22-1.09-32.86.14q1.1-8-4.92-12.28T169,186.09a1.06,1.06,0,0,0-.9.39,1,1,0,0,0,.15,1.45h0a19.34,19.34,0,0,1,3.09,3.2,31.72,31.72,0,0,1,2.9,4.47c2.22,4.07,4.87,6.89,7.94,8.49a12.16,12.16,0,0,0,1.48.66,93,93,0,0,0-17.17,5.36c-5.33-12.2-14-10.1-21-8.39a30.57,30.57,0,0,1-5,.95,1,1,0,0,0-.69.22,1.06,1.06,0,0,0-.15,1.47l.81-.67-.8.67Q148,214.49,158.44,214q-3.28,1.77-6.59,3.89c-13-2.43-14.7-.07-18,4.59a31,31,0,0,1-6.11,6.8,1,1,0,0,0-.38.49,1,1,0,0,0,.61,1.33l.36-1-.35,1q13.89,5.08,25-11.42l.07-.11a91.67,91.67,0,0,1,20.31-9.85c-6,5.16-6,9.18-6.1,14.17a33.29,33.29,0,0,1-.78,7.77,1,1,0,0,0,0,.63,1,1,0,0,0,1.29.68l-.3-1,.3,1a14.61,14.61,0,0,0,9.55-8.63q2.61-6.18,1.48-16.28a109.27,109.27,0,0,1,24.1-3.52c-6,3.48-6.79,9.94-7.57,16.39a50.51,50.51,0,0,1-1.21,7.15l1,.28-1-.28a1,1,0,0,0,.73,1.28,1.07,1.07,0,0,0,.47,0q8.52-1.06,12.37-7.71,3.6-6.21,3-17.25c9.19.07,18.43.83,27.75,1.6,1.84.16,3.7.31,5.55.45-9.42,3.94-9.48,9.11-9.55,15.16a28.55,28.55,0,0,1-.89,8,1,1,0,0,0,0,.71,1,1,0,0,0,1.32.65h0q16.5-5.58,13.54-24.18c11.31.82,22.74,1.32,34.36.26a24.56,24.56,0,0,0-7.74,10.5q-2.73,7.29-.62,16.78a1,1,0,0,0,1.51.76l-.49-.92.49.92q9.11-4.83,11.87-12.25,2.64-7-.51-16.27A109.59,109.59,0,0,0,336.47,188l-1.15-1.71A109.83,109.83,0,0,1,307.59,200h0" transform="translate(905 1969)"/><path id="path358" class="cls-4" d="M736.64,372.84q20,26.88,56.64-.81l-1.15-1.52,1.15,1.52a1.92,1.92,0,0,0,.37-2.68,1.86,1.86,0,0,0-1.44-.75c-10.12-.79-16.89-3.39-22.53-5.55-9-3.44-15.25-5.84-26.4.43,13.25-17.57,28.65-31.87,45-44.59q2.06,12.35,11.59,18.8,10.38,7.05,29.5,6.84h0a1.88,1.88,0,0,0,1.88-1.92,1.93,1.93,0,0,0-.34-1.09c-1.7-2.75-3.28-5.85-4.86-9-6.1-12-12.24-24.11-27-21.76,10.76-7.84,21.82-15.16,32.79-22.45q5.81-3.84,11.56-7.71a45.61,45.61,0,0,0,1.75,10.16q2.76,9.1,9.42,13.59t16.92,4.21a72.15,72.15,0,0,0,18.94-3.4,2.4,2.4,0,0,0,.38-.12,1.92,1.92,0,0,0,1-2.52h0a41.44,41.44,0,0,0-17.54-19.78q-9.9-5.67-24-6.79c16.79-11.48,33-23.47,47.35-37.69q7.52,12.74,21.13,12.13,9.45-.42,21.74-7.49V229.24c-1.95-.6-4-1.36-6.11-2.25q-11.76-5-21.16-3.22a23.08,23.08,0,0,0-2.89.74A172,172,0,0,0,929,197.16a37.52,37.52,0,0,0,11.44,4.17V179.19a36.52,36.52,0,0,0-4.23,3.18c1.49-3.46,2.91-7.05,4.23-10.74V141.85q-4,10.49-2.84,26.1a1.62,1.62,0,0,0,0,.22,168.41,168.41,0,0,1-18.12,37.42c2.75-14.28-1.75-20.15-7.35-27.44A61.49,61.49,0,0,1,904.39,166a2,2,0,0,0-.71-.91,1.91,1.91,0,0,0-2.65.49l1.57,1.08L901,165.61A26.9,26.9,0,0,0,897.08,189q3.28,11.88,16.43,25.21a200.9,200.9,0,0,1-30.82,32.59c4.71-11.87-1.53-22.12-7.76-32.35a95.15,95.15,0,0,1-6.4-11.69l-1.76.73,1.76-.75a1.91,1.91,0,0,0-2.5-1,2.08,2.08,0,0,0-.71.52q-11.1,11.23-9.07,25.27,1.9,13.08,15.38,28.32c-13.36,10.38-27.59,19.84-41.92,29.34-2.86,1.9-5.71,3.79-8.55,5.7,9.12-16.44,3.32-24-3.49-32.83-2.84-3.68-5.87-7.61-7.84-12.56a2,2,0,0,0-.79-1,1.9,1.9,0,0,0-2.64.56h0q-17.48,26.88,8,50.4c-17.3,11.7-34.38,24.05-50,38.82a45,45,0,0,0-.77-24q-4.38-13.71-18.27-25a1.69,1.69,0,0,0-.53-.35,1.93,1.93,0,0,0-2.52,1l1.75.77-1.74-.76q-7.64,17.36-3.17,31.25,4.21,13.19,19.29,22.92c-20.84,21.16-38.57,47.32-49.9,83.12l3.62,1.15a201.76,201.76,0,0,1,24.43-51.48h0" transform="translate(905 1969)"/><path id="path359" class="cls-4" d="M-482-124.29q-.57,19.83,26.58,20.38l0-1.13,0,1.13a1.12,1.12,0,0,0,1.15-1.1,1.1,1.1,0,0,0-.39-.88,43.61,43.61,0,0,1-8.42-10.83c-2.9-4.88-4.94-8.31-12.42-9.48a141.93,141.93,0,0,1,37.21-4.21,16,16,0,0,0-1.51,13q2.25,7.06,11.19,14h0a1.13,1.13,0,0,0,1.58-.22,1,1,0,0,0,.23-.62c.22-1.9.63-3.92,1-5.94,1.58-7.82,3.15-15.68-4.56-20,7.87.31,15.68,1,23.44,1.6,2.74.23,5.47.46,8.19.66a27.93,27.93,0,0,0-2.91,5.36,14.22,14.22,0,0,0-.6,9.76c1,3,3.06,5.7,6.31,8.16a43.68,43.68,0,0,0,10,5.36l.22.08a1.14,1.14,0,0,0,1.38-.82h0a24.49,24.49,0,0,0-.88-15.6,33.66,33.66,0,0,0-8.65-11.94c12,.82,23.9,1.18,35.78-.15q-1.19,8.69,5.36,13.37,6.71,4.83,21.56,5.2a1.13,1.13,0,0,0,1-.41,1.14,1.14,0,0,0-.17-1.59h0a21.68,21.68,0,0,1-3.37-3.49,33.92,33.92,0,0,1-3.15-4.87c-2.42-4.41-5.3-7.5-8.65-9.24a12.78,12.78,0,0,0-1.61-.72,101.89,101.89,0,0,0,18.7-5.82c5.8,13.28,15.24,11,22.88,9.13a32.38,32.38,0,0,1,5.45-1,1.18,1.18,0,0,0,.75-.26,1.13,1.13,0,0,0,.15-1.59l-.87.72.87-.72q-9-11-20.46-10.48,3.59-1.94,7.18-4.25c14.18,2.65,16,.08,19.57-5a33.38,33.38,0,0,1,6.66-7.41,1.15,1.15,0,0,0,.41-.55,1.11,1.11,0,0,0-.67-1.44l-.39,1.06.39-1.06q-15.14-5.55-27.22,12.44l-.08.11a99.59,99.59,0,0,1-22.12,10.73c6.51-5.62,6.57-10,6.65-15.44a36.14,36.14,0,0,1,.85-8.45,1.13,1.13,0,0,0,0-.68,1.13,1.13,0,0,0-1.41-.75l.33,1.08-.33-1.08a16,16,0,0,0-10.4,9.4q-2.83,6.72-1.61,17.72A118.48,118.48,0,0,1-368-129.27c6.53-3.78,7.39-10.82,8.24-17.85a56.73,56.73,0,0,1,1.32-7.79l-1.08-.29,1.08.29a1.11,1.11,0,0,0-.79-1.38,1.11,1.11,0,0,0-.51,0q-9.28,1.14-13.47,8.4-3.92,6.76-3.24,18.78c-10-.07-20.08-.9-30.22-1.74l-6.05-.49c10.26-4.29,10.33-9.92,10.4-16.52a31,31,0,0,1,1-8.69,1.13,1.13,0,0,0,0-.79,1.13,1.13,0,0,0-1.43-.71h0q-18,6.09-14.74,26.34c-12.32-.9-24.77-1.43-37.42-.3a26.63,26.63,0,0,0,8.43-11.41q3-8,.68-18.29a1.12,1.12,0,0,0-.12-.35,1.13,1.13,0,0,0-1.53-.47l.53,1-.53-1q-9.9,5.27-12.92,13.34-2.88,7.68.55,17.72a119.22,119.22,0,0,0-53.61,20.29l1.26,1.85A119.27,119.27,0,0,1-482-124.29h0" transform="translate(905 1969)"/><path id="path360" class="cls-4" d="M766.21-468.33a63.55,63.55,0,0,0,18.44,7.6,2.25,2.25,0,0,0,.64.09,2,2,0,0,0,1.9-2l-1.94,0,1.94,0c0-2-.16-3.88-.36-5.7Zm-74.65,0c10.27,8,20.64,15.2,32.6,7.1-6.56,11.88-13.6,23.4-20.59,34.86-2.46,4-4.92,8.06-7.34,12.1a47.59,47.59,0,0,0-6-8.62q-6.47-7.23-14.56-8.48T658.24-428a74.37,74.37,0,0,0-16,11.29,1.64,1.64,0,0,0-.31.28,2,2,0,0,0,.19,2.75h0A42.17,42.17,0,0,0,666.81-403q11.61,1,25.08-4.07c-10.54,17.82-20.32,35.87-27.45,55.2q-12.42-8.54-24.73-2.09-12.59,6.59-24.67,29.17a2,2,0,0,0-.13,1.83,1.94,1.94,0,0,0,2.57,1h0a37,37,0,0,1,8-2.49,61.28,61.28,0,0,1,9.94-1.09q13-.47,20.92-6.16a29.06,29.06,0,0,0,2.36-1.92,172.82,172.82,0,0,0-5.5,33.3c-24.93-1.36-28.7,14.95-31.76,28.15a56.39,56.39,0,0,1-2.62,9.17,1.92,1.92,0,0,0-.19,1.36,2,2,0,0,0,2.32,1.47l-.43-1.89.44,1.89q24-5.4,32-23.39c.15,4.68.47,9.46,1,14.34-15,19.78-12.49,24.58-7.47,34a57.91,57.91,0,0,1,6.26,16,1.88,1.88,0,0,0,.5,1.05,2,2,0,0,0,2.76.09l-1.33-1.41,1.33,1.4q20.22-19,1.9-51.52l-.11-.2a171.63,171.63,0,0,1,.59-42.35c3.62,14.36,10.3,17.86,18.61,22.18a62,62,0,0,1,12.37,7.84,2,2,0,0,0,1,.53,2,2,0,0,0,2.24-1.6l-1.92-.32,1.92.32a27.43,27.43,0,0,0-6.42-23.27q-8.14-9.57-26-16.2a203.81,203.81,0,0,1,14.39-43.36c.77,13,10.94,19.75,21.1,26.51a95.07,95.07,0,0,1,11,8l1.3-1.44-1.3,1.45a2,2,0,0,0,2.75-.14,2.19,2.19,0,0,0,.43-.79q5.4-15.17-2.52-27.23-7.38-11.25-26.4-19.5c7.85-15.36,16.92-30.22,26-45.18,1.8-3,3.63-5.94,5.43-8.93-1.34,19.11,7.28,23.56,17.37,28.79,4.21,2.17,8.71,4.49,12.65,8.21a2,2,0,0,0,1.19.64,2,2,0,0,0,2.19-1.65h0q4.53-32.34-29.14-43.06c5.48-9.16,10.83-18.44,15.83-28H691.56" transform="translate(905 1969)"/><path id="path361" class="cls-4" d="M18.27,583.09a6.36,6.36,0,1,1,6.36-6.36A6.36,6.36,0,0,1,18.27,583.09ZM-216.4,130.67a6.88,6.88,0,0,1-6.88-6.88,6.88,6.88,0,0,1,6.88-6.88,6.87,6.87,0,0,1,6.87,6.88A6.87,6.87,0,0,1-216.4,130.67ZM460.8,329.84a9,9,0,1,1,9-9A9,9,0,0,1,460.8,329.84ZM197.74,406.05a7.93,7.93,0,1,1,7.92-7.92A7.92,7.92,0,0,1,197.74,406.05ZM930.25,899.49a13.22,13.22,0,1,1,10.18-21.66v16.89A13.19,13.19,0,0,1,930.25,899.49Zm-553.34-921a10.3,10.3,0,0,1-10.29-10.3,10.29,10.29,0,0,1,10.29-10.29A10.28,10.28,0,0,1,387.2-31.79,10.3,10.3,0,0,1,376.91-21.49Zm322.42-1.12A10.3,10.3,0,0,1,689-32.91,10.29,10.29,0,0,1,699.33-43.2a10.3,10.3,0,0,1,10.3,10.29A10.31,10.31,0,0,1,699.33-22.61ZM-43.57,214.65a7.92,7.92,0,0,1-7.93-7.92,7.93,7.93,0,0,1,7.93-7.92,7.93,7.93,0,0,1,7.92,7.92,7.92,7.92,0,0,1-7.92,7.92" transform="translate(905 1969)"/><path id="path362" class="cls-4" d="M-9.77-316.75a5.72,5.72,0,0,1-5.72-5.72,5.7,5.7,0,0,1,5.72-5.7,5.7,5.7,0,0,1,5.71,5.7A5.72,5.72,0,0,1-9.77-316.75ZM-576.2,26.35a6.88,6.88,0,0,1-6.87-6.88,6.88,6.88,0,0,1,6.87-6.88,6.88,6.88,0,0,1,6.88,6.88A6.88,6.88,0,0,1-576.2,26.35Zm58.07,532.73a9.23,9.23,0,0,1-9.23-9.23,9.22,9.22,0,0,1,9.23-9.22,9.22,9.22,0,0,1,9.22,9.22A9.22,9.22,0,0,1-518.13,559.08Zm196.5-837.4a9.06,9.06,0,0,1-9.07-9.07,9.07,9.07,0,0,1,9.07-9.06,9.07,9.07,0,0,1,9.07,9.06,9.06,9.06,0,0,1-9.07,9.07" transform="translate(905 1969)"/><path id="path360-2" data-name="path360" class="cls-4" d="M-261.28,998a63.28,63.28,0,0,0-18.44-7.6,1.94,1.94,0,0,0-.64-.09,2,2,0,0,0-1.9,2l1.94,0-1.94,0q.06,3,.36,5.71Zm74.65,0c-10.27-8-20.64-15.2-32.6-7.11,6.56-11.88,13.6-23.4,20.59-34.85,2.46-4,4.92-8.07,7.34-12.11a48,48,0,0,0,6,8.63q6.47,7.22,14.56,8.48c5.35.84,11.16-.31,17.43-3.4a74.37,74.37,0,0,0,16-11.29,2.06,2.06,0,0,0,.31-.28,2,2,0,0,0-.19-2.75h0a42.17,42.17,0,0,0-24.7-10.69q-11.61-1-25.08,4.06c10.54-17.81,20.32-35.86,27.45-55.2q12.42,8.55,24.73,2.1,12.59-6.58,24.67-29.18a2,2,0,0,0,.13-1.82,1.94,1.94,0,0,0-2.57-1h0a37,37,0,0,1-8,2.5,61.28,61.28,0,0,1-9.94,1.09q-13,.46-20.92,6.16a29.06,29.06,0,0,0-2.36,1.92,172.79,172.79,0,0,0,5.5-33.31c24.93,1.36,28.7-14.94,31.76-28.14a56.54,56.54,0,0,1,2.62-9.18,1.92,1.92,0,0,0,.19-1.36,1.94,1.94,0,0,0-2.32-1.46l.43,1.89-.44-1.89q-24,5.4-31.95,23.38c-.15-4.68-.47-9.45-1-14.33,15-19.79,12.49-24.59,7.47-34a58.17,58.17,0,0,1-6.26-16,1.85,1.85,0,0,0-.5-1,2,2,0,0,0-2.76-.1l1.33,1.42-1.33-1.4q-20.22,19-1.9,51.52c0,.06.07.13.11.2a171.55,171.55,0,0,1-.59,42.34C-157,827.49-163.68,824-172,819.68a62.43,62.43,0,0,1-12.37-7.84,1.89,1.89,0,0,0-1-.53,1.94,1.94,0,0,0-2.24,1.6l1.92.32-1.92-.32a27.42,27.42,0,0,0,6.42,23.26q8.15,9.58,26,16.2a203.44,203.44,0,0,1-14.39,43.36c-.77-13-10.94-19.74-21.1-26.5a96.26,96.26,0,0,1-11-8l-1.3,1.44,1.3-1.46a2,2,0,0,0-2.75.15,2.19,2.19,0,0,0-.43.79q-5.4,15.15,2.52,27.22,7.38,11.26,26.4,19.51c-7.85,15.36-16.92,30.21-26,45.17-1.8,3-3.63,6-5.43,8.94,1.34-19.11-7.28-23.56-17.37-28.79-4.21-2.17-8.71-4.49-12.65-8.21a1.9,1.9,0,0,0-1.19-.64,2,2,0,0,0-2.19,1.65h0q-4.53,32.34,29.14,43c-5.48,9.16-10.83,18.44-15.83,28h40.84" transform="translate(905 1969)"/><path class="cls-3" d="M-692,693" transform="translate(905 1969)"/><path class="cls-3" d="M-692.09,693.28" transform="translate(905 1969)"/><path id="path352-2" data-name="path352" class="cls-3" d="M-546.37,674a.63.63,0,0,1-.37.5q-5.65,2.63-11.19,5l1.29,0a63.55,63.55,0,0,1,18.24,2.59,104.49,104.49,0,0,0,12,2.88,30.81,30.81,0,0,0,11.33-.08,66.77,66.77,0,0,1,12.27-1.72c3.31,0,5.68.51,7.16,1.79l-.41.48.41-.48a.62.62,0,0,1,.06.89l-.05.06C-506.89,698-519.74,701-532.77,699.14c-12.6-1.79-25.37-8-37.09-14.69q-13.3,5.22-25.76,8.87a153.38,153.38,0,0,1,33,7,142.56,142.56,0,0,1,31.75,15.14.57.57,0,0,1,.31.38.65.65,0,0,1-.44.79l-.16-.62.16.62A52.82,52.82,0,0,1-554.17,718a50.62,50.62,0,0,1-20.92-9c-3-2.16-6.5-4.44-10.36-6.87s-8.17-5-12.87-7.8a1,1,0,0,1-.2-.14q-3.57,1-7.07,1.88c-.31.28-.64.55-1,.8a.55.55,0,0,1-.5.16h0l-1.71-.19c-4.53,1.06-9,2-13.34,2.7,3.47,3.87,9.84,6.25,18.3,9.42l4.83,1.81a69.93,69.93,0,0,1,20.54,11.72c5.83,5,9.41,10.3,11.05,15.29h0a.61.61,0,0,1-.4.8.7.7,0,0,1-.32,0,94.79,94.79,0,0,1-23.23-5.63,87.61,87.61,0,0,1-20.88-11c-4.52-3.38-7.06-6.29-8.61-9.7s-2-7.11-2.56-12.24l-.07-.08a.36.36,0,0,1-.07-.17l0,0c-1.43.22-2.86.44-4.27.63a154.26,154.26,0,0,1-27.58,1.44c2.5,2.84,5.19,5.72,8.08,8.59a139.77,139.77,0,0,0,11.53,10.29A210.79,210.79,0,0,1-614.39,740a94.13,94.13,0,0,1,14.06,18.45.6.6,0,0,1,.1.35.64.64,0,0,1-.63.63v0a62.49,62.49,0,0,1-18.83-2.54,47.65,47.65,0,0,1-21.95-14.3c-4.36-5-6.39-12.15-8.69-20.35a152.41,152.41,0,0,0-4.73-14.82l-.72-1a.32.32,0,0,1,.07-.44l.08,0c-.59-1.39-1.2-2.8-1.88-4.19a109.41,109.41,0,0,1-34.24-7.32c-.33-.12-.38-.09-.25-.41s-.34-1.13,0-1a112.53,112.53,0,0,0,33.92,7.43.68.68,0,0,1,.23-.44.64.64,0,0,1,.89.06h0l.4.46a137.48,137.48,0,0,0,14.77,0,18.28,18.28,0,0,0,1.93-10.17,53.87,53.87,0,0,0-3.45-14.65q-4.4-12.12.64-26.62t19.28-31.22a.63.63,0,0,1,.31-.22.62.62,0,0,1,.8.39l-.6.21.6-.21A33.49,33.49,0,0,1-621,631.21a82.49,82.49,0,0,1-3.44,17.49,85.67,85.67,0,0,0-3,15.5,154,154,0,0,0-.72,17.53,22.9,22.9,0,0,1-2.65,11.54,20.19,20.19,0,0,1-6.24,6.87q4.43-.37,9-1,8.14-1.12,16.72-3v-.19l.63,0-.63,0c.35-4.85-1.55-10.72-4-18.19-.09-.23-.16-.48-.68-2.11a36.38,36.38,0,0,1-1.18-19.13A36.59,36.59,0,0,1-608,639.58,105.39,105.39,0,0,0-600.8,631a42.12,42.12,0,0,0,4.91-8.47.7.7,0,0,1,.46-.41.65.65,0,0,1,.76.49l-.62.13.62-.13c1.42,6.63-.12,12.84-1.69,19.28-1.48,6-3,12.16-2.13,19,1.13,8.92,1.07,16.37-.23,22.34a24.78,24.78,0,0,1-5.18,11.15c4.22-1.09,8.5-2.32,12.88-3.7a.61.61,0,0,1,.14-.53h0a20.63,20.63,0,0,0,4.63-9.57,57.91,57.91,0,0,0,.82-11.5,72.78,72.78,0,0,1,5.36-28.42,55,55,0,0,1,15.6-21.18.62.62,0,0,1,.58-.15.63.63,0,0,1,.46.76l-.61-.14.61.14a135.24,135.24,0,0,0-2.72,17.31c-.62,6.16-1,12.66-1.38,19.49a37.58,37.58,0,0,1-6.22,19,50.52,50.52,0,0,1-14.14,13.8q8.21-2.7,16.79-6a.63.63,0,0,1,0-.55.59.59,0,0,1,.3-.26,26.63,26.63,0,0,1,8.58-2.79,3.49,3.49,0,0,1,.34-.15,28.56,28.56,0,0,0,5.87-5,16.19,16.19,0,0,0,3.54-6.5c3.87-14.49,8.31-25.51,13.54-33s11.43-11.65,18.62-12.06a.6.6,0,0,1,.35.07.63.63,0,0,1,.28.85l-.57-.3.57.3q-21.39,40.77-35.1,52.62c2.27-1,4.58-2,6.9-3.13h0a.66.66,0,0,1,.33-.84h0q27.71-12,44.43-17.5t22.8-4.6a.62.62,0,0,1,.48.29.61.61,0,0,1-.19.86l-.34-.52.34.52a149.94,149.94,0,0,1-34.28,16.82A101.42,101.42,0,0,1-546.37,674h0" transform="translate(905 1969)"/></svg>