<svg id="Ebene_1" data-name="Ebene 1" xmlns="http://www.w3.org/2000/svg" viewBox="0 0 1636.83 1468.52"><defs><style>.cls-1{fill:#bcddd4;}.cls-2{fill:#9acac0;}.cls-3{fill:#529488;}.cls-4{fill:#fff;}</style></defs><title>simple-clean-green-floral-02</title><path id="path166" class="cls-1" d="M-692.39-468.4H940.89V999H-692.39V-468.4" transform="translate(693.9 468.43)"/><path id="path229" class="cls-2" d="M942.93,331.83c-283.9,22-446,77.28-461.73,171.13-9.77,58.31,43.71,88.12,128,104.81,24.8,4.91,22.24,31.38,0,63.54-55.81,80.7,107.29,201-43,186.09-56.89-5.65-79.31,20.2-67.91,76.09q7.84,38.4,33.31,66.51H942.93V331.83h0" transform="translate(693.9 468.43)"/><path id="path230" class="cls-2" d="M-547.4,999.09c64.17-96.34,161.44-168.9,291.13-219.41,55.25-21.52,76.16-52.79,55.25-85.93C-250.69,615,19.62,504.67,38.37,676.85c2.27,20.82,25.35,25.79,67.52,24.56,31.37-.92,45.52,22.6,67.53,39.9,32.27,25.37,66.57,13.28,92.07,6.14,69.28-19.38,86.37,9.8,6.52,118.74-15.38,21-15.77,36.61,2.78,54.53,42.91,41.48,22.62,62.63-54.35,42.36-26.44-7-45.65-16.67-63.14-8-20.55,10.22-24-7.16-29.57-54.34-3.12-26.55-37-17.86-36,29.57.62,28.55-2.21,51.32-11.59,68.77H-547.4" transform="translate(693.9 468.43)"/><path id="path231" class="cls-2" d="M174.82-468.43c17.25,38.48,14.6,83,1.52,136.51-8.86,36.29,17.19,60.75,44.2,76.93,79.46,47.63,105.18,139.18,36,242.27-24.31,36.21-72.61,51.63-86.75,93.29C148,144.89,92.49,141.63-8.63,52.75-71.78-2.76-141.32-44.39-228-60.2c-75.22-13.72-122.7-63.65-147.32-148.95-11.27-39-54.55-70.93-111.3-116.22-51.76-41.31-70.38-90.78-60.49-143.06h721.9" transform="translate(693.9 468.43)"/><path id="path232" class="cls-3" d="M-418.56-434.09a3,3,0,0,0-3,3,3,3,0,0,0,3,3,3,3,0,0,0,3-3A3,3,0,0,0-418.56-434.09Zm-27.06-19.28a2.2,2.2,0,0,0-2.21,2.21,2.2,2.2,0,0,0,2.21,2.21,2.2,2.2,0,0,0,2.21-2.21A2.2,2.2,0,0,0-445.62-453.37Zm-18-12.12a2.84,2.84,0,0,0-2.84,2.84,2.84,2.84,0,0,0,2.84,2.84,2.84,2.84,0,0,0,2.83-2.84A2.84,2.84,0,0,0-463.63-465.49Zm9.61,27.66a2.3,2.3,0,0,0-2.3,2.3,2.29,2.29,0,0,0,2.3,2.3,2.29,2.29,0,0,0,2.29-2.3A2.29,2.29,0,0,0-454-437.83Zm-1.29,6a2.29,2.29,0,0,0-2.3,2.3,2.3,2.3,0,0,0,2.3,2.3,2.3,2.3,0,0,0,2.3-2.3A2.29,2.29,0,0,0-455.31-431.81Zm-50.57-26.95a4.46,4.46,0,0,0-4.46,4.45,4.47,4.47,0,0,0,4.46,4.47,4.47,4.47,0,0,0,4.46-4.47A4.46,4.46,0,0,0-505.88-458.76Zm8.3,3.87a2.45,2.45,0,0,0-2.46,2.45,2.46,2.46,0,0,0,2.46,2.45,2.45,2.45,0,0,0,2.45-2.45A2.45,2.45,0,0,0-497.58-454.89Zm2.45,17.52a2.46,2.46,0,0,0-2.46,2.45,2.45,2.45,0,0,0,2.46,2.45,2.45,2.45,0,0,0,2.45-2.45A2.45,2.45,0,0,0-495.13-437.37Zm17.18,28.29a1.78,1.78,0,0,0-1.78,1.77,1.79,1.79,0,0,0,1.78,1.79,1.79,1.79,0,0,0,1.78-1.79A1.78,1.78,0,0,0-477.95-409.08Zm-50.39-13.13a6.45,6.45,0,0,0-6.45,6.45,6.44,6.44,0,0,0,6.45,6.45,6.45,6.45,0,0,0,6.45-6.45A6.45,6.45,0,0,0-528.34-422.21Zm-28.79-44.64a4.48,4.48,0,0,0-4.48,4.48,4.48,4.48,0,0,0,4.48,4.49,4.49,4.49,0,0,0,4.48-4.49A4.49,4.49,0,0,0-557.13-466.85Zm7.6,7.86a2.73,2.73,0,0,0-2.72,2.74,2.73,2.73,0,0,0,2.72,2.73,2.73,2.73,0,0,0,2.73-2.73A2.74,2.74,0,0,0-549.53-459Zm-42.2,12.19a1.93,1.93,0,0,0-1.93,1.93,1.93,1.93,0,0,0,1.93,1.94,1.93,1.93,0,0,0,1.93-1.94A1.93,1.93,0,0,0-591.73-446.8Zm-25.09-9.28a2.8,2.8,0,0,0-2.8,2.8,2.81,2.81,0,0,0,2.8,2.79,2.8,2.8,0,0,0,2.79-2.79A2.79,2.79,0,0,0-616.82-456.08Zm-13.8,31a1.77,1.77,0,0,0-1.77,1.77,1.78,1.78,0,0,0,1.77,1.78,1.78,1.78,0,0,0,1.77-1.78A1.77,1.77,0,0,0-630.62-425Zm-21.56-26.4a1.76,1.76,0,0,0-1.77,1.76,1.76,1.76,0,0,0,1.77,1.77,1.76,1.76,0,0,0,1.77-1.77A1.76,1.76,0,0,0-652.18-451.44Zm-21.46,8.16a2.17,2.17,0,0,0-2.17,2.16,2.16,2.16,0,0,0,2.17,2.16,2.16,2.16,0,0,0,2.16-2.16A2.16,2.16,0,0,0-673.64-443.28Zm12.57,29.63a2.16,2.16,0,0,0-2.16,2.16,2.17,2.17,0,0,0,2.16,2.16,2.17,2.17,0,0,0,2.16-2.16A2.16,2.16,0,0,0-661.07-413.65Zm-3.45,6.49a2.17,2.17,0,0,0-2.17,2.16,2.16,2.16,0,0,0,2.17,2.16,2.16,2.16,0,0,0,2.16-2.16A2.16,2.16,0,0,0-664.52-407.16Zm40.35,33.51a2.91,2.91,0,0,0-2.91,2.92,2.9,2.9,0,0,0,2.91,2.9,2.91,2.91,0,0,0,2.91-2.9A2.91,2.91,0,0,0-624.17-373.65Zm-53.92,17.92a2.9,2.9,0,0,0-2.91,2.9,2.9,2.9,0,0,0,2.91,2.91,2.9,2.9,0,0,0,2.91-2.91A2.9,2.9,0,0,0-678.09-355.73Zm-3.09,7.89a3.49,3.49,0,0,0-3.49,3.49,3.49,3.49,0,0,0,3.49,3.5,3.49,3.49,0,0,0,3.49-3.5A3.49,3.49,0,0,0-681.18-347.84Zm233.61-47.88a4.35,4.35,0,0,0-4.35,4.35,4.34,4.34,0,0,0,4.35,4.34,4.34,4.34,0,0,0,4.34-4.34A4.34,4.34,0,0,0-447.57-395.72Zm-21.79,29.55a3.1,3.1,0,0,0-3.11,3.1,3.11,3.11,0,0,0,3.11,3.11,3.11,3.11,0,0,0,3.11-3.11A3.1,3.1,0,0,0-469.36-366.17ZM-434-352.91a1.55,1.55,0,0,0-1.55,1.56A1.54,1.54,0,0,0-434-349.8a1.55,1.55,0,0,0,1.56-1.55A1.56,1.56,0,0,0-434-352.91Zm-72.71-6.18a2.14,2.14,0,0,0-2.14,2.13,2.14,2.14,0,0,0,2.14,2.15,2.15,2.15,0,0,0,2.15-2.15A2.14,2.14,0,0,0-506.72-359.09Zm-4.75-15.22a2.14,2.14,0,0,0-2.14,2.14,2.14,2.14,0,0,0,2.14,2.14,2.14,2.14,0,0,0,2.15-2.14A2.14,2.14,0,0,0-511.47-374.31Zm-4.44,2.39a2.15,2.15,0,0,0-2.15,2.15,2.14,2.14,0,0,0,2.15,2.14,2.14,2.14,0,0,0,2.14-2.14A2.14,2.14,0,0,0-515.91-371.92Zm38.34,37a3.11,3.11,0,0,0-3.11,3.11,3.1,3.1,0,0,0,3.11,3.1,3.1,3.1,0,0,0,3.11-3.1A3.11,3.11,0,0,0-477.57-335Zm-6.79,1.16a2.24,2.24,0,0,0-2.24,2.24,2.24,2.24,0,0,0,2.24,2.24,2.23,2.23,0,0,0,2.23-2.24A2.23,2.23,0,0,0-484.36-333.8Zm43.74,14.29a2.26,2.26,0,0,0-2.24,2.24,2.24,2.24,0,0,0,2.24,2.24,2.24,2.24,0,0,0,2.24-2.24A2.25,2.25,0,0,0-440.62-319.51Zm27.95,33.39a2.24,2.24,0,0,0-2.24,2.24,2.24,2.24,0,0,0,2.24,2.24,2.24,2.24,0,0,0,2.24-2.24A2.24,2.24,0,0,0-412.67-286.12Zm20.75,39.4a2.77,2.77,0,0,0-2.78,2.77,2.78,2.78,0,0,0,2.78,2.79,2.79,2.79,0,0,0,2.78-2.79A2.78,2.78,0,0,0-391.92-246.72ZM-692.9-399v11.3a6.6,6.6,0,0,0,3.38.94,6.59,6.59,0,0,0,6.59-6.59,6.59,6.59,0,0,0-6.59-6.59A6.6,6.6,0,0,0-692.9-399ZM-417-461.41a2.17,2.17,0,0,0-2.18,2.16,2.18,2.18,0,0,0,2.18,2.17,2.17,2.17,0,0,0,2.17-2.17,2.16,2.16,0,0,0-2.17-2.16" transform="translate(693.9 468.43)"/><path id="path233" class="cls-3" d="M19.79,626A2.22,2.22,0,1,0,22,628.24,2.22,2.22,0,0,0,19.79,626Zm-31.34-15.93a7.35,7.35,0,0,0-7.35,7.35,7.35,7.35,0,0,0,7.35,7.34,7.34,7.34,0,0,0,7.34-7.34A7.35,7.35,0,0,0-11.55,610.08Zm-17.27-19.63a1.76,1.76,0,0,0-1.76,1.76A1.76,1.76,0,0,0-28.82,594a1.76,1.76,0,0,0,1.76-1.76A1.76,1.76,0,0,0-28.82,590.45ZM-44.14,607a3.39,3.39,0,0,0-3.4,3.38,3.4,3.4,0,0,0,3.4,3.4,3.4,3.4,0,0,0,3.39-3.4A3.39,3.39,0,0,0-44.14,607Zm-1.12,21.56a2.25,2.25,0,0,0-2.25,2.25,2.25,2.25,0,0,0,2.25,2.25A2.25,2.25,0,0,0-43,630.84,2.25,2.25,0,0,0-45.26,628.59Zm-14.05-34.3a2.84,2.84,0,0,0-2.84,2.84A2.84,2.84,0,0,0-59.31,600a2.83,2.83,0,0,0,2.85-2.84A2.84,2.84,0,0,0-59.31,594.29Zm-9.74.34a5,5,0,0,0-5,5,5,5,0,0,0,5,5,5,5,0,0,0,5-5A5,5,0,0,0-69,594.63Zm-27.74,22a6.68,6.68,0,0,0-6.68,6.68A6.68,6.68,0,0,0-96.79,630a6.67,6.67,0,0,0,6.67-6.67A6.68,6.68,0,0,0-96.79,616.65Zm19.67,16a2.05,2.05,0,0,0-2,2.06,2,2,0,0,0,2,2,2,2,0,0,0,2-2A2,2,0,0,0-77.12,632.65Zm-47.07-14.38a2.56,2.56,0,0,0-2.57,2.57,2.58,2.58,0,0,0,2.57,2.57,2.58,2.58,0,0,0,2.57-2.57A2.56,2.56,0,0,0-124.19,618.27Zm1.8,7a2.1,2.1,0,0,0-2.1,2.1,2.11,2.11,0,0,0,2.1,2.11,2.11,2.11,0,0,0,2.11-2.11A2.1,2.1,0,0,0-122.39,625.23Zm5.88,23.52a3.31,3.31,0,0,0-3.31,3.3,3.31,3.31,0,0,0,3.31,3.31,3.31,3.31,0,0,0,3.31-3.31A3.31,3.31,0,0,0-116.51,648.75Zm-33-.76a1.81,1.81,0,0,0-1.81,1.81,1.81,1.81,0,0,0,1.81,1.8,1.81,1.81,0,0,0,1.8-1.8A1.81,1.81,0,0,0-149.56,648Zm-14.18,4.54a3,3,0,0,0-2.95,3,3,3,0,0,0,2.95,2.95,3,3,0,0,0,3-2.95A3,3,0,0,0-163.74,652.53Zm-10.64-2.42a5.73,5.73,0,0,0-5.74,5.73,5.74,5.74,0,0,0,5.74,5.73,5.73,5.73,0,0,0,5.73-5.73A5.72,5.72,0,0,0-174.38,650.11Zm13,29.41a3,3,0,0,0-2.95,3,3,3,0,0,0,2.95,3,3,3,0,0,0,3-3A3,3,0,0,0-161.36,679.52Zm-41,2.85a3.8,3.8,0,0,0-3.8,3.8,3.79,3.79,0,0,0,3.8,3.8,3.79,3.79,0,0,0,3.8-3.8A3.8,3.8,0,0,0-202.36,682.37ZM-233,674a2.43,2.43,0,0,0-2.43,2.43,2.44,2.44,0,0,0,2.43,2.43,2.44,2.44,0,0,0,2.43-2.43A2.43,2.43,0,0,0-233,674Zm-15.15-39.37a2.43,2.43,0,0,0-2.43,2.43,2.42,2.42,0,0,0,2.43,2.42,2.42,2.42,0,0,0,2.43-2.42A2.43,2.43,0,0,0-248.14,634.64ZM21.92,659.43a2.22,2.22,0,1,0,2.22,2.21,2.2,2.2,0,0,0-2.22-2.21" transform="translate(693.9 468.43)"/><path id="path234" class="cls-3" d="M-279,789.56a2.26,2.26,0,0,0-2.26,2.27,2.26,2.26,0,0,0,2.26,2.26,2.27,2.27,0,0,0,2.27-2.26A2.27,2.27,0,0,0-279,789.56Zm-23.49-8.8a2.26,2.26,0,0,0-2.26,2.27,2.26,2.26,0,0,0,2.26,2.26,2.26,2.26,0,0,0,2.26-2.26A2.26,2.26,0,0,0-302.49,780.76Zm-26.34,7.48a3.09,3.09,0,0,0-3.09,3.08,3.09,3.09,0,0,0,3.09,3.09,3.08,3.08,0,0,0,3.08-3.09A3.09,3.09,0,0,0-328.83,788.24Zm9.71,18.75a6.74,6.74,0,0,0-6.74,6.74,6.74,6.74,0,0,0,6.74,6.74,6.73,6.73,0,0,0,6.73-6.74A6.73,6.73,0,0,0-319.12,807Zm-26.94,3.2a4.74,4.74,0,0,0-4.74,4.74,4.74,4.74,0,0,0,4.74,4.74,4.74,4.74,0,0,0,4.74-4.74A4.74,4.74,0,0,0-346.06,810.19Zm-28.18,15.24a1.88,1.88,0,0,0-1.88,1.88,1.88,1.88,0,0,0,1.88,1.88,1.88,1.88,0,0,0,1.88-1.88A1.88,1.88,0,0,0-374.24,825.43Zm-5.09,3.44a2.08,2.08,0,0,0-2.08,2.08,2.08,2.08,0,0,0,2.08,2.09,2.09,2.09,0,0,0,2.09-2.09A2.09,2.09,0,0,0-379.33,828.87Zm-29.64,4A2.08,2.08,0,0,0-411,835a2.08,2.08,0,0,0,2.08,2.08,2.08,2.08,0,0,0,2.09-2.08A2.09,2.09,0,0,0-409,832.89Zm46.64,14.63a2.09,2.09,0,0,0-2.09,2.08,2.09,2.09,0,0,0,2.09,2.08,2.08,2.08,0,0,0,2.08-2.08A2.08,2.08,0,0,0-362.33,847.52Zm-16,6a2.08,2.08,0,0,0-2.09,2.09,2.08,2.08,0,0,0,2.09,2.08,2.08,2.08,0,0,0,2.08-2.08A2.08,2.08,0,0,0-378.37,853.48Zm-1.76,12a6,6,0,0,0-6,6,6,6,0,0,0,6,6,6,6,0,0,0,6-6A6,6,0,0,0-380.13,865.52Zm25,18.77a2.1,2.1,0,0,0-2.09,2.1,2.09,2.09,0,0,0,2.09,2.08,2.08,2.08,0,0,0,2.08-2.08A2.09,2.09,0,0,0-355.15,884.29Zm-31.32,13.63a2.09,2.09,0,0,0-2.09,2.09,2.09,2.09,0,0,0,2.09,2.08,2.08,2.08,0,0,0,2.08-2.08A2.08,2.08,0,0,0-386.47,897.92Zm-22.18-21.73a2.09,2.09,0,0,0-2.09,2.09,2.09,2.09,0,0,0,2.09,2.08,2.08,2.08,0,0,0,2.08-2.08A2.08,2.08,0,0,0-408.65,876.19Zm-29.08-3.3a2.09,2.09,0,0,0-2.08,2.1,2.08,2.08,0,0,0,2.08,2.08,2.09,2.09,0,0,0,2.09-2.08A2.09,2.09,0,0,0-437.73,872.89Zm8.57,27.23a4.2,4.2,0,0,0-4.19,4.19,4.2,4.2,0,0,0,4.19,4.2,4.19,4.19,0,0,0,4.19-4.2A4.19,4.19,0,0,0-429.16,900.12Zm-17.16,1.21a2.83,2.83,0,0,0-2.82,2.83,2.83,2.83,0,0,0,2.82,2.83,2.83,2.83,0,0,0,2.82-2.83A2.83,2.83,0,0,0-446.32,901.33Zm-18,11.08a2.21,2.21,0,0,0-2.21,2.2,2.21,2.21,0,0,0,2.21,2.22,2.21,2.21,0,0,0,2.21-2.22A2.21,2.21,0,0,0-464.34,912.41Zm47,9.38a6.31,6.31,0,0,0-6.32,6.3,6.32,6.32,0,0,0,6.32,6.31,6.32,6.32,0,0,0,6.31-6.31A6.31,6.31,0,0,0-417.37,921.79Zm-28.91,8.62a5.51,5.51,0,0,0-5.51,5.51,5.51,5.51,0,0,0,5.51,5.51,5.51,5.51,0,0,0,5.51-5.51A5.51,5.51,0,0,0-446.28,930.41ZM-469,939.64a3.67,3.67,0,0,0-3.67,3.67A3.67,3.67,0,0,0-469,947a3.68,3.68,0,0,0,3.68-3.68A3.67,3.67,0,0,0-469,939.64Zm1.4-5.69a1.83,1.83,0,0,0-1.83,1.84,1.84,1.84,0,0,0,1.83,1.84,1.84,1.84,0,0,0,1.84-1.84A1.84,1.84,0,0,0-467.64,934Zm2.57,22.36a1.83,1.83,0,0,0-1.83,1.84,1.84,1.84,0,0,0,1.83,1.84,1.84,1.84,0,0,0,1.84-1.84A1.84,1.84,0,0,0-465.07,956.31Zm25.08,1.13a1.84,1.84,0,0,0-1.84,1.84,1.84,1.84,0,0,0,1.84,1.84,1.84,1.84,0,0,0,1.83-1.84A1.84,1.84,0,0,0-440,957.44Zm-34.87,17.13a3.18,3.18,0,0,0-3.18,3.19,3.18,3.18,0,0,0,3.18,3.19,3.19,3.19,0,0,0,3.19-3.19A3.19,3.19,0,0,0-474.86,974.57Zm-9.83,4.18a4.15,4.15,0,0,0-4.15,4.16,4.14,4.14,0,0,0,4.15,4.14,4.15,4.15,0,0,0,4.16-4.14A4.16,4.16,0,0,0-484.69,978.75Zm-42.45-2.12a2.45,2.45,0,0,0-2.46,2.45,2.46,2.46,0,0,0,2.46,2.47,2.46,2.46,0,0,0,2.46-2.47A2.45,2.45,0,0,0-527.14,976.63Zm-36.45-8.83a2.46,2.46,0,0,0-2.47,2.45,2.48,2.48,0,0,0,2.47,2.47,2.47,2.47,0,0,0,2.46-2.47A2.45,2.45,0,0,0-563.59,967.8Zm-4.08,17.09a3,3,0,0,0-3,3,3,3,0,0,0,3,3,3,3,0,0,0,3-3A3,3,0,0,0-567.67,984.89Zm-30.27-28a5.85,5.85,0,0,0-5.86,5.85,5.86,5.86,0,0,0,5.86,5.87,5.86,5.86,0,0,0,5.86-5.87A5.85,5.85,0,0,0-597.94,956.87Zm1.52,14.5a2.24,2.24,0,0,0-2.25,2.24,2.26,2.26,0,0,0,2.25,2.26,2.25,2.25,0,0,0,2.24-2.26A2.24,2.24,0,0,0-596.42,971.37Zm-18.52,14.52a2.24,2.24,0,0,0-2.25,2.24,2.26,2.26,0,0,0,2.25,2.26,2.25,2.25,0,0,0,2.24-2.26A2.24,2.24,0,0,0-614.94,985.89Zm10.06-31.6a2.24,2.24,0,0,0-2.25,2.24,2.26,2.26,0,0,0,2.25,2.26,2.25,2.25,0,0,0,2.24-2.26A2.24,2.24,0,0,0-604.88,954.29Zm-21.61-4.3a2.25,2.25,0,0,0-2.25,2.25,2.24,2.24,0,0,0,2.25,2.24,2.24,2.24,0,0,0,2.24-2.24A2.24,2.24,0,0,0-626.49,950Zm145.92,49.09h3.12a2.42,2.42,0,0,0,.9-1.89,2.47,2.47,0,0,0-2.46-2.47,2.47,2.47,0,0,0-2.46,2.47A2.42,2.42,0,0,0-480.57,999.08Zm229-205.52a2.93,2.93,0,0,0-2.93,2.93,2.92,2.92,0,0,0,2.93,2.92,2.92,2.92,0,0,0,2.92-2.92,2.93,2.93,0,0,0-2.92-2.93" transform="translate(693.9 468.43)"/><path id="path235" class="cls-4" d="M899.53,1000.09c-17.9-26.45-34.6-53.49-51.2-80.37-69.66-112.88-137.61-223-286-276.11l-3.1,8.66c145.38,52,212.48,160.77,281.28,272.25,15.59,25.25,31.27,50.64,48,75.57h11" transform="translate(693.9 468.43)"/><path id="path236" class="cls-4" d="M464.33,594.68l-4.4,1.29q18.42,63.09,106.7,59.22a4.68,4.68,0,0,0,2.24-.44,4.62,4.62,0,0,0,2.17-6.14l0,0c-26.32-55.2-39.2-54.94-64.76-54.39-10.42.23-23.21.49-40.42-3.92a4.59,4.59,0,0,0-5.91,5.64l4.41-1.28Zm95.32,51.55q-69.66,1-88.28-45.24c14.56,2.88,25.74,2.64,35.1,2.44,20.66-.43,31.52-.66,53.18,42.8" transform="translate(693.9 468.43)"/><path id="path237" class="cls-4" d="M492.89,612.33a2,2,0,0,1,2.24-3.41q18.09,11.83,36.14,21.37a384.25,384.25,0,0,0,36.06,16.8,2,2,0,1,1-1.52,3.79,394.19,394.19,0,0,1-36.46-17q-18.24-9.64-36.46-21.55Zm2.71-8.88a2,2,0,1,1,2.07-3.5q18.69,11.07,35.54,20.89,16.6,9.66,30.26,17.39a2,2,0,0,1-2,3.56q-14-7.92-30.29-17.42-16-9.33-35.56-20.92Zm-4,17a2,2,0,1,1,2.55-3.17,150.22,150.22,0,0,0,28.23,17.27,276.13,276.13,0,0,0,37.94,14.6,2,2,0,1,1-1.21,3.89,278.63,278.63,0,0,1-38.52-14.83,153.38,153.38,0,0,1-29-17.76" transform="translate(693.9 468.43)"/><path id="path238" class="cls-4" d="M590.64,568.29l-4.45-1.12q-19.43,76.44,41.56,115.66a3.53,3.53,0,0,0,.32.21,4.61,4.61,0,0,0,6.33-1.51h0c32.82-53.37,1.69-79.44-23.43-100.48-6.48-5.42-12.53-10.49-16.55-15.37a4.52,4.52,0,0,0-2.64-1.84,4.6,4.6,0,0,0-5.6,3.32l4.47,1.13ZM629,672.6q-47.88-33.35-35.79-94.84c3.57,3.41,7.63,6.8,11.85,10.35,21.74,18.2,48.51,40.62,23.94,84.49" transform="translate(693.9 468.43)"/><path id="path239" class="cls-4" d="M589.17,717.35c-8.29,5.93-17.4,12.44-29.81,17.68a4.52,4.52,0,0,0-2.25,1.65,4.59,4.59,0,0,0,1,6.43l2.72-3.71-2.72,3.69q25.49,18.7,56,11.39,29.48-7.08,63.35-38.75a4.61,4.61,0,0,0-1.31-8h0c-49.36-17.33-65.72-5.62-86.94,9.58Zm-18.88,22.73c9.64-4.85,17.19-10.27,24.19-15.28,18-12.85,32-22.91,71.23-10.8q-29,25.57-53.78,31.53-22.38,5.38-41.64-5.45h0" transform="translate(693.9 468.43)"/><path id="path240" class="cls-4" d="M763.91,707.28q-.4-33.59-35.12-83.31a4.61,4.61,0,0,0-8.55,2.15h0A88.15,88.15,0,0,1,717,645.61a145.5,145.5,0,0,1-8.33,22.14q-13,28-9.43,50.74,3.62,23,24,40.23a4.6,4.6,0,0,0,5.21.89v0q36-17.08,35.54-52.3Zm-36-68.2q26.5,40.8,26.83,68.33.35,28.05-27.61,42.58-15.93-14.44-18.83-32.92Q705.12,697,717,671.61a156,156,0,0,0,8.84-23.54c.85-3.08,1.56-6.07,2.1-9h0" transform="translate(693.9 468.43)"/><path id="path241" class="cls-4" d="M702.63,846.81q-26.55,3-47.92-16.6c7.94-3.58,15.69-8,23.45-12.34,28.21-15.92,56.48-31.87,88.77-3.55q-35.49,29.28-64.3,32.49Zm-59.12-14.76q26.19,27.66,60.14,23.88,33.24-3.69,73.22-37.94l-3-3.5,3,3.5a4.61,4.61,0,0,0,.5-6.5,3.66,3.66,0,0,0-.44-.44c-38.7-37.61-71-19.37-103.25-1.18-9.59,5.41-19.17,10.82-28.72,14.5l1.64,4.28L645,824.36a4.61,4.61,0,0,0-2.64,6,4.42,4.42,0,0,0,1.2,1.73" transform="translate(693.9 468.43)"/><path id="path242" class="cls-4" d="M900.31,825.76q.2-19.86-6.68-45.89a5.64,5.64,0,0,0-.27-1,4.62,4.62,0,0,0-6-2.55v0q-31.89,12.86-49,40.65-16.87,27.36-19.25,69a3.31,3.31,0,0,0-.06.64,4.6,4.6,0,0,0,4.55,4.65h0a119.48,119.48,0,0,0,31.76-3.49q22.14-5.91,33.48-21.63t11.51-40.44ZM886,787q5.32,21.78,5.14,38.66-.23,21.95-9.76,35.18T852.93,879a102.68,102.68,0,0,1-24.42,3.12q2.82-36.27,17.61-60.21Q860.39,798.77,886,787h0" transform="translate(693.9 468.43)"/><path id="path243" class="cls-4" d="M741.83,977.47q64.26,44.88,123.7-17a4.93,4.93,0,0,0,.76-.82,4.61,4.61,0,0,0-1.08-6.42h0c-47-33.48-67.08-19.06-91-1.84-9.09,6.54-18.8,13.52-30.89,17.88a4.53,4.53,0,0,0-2.59,1.82,4.61,4.61,0,0,0,1.14,6.41Zm113.61-19.83q-49,48.06-101.16,17c9.64-4.54,17.64-10.3,25.25-15.78,20.27-14.57,37.38-26.86,75.91-1.17h0" transform="translate(693.9 468.43)"/><path id="path244" class="cls-4" d="M942.47,942.84c-24.86,12.19-46.32,26.63-42.7,57.25h9.62c-2.54-24,13.38-36.66,33.08-46.92V942.84" transform="translate(693.9 468.43)"/><path id="path245" class="cls-4" d="M635.87,680.11a2,2,0,0,1-3,2.84,128.11,128.11,0,0,1-25.36-38q-9.48-21.6-12.67-48.5a2,2,0,1,1,4-.48q3.11,26.28,12.36,47.34a123.85,123.85,0,0,0,24.58,36.82h0" transform="translate(693.9 468.43)"/><path id="path246" class="cls-4" d="M600.33,595.44a2,2,0,0,1,3.76-1.55q9.57,22.89,16.38,43.42T631.35,676a2.06,2.06,0,0,1-1.54,2.44,2,2,0,0,1-2.44-1.54q-4-18-10.77-38.3t-16.27-43.15h0" transform="translate(693.9 468.43)"/><path id="path247" class="cls-4" d="M613.56,602.91a2,2,0,1,1,3.68-1.75q12.12,25.5,15.16,44.48,3.11,19.36-3.2,32.15a2,2,0,0,1-3.67-1.8q5.73-11.62,2.84-29.7-3-18.43-14.81-43.38" transform="translate(693.9 468.43)"/><path id="path248" class="cls-4" d="M594.6,742a2,2,0,0,1,0-4.08,98.35,98.35,0,0,0,35.19-6.12,132.44,132.44,0,0,0,34.63-19.39,2,2,0,0,1,2.45,3.26,136.65,136.65,0,0,1-35.68,20A102.31,102.31,0,0,1,594.6,742h0" transform="translate(693.9 468.43)"/><path id="path249" class="cls-4" d="M599.19,733.79a2.07,2.07,0,0,1-2.54-1.4,2,2,0,0,1,1.39-2.52q14.93-4.35,32-8.39t36.46-7.85a2,2,0,0,1,.79,4q-19.14,3.75-36.31,7.82t-31.82,8.34h0" transform="translate(693.9 468.43)"/><path id="path250" class="cls-4" d="M583.52,734.8a2,2,0,0,1-1.64-3.73q53.08-23.58,89.33-20.22a2,2,0,0,1-.38,4.06q-35.16-3.27-87.31,19.89h0" transform="translate(693.9 468.43)"/><path id="path251" class="cls-4" d="M683.11,835.92a2,2,0,1,1,.26-4.07,144.22,144.22,0,0,0,41.36-3.13,156.52,156.52,0,0,0,39.9-15.09,2,2,0,0,1,1.92,3.6,160.89,160.89,0,0,1-40.92,15.46,148.38,148.38,0,0,1-42.52,3.23h0" transform="translate(693.9 468.43)"/><path id="path252" class="cls-4" d="M671.25,831.05a2,2,0,0,1-2.54-1.36,2,2,0,0,1,1.36-2.54,343.13,343.13,0,0,1,50.5-11.06,377,377,0,0,1,53.31-3.64,2,2,0,0,1,0,4.08,375.77,375.77,0,0,0-52.72,3.6,339.4,339.4,0,0,0-49.91,10.92h0" transform="translate(693.9 468.43)"/><path id="path253" class="cls-4" d="M683.79,819.47a2,2,0,0,1-1.31-3.87,163.84,163.84,0,0,1,46.85-8.81,142,142,0,0,1,45.12,5.74,2,2,0,1,1-1.14,3.92,137.68,137.68,0,0,0-43.84-5.57,159,159,0,0,0-45.68,8.59h0" transform="translate(693.9 468.43)"/><path id="path254" class="cls-4" d="M721.21,655.81a2,2,0,0,1,3.94,1.08q-7.32,26.79-6.36,51.22A133.42,133.42,0,0,0,729,754.55a2,2,0,0,1-3.77,1.56,137.54,137.54,0,0,1-10.48-47.83q-1-25.06,6.49-52.47h0" transform="translate(693.9 468.43)"/><path id="path255" class="cls-4" d="M731.52,659.2a2,2,0,1,1,4,.6Q731,690,729.32,714.29a317,317,0,0,0-.33,42.92,2.05,2.05,0,0,1-1.9,2.18,2,2,0,0,1-2.17-1.88,323.63,323.63,0,0,1,.33-43.48q1.66-24.59,6.27-54.83h0" transform="translate(693.9 468.43)"/><path id="path256" class="cls-4" d="M737,672.43a2,2,0,1,1,4-.44q2.73,25.69-.93,46.2t-13.76,36A2,2,0,0,1,723,752q9.63-14.68,13.14-34.51t.91-45.05h0" transform="translate(693.9 468.43)"/><path id="path257" class="cls-4" d="M826.45,885.2a2,2,0,1,1-1.46-3.8q27.91-10.81,42.54-26.59a57.64,57.64,0,0,0,15.84-36.12,2,2,0,0,1,4.07.28,61.59,61.59,0,0,1-16.92,38.62Q855.3,874,826.45,885.2" transform="translate(693.9 468.43)"/><path id="path258" class="cls-4" d="M824.85,885.79a2,2,0,0,1-2.06-3.51A107.86,107.86,0,0,0,855.07,853q13.29-18.12,20.84-43.13a2,2,0,0,1,3.9,1.18q-7.74,25.68-21.46,44.36a111.41,111.41,0,0,1-33.5,30.38h0" transform="translate(693.9 468.43)"/><path id="path259" class="cls-4" d="M862.52,808.81a2,2,0,0,1,3.79,1.5A405.8,405.8,0,0,1,846,854.63q-10.26,18.81-20.6,30.74a2,2,0,0,1-3.08-2.68q10.07-11.6,20.11-30a401.16,401.16,0,0,0,20.13-43.87" transform="translate(693.9 468.43)"/><path id="path260" class="cls-4" d="M778.85,981.08a2,2,0,1,1-.26-4.07q43.86-2.85,80.84-22.3a2,2,0,1,1,1.89,3.61q-37.76,19.84-82.47,22.76h0" transform="translate(693.9 468.43)"/><path id="path261" class="cls-4" d="M769.53,973.92a2,2,0,0,1-2.17-1.88,2.06,2.06,0,0,1,1.88-2.19,489.39,489.39,0,0,0,51-6,280.86,280.86,0,0,0,41.25-10.24,2,2,0,1,1,1.32,3.85A282.38,282.38,0,0,1,821,967.88a494.92,494.92,0,0,1-51.44,6h0" transform="translate(693.9 468.43)"/><path id="path262" class="cls-4" d="M776.12,963.64a2,2,0,1,1-1.23-3.88,162.87,162.87,0,0,1,41.82-7.23,196.78,196.78,0,0,1,45,3.47,2,2,0,0,1-.76,4,192.65,192.65,0,0,0-44-3.41,159,159,0,0,0-40.76,7" transform="translate(693.9 468.43)"/><path id="path263" class="cls-4" d="M936.72,1000.09l1.35-1.44c1.48-1.61,2.94-3.32,4.4-5.09v6.31l-.2.22h-5.55" transform="translate(693.9 468.43)"/><path id="path264" class="cls-4" d="M922.33,1000.09c4.46-6.2,8.9-12.22,13.31-18.12q3.42-4.58,6.83-9v6.72c-1.19,1.56-2.38,3.14-3.56,4.72q-5.74,7.65-11.55,15.68h-5" transform="translate(693.9 468.43)"/><path id="path265" class="cls-4" d="M911.93,1000.09a151.81,151.81,0,0,1,30.54-49.25V957a147.07,147.07,0,0,0-26.15,43.13h-4.39" transform="translate(693.9 468.43)"/><path id="path266" class="cls-4" d="M-3.21-468.43c14.25,12.67,28.14,25.64,42,38.55,77.09,72,152.29,142.16,277.2,151.79l.56-7.28C194.13-294.81,119.87-364.13,43.74-435.2c-11.9-11.11-23.85-22.25-36-33.23H-3.21" transform="translate(693.9 468.43)"/><path id="path267" class="cls-4" d="M401.39-261.11,404.5-263q-27.35-44.52-94.25-23.05a3.72,3.72,0,0,0-1.61.81,3.66,3.66,0,0,0-.38,5.16h0C340-243.31,349.85-246.21,369.33-252c8-2.36,17.71-5.25,31.83-5.46a3.79,3.79,0,0,0,2.15-.54,3.67,3.67,0,0,0,1.2-5l-3.12,1.92Zm-83.91-19.56Q370.7-296,394.67-264.48c-11.77.85-20.29,3.37-27.42,5.49-15.76,4.67-24,7.11-49.77-21.68h0" transform="translate(693.9 468.43)"/><path id="path268" class="cls-4" d="M375.78-268.67a1.63,1.63,0,0,1,1.05,2,1.61,1.61,0,0,1-2,1q-16.35-5.28-32.19-8.8a307,307,0,0,0-31.19-5.33,1.63,1.63,0,0,1-1.42-1.8,1.61,1.61,0,0,1,1.79-1.41,310.33,310.33,0,0,1,31.53,5.38q16,3.57,32.47,8.88Zm-.2,7.38a1.61,1.61,0,0,1,1.13,2,1.62,1.62,0,0,1-2,1.14q-16.67-4.59-31.64-8.56-14.74-3.94-26.84-7a1.64,1.64,0,0,1-1.18-2,1.64,1.64,0,0,1,2-1.17q12.39,3.13,26.88,7Q358.19-266.09,375.58-261.29Zm-.48-13.86A1.64,1.64,0,0,1,376-273a1.62,1.62,0,0,1-2.13.84,118.93,118.93,0,0,0-25.27-7.32,214.56,214.56,0,0,0-32.16-3.24,1.63,1.63,0,0,1-1.56-1.68A1.59,1.59,0,0,1,316.5-286a218.89,218.89,0,0,1,32.65,3.29,122.74,122.74,0,0,1,26,7.53" transform="translate(693.9 468.43)"/><path id="path269" class="cls-4" d="M310.06-214.4l3.65-.08q-1.12-62.68-56.12-80l-.29-.11a3.67,3.67,0,0,0-4.54,2.49h0c-14,47.82,15.36,61.27,39,72.14,6.11,2.81,11.81,5.42,15.91,8.33a3.61,3.61,0,0,0,2.42.85,3.65,3.65,0,0,0,3.59-3.72l-3.66.07Zm-51.27-72q43.69,15.54,47.32,65.24c-3.46-1.87-7.27-3.63-11.25-5.45-20.49-9.4-45.73-21-36.07-59.79" transform="translate(693.9 468.43)"/><path id="path270" class="cls-4" d="M280-329c5.11-6.3,10.72-13.19,19.15-19.82a3.65,3.65,0,0,0,1.38-1.73,3.65,3.65,0,0,0-2.1-4.72l-1.31,3.41,1.3-3.41q-23.44-9-45.32,3-21.12,11.61-40.45,43a3.61,3.61,0,0,0-.72,1.93,3.67,3.67,0,0,0,3.39,3.91h0c41.5,2.93,51.58-9.47,64.68-25.57Zm9.7-21.39a140.64,140.64,0,0,0-15.34,16.77C263.23-320,254.55-309.33,222-310.41q16.83-25.68,34.62-35.46,16.05-8.79,33.08-4.53" transform="translate(693.9 468.43)"/><path id="path271" class="cls-4" d="M148-284.67q7.36,25.67,44.41,56.54a3.66,3.66,0,0,0,3.33.92,3.65,3.65,0,0,0,2.76-4.38h0A70.46,70.46,0,0,1,197-247.21a115.28,115.28,0,0,1,1.75-18.74q4.11-24.15-3.41-40.89t-26.81-25.81a3.65,3.65,0,0,0-4.19.4h0q-24,20.65-16.29,47.57ZM190-239.91q-28.86-25.74-34.89-46.78-6.13-21.42,12.25-38.44,15.24,7.74,21.34,21.3,6.63,14.73,2.89,36.67a122.52,122.52,0,0,0-1.85,19.92q0,3.8.26,7.33" transform="translate(693.9 468.43)"/><path id="path272" class="cls-4" d="M165.79-404.52q19.72-7.85,40.22,2.68c-5.33,4.43-10.36,9.4-15.39,14.39-18.3,18.12-36.63,36.28-67.33,21.33q21.08-29.89,42.5-38.4Zm48.43-1.08q-25.89-15.72-51.13-5.71-24.71,9.82-48.2,44.47l3,2-3-2a3.66,3.66,0,0,0,1,5.08,3.62,3.62,0,0,0,.43.24c37.57,20.73,58.52,0,79.43-20.73,6.22-6.16,12.44-12.32,19-17.15l-2.15-3,2.17,3a3.65,3.65,0,0,0,.77-5.11,3.59,3.59,0,0,0-1.28-1.09h0" transform="translate(693.9 468.43)"/><path id="path273" class="cls-4" d="M18.61-346.93q4,15.27,14.73,33.8a4.22,4.22,0,0,0,.41.66,3.66,3.66,0,0,0,5.12.7v0Q60.63-328.35,68-353.25q7.22-24.53.32-56.92a4.35,4.35,0,0,0-.1-.52,3.65,3.65,0,0,0-4.47-2.6h0A95.05,95.05,0,0,0,40.09-404Q24.36-394.8,19-380.36t-.34,33.43ZM37.72-320.2q-8.64-15.58-12-28.59-4.41-16.86.13-29t18-19.87a82.68,82.68,0,0,1,18.09-7.52q5.43,28.41-.89,49.87A71.33,71.33,0,0,1,37.72-320.2" transform="translate(693.9 468.43)"/><path id="path274" class="cls-4" d="M25.37-457.48a111.79,111.79,0,0,1,7.26-10.95h-9q-3.42,5.07-6.61,10.91a3.52,3.52,0,0,0-.4.8A3.65,3.65,0,0,0,18.8-452h0c42.09,15.45,54.85,1.25,69.17-16.39H78.48c-10.8,12.54-22.73,21.06-53.11,10.95" transform="translate(693.9 468.43)"/><path id="path275" class="cls-4" d="M-67.12-468.43l-.33.84q-8.51,22.5.35,58v0a3.66,3.66,0,0,0,4.43,2.65A3.66,3.66,0,0,0-60.81-408c4.38-4.39,9.47-8.7,14.56-13,16.41-13.92,32.86-27.86,31.65-47.4h-8c.88,17-13.76,29.43-28.37,41.82-3.55,3-7.09,6-10.48,9.12q-6.15-29.1.82-47.52c.45-1.18.93-2.31,1.46-3.42h-8" transform="translate(693.9 468.43)"/><path id="path276" class="cls-4" d="M-138.95-468.43c1.48,1.28,3,2.58,4.57,3.87l2.33-2.81-2.33,2.81a3.65,3.65,0,0,0,5.15-.49,3.66,3.66,0,0,0,.77-3l-.06-.35h-10.43" transform="translate(693.9 468.43)"/><path id="path277" class="cls-4" d="M251.94-290.68a1.63,1.63,0,0,1-.57-2.23,1.64,1.64,0,0,1,2.23-.56A101.94,101.94,0,0,1,281-269.63a134.54,134.54,0,0,1,19.88,34.55A1.62,1.62,0,0,1,300-233a1.62,1.62,0,0,1-2.1-.9,131.82,131.82,0,0,0-19.42-33.72,98.52,98.52,0,0,0-26.55-23.09h0" transform="translate(693.9 468.43)"/><path id="path278" class="cls-4" d="M296.94-233.19a1.61,1.61,0,0,1-.29,2.27,1.62,1.62,0,0,1-2.27-.29q-12.13-15.54-21.66-29.86a318.33,318.33,0,0,1-16.45-27.38,1.64,1.64,0,0,1,.66-2.2,1.64,1.64,0,0,1,2.2.66,311.73,311.73,0,0,0,16.29,27.12q9.45,14.2,21.52,29.68h0" transform="translate(693.9 468.43)"/><path id="path279" class="cls-4" d="M285.23-236.13a1.62,1.62,0,0,1-.17,2.28,1.63,1.63,0,0,1-2.29-.18Q268.13-251,261.82-265q-6.44-14.21-4.29-25.33a1.61,1.61,0,0,1,1.9-1.28,1.61,1.61,0,0,1,1.29,1.89q-2,10.13,4,23.37,6.14,13.53,20.46,30.18" transform="translate(693.9 468.43)"/><path id="path280" class="cls-4" d="M270.61-346.76a1.63,1.63,0,0,1,2,1.17,1.63,1.63,0,0,1-1.16,2,78.06,78.06,0,0,0-25.71,12.06,105.67,105.67,0,0,0-22.49,22.12,1.62,1.62,0,0,1-2.27.3,1.62,1.62,0,0,1-.3-2.27,108.79,108.79,0,0,1,23.18-22.79,81.44,81.44,0,0,1,26.76-12.57" transform="translate(693.9 468.43)"/><path id="path281" class="cls-4" d="M268.81-339.52a1.63,1.63,0,0,1,2.24.53,1.63,1.63,0,0,1-.54,2.23q-10.53,6.47-22.8,13.15t-26.32,13.66a1.62,1.62,0,0,1-2.17-.73,1.62,1.62,0,0,1,.73-2.17q13.89-6.88,26.2-13.6t22.66-13.07h0" transform="translate(693.9 468.43)"/><path id="path282" class="cls-4" d="M280.61-343.59a1.63,1.63,0,0,1,2.28.24,1.62,1.62,0,0,1-.23,2.28q-35.78,29.22-64.27,34.23a1.62,1.62,0,0,1-1.88-1.31,1.64,1.64,0,0,1,1.32-1.88q27.66-4.86,62.78-33.56h0" transform="translate(693.9 468.43)"/><path id="path283" class="cls-4" d="M183.05-400.25A1.61,1.61,0,0,1,185-399a1.61,1.61,0,0,1-1.27,1.91A114.94,114.94,0,0,0,152.63-386a124.48,124.48,0,0,0-27.43,19.93,1.61,1.61,0,0,1-2.29-.05,1.63,1.63,0,0,1,.06-2.3,127.53,127.53,0,0,1,28.14-20.44,118,118,0,0,1,31.94-11.38h0" transform="translate(693.9 468.43)"/><path id="path284" class="cls-4" d="M193.15-399a1.63,1.63,0,0,1,2.24.52,1.61,1.61,0,0,1-.52,2.22,270.28,270.28,0,0,1-36.4,19.07,300.14,300.14,0,0,1-40.12,14,1.62,1.62,0,0,1-2-1.13,1.63,1.63,0,0,1,1.14-2,296.79,296.79,0,0,0,39.68-13.81,267.43,267.43,0,0,0,36-18.84" transform="translate(693.9 468.43)"/><path id="path285" class="cls-4" d="M186-387.49a1.62,1.62,0,0,1,2.25.44,1.63,1.63,0,0,1-.44,2.25,130.2,130.2,0,0,1-34.08,16.57,113,113,0,0,1-35.81,5.06,1.64,1.64,0,0,1-1.59-1.66,1.62,1.62,0,0,1,1.65-1.58,110.22,110.22,0,0,0,34.79-4.92A127.21,127.21,0,0,0,186-387.49" transform="translate(693.9 468.43)"/><path id="path286" class="cls-4" d="M191.57-254.15a1.63,1.63,0,0,1-1.62,1.63,1.63,1.63,0,0,1-1.62-1.63,134.35,134.35,0,0,0-5.86-40.61,106,106,0,0,0-17.54-33.48,1.61,1.61,0,0,1,.29-2.27,1.63,1.63,0,0,1,2.27.28,109,109,0,0,1,18.06,34.48,137.38,137.38,0,0,1,6,41.6h0" transform="translate(693.9 468.43)"/><path id="path287" class="cls-4" d="M183-254.59a1.63,1.63,0,0,1-1.42,1.82,1.64,1.64,0,0,1-1.8-1.43q-2.81-24.07-6.64-43.09a253.31,253.31,0,0,0-8.74-33,1.63,1.63,0,0,1,1-2.07,1.64,1.64,0,0,1,2.07,1,256.29,256.29,0,0,1,8.85,33.41q3.89,19.2,6.69,43.36h0" transform="translate(693.9 468.43)"/><path id="path288" class="cls-4" d="M176-263.57a1.62,1.62,0,0,1-.92,2.1,1.62,1.62,0,0,1-2.1-.92q-7.47-19.14-9-35.62a75.94,75.94,0,0,1,3-30.52,1.61,1.61,0,0,1,2-1,1.61,1.61,0,0,1,1,2,72.53,72.53,0,0,0-2.85,29.21q1.47,16,8.76,34.75h0" transform="translate(693.9 468.43)"/><path id="path289" class="cls-4" d="M62.78-408a1.63,1.63,0,0,1,2.27.35,1.61,1.61,0,0,1-.35,2.25q-19.15,14.16-27.05,29.32a45.81,45.81,0,0,0-4.58,31,1.61,1.61,0,0,1-1.27,1.91,1.62,1.62,0,0,1-1.91-1.27,49,49,0,0,1,4.88-33.16q8.23-15.8,28-30.41h0" transform="translate(693.9 468.43)"/><path id="path290" class="cls-4" d="M63.89-408.79a1.6,1.6,0,0,1,2.28,0,1.6,1.6,0,0,1,0,2.28,85.53,85.53,0,0,0-18.61,29.22q-6.41,16.68-6.94,37.44A1.64,1.64,0,0,1,39-338.28a1.63,1.63,0,0,1-1.58-1.67q.56-21.32,7.16-38.52a88.8,88.8,0,0,1,19.33-30.32h0" transform="translate(693.9 468.43)"/><path id="path291" class="cls-4" d="M51.13-341.85a1.6,1.6,0,0,1-1.78,1.42,1.62,1.62,0,0,1-1.44-1.78,321.53,321.53,0,0,1,6.32-38.24,138.26,138.26,0,0,1,9.35-27.91,1.62,1.62,0,0,1,2.17-.76,1.62,1.62,0,0,1,.76,2.16,135.81,135.81,0,0,0-9.13,27.24,319.19,319.19,0,0,0-6.25,37.87" transform="translate(693.9 468.43)"/><path id="path292" class="cls-4" d="M40.35-468.43a151.23,151.23,0,0,0-17.43,14,1.62,1.62,0,0,1-2.29-.08,1.62,1.62,0,0,1,.08-2.29,156.17,156.17,0,0,1,14.06-11.67h5.58" transform="translate(693.9 468.43)"/><path id="path293" class="cls-4" d="M48.52-468.43a216.89,216.89,0,0,0-27,15.3,1.63,1.63,0,0,1-2.25-.43,1.62,1.62,0,0,1,.43-2.25,210.7,210.7,0,0,1,21.54-12.62h7.26" transform="translate(693.9 468.43)"/><path id="path294" class="cls-4" d="M73.14-468.43a131.77,131.77,0,0,1-17,6.75,156.16,156.16,0,0,1-35.22,6.77,1.62,1.62,0,0,1-1.74-1.49,1.62,1.62,0,0,1,1.48-1.75,152.23,152.23,0,0,0,34.5-6.61c3.42-1.11,6.77-2.32,10-3.67h8" transform="translate(693.9 468.43)"/><path id="path295" class="cls-4" d="M-48.15-468.43q-6.27,13.44-9.78,32.3a1.63,1.63,0,0,1-1.9,1.29,1.61,1.61,0,0,1-1.29-1.89,141.46,141.46,0,0,1,9.4-31.7h3.57" transform="translate(693.9 468.43)"/><path id="path296" class="cls-4" d="M-37.7-468.43q-1.75,4.6-3.54,9.11-6.87,17.38-13.91,33a1.62,1.62,0,0,1-2.14.8,1.62,1.62,0,0,1-.81-2.15q7-15.58,13.85-32.83,1.55-3.92,3.08-7.92h3.47" transform="translate(693.9 468.43)"/><path id="path297" class="cls-4" d="M-28.21-468.43q-1.08,6-2.75,11.86A124.46,124.46,0,0,1-47-422a1.63,1.63,0,0,1-2.26.45,1.63,1.63,0,0,1-.45-2.25,121,121,0,0,0,15.63-33.63q1.55-5.4,2.57-11h3.3" transform="translate(693.9 468.43)"/><path id="path298" class="cls-2" d="M757.32-296.25q-32.24,26.25-72,5.9c3-1.77,6.16-3.88,9.42-6.08,16.72-11.32,37.34-25.26,62.57.18ZM792-242.81a126.6,126.6,0,0,0-5.72-19.56c-5.28-14.82-9.42-26.43,6.57-50.91q11.83,24.84,11,43A39.54,39.54,0,0,1,792-242.81ZM753.76-370.59q33.16-10.14,52.08-5,19.26,5.26,23.73,27.27-13,8.08-26.24,6.44-14.36-1.79-29.42-14.85a109.57,109.57,0,0,0-14.4-10.68c-2-1.19-3.86-2.26-5.75-3.22Zm137.35,58.07q-3.18,18.76-20.78,29.57c-.9-6.14-2.37-12.32-3.85-18.49-5.37-22.44-10.76-44.93,15-61.49q13.08,30.06,9.64,50.41Zm49.36-70.43V-393.8c-.16.65-.32,1.31-.51,2q-24.29-9.06-37.79-23.86a64.12,64.12,0,0,1-16.09-34.16,113.44,113.44,0,0,1,27.51,4.06q15,4.47,22.17,13.6a30.48,30.48,0,0,1,4.71,8.54v-13.14q-8.49-10.33-25-15.26-13.56-4.05-32.74-4.44a3.28,3.28,0,0,0-.7,0,3.28,3.28,0,0,0-2.92,3.6h0q2.55,24.38,18.22,41.58,13.2,14.51,35.66,23.76c-33.5,9.91-66.28,21-97.28,36.67q-5.57-24.8-28.16-31-23.09-6.3-64,7.72a3.28,3.28,0,0,0-2.27,2.12,3.28,3.28,0,0,0,2.07,4.15h0a62.87,62.87,0,0,1,12.7,6.09,104.16,104.16,0,0,1,13.54,10.05q16.59,14.38,32.9,16.42a49,49,0,0,0,5.11.32,294.82,294.82,0,0,0-45,34.84c-29.24-30.3-52.62-14.5-71.55-1.68-5,3.37-9.65,6.52-13.79,8.3a3.24,3.24,0,0,0-1.77,1.46,3.27,3.27,0,0,0,1.17,4.48l1.66-2.83-1.64,2.83Q712.5-266.73,743-279.8q-7.8,8.9-15.22,18.85c-41.32,7.15-43.66,16-48.24,33.4-1.9,7.19-4.22,16-10.62,26.92a3.27,3.27,0,0,0-.59,1.9,3.29,3.29,0,0,0,3.29,3.26v-3.28l0,3.27q46.82-.24,61.49-61.47c0-.12.08-.25.11-.37a289.13,289.13,0,0,1,49.34-51.63c-12,21.9-7.76,33.87-2.45,48.75,2.44,6.85,5.11,14.36,6.27,23.89a3.22,3.22,0,0,0,.68,1.87,3.29,3.29,0,0,0,4.6.59l-2-2.59,2,2.59q17.79-13.8,18.77-36.12.91-21.18-13.56-49.9c21.37-15.28,44.05-27.16,67.56-37-14,16.94-9.15,37-4.36,57,1.83,7.64,3.65,15.27,4.31,22.52l3.25-.28-3.27.3a3.28,3.28,0,0,0,3.56,3,3.12,3.12,0,0,0,1.43-.48q24.08-12.52,28.15-36.51,3.8-22.4-10.2-54.41C904.75-372.19,922.51-377.71,940.47-382.95Zm-214.82,129q-13,47.9-48.3,51.6a108.64,108.64,0,0,0,8.56-23.56c3.74-14.24,5.73-21.72,39.74-28" transform="translate(693.9 468.43)"/><path id="path299" class="cls-2" d="M820.75-157.12q-32.25,26.26-72,5.91c3-1.78,6.16-3.88,9.41-6.08,16.74-11.32,37.35-25.27,62.58.17Zm34.7,53.44a125.82,125.82,0,0,0-5.72-19.56c-5.28-14.81-9.41-26.43,6.58-50.91q11.85,24.84,11.05,43Q866.66-114.74,855.45-103.68ZM817.19-231.45q33.15-10.14,52.08-5,19.26,5.25,23.73,27.26-13,8.09-26.24,6.44-14.35-1.77-29.43-14.85a109.8,109.8,0,0,0-14.4-10.68c-1.93-1.19-3.85-2.25-5.74-3.21Zm123.28,91.06v-8.28a53.68,53.68,0,0,1-6.71,4.86c-.89-6.15-2.37-12.32-3.85-18.5-5-21.05-10.08-42.14,10.56-58.36v-9.2a434.26,434.26,0,0,0-41.34,18.12q-5.55-24.81-28.16-31Q847.9-249,807-235a3.26,3.26,0,0,0-2.26,2.12,3.26,3.26,0,0,0,2.06,4.14h0a62.69,62.69,0,0,1,12.71,6.09,103.56,103.56,0,0,1,13.53,10.06Q849.66-198.24,866-196.2a46.3,46.3,0,0,0,5.12.32,293.22,293.22,0,0,0-45,34.84c-29.26-30.29-52.63-14.49-71.56-1.68-5,3.37-9.66,6.52-13.78,8.31A3.21,3.21,0,0,0,739-153a3.27,3.27,0,0,0,1.17,4.48l1.65-2.83-1.64,2.83q35.8,20.88,66.32,7.81-7.77,8.91-15.21,18.86c-41.32,7.14-43.67,16-48.24,33.4-1.89,7.18-4.23,16-10.61,26.92a3.15,3.15,0,0,0-.6,1.89,3.26,3.26,0,0,0,3.29,3.25v-3.26l0,3.26q46.83-.24,61.5-61.46a2.66,2.66,0,0,0,.1-.38A289.45,289.45,0,0,1,846-169.81c-12,21.89-7.76,33.86-2.45,48.74,2.44,6.86,5.1,14.36,6.26,23.9a3.36,3.36,0,0,0,.68,1.86,3.28,3.28,0,0,0,4.6.59l-2-2.59,2,2.59q17.8-13.8,18.78-36.12.92-21.18-13.56-49.89c21.37-15.28,44-27.16,67.56-37-13.95,16.92-9.15,37-4.36,57,1.82,7.64,3.65,15.26,4.3,22.52l3.26-.28-3.27.29a3.28,3.28,0,0,0,3.56,3,3.24,3.24,0,0,0,1.43-.48,68.4,68.4,0,0,0,7.64-4.6ZM789.08-114.8q-13,47.9-48.31,51.6a106.88,106.88,0,0,0,8.56-23.56c3.76-14.24,5.74-21.72,39.75-28h0" transform="translate(693.9 468.43)"/><path id="path300" class="cls-2" d="M-523.8,355.75q32.23-26.26,72-5.91c-3,1.77-6.16,3.88-9.41,6.08-16.73,11.32-37.35,25.27-62.58-.17Zm-34.7-53.44a125.87,125.87,0,0,0,5.71,19.56c5.28,14.82,9.42,26.42-6.57,50.9q-11.85-24.84-11.06-43,.72-16.39,11.92-27.45Zm38.26,127.77q-33.15,10.14-52.07,5-19.28-5.27-23.75-27.25,13-8.09,26.25-6.44,14.35,1.75,29.43,14.84A110.71,110.71,0,0,0-526,426.87q2.91,1.77,5.74,3.21ZM-657.58,372q3.18-18.75,20.77-29.56c.9,6.14,2.38,12.31,3.85,18.48,5.38,22.46,10.75,44.94-15,61.51Q-661,392.38-657.58,372ZM-692.9,450v7.28a84.11,84.11,0,0,1,24.25,18,64,64,0,0,1,16.09,34.15,113.66,113.66,0,0,1-27.5-4.07,55.15,55.15,0,0,1-12.84-5.51v7.48a65.62,65.62,0,0,0,11,4.3q13.56,4,32.74,4.44a4.09,4.09,0,0,0,.7,0,3.28,3.28,0,0,0,2.92-3.6h0q-2.56-24.39-18.23-41.59Q-675,458.5-692.9,450Zm0-11.71v6.83c31.21-9.41,61.75-20,90.72-34.71q5.55,24.83,28.15,31,23.1,6.31,64-7.72a3.28,3.28,0,0,0,2.26-2.12,3.29,3.29,0,0,0-2.06-4.15v0a62.41,62.41,0,0,1-12.7-6.1,102.4,102.4,0,0,1-13.53-10q-16.6-14.4-32.91-16.41a44.11,44.11,0,0,0-5.11-.33,295.87,295.87,0,0,0,45-34.83c29.24,30.29,52.62,14.48,71.55,1.68,5-3.39,9.65-6.53,13.78-8.32a3.3,3.3,0,0,0,1.79-1.45,3.27,3.27,0,0,0-1.19-4.48l-1.65,2.82,1.64-2.82q-35.81-20.87-66.32-7.82,7.8-8.9,15.22-18.84c41.32-7.16,43.66-16,48.24-33.4,1.9-7.2,4.22-16,10.62-26.93a3.31,3.31,0,0,0,.59-1.89,3.28,3.28,0,0,0-3.3-3.26l0,3.27,0-3.27q-46.83.24-61.5,61.48a2.42,2.42,0,0,0-.1.36,288.88,288.88,0,0,1-49.36,51.63c12-21.89,7.77-33.87,2.47-48.75-2.44-6.84-5.12-14.36-6.27-23.89a3.26,3.26,0,0,0-.69-1.87,3.29,3.29,0,0,0-4.6-.58l2,2.6-2-2.59Q-576,307.15-577,329.48q-.91,21.16,13.56,49.88c-21.38,15.28-44.05,27.17-67.55,37.05,13.93-16.93,9.14-37,4.35-57-1.82-7.64-3.65-15.27-4.3-22.52l-3.25.28,3.26-.29a3.28,3.28,0,0,0-3.56-3,3.47,3.47,0,0,0-1.43.48Q-660,346.93-664,370.92q-3.79,22.4,10.21,54.43c-12.85,4.66-25.9,8.9-39.08,12.9Zm200.77-124.82q13-47.91,48.3-51.6a107.21,107.21,0,0,0-8.56,23.56c-3.75,14.24-5.72,21.72-39.74,28" transform="translate(693.9 468.43)"/><path id="path301" class="cls-2" d="M-504.62,522.63q32.24-26.25,72-5.91c-3,1.79-6.16,3.89-9.41,6.09-16.73,11.32-37.35,25.27-62.58-.18Zm-34.7-53.44a125.69,125.69,0,0,0,5.71,19.57c5.28,14.81,9.42,26.41-6.57,50.89q-11.85-24.84-11.06-43,.72-16.38,11.92-27.45ZM-501.06,597q-33.15,10.14-52.07,5-19.27-5.28-23.74-27.26,13-8.08,26.24-6.44,14.36,1.75,29.43,14.85a111.51,111.51,0,0,0,14.4,10.67C-504.86,595-502.95,596-501.06,597ZM-638.4,538.89q3.18-18.75,20.77-29.56c.9,6.15,2.38,12.31,3.86,18.5,5.37,22.44,10.74,44.93-15,61.49q-13.1-30.06-9.64-50.43Zm5,137.34a112.68,112.68,0,0,1-27.5-4.07q-15-4.45-22.17-13.59t-6.86-23a74,74,0,0,1,2.65-17.36q24.28,9.06,37.79,23.88a64,64,0,0,1,16.09,34.15Zm-59.52-65.42v44a36,36,0,0,0,4.7,7.82q8.49,10.75,25.45,15.81,13.56,4,32.74,4.43a4.09,4.09,0,0,0,.7,0,3.28,3.28,0,0,0,2.92-3.6h0q-2.57-24.39-18.23-41.58-13.22-14.49-35.66-23.76c33.5-9.9,66.29-21,97.29-36.66q5.55,24.79,28.15,31,23.1,6.32,64-7.71a3.3,3.3,0,0,0,2.26-2.12,3.29,3.29,0,0,0-2.07-4.16v0a63.31,63.31,0,0,1-12.7-6.08,103.56,103.56,0,0,1-13.53-10.06c-11.07-9.58-22-15.08-32.91-16.41a42,42,0,0,0-5.11-.32,295.31,295.31,0,0,0,45-34.84c29.24,30.29,52.62,14.49,71.55,1.68,5-3.37,9.65-6.53,13.78-8.32a3.22,3.22,0,0,0,1.79-1.45A3.28,3.28,0,0,0-424,514l-1.66,2.82L-424,514q-35.79-20.87-66.32-7.8,7.8-8.93,15.22-18.86c41.32-7.16,43.66-16,48.24-33.4,1.9-7.18,4.22-16,10.62-26.93a3.23,3.23,0,0,0,.59-1.88,3.29,3.29,0,0,0-3.3-3.27l0,3.28,0-3.28q-46.83.27-61.5,61.48c0,.12-.07.24-.1.36a288.94,288.94,0,0,1-49.36,51.64c12-21.9,7.77-33.88,2.47-48.76-2.44-6.84-5.12-14.34-6.27-23.88a3.16,3.16,0,0,0-.69-1.86,3.26,3.26,0,0,0-4.59-.59l2,2.59-2-2.59q-17.81,13.78-18.78,36.12-.91,21.17,13.56,49.88c-21.38,15.29-44,27.17-67.55,37,13.94-16.93,9.14-37,4.35-57-1.82-7.63-3.65-15.25-4.3-22.52l-3.25.28,3.26-.29a3.28,3.28,0,0,0-3.56-3,3.52,3.52,0,0,0-1.42.48q-24.09,12.52-28.16,36.52-3.79,22.38,10.21,54.42c-19.06,6.93-38.56,12.9-58.26,18.58Zm220-130.5q13-47.91,48.31-51.59a107,107,0,0,0-8.56,23.55c-3.76,14.24-5.73,21.73-39.75,28h0" transform="translate(693.9 468.43)"/><path id="path302" class="cls-4" d="M-692.9,675.52c62.79-37.09,128.48-66.31,215.37-56.27l-.72,6.22c-86.41-10-151.81,19.89-214.65,57.3v-7.25h0" transform="translate(693.9 468.43)"/><path id="path303" class="cls-4" d="M-403,619l2.3,2.12q-30.26,32.91-82.95,4a3.07,3.07,0,0,1-1.22-.94,3.13,3.13,0,0,1,.52-4.4v0c32.7-25.75,40.47-21.7,55.9-13.67,6.3,3.28,14,7.31,25.85,9.8a3.15,3.15,0,0,1,1.71.8,3.14,3.14,0,0,1,.19,4.43Zm-73.69,2.72q42.21,21.57,67.49-1a103,103,0,0,1-22.14-9.09c-12.47-6.5-19-9.91-45.35,10.08" transform="translate(693.9 468.43)"/><path id="path304" class="cls-4" d="M-425.74,621.11a1.4,1.4,0,0,0,1.21-1.55,1.38,1.38,0,0,0-1.54-1.2q-14.61,1.75-28.48,2.15a262.92,262.92,0,0,1-27.08-.63,1.39,1.39,0,0,0-1.48,1.28,1.37,1.37,0,0,0,1.27,1.48,263,263,0,0,0,27.37.63q14-.39,28.73-2.16Zm1-6.23a1.37,1.37,0,0,0,1.28-1.48,1.38,1.38,0,0,0-1.49-1.28q-14.74,1.13-28,2-13,.9-23.69,1.49a1.4,1.4,0,0,0-1.31,1.47,1.39,1.39,0,0,0,1.46,1.3q10.92-.61,23.73-1.49,12.61-.85,28-2Zm-2.66,11.56a1.39,1.39,0,0,0,1.06-1.65,1.39,1.39,0,0,0-1.65-1.06,102,102,0,0,1-22.42,2,186,186,0,0,1-27.55-2.53,1.39,1.39,0,0,0-1.59,1.14,1.39,1.39,0,0,0,1.15,1.6,188.7,188.7,0,0,0,28,2.56,104.7,104.7,0,0,0,23-2.09h0" transform="translate(693.9 468.43)"/><path id="path305" class="cls-4" d="M-472.09,564.79l3.06.65q-11.19,52.48-60.22,58l-.26,0a3.13,3.13,0,0,1-3.4-2.83h0c-3.94-42.45,22.91-49,44.58-54.24,5.59-1.36,10.81-2.63,14.72-4.39a3.14,3.14,0,0,1,2.18-.33,3.12,3.12,0,0,1,2.4,3.72l-3.06-.65Zm-54.83,52.06q39.25-5.9,50.41-47.08c-3.2,1-6.7,1.87-10.34,2.75-18.74,4.56-41.84,10.16-40.07,44.33" transform="translate(693.9 468.43)"/><path id="path306" class="cls-4" d="M-516.11,656.15c3.27,6.13,6.86,12.84,12.85,19.78a3.11,3.11,0,0,1,.88,1.68,3.14,3.14,0,0,1-2.54,3.63l-.54-3.08.54,3.07q-21.18,3.74-37.59-9.94-15.84-13.17-27-42.72a3.18,3.18,0,0,1-.29-1.74,3.12,3.12,0,0,1,3.49-2.72h0c35.34,4.3,41.79,16.37,50.16,32Zm4.66,19.56a120.4,120.4,0,0,1-10.16-16.6c-7.08-13.26-12.62-23.63-40.19-28.06q9.94,24.33,23.3,35.44a37.81,37.81,0,0,0,27.05,9.22" transform="translate(693.9 468.43)"/><path id="path307" class="cls-4" d="M-619.69,597.35q10.38-20.37,46.54-40.24a3.11,3.11,0,0,1,2.95-.23,3.11,3.11,0,0,1,1.61,4.12h0a60.21,60.21,0,0,0-3.86,12.88,98.67,98.67,0,0,0-1.59,16q-.5,21-9.54,33.8T-610.33,641a3.16,3.16,0,0,1-3.46-1v0Q-630.57,618.71-619.69,597.35Zm42.52-30.75q-28.46,16.9-37,33.6-8.65,17,4,34.29,14.07-4,21.41-14.41,8-11.28,8.41-30.33a104.68,104.68,0,0,1,1.71-17c.4-2.12.88-4.16,1.41-6.11" transform="translate(693.9 468.43)"/><path id="path308" class="cls-4" d="M-624.36,701q15.3,9.79,34.24,4.32c-3.76-4.59-7.18-9.6-10.59-14.62-12.41-18.21-24.85-36.45-53.09-28.9Q-641,690.31-624.36,701Zm40.52,8.81q-24.31,9-43.89-3.56Q-646.9,693.92-661,661l2.88-1.22L-661,661a3.13,3.13,0,0,1,1.65-4.1,2.21,2.21,0,0,1,.41-.14c34.95-11.28,49.16,9.58,63.34,30.4,4.22,6.19,8.44,12.38,13.15,17.51l-2.29,2.11,2.31-2.11a3.12,3.12,0,0,1-.19,4.41,3,3,0,0,1-1.25.71h0" transform="translate(693.9 468.43)"/><path id="path309" class="cls-4" d="M-692.9,754.73v14.75c1.72-.16,3.47-.37,5.25-.64h0a3.12,3.12,0,0,0,2.62-3.56,3.12,3.12,0,0,0-1-1.89,59.37,59.37,0,0,1-6.83-8.66" transform="translate(693.9 468.43)"/><path id="path310" class="cls-4" d="M-533.38,619.37a1.4,1.4,0,0,0-.84,1.78,1.4,1.4,0,0,0,1.78.84,87.24,87.24,0,0,0,26.93-15.55,115.45,115.45,0,0,0,22.35-25.77,1.39,1.39,0,0,0-.41-1.92,1.38,1.38,0,0,0-1.91.4,113.13,113.13,0,0,1-21.82,25.17,84.61,84.61,0,0,1-26.08,15h0" transform="translate(693.9 468.43)"/><path id="path311" class="cls-4" d="M-486.19,578.43a1.38,1.38,0,0,0,.13-2,1.38,1.38,0,0,0-2-.12q-12.72,11.07-23.07,21.54t-18.29,20.32a1.37,1.37,0,0,0,.2,1.95,1.37,1.37,0,0,0,1.95-.2q7.86-9.74,18.11-20.12t22.93-21.41h0" transform="translate(693.9 468.43)"/><path id="path312" class="cls-4" d="M-496.5,579a1.39,1.39,0,0,0,.23-2,1.39,1.39,0,0,0-2-.23q-15.09,11.91-22.66,22.58-7.73,10.88-7.73,20.57a1.37,1.37,0,0,0,1.38,1.39,1.39,1.39,0,0,0,1.39-1.39q0-8.81,7.22-19,7.36-10.38,22.12-22" transform="translate(693.9 468.43)"/><path id="path313" class="cls-4" d="M-526.85,669.53a1.38,1.38,0,0,0,1.85-.65,1.39,1.39,0,0,0-.65-1.85,66.82,66.82,0,0,1-19.63-14.34,90.18,90.18,0,0,1-15.28-22.26,1.4,1.4,0,0,0-1.86-.62,1.4,1.4,0,0,0-.62,1.87,92.9,92.9,0,0,0,15.75,22.92,69.13,69.13,0,0,0,20.44,14.93h0" transform="translate(693.9 468.43)"/><path id="path314" class="cls-4" d="M-527.18,663.16a1.39,1.39,0,0,0,2-.08,1.38,1.38,0,0,0-.09-2q-7.79-7.14-17-14.77t-19.88-15.78a1.39,1.39,0,0,0-1.95.26,1.38,1.38,0,0,0,.26,1.94q10.54,8.07,19.79,15.71t16.91,14.68" transform="translate(693.9 468.43)"/><path id="path315" class="cls-4" d="M-517.93,668.51a1.39,1.39,0,0,0,1.95.17,1.37,1.37,0,0,0,.17-1.95q-25.26-30.39-48.4-39.26a1.39,1.39,0,0,0-1.79.8,1.37,1.37,0,0,0,.8,1.78q22.44,8.63,47.27,38.46" transform="translate(693.9 468.43)"/><path id="path316" class="cls-4" d="M-609.16,700.19a1.4,1.4,0,0,0,1.81-.76,1.4,1.4,0,0,0-.75-1.82,97.72,97.72,0,0,1-24.29-14.37A106.1,106.1,0,0,1-652.18,662a1.39,1.39,0,0,0-1.94-.32,1.4,1.4,0,0,0-.32,1.94,109.23,109.23,0,0,0,20.3,21.77,101.23,101.23,0,0,0,25,14.79h0" transform="translate(693.9 468.43)"/><path id="path317" class="cls-4" d="M-600.47,700.79a1.39,1.39,0,0,0,2-.07,1.38,1.38,0,0,0-.06-2,233.24,233.24,0,0,0-27.48-22,254.86,254.86,0,0,0-31.42-18.29,1.37,1.37,0,0,0-1.86.62,1.4,1.4,0,0,0,.63,1.87,254.39,254.39,0,0,1,31.08,18.08,229.8,229.8,0,0,1,27.15,21.71h0" transform="translate(693.9 468.43)"/><path id="path318" class="cls-4" d="M-604.62,689.93a1.37,1.37,0,0,0,2,0,1.39,1.39,0,0,0,0-2,111.8,111.8,0,0,0-25.92-19.49,96.39,96.39,0,0,0-29.27-10.09,1.37,1.37,0,0,0-1.6,1.12,1.38,1.38,0,0,0,1.12,1.61,93.53,93.53,0,0,1,28.43,9.81,108.72,108.72,0,0,1,25.28,19h0" transform="translate(693.9 468.43)"/><path id="path319" class="cls-4" d="M-578.13,578.83a1.4,1.4,0,0,0-1.1-1.64,1.37,1.37,0,0,0-1.62,1.1,115,115,0,0,1-11.56,33.16,90.61,90.61,0,0,1-20.21,25.26,1.4,1.4,0,0,0-.13,2,1.39,1.39,0,0,0,2,.13,93.33,93.33,0,0,0,20.81-26,117.65,117.65,0,0,0,11.85-34h0" transform="translate(693.9 468.43)"/><path id="path320" class="cls-4" d="M-585.44,577.77a1.38,1.38,0,0,0-.89-1.74,1.39,1.39,0,0,0-1.75.9q-6.28,19.79-12.62,35.12a216.44,216.44,0,0,1-12.73,26.28,1.4,1.4,0,0,0,.49,1.91,1.4,1.4,0,0,0,1.9-.49,220.16,220.16,0,0,0,12.9-26.64q6.4-15.51,12.7-35.34h0" transform="translate(693.9 468.43)"/><path id="path321" class="cls-4" d="M-592.76,584.2a1.39,1.39,0,0,0-.43-1.92,1.38,1.38,0,0,0-1.92.43,113.05,113.05,0,0,0-13.36,28.46,65,65,0,0,0-2.46,26.14,1.38,1.38,0,0,0,1.54,1.21,1.39,1.39,0,0,0,1.21-1.55,62.28,62.28,0,0,1,2.38-25,110.09,110.09,0,0,1,13-27.75" transform="translate(693.9 468.43)"/><path id="path322" class="cls-4" d="M-692.9,848.05c72.17-44.9,144.33-85.88,244.92-74.26l-.72,6.21c-100-11.56-171.88,30.29-244.2,75.41v-7.36h0" transform="translate(693.9 468.43)"/><path id="path323" class="cls-4" d="M-373.43,773.48l2.29,2.12q-30.25,32.92-82.94,4a3.17,3.17,0,0,1-1.23-.93,3.13,3.13,0,0,1,.52-4.4h0c32.7-25.75,40.47-21.69,55.9-13.67,6.3,3.28,14,7.31,25.85,9.8a3.12,3.12,0,0,1,1.71.8,3.13,3.13,0,0,1,.19,4.43l-2.3-2.12Zm-73.7,2.72q42.21,21.59,67.5-1a102.42,102.42,0,0,1-22.15-9.09c-12.47-6.49-19-9.91-45.35,10.08h0" transform="translate(693.9 468.43)"/><path id="path324" class="cls-4" d="M-396.19,775.64a1.38,1.38,0,0,0,1.21-1.55,1.39,1.39,0,0,0-1.54-1.2q-14.6,1.77-28.48,2.15a263,263,0,0,1-27.08-.63,1.39,1.39,0,0,0-1.48,1.28,1.37,1.37,0,0,0,1.27,1.48,260.36,260.36,0,0,0,27.37.63q14-.37,28.73-2.16Zm1-6.23a1.37,1.37,0,0,0,1.27-1.48,1.38,1.38,0,0,0-1.49-1.28q-14.73,1.13-28,2-13,.89-23.69,1.49a1.4,1.4,0,0,0-1.31,1.47,1.4,1.4,0,0,0,1.47,1.31q10.9-.63,23.72-1.5,12.62-.86,28-2ZM-397.81,781a1.39,1.39,0,0,0,1.06-1.65,1.39,1.39,0,0,0-1.65-1.05,102.78,102.78,0,0,1-22.43,2,186,186,0,0,1-27.55-2.53,1.39,1.39,0,0,0-1.59,1.16,1.39,1.39,0,0,0,1.15,1.59,190.06,190.06,0,0,0,28,2.56,104.76,104.76,0,0,0,23-2.1h0" transform="translate(693.9 468.43)"/><path id="path325" class="cls-4" d="M-442.54,719.32l3.06.65q-11.19,52.49-60.22,58l-.26,0a3.14,3.14,0,0,1-3.41-2.83h0c-3.94-42.45,22.91-49,44.58-54.24,5.59-1.36,10.81-2.62,14.72-4.38a3.14,3.14,0,0,1,2.18-.34,3.15,3.15,0,0,1,2.41,3.72l-3.07-.65Zm-54.83,52.07q39.25-5.91,50.41-47.08c-3.21,1-6.7,1.86-10.34,2.74-18.75,4.56-41.84,10.16-40.07,44.34" transform="translate(693.9 468.43)"/><path id="path326" class="cls-4" d="M-486.56,810.69c3.27,6.12,6.86,12.83,12.85,19.78a3.08,3.08,0,0,1,.88,1.68,3.13,3.13,0,0,1-2.54,3.62l-.54-3.08.54,3.07q-21.18,3.74-37.58-9.93-15.85-13.19-27-42.72a3.2,3.2,0,0,1-.29-1.75,3.14,3.14,0,0,1,3.49-2.72h0c35.34,4.31,41.79,16.37,50.16,32Zm4.66,19.55A119.67,119.67,0,0,1-492,813.64c-7.08-13.25-12.63-23.63-40.2-28q9.94,24.31,23.3,35.44a37.76,37.76,0,0,0,27.05,9.21h0" transform="translate(693.9 468.43)"/><path id="path327" class="cls-4" d="M-590.14,751.88q10.38-20.36,46.54-40.24a3.11,3.11,0,0,1,3-.23,3.12,3.12,0,0,1,1.61,4.12h0a60.39,60.39,0,0,0-3.86,12.88,99.94,99.94,0,0,0-1.59,16q-.5,21-9.54,33.8t-26.74,17.32a3.13,3.13,0,0,1-3.45-1h0Q-601,773.24-590.14,751.88Zm42.53-30.75q-28.47,16.9-37,33.6-8.67,17,4,34.3,14.07-4,21.41-14.42,8-11.28,8.41-30.33a104.91,104.91,0,0,1,1.71-17c.4-2.12.88-4.16,1.42-6.11h0" transform="translate(693.9 468.43)"/><path id="path328" class="cls-4" d="M-594.81,855.48q15.3,9.79,34.24,4.32c-3.76-4.59-7.18-9.6-10.59-14.61C-583.57,827-596,808.73-624.25,816.28q12.84,28.56,29.44,39.2Zm40.52,8.81q-24.32,9-43.89-3.56-19.17-12.27-33.23-45.22l2.88-1.23-2.88,1.23a3.12,3.12,0,0,1,1.65-4.11,1.87,1.87,0,0,1,.4-.13c35-11.28,49.16,9.57,63.35,30.4,4.22,6.18,8.43,12.37,13.14,17.5l-2.29,2.12,2.31-2.12a3.12,3.12,0,0,1-.19,4.42,3.12,3.12,0,0,1-1.25.7h0" transform="translate(693.9 468.43)"/><path id="path329" class="cls-4" d="M-688.63,763.71q-2.26,2.7-4.27,5.32v-9.94c.57-.66,1.15-1.34,1.75-2a2.59,2.59,0,0,1,.44-.5,3.13,3.13,0,0,1,4.42.26h0q15.59,17.48,17.68,39.6,2.05,21.78-9,47.88a3.47,3.47,0,0,1-.16.41,3.12,3.12,0,0,1-4.18,1.45h0a97.23,97.23,0,0,1-10.9-6.09v-7.63a77.47,77.47,0,0,0,10.66,6.62q9.21-23,7.41-42.06a61.14,61.14,0,0,0-13.8-33.3" transform="translate(693.9 468.43)"/><path id="path330" class="cls-4" d="M-692.9,913.28q12.1,5.84,28.06,4.59c-4.5-5.68-7.65-11.6-10.64-17.24-4.59-8.62-8.76-16.47-17.42-20.82v-7.2c12,4.52,17.18,14.27,22.93,25.08,3.58,6.74,7.39,13.94,13.45,20.23a3.1,3.1,0,0,1,1,1.89,3.12,3.12,0,0,1-2.62,3.56h0q-19.9,3-34.8-3v-7.07h0" transform="translate(693.9 468.43)"/><path id="path331" class="cls-4" d="M-503.83,773.91a1.38,1.38,0,0,0-.84,1.77,1.39,1.39,0,0,0,1.78.84A87.24,87.24,0,0,0-476,761a115.23,115.23,0,0,0,22.35-25.77,1.39,1.39,0,0,0-.4-1.92,1.4,1.4,0,0,0-1.92.4,112.9,112.9,0,0,1-21.82,25.17,84.53,84.53,0,0,1-26.08,15.06h0" transform="translate(693.9 468.43)"/><path id="path332" class="cls-4" d="M-456.64,733a1.38,1.38,0,0,0,.13-2,1.38,1.38,0,0,0-1.95-.12q-12.74,11.08-23.07,21.55a272.11,272.11,0,0,0-18.3,20.32,1.38,1.38,0,0,0,.2,1.94,1.37,1.37,0,0,0,1.95-.2q7.86-9.74,18.12-20.12T-456.64,733h0" transform="translate(693.9 468.43)"/><path id="path333" class="cls-4" d="M-466.95,733.52a1.39,1.39,0,0,0,.22-1.95,1.37,1.37,0,0,0-1.94-.22q-15.09,11.89-22.66,22.57-7.73,10.88-7.74,20.57a1.39,1.39,0,0,0,1.39,1.39,1.39,1.39,0,0,0,1.39-1.39q0-8.79,7.22-19,7.36-10.35,22.12-22h0" transform="translate(693.9 468.43)"/><path id="path334" class="cls-4" d="M-497.3,824.07a1.37,1.37,0,0,0,1.85-.66,1.39,1.39,0,0,0-.65-1.85,66.79,66.79,0,0,1-19.63-14.33A90.37,90.37,0,0,1-531,785a1.38,1.38,0,0,0-1.86-.62,1.39,1.39,0,0,0-.62,1.86,93,93,0,0,0,15.75,22.92,69.35,69.35,0,0,0,20.44,14.94h0" transform="translate(693.9 468.43)"/><path id="path335" class="cls-4" d="M-497.63,817.71a1.37,1.37,0,0,0,2-.1,1.39,1.39,0,0,0-.08-2q-7.8-7.14-17-14.77t-19.88-15.77a1.4,1.4,0,0,0-2,.25,1.4,1.4,0,0,0,.26,1.95q10.55,8.06,19.79,15.72t16.91,14.68h0" transform="translate(693.9 468.43)"/><path id="path336" class="cls-4" d="M-488.38,823a1.37,1.37,0,0,0,1.95.17,1.37,1.37,0,0,0,.18-1.94q-25.28-30.4-48.41-39.27a1.39,1.39,0,0,0-1.79.8,1.39,1.39,0,0,0,.8,1.79q22.44,8.61,47.27,38.45h0" transform="translate(693.9 468.43)"/><path id="path337" class="cls-4" d="M-579.61,854.72a1.39,1.39,0,0,0,1.81-.76,1.38,1.38,0,0,0-.75-1.81,97.76,97.76,0,0,1-24.29-14.38,106.31,106.31,0,0,1-19.79-21.22,1.38,1.38,0,0,0-1.93-.32,1.38,1.38,0,0,0-.33,1.93,108.69,108.69,0,0,0,20.3,21.77,100.92,100.92,0,0,0,25,14.79h0" transform="translate(693.9 468.43)"/><path id="path338" class="cls-4" d="M-570.92,855.32a1.39,1.39,0,0,0,2-.07,1.38,1.38,0,0,0-.06-2,232.42,232.42,0,0,0-27.48-22A254.86,254.86,0,0,0-627.92,813a1.37,1.37,0,0,0-1.86.63,1.39,1.39,0,0,0,.63,1.86,255.69,255.69,0,0,1,31.08,18.08,229,229,0,0,1,27.15,21.71h0" transform="translate(693.9 468.43)"/><path id="path339" class="cls-4" d="M-575.07,844.47a1.39,1.39,0,0,0,2,0,1.39,1.39,0,0,0,0-2A111.85,111.85,0,0,0-599,823a96.57,96.57,0,0,0-29.27-10.09,1.38,1.38,0,0,0-1.6,1.12,1.39,1.39,0,0,0,1.12,1.61,93.73,93.73,0,0,1,28.43,9.82,108.16,108.16,0,0,1,25.28,19" transform="translate(693.9 468.43)"/><path id="path340" class="cls-4" d="M-548.58,733.36a1.39,1.39,0,0,0-1.09-1.63,1.4,1.4,0,0,0-1.63,1.1A114.91,114.91,0,0,1-562.86,766a90.61,90.61,0,0,1-20.21,25.26,1.4,1.4,0,0,0-.13,2,1.38,1.38,0,0,0,2,.12,93.19,93.19,0,0,0,20.81-26,117.65,117.65,0,0,0,11.85-34h0" transform="translate(693.9 468.43)"/><path id="path341" class="cls-4" d="M-555.88,732.31a1.4,1.4,0,0,0-.9-1.75,1.39,1.39,0,0,0-1.75.91q-6.29,19.77-12.62,35.12a217.91,217.91,0,0,1-12.73,26.28,1.38,1.38,0,0,0,.49,1.9,1.39,1.39,0,0,0,1.9-.49,219.43,219.43,0,0,0,12.9-26.64q6.4-15.5,12.71-35.33h0" transform="translate(693.9 468.43)"/><path id="path342" class="cls-4" d="M-563.21,738.73a1.39,1.39,0,0,0-.43-1.92,1.4,1.4,0,0,0-1.92.43,113.1,113.1,0,0,0-13.36,28.47,65,65,0,0,0-2.46,26.13,1.38,1.38,0,0,0,1.54,1.2,1.36,1.36,0,0,0,1.21-1.53,62.31,62.31,0,0,1,2.38-25,110.09,110.09,0,0,1,13-27.75" transform="translate(693.9 468.43)"/><path id="path343" class="cls-4" d="M-681.92,841.57a1.39,1.39,0,0,0,2,.1,1.39,1.39,0,0,0,.08-2,94.15,94.15,0,0,1-13-17.58v5.4a103.92,103.92,0,0,0,11,14" transform="translate(693.9 468.43)"/><path id="path344" class="cls-4" d="M-681.12,842.41a1.38,1.38,0,0,0,1.92.4,1.39,1.39,0,0,0,.4-1.92,73,73,0,0,1-10.87-27.58,96.16,96.16,0,0,1,.28-32.6,1.37,1.37,0,0,0-1.14-1.59,1.38,1.38,0,0,0-1.6,1.13c-.3,1.79-.55,3.56-.77,5.32v25c.15,1.07.31,2.14.5,3.18a75.83,75.83,0,0,0,11.28,28.62h0" transform="translate(693.9 468.43)"/><path id="path345" class="cls-4" d="M-680.9,784.09a1.39,1.39,0,0,0-1.27-1.49,1.39,1.39,0,0,0-1.49,1.27,275.14,275.14,0,0,0-1,33.17,118.88,118.88,0,0,0,3.3,25,1.39,1.39,0,0,0,1.7,1,1.38,1.38,0,0,0,1-1.69,116.94,116.94,0,0,1-3.22-24.38,273.78,273.78,0,0,1,.94-32.84h0" transform="translate(693.9 468.43)"/><path id="path346" class="cls-4" d="M-681.78,914.41a1.36,1.36,0,0,0,1.89-.49,1.37,1.37,0,0,0-.5-1.89q-6.54-3.81-12.51-8.1v3.42q5.34,3.72,11.12,7.06h0" transform="translate(693.9 468.43)"/><path id="path347" class="cls-4" d="M-673.93,912.85a1.36,1.36,0,0,0,1.89-.49,1.38,1.38,0,0,0-.49-1.89q-11-6.4-20.37-12.74v3.35q8.8,5.86,19,11.77" transform="translate(693.9 468.43)"/><path id="path348" class="cls-4" d="M-674.86,904.6a1.38,1.38,0,0,0,2,0,1.38,1.38,0,0,0,0-2,109.76,109.76,0,0,0-20-15.08v3.23a106.86,106.86,0,0,1,18,13.85h0" transform="translate(693.9 468.43)"/><path id="path349" class="cls-3" d="M817.91-448.63a1.63,1.63,0,0,0-1.62,1.62,1.62,1.62,0,0,0,1.62,1.61,1.61,1.61,0,0,0,1.61-1.61A1.61,1.61,0,0,0,817.91-448.63Zm-53.84-8.69a2.55,2.55,0,0,0-2.55,2.55,2.55,2.55,0,0,0,2.55,2.54,2.53,2.53,0,0,0,2.54-2.54A2.53,2.53,0,0,0,764.07-457.32Zm19.61,27.21A5.08,5.08,0,0,0,778.6-425a5.09,5.09,0,0,0,5.08,5.08,5.09,5.09,0,0,0,5.08-5.08A5.08,5.08,0,0,0,783.68-430.11Zm-33.27.59a6.64,6.64,0,0,0-6.64,6.64,6.65,6.65,0,0,0,6.64,6.63,6.64,6.64,0,0,0,6.63-6.63A6.63,6.63,0,0,0,750.41-429.52Zm-24.25-22a5.31,5.31,0,0,0-5.31,5.31,5.32,5.32,0,0,0,5.31,5.32,5.33,5.33,0,0,0,5.32-5.32A5.32,5.32,0,0,0,726.16-451.47Zm-2.53,21.75a3.07,3.07,0,0,0-3.08,3.08,3.07,3.07,0,0,0,3.08,3.07,3.07,3.07,0,0,0,3.06-3.07A3.06,3.06,0,0,0,723.63-429.72Zm-28-26.33a5.24,5.24,0,0,0-5.24,5.24,5.25,5.25,0,0,0,5.24,5.25,5.24,5.24,0,0,0,5.25-5.25A5.23,5.23,0,0,0,695.64-456Zm-2.72,28.61a7.79,7.79,0,0,0-7.79,7.79,7.8,7.8,0,0,0,7.79,7.8,7.8,7.8,0,0,0,7.8-7.8A7.8,7.8,0,0,0,692.92-427.44Zm-22.08-25.47a3.67,3.67,0,0,0-3.67,3.67,3.67,3.67,0,0,0,3.67,3.68,3.67,3.67,0,0,0,3.67-3.68A3.67,3.67,0,0,0,670.84-452.91Zm-23.29,7.67a6.51,6.51,0,0,0-6.51,6.51,6.5,6.5,0,0,0,6.51,6.5,6.5,6.5,0,0,0,6.5-6.5A6.51,6.51,0,0,0,647.55-445.24Zm32,23.81a2.51,2.51,0,0,0-2.52,2.51,2.51,2.51,0,0,0,2.52,2.51,2.51,2.51,0,0,0,2.51-2.51A2.51,2.51,0,0,0,679.52-421.43Zm-20.73,12.15a2.51,2.51,0,0,0-2.52,2.51,2.51,2.51,0,0,0,2.52,2.5,2.5,2.5,0,0,0,2.5-2.5A2.5,2.5,0,0,0,658.79-409.28Zm23.69,13.44a1.68,1.68,0,0,0-1.69,1.69,1.68,1.68,0,0,0,1.69,1.7,1.69,1.69,0,0,0,1.69-1.7A1.69,1.69,0,0,0,682.48-395.84Zm4.25,13.24a2.5,2.5,0,0,0-2.49,2.49,2.5,2.5,0,0,0,2.49,2.5,2.5,2.5,0,0,0,2.5-2.5A2.5,2.5,0,0,0,686.73-382.6Zm34,4.09a2.49,2.49,0,0,0-2.49,2.5,2.49,2.49,0,0,0,2.49,2.49,2.5,2.5,0,0,0,2.5-2.49A2.5,2.5,0,0,0,720.69-378.51Zm19.54-15.72a2.49,2.49,0,0,0-2.5,2.5,2.5,2.5,0,0,0,2.5,2.49,2.5,2.5,0,0,0,2.49-2.49A2.49,2.49,0,0,0,740.23-394.23Zm21.21-3a1.6,1.6,0,0,0-1.6,1.6,1.6,1.6,0,0,0,1.6,1.6,1.6,1.6,0,0,0,1.6-1.6A1.6,1.6,0,0,0,761.44-397.21Zm-34.61,38.4a5.31,5.31,0,0,0-5.32,5.32,5.32,5.32,0,0,0,5.32,5.32,5.31,5.31,0,0,0,5.3-5.32A5.31,5.31,0,0,0,726.83-358.81Zm-26.14-8.66a4.41,4.41,0,0,0-4.41,4.4,4.41,4.41,0,0,0,4.41,4.42,4.41,4.41,0,0,0,4.4-4.42A4.41,4.41,0,0,0,700.69-367.47Zm29.46,33a2.94,2.94,0,0,0-2.94,2.94,2.94,2.94,0,0,0,2.94,2.93,2.93,2.93,0,0,0,2.93-2.93A2.93,2.93,0,0,0,730.15-334.43ZM699-335.59a5.45,5.45,0,0,0-5.44,5.44,5.45,5.45,0,0,0,5.44,5.46,5.45,5.45,0,0,0,5.45-5.46A5.45,5.45,0,0,0,699-335.59Zm22.26,26.91a3.83,3.83,0,0,0-3.82,3.83,3.82,3.82,0,0,0,3.82,3.81,3.82,3.82,0,0,0,3.82-3.81A3.82,3.82,0,0,0,721.21-308.68Zm-25.36,5.76a4.1,4.1,0,0,0-4.09,4.09,4.1,4.1,0,0,0,4.09,4.1,4.1,4.1,0,0,0,4.11-4.1A4.11,4.11,0,0,0,695.85-302.92Zm18.84,17.73a1.91,1.91,0,0,0-1.9,1.92,1.9,1.9,0,0,0,1.9,1.91,1.91,1.91,0,0,0,1.92-1.91A1.92,1.92,0,0,0,714.69-285.19Zm25.11-1.24a4.33,4.33,0,0,0-4.31,4.32,4.31,4.31,0,0,0,4.31,4.31,4.31,4.31,0,0,0,4.32-4.31A4.32,4.32,0,0,0,739.8-286.43ZM750-259.91a2.5,2.5,0,0,0-2.5,2.5,2.49,2.49,0,0,0,2.5,2.49,2.49,2.49,0,0,0,2.49-2.49A2.5,2.5,0,0,0,750-259.91Zm-26.74-4.68a2.49,2.49,0,0,0-2.49,2.5,2.49,2.49,0,0,0,2.49,2.49,2.49,2.49,0,0,0,2.5-2.49A2.5,2.5,0,0,0,723.25-264.59ZM701.67-263a1.24,1.24,0,0,0-1.24,1.25,1.23,1.23,0,0,0,1.24,1.24,1.24,1.24,0,0,0,1.25-1.24A1.25,1.25,0,0,0,701.67-263ZM728-228.12a5.16,5.16,0,0,0-5.16,5.16A5.16,5.16,0,0,0,728-217.8a5.16,5.16,0,0,0,5.14-5.16A5.16,5.16,0,0,0,728-228.12Zm-23.54.47a3.45,3.45,0,0,0-3.45,3.46,3.46,3.46,0,0,0,3.45,3.46,3.46,3.46,0,0,0,3.46-3.46A3.45,3.45,0,0,0,704.45-227.65Zm-23,8.76a2.17,2.17,0,0,0-2.18,2.17,2.18,2.18,0,0,0,2.18,2.19,2.19,2.19,0,0,0,2.18-2.19A2.18,2.18,0,0,0,681.49-218.89ZM706-196.35a2.19,2.19,0,0,0-2.19,2.18A2.18,2.18,0,0,0,706-192a2.17,2.17,0,0,0,2.17-2.18A2.18,2.18,0,0,0,706-196.35Zm27.52,2.1a1.7,1.7,0,0,0-1.71,1.7,1.7,1.7,0,0,0,1.71,1.71,1.7,1.7,0,0,0,1.71-1.71A1.7,1.7,0,0,0,733.48-194.25Zm28.87,16.48a3.82,3.82,0,0,0-3.83,3.82,3.83,3.83,0,0,0,3.83,3.83,3.83,3.83,0,0,0,3.82-3.83A3.82,3.82,0,0,0,762.35-177.77Zm-43.56,8.37a5.62,5.62,0,0,0-5.62,5.61,5.62,5.62,0,0,0,5.62,5.62,5.62,5.62,0,0,0,5.61-5.62A5.61,5.61,0,0,0,718.79-169.4Zm24.84,28.47a1.7,1.7,0,0,0-1.71,1.7,1.7,1.7,0,0,0,1.71,1.71,1.71,1.71,0,0,0,1.7-1.71A1.7,1.7,0,0,0,743.63-140.93Zm70.49,13a2.5,2.5,0,0,0-2.49,2.49,2.5,2.5,0,0,0,2.49,2.49,2.49,2.49,0,0,0,2.48-2.49A2.49,2.49,0,0,0,814.12-127.93ZM785.17-92a3.44,3.44,0,0,0-3.44,3.44,3.45,3.45,0,0,0,3.44,3.44,3.44,3.44,0,0,0,3.43-3.44A3.43,3.43,0,0,0,785.17-92Zm25.72,13.34a2.46,2.46,0,0,0-2.45,2.46,2.44,2.44,0,0,0,2.45,2.45,2.45,2.45,0,0,0,2.46-2.45A2.46,2.46,0,0,0,810.89-78.71Zm-33.28,25.6a2.47,2.47,0,0,0-2.45,2.46,2.45,2.45,0,0,0,2.45,2.45,2.45,2.45,0,0,0,2.46-2.45A2.46,2.46,0,0,0,777.61-53.11Zm29.26,5.16a3,3,0,0,0-3,3.06,3,3,0,0,0,3,3,3,3,0,0,0,3-3A3,3,0,0,0,806.87-47.95Zm25-5.7a2.5,2.5,0,0,0-2.49,2.49,2.49,2.49,0,0,0,2.49,2.48,2.47,2.47,0,0,0,2.48-2.48A2.48,2.48,0,0,0,831.85-53.65ZM866-44.83a2.49,2.49,0,0,0-2.49,2.48,2.5,2.5,0,0,0,2.49,2.5,2.48,2.48,0,0,0,2.48-2.5A2.47,2.47,0,0,0,866-44.83Zm27.46-18.76a3.36,3.36,0,0,0-3.36,3.36,3.35,3.35,0,0,0,3.36,3.36,3.36,3.36,0,0,0,3.36-3.36A3.37,3.37,0,0,0,893.43-63.59Zm19.73.6a1.93,1.93,0,0,0-1.92,1.92,1.93,1.93,0,0,0,1.92,1.92,1.91,1.91,0,0,0,1.92-1.92A1.92,1.92,0,0,0,913.16-63ZM928.57-83.2a3.28,3.28,0,0,0-3.28,3.28,3.28,3.28,0,0,0,3.28,3.27,3.27,3.27,0,0,0,3.28-3.27A3.28,3.28,0,0,0,928.57-83.2Zm4,20.23a5.85,5.85,0,0,0-5.85,5.85,5.86,5.86,0,0,0,5.85,5.85,5.85,5.85,0,0,0,5.86-5.85A5.85,5.85,0,0,0,932.61-63ZM921.77-46a1.92,1.92,0,0,0-1.92,1.92,1.93,1.93,0,0,0,1.92,1.92,1.93,1.93,0,0,0,1.92-1.92A1.92,1.92,0,0,0,921.77-46Zm-5.44.28A2.66,2.66,0,0,0,913.67-43a2.66,2.66,0,0,0,2.66,2.68A2.68,2.68,0,0,0,919-43,2.68,2.68,0,0,0,916.33-45.73Zm-17.57-1.15a3.28,3.28,0,0,0-3.28,3.29,3.28,3.28,0,0,0,3.28,3.28,3.27,3.27,0,0,0,3.29-3.28A3.28,3.28,0,0,0,898.76-46.88Zm13.08,11.36a3.29,3.29,0,0,0-3.29,3.28,3.29,3.29,0,0,0,3.29,3.29,3.28,3.28,0,0,0,3.28-3.29A3.28,3.28,0,0,0,911.84-35.52Zm-21.47.93a4.5,4.5,0,0,0-4.5,4.51,4.5,4.5,0,0,0,4.5,4.51,4.5,4.5,0,0,0,4.51-4.51A4.5,4.5,0,0,0,890.37-34.59ZM931.91-24a2,2,0,0,0-2,2,2,2,0,0,0,2,2,2,2,0,0,0,1.94-2A2,2,0,0,0,931.91-24ZM913.56-7.65a4.86,4.86,0,0,0-4.87,4.86,4.87,4.87,0,0,0,4.87,4.88,4.88,4.88,0,0,0,4.88-4.88A4.87,4.87,0,0,0,913.56-7.65ZM881.11-6A3.08,3.08,0,0,0,878-2.91a3.09,3.09,0,0,0,3.08,3.1,3.1,3.1,0,0,0,3.09-3.1A3.1,3.1,0,0,0,881.11-6ZM858.44,4.4a3.45,3.45,0,1,0,3.44,3.44A3.45,3.45,0,0,0,858.44,4.4Zm-2.85-23.84a2.32,2.32,0,0,0-2.32,2.33,2.32,2.32,0,0,0,2.32,2.32,2.32,2.32,0,0,0,2.32-2.32A2.32,2.32,0,0,0,855.59-19.44ZM840.31-15.2A1.16,1.16,0,0,0,839.15-14a1.16,1.16,0,0,0,1.16,1.16A1.16,1.16,0,0,0,841.47-14,1.16,1.16,0,0,0,840.31-15.2Zm-16.39-7.63a6,6,0,0,0-6,6.06,6,6,0,0,0,6,6,6,6,0,0,0,6.05-6A6,6,0,0,0,823.92-22.83ZM796.13-19.4a3,3,0,0,0-3,3,3,3,0,0,0,3,3,3,3,0,0,0,3-3A3,3,0,0,0,796.13-19.4ZM878.05,20a2.63,2.63,0,1,0,2.63,2.62A2.62,2.62,0,0,0,878.05,20Zm-7.58,19.64a3.69,3.69,0,1,0,3.68,3.69A3.7,3.7,0,0,0,870.47,39.59ZM893,41.25a5.9,5.9,0,1,0,5.9,5.9A5.9,5.9,0,0,0,893,41.25Zm17.71-24.08a5.91,5.91,0,1,0,5.89,5.91A5.92,5.92,0,0,0,910.72,17.17Zm23.92,12.52a3.46,3.46,0,1,0,3.45,3.46A3.44,3.44,0,0,0,934.64,29.69Zm-17,19.39a2.13,2.13,0,1,0,0,4.25,2.13,2.13,0,0,0,0-4.25Zm-21.54,5.45a1.55,1.55,0,1,0,1.55,1.55A1.55,1.55,0,0,0,896.05,54.53Zm32.68,13.39a2,2,0,1,0,2,2A2,2,0,0,0,928.73,67.92Zm-33.49,5a2.26,2.26,0,1,0,2.25,2.25A2.25,2.25,0,0,0,895.24,72.88Zm17.15,3.39a4.49,4.49,0,1,0,4.49,4.48A4.49,4.49,0,0,0,912.39,76.27Zm28.08,35.45V102.8a4.71,4.71,0,0,0-1.94-.4,4.86,4.86,0,1,0,0,9.72A5.06,5.06,0,0,0,940.47,111.72ZM775.29-468.43h-5.08v.2a2.54,2.54,0,0,0,2.55,2.55,2.55,2.55,0,0,0,2.55-2.55C775.31-468.29,775.29-468.36,775.29-468.43Zm67,0H831.57a5.88,5.88,0,0,0-.34,2,5.68,5.68,0,0,0,5.69,5.68,5.69,5.69,0,0,0,5.68-5.68,5.65,5.65,0,0,0-.35-2Zm-49.72,1.92a5.08,5.08,0,0,0-5.08,5.08,5.07,5.07,0,0,0,5.08,5.08,5.07,5.07,0,0,0,5.08-5.08,5.09,5.09,0,0,0-5.08-5.08" transform="translate(693.9 468.43)"/><path id="path309-2" data-name="path309" class="cls-4" d="M-692.9-49.21a59.3,59.3,0,0,1,6.83-8.65,3.17,3.17,0,0,0,1-1.9,3.13,3.13,0,0,0-2.62-3.56h0c-1.78-.26-3.53-.48-5.25-.64v14.75" transform="translate(693.9 468.43)"/><path id="path322-2" data-name="path322" class="cls-4" d="M-692.9-142.53h0v-7.36c72.32,45.12,144.19,87,244.2,75.41l.72,6.22C-548.57-56.65-620.73-97.62-692.9-142.53" transform="translate(693.9 468.43)"/><path id="path323-2" data-name="path323" class="cls-4" d="M-373.43-68l2.3-2.12a3.13,3.13,0,0,1-.19,4.43,3.12,3.12,0,0,1-1.71.8c-11.83,2.49-19.55,6.52-25.85,9.8-15.43,8-23.2,12.08-55.9-13.67v0a3.13,3.13,0,0,1-.52-4.4,3.1,3.1,0,0,1,1.23-.94q52.69-29,82.94,4L-373.43-68Zm-73.7-2.72h0c26.32,20,32.88,16.58,45.35,10.08a102.93,102.93,0,0,1,22.15-9.09q-25.29-22.56-67.5-1" transform="translate(693.9 468.43)"/><path id="path324-2" data-name="path324" class="cls-4" d="M-396.19-70.12q-14.7-1.77-28.73-2.16a263.1,263.1,0,0,0-27.37.63,1.37,1.37,0,0,0-1.27,1.48,1.39,1.39,0,0,0,1.48,1.28A263,263,0,0,1-425-69.52q13.88.39,28.48,2.15a1.38,1.38,0,0,0,1.54-1.2,1.39,1.39,0,0,0-1.21-1.55Zm1,6.23q-15.41-1.19-28-2-12.81-.85-23.72-1.49a1.39,1.39,0,0,0-1.47,1.3A1.4,1.4,0,0,0-447-64.65q10.65.6,23.69,1.49,13.25.9,28,2a1.38,1.38,0,0,0,1.49-1.28,1.37,1.37,0,0,0-1.27-1.48Zm-2.66-11.56h0a104.79,104.79,0,0,0-23-2.09,188.7,188.7,0,0,0-28,2.56A1.38,1.38,0,0,0-450-73.4a1.39,1.39,0,0,0,1.59,1.16,186,186,0,0,1,27.55-2.53,102.13,102.13,0,0,1,22.43,2,1.4,1.4,0,0,0,1.65-1.06,1.39,1.39,0,0,0-1.06-1.65" transform="translate(693.9 468.43)"/><path id="path325-2" data-name="path325" class="cls-4" d="M-442.54-13.8l3.07-.65a3.15,3.15,0,0,1-2.41,3.72,3.14,3.14,0,0,1-2.18-.33c-3.91-1.76-9.13-3-14.72-4.39-21.67-5.27-48.52-11.79-44.58-54.24h0A3.14,3.14,0,0,1-500-72.52l.26,0q49,5.55,60.22,58l-3.06.65Zm-54.83-52.06C-499.14-31.69-476-26.09-457.3-21.53c3.64.88,7.13,1.73,10.34,2.75Q-458.1-60-497.37-65.86" transform="translate(693.9 468.43)"/><path id="path326-2" data-name="path326" class="cls-4" d="M-486.56-105.16c-8.37,15.67-14.82,27.74-50.16,32h0a3.13,3.13,0,0,1-3.49-2.72,3.18,3.18,0,0,1,.29-1.74q11.11-29.52,27-42.72,16.4-13.68,37.58-9.94l-.54,3.07.54-3.08a3.14,3.14,0,0,1,2.54,3.63,3.11,3.11,0,0,1-.88,1.68c-6,6.94-9.58,13.65-12.85,19.77Zm4.66-19.56h0a37.81,37.81,0,0,0-27.05,9.22q-13.35,11.11-23.3,35.44c27.57-4.43,33.12-14.8,40.2-28.06a120.26,120.26,0,0,1,10.15-16.6" transform="translate(693.9 468.43)"/><path id="path327-2" data-name="path327" class="cls-4" d="M-584.22-89v0a3.14,3.14,0,0,1,3.45-1Q-563.15-85.62-554-72.7t9.54,33.8a99.81,99.81,0,0,0,1.59,16A60.21,60.21,0,0,0-539-10h0a3.11,3.11,0,0,1-1.61,4.12,3.11,3.11,0,0,1-3-.23Q-579.77-26-590.14-46.36-601-67.72-584.22-89Zm36.61,73.37h0c-.54-1.95-1-4-1.42-6.11a104.68,104.68,0,0,1-1.71-17q-.45-19.05-8.41-30.33-7.35-10.39-21.41-14.41-12.68,17.3-4,34.29,8.49,16.7,37,33.6" transform="translate(693.9 468.43)"/><path id="path328-2" data-name="path328" class="cls-4" d="M-594.81-150q-16.61,10.65-29.44,39.2c28.24,7.55,40.68-10.69,53.09-28.9,3.41-5,6.83-10,10.59-14.62q-18.93-5.47-34.24,4.32Zm40.52-8.81h0a3,3,0,0,1,1.25.71,3.11,3.11,0,0,1,.19,4.41l-2.31-2.12,2.29,2.12c-4.71,5.13-8.92,11.32-13.14,17.51-14.19,20.82-28.4,41.68-63.35,30.4a1.9,1.9,0,0,1-.4-.14,3.12,3.12,0,0,1-1.65-4.1l2.88,1.22-2.88-1.22q14.07-33,33.23-45.23,19.57-12.54,43.89-3.56" transform="translate(693.9 468.43)"/><path id="path329-2" data-name="path329" class="cls-4" d="M-688.63-58.18a61.17,61.17,0,0,0,13.8-33.31q1.8-19.07-7.41-42a76.5,76.5,0,0,0-10.66,6.61v-7.63a97.23,97.23,0,0,1,10.9-6.09h0a3.12,3.12,0,0,1,4.18,1.45,3.61,3.61,0,0,1,.16.42q11.1,26.1,9,47.88-2.1,22.11-17.68,39.6h0a3.13,3.13,0,0,1-4.42.25,2.87,2.87,0,0,1-.44-.49c-.6-.68-1.18-1.36-1.75-2V-63.5c1.34,1.74,2.76,3.52,4.27,5.32" transform="translate(693.9 468.43)"/><path id="path330-2" data-name="path330" class="cls-4" d="M-692.9-207.76h0v-7.06q14.89-6,34.8-3h0a3.12,3.12,0,0,1,2.62,3.56,3.07,3.07,0,0,1-1,1.89c-6.06,6.3-9.87,13.5-13.45,20.23-5.75,10.81-10.93,20.56-22.93,25.08v-7.2c8.66-4.35,12.83-12.2,17.42-20.81,3-5.64,6.14-11.56,10.64-17.24q-16-1.26-28.06,4.58" transform="translate(693.9 468.43)"/><path id="path331-2" data-name="path331" class="cls-4" d="M-503.83-68.38h0a84.5,84.5,0,0,1,26.08,15,113.13,113.13,0,0,1,21.82,25.17,1.39,1.39,0,0,0,1.92.4,1.39,1.39,0,0,0,.4-1.92A115.45,115.45,0,0,0-476-55.45,87.24,87.24,0,0,0-502.89-71a1.4,1.4,0,0,0-1.78.84,1.4,1.4,0,0,0,.84,1.78" transform="translate(693.9 468.43)"/><path id="path332-2" data-name="path332" class="cls-4" d="M-456.64-27.44h0q-12.66-11-22.92-21.41T-497.68-69a1.37,1.37,0,0,0-1.95-.2,1.39,1.39,0,0,0-.2,2q7.95,9.84,18.3,20.32t23.07,21.54a1.37,1.37,0,0,0,1.95-.12,1.38,1.38,0,0,0-.13-2" transform="translate(693.9 468.43)"/><path id="path333-2" data-name="path333" class="cls-4" d="M-466.95-28h0q-14.76-11.64-22.12-22-7.21-10.16-7.22-19a1.39,1.39,0,0,0-1.39-1.39A1.39,1.39,0,0,0-499.07-69q0,9.7,7.74,20.57,7.57,10.67,22.66,22.58a1.37,1.37,0,0,0,1.94-.23,1.39,1.39,0,0,0-.22-1.95" transform="translate(693.9 468.43)"/><path id="path334-2" data-name="path334" class="cls-4" d="M-497.3-118.54h0a69.13,69.13,0,0,0-20.44,14.93,93.17,93.17,0,0,0-15.75,22.92,1.4,1.4,0,0,0,.62,1.87,1.4,1.4,0,0,0,1.86-.63,90.31,90.31,0,0,1,15.28-22.25A66.82,66.82,0,0,1-496.1-116a1.39,1.39,0,0,0,.65-1.85,1.36,1.36,0,0,0-1.85-.65" transform="translate(693.9 468.43)"/><path id="path335-2" data-name="path335" class="cls-4" d="M-497.63-112.18h0q-7.72,7.08-16.91,14.68t-19.79,15.72a1.38,1.38,0,0,0-.26,1.94,1.41,1.41,0,0,0,2,.26q10.73-8.2,19.88-15.78t17-14.77a1.39,1.39,0,0,0,.08-2,1.38,1.38,0,0,0-2-.09" transform="translate(693.9 468.43)"/><path id="path336-2" data-name="path336" class="cls-4" d="M-488.38-117.52h0q-24.83,29.85-47.27,38.46a1.38,1.38,0,0,0-.8,1.78,1.39,1.39,0,0,0,1.79.8q23.13-8.88,48.41-39.26a1.38,1.38,0,0,0-.18-2,1.39,1.39,0,0,0-1.95.17" transform="translate(693.9 468.43)"/><path id="path337-2" data-name="path337" class="cls-4" d="M-579.61-149.2h0a101.23,101.23,0,0,0-25,14.79,109,109,0,0,0-20.3,21.77,1.4,1.4,0,0,0,.33,1.94,1.39,1.39,0,0,0,1.93-.32,106.1,106.1,0,0,1,19.79-21.23,97.72,97.72,0,0,1,24.29-14.37,1.4,1.4,0,0,0,.75-1.82,1.4,1.4,0,0,0-1.81-.76" transform="translate(693.9 468.43)"/><path id="path338-2" data-name="path338" class="cls-4" d="M-570.92-149.8h0a229,229,0,0,1-27.15,21.71A254.39,254.39,0,0,1-629.15-110a1.4,1.4,0,0,0-.63,1.87,1.37,1.37,0,0,0,1.86.62,254.86,254.86,0,0,0,31.42-18.29,232.42,232.42,0,0,0,27.48-22,1.38,1.38,0,0,0,.06-2,1.39,1.39,0,0,0-2-.07" transform="translate(693.9 468.43)"/><path id="path339-2" data-name="path339" class="cls-4" d="M-575.07-138.94a108.44,108.44,0,0,1-25.28,19,93.44,93.44,0,0,1-28.43,9.81,1.39,1.39,0,0,0-1.12,1.61,1.38,1.38,0,0,0,1.6,1.12A96.3,96.3,0,0,0-599-117.49,111.8,111.8,0,0,0-573.11-137a1.39,1.39,0,0,0,0-2,1.37,1.37,0,0,0-2,0" transform="translate(693.9 468.43)"/><path id="path340-2" data-name="path340" class="cls-4" d="M-548.58-27.84h0a117.65,117.65,0,0,0-11.85-34,93.19,93.19,0,0,0-20.81-26,1.39,1.39,0,0,0-2,.12,1.4,1.4,0,0,0,.13,2,90.65,90.65,0,0,1,20.21,25.27A114.7,114.7,0,0,1-551.3-27.3a1.39,1.39,0,0,0,1.63,1.09,1.39,1.39,0,0,0,1.09-1.63" transform="translate(693.9 468.43)"/><path id="path341-2" data-name="path341" class="cls-4" d="M-555.88-26.78h0q-6.32-19.84-12.71-35.34a220.16,220.16,0,0,0-12.9-26.64,1.39,1.39,0,0,0-1.9-.49,1.4,1.4,0,0,0-.49,1.91,216.44,216.44,0,0,1,12.73,26.28q6.33,15.33,12.62,35.12a1.4,1.4,0,0,0,1.75.9,1.39,1.39,0,0,0,.9-1.74" transform="translate(693.9 468.43)"/><path id="path342-2" data-name="path342" class="cls-4" d="M-563.21-33.21a110.09,110.09,0,0,1-13-27.75,62.28,62.28,0,0,1-2.38-25,1.37,1.37,0,0,0-1.21-1.54,1.38,1.38,0,0,0-1.54,1.2,65,65,0,0,0,2.46,26.14,113.05,113.05,0,0,0,13.36,28.46,1.39,1.39,0,0,0,1.92.43,1.39,1.39,0,0,0,.43-1.92" transform="translate(693.9 468.43)"/><path id="path343-2" data-name="path343" class="cls-4" d="M-681.92-136a104.55,104.55,0,0,0-11,14v5.4a93.78,93.78,0,0,1,13-17.57,1.39,1.39,0,0,0-.08-2,1.39,1.39,0,0,0-2,.09" transform="translate(693.9 468.43)"/><path id="path344-2" data-name="path344" class="cls-4" d="M-681.12-136.89h0a75.88,75.88,0,0,0-11.28,28.63c-.19,1-.35,2.1-.5,3.17v25c.22,1.76.47,3.53.77,5.32a1.38,1.38,0,0,0,1.6,1.13,1.37,1.37,0,0,0,1.14-1.58,96.16,96.16,0,0,1-.28-32.6,73,73,0,0,1,10.87-27.59,1.39,1.39,0,0,0-.4-1.92,1.38,1.38,0,0,0-1.92.4" transform="translate(693.9 468.43)"/><path id="path345-2" data-name="path345" class="cls-4" d="M-680.9-78.57h0a273.73,273.73,0,0,1-.94-32.84,116.83,116.83,0,0,1,3.22-24.37,1.38,1.38,0,0,0-1-1.7,1.4,1.4,0,0,0-1.7,1,118.88,118.88,0,0,0-3.3,25,275.36,275.36,0,0,0,1,33.18,1.38,1.38,0,0,0,1.49,1.26,1.39,1.39,0,0,0,1.27-1.49" transform="translate(693.9 468.43)"/><path id="path346-2" data-name="path346" class="cls-4" d="M-681.78-208.89h0q-5.79,3.34-11.12,7.07v3.41q6-4.31,12.51-8.09a1.39,1.39,0,0,0,.5-1.9,1.37,1.37,0,0,0-1.89-.49" transform="translate(693.9 468.43)"/><path id="path347-2" data-name="path347" class="cls-4" d="M-673.93-207.33q-10.16,5.9-19,11.77v3.35q9.39-6.34,20.37-12.73a1.39,1.39,0,0,0,.49-1.9,1.37,1.37,0,0,0-1.89-.49" transform="translate(693.9 468.43)"/><path id="path348-2" data-name="path348" class="cls-4" d="M-674.86-199.08h0a107.44,107.44,0,0,1-18,13.86V-182a109.76,109.76,0,0,0,20-15.08,1.38,1.38,0,0,0,0-2,1.38,1.38,0,0,0-2,0" transform="translate(693.9 468.43)"/><path id="path309-3" data-name="path309" class="cls-4" d="M-692.9-181.21a59.3,59.3,0,0,1,6.83-8.65,3.17,3.17,0,0,0,1-1.9,3.13,3.13,0,0,0-2.62-3.56h0c-1.78-.26-3.53-.48-5.25-.64v14.75" transform="translate(693.9 468.43)"/><path id="path322-3" data-name="path322" class="cls-4" d="M-693.9-299.53h0v-7.36c72.32,45.12,144.19,87,244.2,75.41l.72,6.22c-100.59,11.61-172.75-29.36-244.92-74.27" transform="translate(693.9 468.43)"/><path id="path323-3" data-name="path323" class="cls-4" d="M-374.43-225l2.3-2.12a3.13,3.13,0,0,1-.19,4.43,3.12,3.12,0,0,1-1.71.8c-11.83,2.49-19.55,6.52-25.85,9.8-15.43,8-23.2,12.08-55.9-13.67v0a3.13,3.13,0,0,1-.52-4.4,3.1,3.1,0,0,1,1.23-.94q52.69-29,82.94,4l-2.29,2.12Zm-73.7-2.72h0c26.32,20,32.88,16.58,45.35,10.08a102.93,102.93,0,0,1,22.15-9.09q-25.29-22.56-67.5-1" transform="translate(693.9 468.43)"/><path id="path324-3" data-name="path324" class="cls-4" d="M-397.19-227.12q-14.7-1.77-28.73-2.16a263.1,263.1,0,0,0-27.37.63,1.37,1.37,0,0,0-1.27,1.48,1.39,1.39,0,0,0,1.48,1.28,263,263,0,0,1,27.08-.63q13.88.39,28.48,2.15a1.38,1.38,0,0,0,1.54-1.2,1.39,1.39,0,0,0-1.21-1.55Zm1,6.23q-15.41-1.19-28-2-12.81-.85-23.72-1.49a1.39,1.39,0,0,0-1.47,1.3,1.4,1.4,0,0,0,1.31,1.47q10.65.6,23.69,1.49,13.25.9,28,2a1.38,1.38,0,0,0,1.49-1.28,1.37,1.37,0,0,0-1.27-1.48Zm-2.66-11.56h0a104.79,104.79,0,0,0-23-2.09,188.7,188.7,0,0,0-28,2.56A1.38,1.38,0,0,0-451-230.4a1.39,1.39,0,0,0,1.59,1.16,186,186,0,0,1,27.55-2.53,102.13,102.13,0,0,1,22.43,2,1.4,1.4,0,0,0,1.65-1.06,1.39,1.39,0,0,0-1.06-1.65" transform="translate(693.9 468.43)"/><path id="path325-3" data-name="path325" class="cls-4" d="M-443.54-170.8l3.07-.65a3.15,3.15,0,0,1-2.41,3.72,3.14,3.14,0,0,1-2.18-.33c-3.91-1.76-9.13-3-14.72-4.39-21.67-5.27-48.52-11.79-44.58-54.24h0a3.14,3.14,0,0,1,3.41-2.83l.26,0q49,5.55,60.22,58l-3.06.65Zm-54.83-52.06c-1.77,34.17,21.32,39.77,40.07,44.33,3.64.88,7.13,1.73,10.34,2.75Q-459.1-217-498.37-222.86" transform="translate(693.9 468.43)"/><path id="path326-3" data-name="path326" class="cls-4" d="M-487.56-262.16c-8.37,15.67-14.82,27.74-50.16,32h0a3.13,3.13,0,0,1-3.49-2.72,3.18,3.18,0,0,1,.29-1.74q11.11-29.52,27-42.72,16.4-13.68,37.58-9.94l-.54,3.07.54-3.08a3.14,3.14,0,0,1,2.54,3.63,3.11,3.11,0,0,1-.88,1.68c-6,6.94-9.58,13.65-12.85,19.77Zm4.66-19.56h0a37.81,37.81,0,0,0-27.05,9.22q-13.35,11.12-23.3,35.44c27.57-4.43,33.12-14.8,40.2-28.06a120.26,120.26,0,0,1,10.15-16.6" transform="translate(693.9 468.43)"/><path id="path327-3" data-name="path327" class="cls-4" d="M-585.22-246v0a3.14,3.14,0,0,1,3.45-1q17.63,4.4,26.74,17.32t9.54,33.8a99.81,99.81,0,0,0,1.59,16A60.21,60.21,0,0,0-540-167h0a3.11,3.11,0,0,1-1.61,4.12,3.11,3.11,0,0,1-3-.23q-36.17-19.87-46.54-40.24Q-602-224.72-585.22-246Zm36.61,73.37h0c-.54-1.95-1-4-1.42-6.11a104.68,104.68,0,0,1-1.71-17q-.45-19.05-8.41-30.33-7.35-10.4-21.41-14.41-12.68,17.3-4,34.29,8.49,16.69,37,33.6" transform="translate(693.9 468.43)"/><path id="path328-3" data-name="path328" class="cls-4" d="M-595.81-307q-16.61,10.65-29.44,39.2c28.24,7.55,40.68-10.69,53.09-28.9,3.41-5,6.83-10,10.59-14.62q-18.93-5.48-34.24,4.32Zm40.52-8.81h0a3,3,0,0,1,1.25.71,3.11,3.11,0,0,1,.19,4.41l-2.31-2.12,2.29,2.12c-4.71,5.13-8.92,11.32-13.14,17.51-14.19,20.82-28.4,41.68-63.35,30.4a1.9,1.9,0,0,1-.4-.14,3.12,3.12,0,0,1-1.65-4.1l2.88,1.22-2.88-1.22q14.07-33,33.23-45.23,19.57-12.54,43.89-3.56" transform="translate(693.9 468.43)"/><path id="path330-3" data-name="path330" class="cls-4" d="M-692.9-339.76h0v-7.06q14.89-6,34.8-3h0a3.12,3.12,0,0,1,2.62,3.56,3.07,3.07,0,0,1-1,1.89c-6.06,6.3-9.87,13.5-13.45,20.23-5.75,10.81-10.93,20.56-22.93,25.08v-7.2c8.66-4.35,12.83-12.2,17.42-20.81,3-5.64,6.14-11.56,10.64-17.24q-16-1.26-28.06,4.58" transform="translate(693.9 468.43)"/><path id="path331-3" data-name="path331" class="cls-4" d="M-504.83-225.38h0a84.5,84.5,0,0,1,26.08,15,113.13,113.13,0,0,1,21.82,25.17,1.39,1.39,0,0,0,1.92.4,1.39,1.39,0,0,0,.4-1.92A115.45,115.45,0,0,0-477-212.45,87.24,87.24,0,0,0-503.89-228a1.4,1.4,0,0,0-1.78.84,1.4,1.4,0,0,0,.84,1.78" transform="translate(693.9 468.43)"/><path id="path332-3" data-name="path332" class="cls-4" d="M-457.64-184.44h0q-12.66-11-22.92-21.41T-498.68-226a1.37,1.37,0,0,0-1.95-.2,1.39,1.39,0,0,0-.2,1.95q7.95,9.84,18.3,20.32t23.07,21.54a1.37,1.37,0,0,0,1.95-.12,1.38,1.38,0,0,0-.13-2" transform="translate(693.9 468.43)"/><path id="path333-3" data-name="path333" class="cls-4" d="M-467.95-185h0q-14.76-11.64-22.12-22-7.21-10.16-7.22-19a1.39,1.39,0,0,0-1.39-1.39,1.39,1.39,0,0,0-1.39,1.39q0,9.71,7.74,20.57,7.57,10.67,22.66,22.58a1.37,1.37,0,0,0,1.94-.23,1.39,1.39,0,0,0-.22-1.95" transform="translate(693.9 468.43)"/><path id="path334-3" data-name="path334" class="cls-4" d="M-498.3-275.54h0a69.13,69.13,0,0,0-20.44,14.93,93.17,93.17,0,0,0-15.75,22.92,1.4,1.4,0,0,0,.62,1.87,1.4,1.4,0,0,0,1.86-.63,90.31,90.31,0,0,1,15.28-22.25A66.82,66.82,0,0,1-497.1-273a1.39,1.39,0,0,0,.65-1.85,1.36,1.36,0,0,0-1.85-.65" transform="translate(693.9 468.43)"/><path id="path335-3" data-name="path335" class="cls-4" d="M-498.63-269.18h0q-7.72,7.08-16.91,14.68t-19.79,15.72a1.38,1.38,0,0,0-.26,1.94,1.41,1.41,0,0,0,2,.26q10.73-8.21,19.88-15.78t17-14.77a1.39,1.39,0,0,0,.08-2,1.38,1.38,0,0,0-2-.09" transform="translate(693.9 468.43)"/><path id="path336-3" data-name="path336" class="cls-4" d="M-489.38-274.52h0q-24.83,29.85-47.27,38.46a1.38,1.38,0,0,0-.8,1.78,1.39,1.39,0,0,0,1.79.8q23.13-8.88,48.41-39.26a1.38,1.38,0,0,0-.18-1.95,1.39,1.39,0,0,0-1.95.17" transform="translate(693.9 468.43)"/><path id="path337-3" data-name="path337" class="cls-4" d="M-580.61-306.2h0a101.23,101.23,0,0,0-25,14.79,109,109,0,0,0-20.3,21.77,1.4,1.4,0,0,0,.33,1.94,1.39,1.39,0,0,0,1.93-.32,106.1,106.1,0,0,1,19.79-21.23,97.72,97.72,0,0,1,24.29-14.37,1.4,1.4,0,0,0,.75-1.82,1.4,1.4,0,0,0-1.81-.76" transform="translate(693.9 468.43)"/><path id="path338-3" data-name="path338" class="cls-4" d="M-571.92-306.8h0a229,229,0,0,1-27.15,21.71A254.39,254.39,0,0,1-630.15-267a1.4,1.4,0,0,0-.63,1.87,1.37,1.37,0,0,0,1.86.62,254.86,254.86,0,0,0,31.42-18.29,232.42,232.42,0,0,0,27.48-22,1.38,1.38,0,0,0,.06-2,1.39,1.39,0,0,0-2-.07" transform="translate(693.9 468.43)"/><path id="path339-3" data-name="path339" class="cls-4" d="M-576.07-295.94a108.44,108.44,0,0,1-25.28,19,93.44,93.44,0,0,1-28.43,9.81,1.39,1.39,0,0,0-1.12,1.61,1.38,1.38,0,0,0,1.6,1.12A96.3,96.3,0,0,0-600-274.49,111.8,111.8,0,0,0-574.11-294a1.39,1.39,0,0,0,0-2,1.37,1.37,0,0,0-2,0" transform="translate(693.9 468.43)"/><path id="path340-3" data-name="path340" class="cls-4" d="M-549.58-184.84h0a117.65,117.65,0,0,0-11.85-34,93.19,93.19,0,0,0-20.81-26,1.39,1.39,0,0,0-2,.12,1.4,1.4,0,0,0,.13,2,90.65,90.65,0,0,1,20.21,25.27A114.7,114.7,0,0,1-552.3-184.3a1.39,1.39,0,0,0,1.63,1.09,1.39,1.39,0,0,0,1.09-1.63" transform="translate(693.9 468.43)"/><path id="path341-3" data-name="path341" class="cls-4" d="M-556.88-183.78h0q-6.32-19.84-12.71-35.34a220.16,220.16,0,0,0-12.9-26.64,1.39,1.39,0,0,0-1.9-.49,1.4,1.4,0,0,0-.49,1.91,216.44,216.44,0,0,1,12.73,26.28q6.33,15.33,12.62,35.12a1.4,1.4,0,0,0,1.75.9,1.39,1.39,0,0,0,.9-1.74" transform="translate(693.9 468.43)"/><path id="path342-3" data-name="path342" class="cls-4" d="M-564.21-190.21a110.09,110.09,0,0,1-13-27.75,62.28,62.28,0,0,1-2.38-25,1.37,1.37,0,0,0-1.21-1.54,1.38,1.38,0,0,0-1.54,1.2,65,65,0,0,0,2.46,26.14,113.05,113.05,0,0,0,13.36,28.46,1.39,1.39,0,0,0,1.92.43,1.39,1.39,0,0,0,.43-1.92" transform="translate(693.9 468.43)"/><path id="path346-3" data-name="path346" class="cls-4" d="M-681.78-340.89h0q-5.79,3.34-11.12,7.07v3.41q6-4.3,12.51-8.09a1.39,1.39,0,0,0,.5-1.9,1.37,1.37,0,0,0-1.89-.49" transform="translate(693.9 468.43)"/><path id="path347-3" data-name="path347" class="cls-4" d="M-673.93-339.33q-10.16,5.9-19,11.77v3.35q9.39-6.35,20.37-12.73a1.39,1.39,0,0,0,.49-1.9,1.37,1.37,0,0,0-1.89-.49" transform="translate(693.9 468.43)"/><path id="path348-3" data-name="path348" class="cls-4" d="M-674.86-331.08h0a107.44,107.44,0,0,1-18,13.86V-314a109.76,109.76,0,0,0,20-15.08,1.38,1.38,0,0,0,0-2,1.38,1.38,0,0,0-2,0" transform="translate(693.9 468.43)"/></svg>